<svg xmlns="http://www.w3.org/2000/svg" viewBox="0 0 600 200" width="600" height="200" role="img" aria-label="RateRadar live odds for ECB 2026-06-11"><rect width="600" height="200" fill="#F5F1E8"/><text x="20" y="30" font-family="sans-serif" font-size="11" letter-spacing="1.5" fill="#7A7570">EUROPEAN CENTRAL BANK · JUN 11, 2026</text><text x="20" y="80" font-family="Georgia, serif" font-size="32" fill="#0E0E0E">Hold rates</text><text x="20" y="130" font-family="monospace" font-size="42" fill="#3E5640">56%</text><text x="20" y="155" font-family="sans-serif" font-size="11" fill="#7A7570">market-implied probability</text><path d="M 360.0,95.4 L 367.9,95.4 L 375.7,95.4 L 383.6,95.4 L 391.4,95.4 L 399.3,95.4 L 407.1,95.4 L 415.0,95.4 L 422.9,95.4 L 430.7,95.4 L 438.6,95.4 L 446.4,95.4 L 454.3,95.4 L 462.1,95.4 L 470.0,95.4 L 477.9,95.4 L 485.7,95.4 L 493.6,95.4 L 501.4,95.4 L 509.3,95.4 L 517.1,95.4 L 525.0,95.4 L 532.9,95.4 L 540.7,95.4 L 548.6,95.4 L 556.4,95.4 L 564.3,95.4 L 572.1,95.4 L 580.0,95.4" stroke="#3E5640" stroke-width="1.5" fill="none"/><line x1="20" y1="180" x2="580" y2="180" stroke="#0E0E0E33"/><text x="20" y="195" font-family="sans-serif" font-size="10" fill="#7A7570">Powered by RateRadar · rateradar-web.vercel.app</text></svg>