<svg xmlns="http://www.w3.org/2000/svg" viewBox="0 0 600 200" width="600" height="200" role="img" aria-label="RateRadar live odds for ECB 2026-09-10"><rect width="600" height="200" fill="#F5F1E8"/><text x="20" y="30" font-family="sans-serif" font-size="11" letter-spacing="1.5" fill="#7A7570">EUROPEAN CENTRAL BANK · SEP 10, 2026</text><text x="20" y="80" font-family="Georgia, serif" font-size="32" fill="#0E0E0E">Hold rates</text><text x="20" y="130" font-family="monospace" font-size="42" fill="#3E5640">100%</text><text x="20" y="155" font-family="sans-serif" font-size="11" fill="#7A7570">market-implied probability</text><path d="M 360.0,66.1 L 363.4,66.1 L 366.8,66.1 L 370.2,66.1 L 373.5,66.1 L 376.9,66.1 L 380.3,66.1 L 383.7,66.1 L 387.1,66.1 L 390.5,66.1 L 393.8,66.1 L 397.2,66.1 L 400.6,66.1 L 404.0,66.1 L 407.4,66.1 L 410.8,66.1 L 414.2,66.1 L 417.5,66.1 L 420.9,66.1 L 424.3,66.1 L 427.7,66.1 L 431.1,66.1 L 434.5,66.1 L 437.8,66.1 L 441.2,66.1 L 444.6,66.1 L 448.0,66.1 L 451.4,66.1 L 454.8,66.1 L 458.2,66.1 L 461.5,66.1 L 464.9,60.0 L 468.3,60.0 L 471.7,60.0 L 475.1,60.0 L 478.5,60.0 L 481.8,60.0 L 485.2,60.0 L 488.6,60.0 L 492.0,60.0 L 495.4,60.0 L 498.8,60.0 L 502.2,60.0 L 505.5,60.0 L 508.9,60.0 L 512.3,60.0 L 515.7,60.0 L 519.1,60.0 L 522.5,60.0 L 525.8,60.0 L 529.2,60.0 L 532.6,60.0 L 536.0,60.0 L 539.4,60.0 L 542.8,60.0 L 546.2,60.0 L 549.5,60.0 L 552.9,60.0 L 556.3,60.0 L 559.7,60.0 L 563.1,60.0 L 566.5,60.0 L 569.8,60.0 L 573.2,60.0 L 576.6,60.0 L 580.0,60.0" stroke="#3E5640" stroke-width="1.5" fill="none"/><line x1="20" y1="180" x2="580" y2="180" stroke="#0E0E0E33"/><text x="20" y="195" font-family="sans-serif" font-size="10" fill="#7A7570">Powered by RateRadar · rateradar-web.vercel.app</text></svg>