<svg xmlns="http://www.w3.org/2000/svg" viewBox="0 0 600 200" width="600" height="200" role="img" aria-label="RateRadar live odds for ECB 2026-12-17"><rect width="600" height="200" fill="#F5F1E8"/><text x="20" y="30" font-family="sans-serif" font-size="11" letter-spacing="1.5" fill="#7A7570">EUROPEAN CENTRAL BANK · DEC 17, 2026</text><text x="20" y="80" font-family="Georgia, serif" font-size="32" fill="#0E0E0E">Hold rates</text><text x="20" y="130" font-family="monospace" font-size="42" fill="#3E5640">100%</text><text x="20" y="155" font-family="sans-serif" font-size="11" fill="#7A7570">market-implied probability</text><path d="M 360.0,140.0 L 362.2,140.0 L 364.4,140.0 L 366.5,140.0 L 368.7,140.0 L 370.9,140.0 L 373.1,140.0 L 375.2,140.0 L 377.4,140.0 L 379.6,140.0 L 381.8,140.0 L 384.0,140.0 L 386.1,140.0 L 388.3,140.0 L 390.5,140.0 L 392.7,140.0 L 394.9,140.0 L 397.0,140.0 L 399.2,140.0 L 401.4,140.0 L 403.6,140.0 L 405.7,140.0 L 407.9,140.0 L 410.1,140.0 L 412.3,140.0 L 414.5,140.0 L 416.6,140.0 L 418.8,140.0 L 421.0,140.0 L 423.2,140.0 L 425.3,140.0 L 427.5,60.0 L 429.7,60.0 L 431.9,60.0 L 434.1,60.0 L 436.2,60.0 L 438.4,60.0 L 440.6,60.0 L 442.8,60.0 L 445.0,60.0 L 447.1,60.0 L 449.3,60.0 L 451.5,60.0 L 453.7,60.0 L 455.8,60.0 L 458.0,60.0 L 460.2,60.0 L 462.4,60.0 L 464.6,60.0 L 466.7,60.0 L 468.9,60.0 L 471.1,60.0 L 473.3,60.0 L 475.4,60.0 L 477.6,60.0 L 479.8,60.0 L 482.0,60.0 L 484.2,60.0 L 486.3,60.0 L 488.5,60.0 L 490.7,60.0 L 492.9,60.0 L 495.0,60.0 L 497.2,60.0 L 499.4,60.0 L 501.6,60.0 L 503.8,60.0 L 505.9,60.0 L 508.1,60.0 L 510.3,60.0 L 512.5,60.0 L 514.7,60.0 L 516.8,60.0 L 519.0,60.0 L 521.2,60.0 L 523.4,60.0 L 525.5,60.0 L 527.7,60.0 L 529.9,60.0 L 532.1,60.0 L 534.3,60.0 L 536.4,60.0 L 538.6,60.0 L 540.8,60.0 L 543.0,60.0 L 545.1,60.0 L 547.3,60.0 L 549.5,60.0 L 551.7,60.0 L 553.9,60.0 L 556.0,60.0 L 558.2,60.0 L 560.4,60.0 L 562.6,60.0 L 564.8,60.0 L 566.9,60.0 L 569.1,60.0 L 571.3,60.0 L 573.5,60.0 L 575.6,60.0 L 577.8,60.0 L 580.0,60.0" stroke="#3E5640" stroke-width="1.5" fill="none"/><line x1="20" y1="180" x2="580" y2="180" stroke="#0E0E0E33"/><text x="20" y="195" font-family="sans-serif" font-size="10" fill="#7A7570">Powered by RateRadar · rateradar-web.vercel.app</text></svg>