<svg xmlns="http://www.w3.org/2000/svg" viewBox="0 0 600 200" width="600" height="200" role="img" aria-label="RateRadar live odds for ECB 2026-12-17"><rect width="600" height="200" fill="#F5F1E8"/><text x="20" y="30" font-family="sans-serif" font-size="11" letter-spacing="1.5" fill="#7A7570">EUROPEAN CENTRAL BANK · DEC 17, 2026</text><text x="20" y="80" font-family="Georgia, serif" font-size="32" fill="#0E0E0E">Hold rates</text><text x="20" y="130" font-family="monospace" font-size="42" fill="#3E5640">100%</text><text x="20" y="155" font-family="sans-serif" font-size="11" fill="#7A7570">market-implied probability</text><path d="M 360.0,140.0 L 362.9,140.0 L 365.7,140.0 L 368.6,140.0 L 371.4,140.0 L 374.3,140.0 L 377.1,140.0 L 380.0,140.0 L 382.9,140.0 L 385.7,140.0 L 388.6,140.0 L 391.4,140.0 L 394.3,140.0 L 397.1,140.0 L 400.0,140.0 L 402.9,140.0 L 405.7,140.0 L 408.6,140.0 L 411.4,140.0 L 414.3,140.0 L 417.1,140.0 L 420.0,140.0 L 422.9,140.0 L 425.7,140.0 L 428.6,140.0 L 431.4,140.0 L 434.3,140.0 L 437.1,140.0 L 440.0,140.0 L 442.9,140.0 L 445.7,140.0 L 448.6,60.0 L 451.4,60.0 L 454.3,60.0 L 457.1,60.0 L 460.0,60.0 L 462.9,60.0 L 465.7,60.0 L 468.6,60.0 L 471.4,60.0 L 474.3,60.0 L 477.1,60.0 L 480.0,60.0 L 482.9,60.0 L 485.7,60.0 L 488.6,60.0 L 491.4,60.0 L 494.3,60.0 L 497.1,60.0 L 500.0,60.0 L 502.9,60.0 L 505.7,60.0 L 508.6,60.0 L 511.4,60.0 L 514.3,60.0 L 517.1,60.0 L 520.0,60.0 L 522.9,60.0 L 525.7,60.0 L 528.6,60.0 L 531.4,60.0 L 534.3,60.0 L 537.1,60.0 L 540.0,60.0 L 542.9,60.0 L 545.7,60.0 L 548.6,60.0 L 551.4,60.0 L 554.3,60.0 L 557.1,60.0 L 560.0,60.0 L 562.9,60.0 L 565.7,60.0 L 568.6,60.0 L 571.4,60.0 L 574.3,60.0 L 577.1,60.0 L 580.0,60.0" stroke="#3E5640" stroke-width="1.5" fill="none"/><line x1="20" y1="180" x2="580" y2="180" stroke="#0E0E0E33"/><text x="20" y="195" font-family="sans-serif" font-size="10" fill="#7A7570">Powered by RateRadar · rateradar-web.vercel.app</text></svg>