<svg xmlns="http://www.w3.org/2000/svg" viewBox="0 0 600 200" width="600" height="200" role="img" aria-label="RateRadar live odds for ECB 2026-09-10"><rect width="600" height="200" fill="#F5F1E8"/><text x="20" y="30" font-family="sans-serif" font-size="11" letter-spacing="1.5" fill="#7A7570">EUROPEAN CENTRAL BANK · SEP 10, 2026</text><text x="20" y="80" font-family="Georgia, serif" font-size="32" fill="#0E0E0E">Hold rates</text><text x="20" y="130" font-family="monospace" font-size="42" fill="#3E5640">92%</text><text x="20" y="155" font-family="sans-serif" font-size="11" fill="#7A7570">market-implied probability</text><path d="M 360.0,66.1 L 367.3,66.1 L 374.7,66.1 L 382.0,66.1 L 389.3,66.1 L 396.7,66.1 L 404.0,66.1 L 411.3,66.1 L 418.7,66.1 L 426.0,66.1 L 433.3,66.1 L 440.7,66.1 L 448.0,66.1 L 455.3,66.1 L 462.7,66.1 L 470.0,66.1 L 477.3,66.1 L 484.7,66.1 L 492.0,66.1 L 499.3,66.1 L 506.7,66.1 L 514.0,66.1 L 521.3,66.1 L 528.7,66.1 L 536.0,66.1 L 543.3,66.1 L 550.7,66.1 L 558.0,66.1 L 565.3,66.1 L 572.7,66.1 L 580.0,66.1" stroke="#3E5640" stroke-width="1.5" fill="none"/><line x1="20" y1="180" x2="580" y2="180" stroke="#0E0E0E33"/><text x="20" y="195" font-family="sans-serif" font-size="10" fill="#7A7570">Powered by RateRadar · rateradar-web.vercel.app</text></svg>