<svg xmlns="http://www.w3.org/2000/svg" viewBox="0 0 600 200" width="600" height="200" role="img" aria-label="RateRadar live odds for ECB 2026-09-10"><rect width="600" height="200" fill="#F5F1E8"/><text x="20" y="30" font-family="sans-serif" font-size="11" letter-spacing="1.5" fill="#7A7570">EUROPEAN CENTRAL BANK · SEP 10, 2026</text><text x="20" y="80" font-family="Georgia, serif" font-size="32" fill="#0E0E0E">Hold rates</text><text x="20" y="130" font-family="monospace" font-size="42" fill="#3E5640">100%</text><text x="20" y="155" font-family="sans-serif" font-size="11" fill="#7A7570">market-implied probability</text><path d="M 360.0,66.1 L 363.5,66.1 L 367.1,66.1 L 370.6,66.1 L 374.2,66.1 L 377.7,66.1 L 381.3,66.1 L 384.8,66.1 L 388.4,66.1 L 391.9,66.1 L 395.5,66.1 L 399.0,66.1 L 402.6,66.1 L 406.1,66.1 L 409.7,66.1 L 413.2,66.1 L 416.8,66.1 L 420.3,66.1 L 423.9,66.1 L 427.4,66.1 L 431.0,66.1 L 434.5,66.1 L 438.1,66.1 L 441.6,66.1 L 445.2,66.1 L 448.7,66.1 L 452.3,66.1 L 455.8,66.1 L 459.4,66.1 L 462.9,66.1 L 466.5,66.1 L 470.0,60.0 L 473.5,60.0 L 477.1,60.0 L 480.6,60.0 L 484.2,60.0 L 487.7,60.0 L 491.3,60.0 L 494.8,60.0 L 498.4,60.0 L 501.9,60.0 L 505.5,60.0 L 509.0,60.0 L 512.6,60.0 L 516.1,60.0 L 519.7,60.0 L 523.2,60.0 L 526.8,60.0 L 530.3,60.0 L 533.9,60.0 L 537.4,60.0 L 541.0,60.0 L 544.5,60.0 L 548.1,60.0 L 551.6,60.0 L 555.2,60.0 L 558.7,60.0 L 562.3,60.0 L 565.8,60.0 L 569.4,60.0 L 572.9,60.0 L 576.5,60.0 L 580.0,60.0" stroke="#3E5640" stroke-width="1.5" fill="none"/><line x1="20" y1="180" x2="580" y2="180" stroke="#0E0E0E33"/><text x="20" y="195" font-family="sans-serif" font-size="10" fill="#7A7570">Powered by RateRadar · rateradar-web.vercel.app</text></svg>