<svg xmlns="http://www.w3.org/2000/svg" viewBox="0 0 600 200" width="600" height="200" role="img" aria-label="RateRadar live odds for ECB 2026-09-10"><rect width="600" height="200" fill="#F5F1E8"/><text x="20" y="30" font-family="sans-serif" font-size="11" letter-spacing="1.5" fill="#7A7570">EUROPEAN CENTRAL BANK · SEP 10, 2026</text><text x="20" y="80" font-family="Georgia, serif" font-size="32" fill="#0E0E0E">Hold rates</text><text x="20" y="130" font-family="monospace" font-size="42" fill="#3E5640">100%</text><text x="20" y="155" font-family="sans-serif" font-size="11" fill="#7A7570">market-implied probability</text><path d="M 360.0,66.1 L 362.2,66.1 L 364.4,66.1 L 366.7,66.1 L 368.9,66.1 L 371.1,66.1 L 373.3,66.1 L 375.6,66.1 L 377.8,66.1 L 380.0,66.1 L 382.2,66.1 L 384.4,66.1 L 386.7,66.1 L 388.9,66.1 L 391.1,66.1 L 393.3,66.1 L 395.6,66.1 L 397.8,66.1 L 400.0,66.1 L 402.2,66.1 L 404.4,66.1 L 406.7,66.1 L 408.9,66.1 L 411.1,66.1 L 413.3,66.1 L 415.6,66.1 L 417.8,66.1 L 420.0,66.1 L 422.2,66.1 L 424.4,66.1 L 426.7,66.1 L 428.9,60.0 L 431.1,60.0 L 433.3,60.0 L 435.6,60.0 L 437.8,60.0 L 440.0,60.0 L 442.2,60.0 L 444.4,60.0 L 446.7,60.0 L 448.9,60.0 L 451.1,60.0 L 453.3,60.0 L 455.6,60.0 L 457.8,60.0 L 460.0,60.0 L 462.2,60.0 L 464.4,60.0 L 466.7,60.0 L 468.9,60.0 L 471.1,60.0 L 473.3,60.0 L 475.6,60.0 L 477.8,60.0 L 480.0,60.0 L 482.2,60.0 L 484.4,60.0 L 486.7,60.0 L 488.9,60.0 L 491.1,60.0 L 493.3,60.0 L 495.6,60.0 L 497.8,60.0 L 500.0,60.0 L 502.2,60.0 L 504.4,60.0 L 506.7,60.0 L 508.9,60.0 L 511.1,60.0 L 513.3,60.0 L 515.6,60.0 L 517.8,60.0 L 520.0,60.0 L 522.2,60.0 L 524.4,60.0 L 526.7,60.0 L 528.9,60.0 L 531.1,60.0 L 533.3,60.0 L 535.6,60.0 L 537.8,60.0 L 540.0,60.0 L 542.2,60.0 L 544.4,60.0 L 546.7,60.0 L 548.9,60.0 L 551.1,60.0 L 553.3,60.0 L 555.6,60.0 L 557.8,60.0 L 560.0,60.0 L 562.2,60.0 L 564.4,60.0 L 566.7,60.0 L 568.9,60.0 L 571.1,60.0 L 573.3,60.0 L 575.6,60.0 L 577.8,60.0 L 580.0,60.0" stroke="#3E5640" stroke-width="1.5" fill="none"/><line x1="20" y1="180" x2="580" y2="180" stroke="#0E0E0E33"/><text x="20" y="195" font-family="sans-serif" font-size="10" fill="#7A7570">Powered by RateRadar · rateradar-web.vercel.app</text></svg>