<svg xmlns="http://www.w3.org/2000/svg" viewBox="0 0 600 200" width="600" height="200" role="img" aria-label="RateRadar live odds for ECB 2026-06-11"><rect width="600" height="200" fill="#F5F1E8"/><text x="20" y="30" font-family="sans-serif" font-size="11" letter-spacing="1.5" fill="#7A7570">EUROPEAN CENTRAL BANK · JUN 11, 2026</text><text x="20" y="80" font-family="Georgia, serif" font-size="32" fill="#0E0E0E">Hold rates</text><text x="20" y="130" font-family="monospace" font-size="42" fill="#3E5640">56%</text><text x="20" y="155" font-family="sans-serif" font-size="11" fill="#7A7570">market-implied probability</text><path d="M 360.0,95.4 L 368.5,95.4 L 376.9,95.4 L 385.4,95.4 L 393.8,95.4 L 402.3,95.4 L 410.8,95.4 L 419.2,95.4 L 427.7,95.4 L 436.2,95.4 L 444.6,95.4 L 453.1,95.4 L 461.5,95.4 L 470.0,95.4 L 478.5,95.4 L 486.9,95.4 L 495.4,95.4 L 503.8,95.4 L 512.3,95.4 L 520.8,95.4 L 529.2,95.4 L 537.7,95.4 L 546.2,95.4 L 554.6,95.4 L 563.1,95.4 L 571.5,95.4 L 580.0,95.4" stroke="#3E5640" stroke-width="1.5" fill="none"/><line x1="20" y1="180" x2="580" y2="180" stroke="#0E0E0E33"/><text x="20" y="195" font-family="sans-serif" font-size="10" fill="#7A7570">Powered by RateRadar · rateradar-web.vercel.app</text></svg>