<svg xmlns="http://www.w3.org/2000/svg" viewBox="0 0 600 200" width="600" height="200" role="img" aria-label="RateRadar live odds for ECB 2026-09-10"><rect width="600" height="200" fill="#F5F1E8"/><text x="20" y="30" font-family="sans-serif" font-size="11" letter-spacing="1.5" fill="#7A7570">EUROPEAN CENTRAL BANK · SEP 10, 2026</text><text x="20" y="80" font-family="Georgia, serif" font-size="32" fill="#0E0E0E">Hold rates</text><text x="20" y="130" font-family="monospace" font-size="42" fill="#3E5640">100%</text><text x="20" y="155" font-family="sans-serif" font-size="11" fill="#7A7570">market-implied probability</text><path d="M 360.0,66.1 L 362.3,66.1 L 364.6,66.1 L 366.9,66.1 L 369.2,66.1 L 371.5,66.1 L 373.8,66.1 L 376.0,66.1 L 378.3,66.1 L 380.6,66.1 L 382.9,66.1 L 385.2,66.1 L 387.5,66.1 L 389.8,66.1 L 392.1,66.1 L 394.4,66.1 L 396.7,66.1 L 399.0,66.1 L 401.2,66.1 L 403.5,66.1 L 405.8,66.1 L 408.1,66.1 L 410.4,66.1 L 412.7,66.1 L 415.0,66.1 L 417.3,66.1 L 419.6,66.1 L 421.9,66.1 L 424.2,66.1 L 426.5,66.1 L 428.8,66.1 L 431.0,60.0 L 433.3,60.0 L 435.6,60.0 L 437.9,60.0 L 440.2,60.0 L 442.5,60.0 L 444.8,60.0 L 447.1,60.0 L 449.4,60.0 L 451.7,60.0 L 454.0,60.0 L 456.2,60.0 L 458.5,60.0 L 460.8,60.0 L 463.1,60.0 L 465.4,60.0 L 467.7,60.0 L 470.0,60.0 L 472.3,60.0 L 474.6,60.0 L 476.9,60.0 L 479.2,60.0 L 481.5,60.0 L 483.8,60.0 L 486.0,60.0 L 488.3,60.0 L 490.6,60.0 L 492.9,60.0 L 495.2,60.0 L 497.5,60.0 L 499.8,60.0 L 502.1,60.0 L 504.4,60.0 L 506.7,60.0 L 509.0,60.0 L 511.2,60.0 L 513.5,60.0 L 515.8,60.0 L 518.1,60.0 L 520.4,60.0 L 522.7,60.0 L 525.0,60.0 L 527.3,60.0 L 529.6,60.0 L 531.9,60.0 L 534.2,60.0 L 536.5,60.0 L 538.8,60.0 L 541.0,60.0 L 543.3,60.0 L 545.6,60.0 L 547.9,60.0 L 550.2,60.0 L 552.5,60.0 L 554.8,60.0 L 557.1,60.0 L 559.4,60.0 L 561.7,60.0 L 564.0,60.0 L 566.2,60.0 L 568.5,60.0 L 570.8,60.0 L 573.1,60.0 L 575.4,60.0 L 577.7,60.0 L 580.0,60.0" stroke="#3E5640" stroke-width="1.5" fill="none"/><line x1="20" y1="180" x2="580" y2="180" stroke="#0E0E0E33"/><text x="20" y="195" font-family="sans-serif" font-size="10" fill="#7A7570">Powered by RateRadar · rateradar-web.vercel.app</text></svg>