<svg xmlns="http://www.w3.org/2000/svg" viewBox="0 0 600 200" width="600" height="200" role="img" aria-label="RateRadar live odds for ECB 2026-09-10"><rect width="600" height="200" fill="#F5F1E8"/><text x="20" y="30" font-family="sans-serif" font-size="11" letter-spacing="1.5" fill="#7A7570">EUROPEAN CENTRAL BANK · SEP 10, 2026</text><text x="20" y="80" font-family="Georgia, serif" font-size="32" fill="#0E0E0E">Hold rates</text><text x="20" y="130" font-family="monospace" font-size="42" fill="#3E5640">100%</text><text x="20" y="155" font-family="sans-serif" font-size="11" fill="#7A7570">market-implied probability</text><path d="M 360.0,66.1 L 362.8,66.1 L 365.5,66.1 L 368.2,66.1 L 371.0,66.1 L 373.8,66.1 L 376.5,66.1 L 379.2,66.1 L 382.0,66.1 L 384.8,66.1 L 387.5,66.1 L 390.2,66.1 L 393.0,66.1 L 395.8,66.1 L 398.5,66.1 L 401.2,66.1 L 404.0,66.1 L 406.8,66.1 L 409.5,66.1 L 412.2,66.1 L 415.0,66.1 L 417.8,66.1 L 420.5,66.1 L 423.2,66.1 L 426.0,66.1 L 428.8,66.1 L 431.5,66.1 L 434.2,66.1 L 437.0,66.1 L 439.8,66.1 L 442.5,66.1 L 445.2,60.0 L 448.0,60.0 L 450.8,60.0 L 453.5,60.0 L 456.2,60.0 L 459.0,60.0 L 461.8,60.0 L 464.5,60.0 L 467.2,60.0 L 470.0,60.0 L 472.8,60.0 L 475.5,60.0 L 478.2,60.0 L 481.0,60.0 L 483.8,60.0 L 486.5,60.0 L 489.2,60.0 L 492.0,60.0 L 494.8,60.0 L 497.5,60.0 L 500.2,60.0 L 503.0,60.0 L 505.8,60.0 L 508.5,60.0 L 511.2,60.0 L 514.0,60.0 L 516.8,60.0 L 519.5,60.0 L 522.2,60.0 L 525.0,60.0 L 527.8,60.0 L 530.5,60.0 L 533.2,60.0 L 536.0,60.0 L 538.8,60.0 L 541.5,60.0 L 544.2,60.0 L 547.0,60.0 L 549.8,60.0 L 552.5,60.0 L 555.2,60.0 L 558.0,60.0 L 560.8,60.0 L 563.5,60.0 L 566.2,60.0 L 569.0,60.0 L 571.8,60.0 L 574.5,60.0 L 577.2,60.0 L 580.0,60.0" stroke="#3E5640" stroke-width="1.5" fill="none"/><line x1="20" y1="180" x2="580" y2="180" stroke="#0E0E0E33"/><text x="20" y="195" font-family="sans-serif" font-size="10" fill="#7A7570">Powered by RateRadar · rateradar-web.vercel.app</text></svg>