<svg xmlns="http://www.w3.org/2000/svg" viewBox="0 0 600 200" width="600" height="200" role="img" aria-label="RateRadar live odds for ECB 2026-10-29"><rect width="600" height="200" fill="#F5F1E8"/><text x="20" y="30" font-family="sans-serif" font-size="11" letter-spacing="1.5" fill="#7A7570">EUROPEAN CENTRAL BANK · OCT 29, 2026</text><text x="20" y="80" font-family="Georgia, serif" font-size="32" fill="#0E0E0E">Move -50bp</text><text x="20" y="130" font-family="monospace" font-size="42" fill="#C8841C">100%</text><text x="20" y="155" font-family="sans-serif" font-size="11" fill="#7A7570">market-implied probability</text><path d="M 360.0,60.0 L 369.2,60.0 L 378.3,60.0 L 387.5,60.0 L 396.7,60.0 L 405.8,60.0 L 415.0,60.0 L 424.2,60.0 L 433.3,60.0 L 442.5,60.0 L 451.7,60.0 L 460.8,60.0 L 470.0,60.0 L 479.2,60.0 L 488.3,60.0 L 497.5,60.0 L 506.7,60.0 L 515.8,60.0 L 525.0,60.0 L 534.2,60.0 L 543.3,60.0 L 552.5,60.0 L 561.7,60.0 L 570.8,60.0 L 580.0,60.0" stroke="#C8841C" stroke-width="1.5" fill="none"/><line x1="20" y1="180" x2="580" y2="180" stroke="#0E0E0E33"/><text x="20" y="195" font-family="sans-serif" font-size="10" fill="#7A7570">Powered by RateRadar · rateradar-web.vercel.app</text></svg>