<svg xmlns="http://www.w3.org/2000/svg" viewBox="0 0 600 200" width="600" height="200" role="img" aria-label="RateRadar live odds for ECB 2026-09-10"><rect width="600" height="200" fill="#F5F1E8"/><text x="20" y="30" font-family="sans-serif" font-size="11" letter-spacing="1.5" fill="#7A7570">EUROPEAN CENTRAL BANK · SEP 10, 2026</text><text x="20" y="80" font-family="Georgia, serif" font-size="32" fill="#0E0E0E">Hold rates</text><text x="20" y="130" font-family="monospace" font-size="42" fill="#3E5640">92%</text><text x="20" y="155" font-family="sans-serif" font-size="11" fill="#7A7570">market-implied probability</text><path d="M 360.0,66.1 L 369.6,66.1 L 379.1,66.1 L 388.7,66.1 L 398.3,66.1 L 407.8,66.1 L 417.4,66.1 L 427.0,66.1 L 436.5,66.1 L 446.1,66.1 L 455.7,66.1 L 465.2,66.1 L 474.8,66.1 L 484.3,66.1 L 493.9,66.1 L 503.5,66.1 L 513.0,66.1 L 522.6,66.1 L 532.2,66.1 L 541.7,66.1 L 551.3,66.1 L 560.9,66.1 L 570.4,66.1 L 580.0,66.1" stroke="#3E5640" stroke-width="1.5" fill="none"/><line x1="20" y1="180" x2="580" y2="180" stroke="#0E0E0E33"/><text x="20" y="195" font-family="sans-serif" font-size="10" fill="#7A7570">Powered by RateRadar · rateradar-web.vercel.app</text></svg>