<svg xmlns="http://www.w3.org/2000/svg" viewBox="0 0 600 200" width="600" height="200" role="img" aria-label="RateRadar live odds for ECB 2026-12-17"><rect width="600" height="200" fill="#F5F1E8"/><text x="20" y="30" font-family="sans-serif" font-size="11" letter-spacing="1.5" fill="#7A7570">EUROPEAN CENTRAL BANK · DEC 17, 2026</text><text x="20" y="80" font-family="Georgia, serif" font-size="32" fill="#0E0E0E">Hold rates</text><text x="20" y="130" font-family="monospace" font-size="42" fill="#3E5640">100%</text><text x="20" y="155" font-family="sans-serif" font-size="11" fill="#7A7570">market-implied probability</text><path d="M 360.0,140.0 L 365.4,140.0 L 370.7,140.0 L 376.1,140.0 L 381.5,140.0 L 386.8,140.0 L 392.2,140.0 L 397.6,140.0 L 402.9,140.0 L 408.3,140.0 L 413.7,140.0 L 419.0,140.0 L 424.4,140.0 L 429.8,140.0 L 435.1,140.0 L 440.5,140.0 L 445.9,140.0 L 451.2,140.0 L 456.6,140.0 L 462.0,140.0 L 467.3,140.0 L 472.7,140.0 L 478.0,140.0 L 483.4,140.0 L 488.8,140.0 L 494.1,140.0 L 499.5,140.0 L 504.9,140.0 L 510.2,140.0 L 515.6,140.0 L 521.0,140.0 L 526.3,60.0 L 531.7,60.0 L 537.1,60.0 L 542.4,60.0 L 547.8,60.0 L 553.2,60.0 L 558.5,60.0 L 563.9,60.0 L 569.3,60.0 L 574.6,60.0 L 580.0,60.0" stroke="#3E5640" stroke-width="1.5" fill="none"/><line x1="20" y1="180" x2="580" y2="180" stroke="#0E0E0E33"/><text x="20" y="195" font-family="sans-serif" font-size="10" fill="#7A7570">Powered by RateRadar · rateradar-web.vercel.app</text></svg>