<svg xmlns="http://www.w3.org/2000/svg" viewBox="0 0 600 200" width="600" height="200" role="img" aria-label="RateRadar live odds for ECB 2026-09-10"><rect width="600" height="200" fill="#F5F1E8"/><text x="20" y="30" font-family="sans-serif" font-size="11" letter-spacing="1.5" fill="#7A7570">EUROPEAN CENTRAL BANK · SEP 10, 2026</text><text x="20" y="80" font-family="Georgia, serif" font-size="32" fill="#0E0E0E">Hold rates</text><text x="20" y="130" font-family="monospace" font-size="42" fill="#3E5640">100%</text><text x="20" y="155" font-family="sans-serif" font-size="11" fill="#7A7570">market-implied probability</text><path d="M 360.0,66.1 L 362.5,66.1 L 365.1,66.1 L 367.6,66.1 L 370.1,66.1 L 372.6,66.1 L 375.2,66.1 L 377.7,66.1 L 380.2,66.1 L 382.8,66.1 L 385.3,66.1 L 387.8,66.1 L 390.3,66.1 L 392.9,66.1 L 395.4,66.1 L 397.9,66.1 L 400.5,66.1 L 403.0,66.1 L 405.5,66.1 L 408.0,66.1 L 410.6,66.1 L 413.1,66.1 L 415.6,66.1 L 418.2,66.1 L 420.7,66.1 L 423.2,66.1 L 425.7,66.1 L 428.3,66.1 L 430.8,66.1 L 433.3,66.1 L 435.9,66.1 L 438.4,60.0 L 440.9,60.0 L 443.4,60.0 L 446.0,60.0 L 448.5,60.0 L 451.0,60.0 L 453.6,60.0 L 456.1,60.0 L 458.6,60.0 L 461.1,60.0 L 463.7,60.0 L 466.2,60.0 L 468.7,60.0 L 471.3,60.0 L 473.8,60.0 L 476.3,60.0 L 478.9,60.0 L 481.4,60.0 L 483.9,60.0 L 486.4,60.0 L 489.0,60.0 L 491.5,60.0 L 494.0,60.0 L 496.6,60.0 L 499.1,60.0 L 501.6,60.0 L 504.1,60.0 L 506.7,60.0 L 509.2,60.0 L 511.7,60.0 L 514.3,60.0 L 516.8,60.0 L 519.3,60.0 L 521.8,60.0 L 524.4,60.0 L 526.9,60.0 L 529.4,60.0 L 532.0,60.0 L 534.5,60.0 L 537.0,60.0 L 539.5,60.0 L 542.1,60.0 L 544.6,60.0 L 547.1,60.0 L 549.7,60.0 L 552.2,60.0 L 554.7,60.0 L 557.2,60.0 L 559.8,60.0 L 562.3,60.0 L 564.8,60.0 L 567.4,60.0 L 569.9,60.0 L 572.4,60.0 L 574.9,60.0 L 577.5,60.0 L 580.0,60.0" stroke="#3E5640" stroke-width="1.5" fill="none"/><line x1="20" y1="180" x2="580" y2="180" stroke="#0E0E0E33"/><text x="20" y="195" font-family="sans-serif" font-size="10" fill="#7A7570">Powered by RateRadar · rateradar-web.vercel.app</text></svg>