<svg xmlns="http://www.w3.org/2000/svg" viewBox="0 0 600 200" width="600" height="200" role="img" aria-label="RateRadar live odds for ECB 2026-09-10"><rect width="600" height="200" fill="#F5F1E8"/><text x="20" y="30" font-family="sans-serif" font-size="11" letter-spacing="1.5" fill="#7A7570">EUROPEAN CENTRAL BANK · SEP 10, 2026</text><text x="20" y="80" font-family="Georgia, serif" font-size="32" fill="#0E0E0E">Hold rates</text><text x="20" y="130" font-family="monospace" font-size="42" fill="#3E5640">92%</text><text x="20" y="155" font-family="sans-serif" font-size="11" fill="#7A7570">market-implied probability</text><path d="M 360.0,66.1 L 367.6,66.1 L 375.2,66.1 L 382.8,66.1 L 390.3,66.1 L 397.9,66.1 L 405.5,66.1 L 413.1,66.1 L 420.7,66.1 L 428.3,66.1 L 435.9,66.1 L 443.4,66.1 L 451.0,66.1 L 458.6,66.1 L 466.2,66.1 L 473.8,66.1 L 481.4,66.1 L 489.0,66.1 L 496.6,66.1 L 504.1,66.1 L 511.7,66.1 L 519.3,66.1 L 526.9,66.1 L 534.5,66.1 L 542.1,66.1 L 549.7,66.1 L 557.2,66.1 L 564.8,66.1 L 572.4,66.1 L 580.0,66.1" stroke="#3E5640" stroke-width="1.5" fill="none"/><line x1="20" y1="180" x2="580" y2="180" stroke="#0E0E0E33"/><text x="20" y="195" font-family="sans-serif" font-size="10" fill="#7A7570">Powered by RateRadar · rateradar-web.vercel.app</text></svg>