<svg xmlns="http://www.w3.org/2000/svg" viewBox="0 0 600 200" width="600" height="200" role="img" aria-label="RateRadar live odds for ECB 2026-07-23"><rect width="600" height="200" fill="#F5F1E8"/><text x="20" y="30" font-family="sans-serif" font-size="11" letter-spacing="1.5" fill="#7A7570">EUROPEAN CENTRAL BANK · JUL 23, 2026</text><text x="20" y="80" font-family="Georgia, serif" font-size="32" fill="#0E0E0E">Move -25bp</text><text x="20" y="130" font-family="monospace" font-size="42" fill="#C8841C">61%</text><text x="20" y="155" font-family="sans-serif" font-size="11" fill="#7A7570">market-implied probability</text><path d="M 360.0,90.9 L 369.6,90.9 L 379.1,90.9 L 388.7,90.9 L 398.3,90.9 L 407.8,90.9 L 417.4,90.9 L 427.0,90.9 L 436.5,90.9 L 446.1,90.9 L 455.7,90.9 L 465.2,90.9 L 474.8,90.9 L 484.3,90.9 L 493.9,90.9 L 503.5,90.9 L 513.0,90.9 L 522.6,90.9 L 532.2,90.9 L 541.7,90.9 L 551.3,90.9 L 560.9,90.9 L 570.4,90.9 L 580.0,90.9" stroke="#C8841C" stroke-width="1.5" fill="none"/><line x1="20" y1="180" x2="580" y2="180" stroke="#0E0E0E33"/><text x="20" y="195" font-family="sans-serif" font-size="10" fill="#7A7570">Powered by RateRadar · rateradar-web.vercel.app</text></svg>