<svg xmlns="http://www.w3.org/2000/svg" viewBox="0 0 600 200" width="600" height="200" role="img" aria-label="RateRadar live odds for ECB 2026-12-17"><rect width="600" height="200" fill="#F5F1E8"/><text x="20" y="30" font-family="sans-serif" font-size="11" letter-spacing="1.5" fill="#7A7570">EUROPEAN CENTRAL BANK · DEC 17, 2026</text><text x="20" y="80" font-family="Georgia, serif" font-size="32" fill="#0E0E0E">Hold rates</text><text x="20" y="130" font-family="monospace" font-size="42" fill="#3E5640">100%</text><text x="20" y="155" font-family="sans-serif" font-size="11" fill="#7A7570">market-implied probability</text><path d="M 360.0,140.0 L 362.1,140.0 L 364.3,140.0 L 366.4,140.0 L 368.5,140.0 L 370.7,140.0 L 372.8,140.0 L 375.0,140.0 L 377.1,140.0 L 379.2,140.0 L 381.4,140.0 L 383.5,140.0 L 385.6,140.0 L 387.8,140.0 L 389.9,140.0 L 392.0,140.0 L 394.2,140.0 L 396.3,140.0 L 398.4,140.0 L 400.6,140.0 L 402.7,140.0 L 404.9,140.0 L 407.0,140.0 L 409.1,140.0 L 411.3,140.0 L 413.4,140.0 L 415.5,140.0 L 417.7,140.0 L 419.8,140.0 L 421.9,140.0 L 424.1,140.0 L 426.2,60.0 L 428.3,60.0 L 430.5,60.0 L 432.6,60.0 L 434.8,60.0 L 436.9,60.0 L 439.0,60.0 L 441.2,60.0 L 443.3,60.0 L 445.4,60.0 L 447.6,60.0 L 449.7,60.0 L 451.8,60.0 L 454.0,60.0 L 456.1,60.0 L 458.3,60.0 L 460.4,60.0 L 462.5,60.0 L 464.7,60.0 L 466.8,60.0 L 468.9,60.0 L 471.1,60.0 L 473.2,60.0 L 475.3,60.0 L 477.5,60.0 L 479.6,60.0 L 481.7,60.0 L 483.9,60.0 L 486.0,60.0 L 488.2,60.0 L 490.3,60.0 L 492.4,60.0 L 494.6,60.0 L 496.7,60.0 L 498.8,60.0 L 501.0,60.0 L 503.1,60.0 L 505.2,60.0 L 507.4,60.0 L 509.5,60.0 L 511.7,60.0 L 513.8,60.0 L 515.9,60.0 L 518.1,60.0 L 520.2,60.0 L 522.3,60.0 L 524.5,60.0 L 526.6,60.0 L 528.7,60.0 L 530.9,60.0 L 533.0,60.0 L 535.1,60.0 L 537.3,60.0 L 539.4,60.0 L 541.6,60.0 L 543.7,60.0 L 545.8,60.0 L 548.0,60.0 L 550.1,60.0 L 552.2,60.0 L 554.4,60.0 L 556.5,60.0 L 558.6,60.0 L 560.8,60.0 L 562.9,60.0 L 565.0,60.0 L 567.2,60.0 L 569.3,60.0 L 571.5,60.0 L 573.6,60.0 L 575.7,60.0 L 577.9,60.0 L 580.0,60.0" stroke="#3E5640" stroke-width="1.5" fill="none"/><line x1="20" y1="180" x2="580" y2="180" stroke="#0E0E0E33"/><text x="20" y="195" font-family="sans-serif" font-size="10" fill="#7A7570">Powered by RateRadar · rateradar-web.vercel.app</text></svg>