<svg xmlns="http://www.w3.org/2000/svg" viewBox="0 0 600 200" width="600" height="200" role="img" aria-label="RateRadar live odds for ECB 2026-06-11"><rect width="600" height="200" fill="#F5F1E8"/><text x="20" y="30" font-family="sans-serif" font-size="11" letter-spacing="1.5" fill="#7A7570">EUROPEAN CENTRAL BANK · JUN 11, 2026</text><text x="20" y="80" font-family="Georgia, serif" font-size="32" fill="#0E0E0E">Hold rates</text><text x="20" y="130" font-family="monospace" font-size="42" fill="#3E5640">100%</text><text x="20" y="155" font-family="sans-serif" font-size="11" fill="#7A7570">market-implied probability</text><path d="M 360.0,95.4 L 367.1,95.4 L 374.2,95.4 L 381.3,95.4 L 388.4,95.4 L 395.5,95.4 L 402.6,95.4 L 409.7,95.4 L 416.8,95.4 L 423.9,95.4 L 431.0,95.4 L 438.1,95.4 L 445.2,95.4 L 452.3,95.4 L 459.4,95.4 L 466.5,95.4 L 473.5,95.4 L 480.6,95.4 L 487.7,95.4 L 494.8,95.4 L 501.9,95.4 L 509.0,95.4 L 516.1,95.4 L 523.2,95.4 L 530.3,95.4 L 537.4,95.4 L 544.5,95.4 L 551.6,95.4 L 558.7,95.4 L 565.8,95.4 L 572.9,95.4 L 580.0,60.0" stroke="#3E5640" stroke-width="1.5" fill="none"/><line x1="20" y1="180" x2="580" y2="180" stroke="#0E0E0E33"/><text x="20" y="195" font-family="sans-serif" font-size="10" fill="#7A7570">Powered by RateRadar · rateradar-web.vercel.app</text></svg>