<svg xmlns="http://www.w3.org/2000/svg" viewBox="0 0 600 200" width="600" height="200" role="img" aria-label="RateRadar live odds for ECB 2026-09-10"><rect width="600" height="200" fill="#F5F1E8"/><text x="20" y="30" font-family="sans-serif" font-size="11" letter-spacing="1.5" fill="#7A7570">EUROPEAN CENTRAL BANK · SEP 10, 2026</text><text x="20" y="80" font-family="Georgia, serif" font-size="32" fill="#0E0E0E">Hold rates</text><text x="20" y="130" font-family="monospace" font-size="42" fill="#3E5640">100%</text><text x="20" y="155" font-family="sans-serif" font-size="11" fill="#7A7570">market-implied probability</text><path d="M 360.0,66.1 L 364.2,66.1 L 368.3,66.1 L 372.5,66.1 L 376.6,66.1 L 380.8,66.1 L 384.9,66.1 L 389.1,66.1 L 393.2,66.1 L 397.4,66.1 L 401.5,66.1 L 405.7,66.1 L 409.8,66.1 L 414.0,66.1 L 418.1,66.1 L 422.3,66.1 L 426.4,66.1 L 430.6,66.1 L 434.7,66.1 L 438.9,66.1 L 443.0,66.1 L 447.2,66.1 L 451.3,66.1 L 455.5,66.1 L 459.6,66.1 L 463.8,66.1 L 467.9,66.1 L 472.1,66.1 L 476.2,66.1 L 480.4,66.1 L 484.5,66.1 L 488.7,60.0 L 492.8,60.0 L 497.0,60.0 L 501.1,60.0 L 505.3,60.0 L 509.4,60.0 L 513.6,60.0 L 517.7,60.0 L 521.9,60.0 L 526.0,60.0 L 530.2,60.0 L 534.3,60.0 L 538.5,60.0 L 542.6,60.0 L 546.8,60.0 L 550.9,60.0 L 555.1,60.0 L 559.2,60.0 L 563.4,60.0 L 567.5,60.0 L 571.7,60.0 L 575.8,60.0 L 580.0,60.0" stroke="#3E5640" stroke-width="1.5" fill="none"/><line x1="20" y1="180" x2="580" y2="180" stroke="#0E0E0E33"/><text x="20" y="195" font-family="sans-serif" font-size="10" fill="#7A7570">Powered by RateRadar · rateradar-web.vercel.app</text></svg>