<svg xmlns="http://www.w3.org/2000/svg" viewBox="0 0 600 200" width="600" height="200" role="img" aria-label="RateRadar live odds for ECB 2026-09-10"><rect width="600" height="200" fill="#F5F1E8"/><text x="20" y="30" font-family="sans-serif" font-size="11" letter-spacing="1.5" fill="#7A7570">EUROPEAN CENTRAL BANK · SEP 10, 2026</text><text x="20" y="80" font-family="Georgia, serif" font-size="32" fill="#0E0E0E">Hold rates</text><text x="20" y="130" font-family="monospace" font-size="42" fill="#3E5640">100%</text><text x="20" y="155" font-family="sans-serif" font-size="11" fill="#7A7570">market-implied probability</text><path d="M 360.0,66.1 L 361.5,66.1 L 363.0,66.1 L 364.4,66.1 L 365.9,66.1 L 367.4,66.1 L 368.9,66.1 L 370.3,66.1 L 371.8,66.1 L 373.3,66.1 L 374.8,66.1 L 376.2,66.1 L 377.7,66.1 L 379.2,66.1 L 380.7,66.1 L 382.1,66.1 L 383.6,66.1 L 385.1,66.1 L 386.6,66.1 L 388.1,66.1 L 389.5,66.1 L 391.0,66.1 L 392.5,66.1 L 394.0,66.1 L 395.4,66.1 L 396.9,66.1 L 398.4,66.1 L 399.9,66.1 L 401.3,66.1 L 402.8,66.1 L 404.3,66.1 L 405.8,60.0 L 407.2,60.0 L 408.7,60.0 L 410.2,60.0 L 411.7,60.0 L 413.2,60.0 L 414.6,60.0 L 416.1,60.0 L 417.6,60.0 L 419.1,60.0 L 420.5,60.0 L 422.0,60.0 L 423.5,60.0 L 425.0,60.0 L 426.4,60.0 L 427.9,60.0 L 429.4,60.0 L 430.9,60.0 L 432.3,60.0 L 433.8,60.0 L 435.3,60.0 L 436.8,60.0 L 438.3,60.0 L 439.7,60.0 L 441.2,60.0 L 442.7,60.0 L 444.2,60.0 L 445.6,60.0 L 447.1,60.0 L 448.6,60.0 L 450.1,60.0 L 451.5,60.0 L 453.0,60.0 L 454.5,60.0 L 456.0,60.0 L 457.4,60.0 L 458.9,60.0 L 460.4,60.0 L 461.9,60.0 L 463.4,60.0 L 464.8,60.0 L 466.3,60.0 L 467.8,60.0 L 469.3,60.0 L 470.7,60.0 L 472.2,60.0 L 473.7,60.0 L 475.2,60.0 L 476.6,60.0 L 478.1,60.0 L 479.6,60.0 L 481.1,60.0 L 482.6,60.0 L 484.0,60.0 L 485.5,60.0 L 487.0,60.0 L 488.5,60.0 L 489.9,60.0 L 491.4,60.0 L 492.9,60.0 L 494.4,60.0 L 495.8,60.0 L 497.3,60.0 L 498.8,60.0 L 500.3,60.0 L 501.7,60.0 L 503.2,60.0 L 504.7,60.0 L 506.2,60.0 L 507.7,60.0 L 509.1,60.0 L 510.6,60.0 L 512.1,60.0 L 513.6,60.0 L 515.0,60.0 L 516.5,60.0 L 518.0,60.0 L 519.5,60.0 L 520.9,60.0 L 522.4,60.0 L 523.9,60.0 L 525.4,60.0 L 526.8,60.0 L 528.3,60.0 L 529.8,60.0 L 531.3,60.0 L 532.8,60.0 L 534.2,60.0 L 535.7,60.0 L 537.2,60.0 L 538.7,60.0 L 540.1,60.0 L 541.6,60.0 L 543.1,60.0 L 544.6,60.0 L 546.0,60.0 L 547.5,60.0 L 549.0,60.0 L 550.5,60.0 L 551.9,60.0 L 553.4,60.0 L 554.9,60.0 L 556.4,60.0 L 557.9,60.0 L 559.3,60.0 L 560.8,60.0 L 562.3,60.0 L 563.8,60.0 L 565.2,60.0 L 566.7,60.0 L 568.2,60.0 L 569.7,60.0 L 571.1,60.0 L 572.6,60.0 L 574.1,60.0 L 575.6,60.0 L 577.0,60.0 L 578.5,60.0 L 580.0,60.0" stroke="#3E5640" stroke-width="1.5" fill="none"/><line x1="20" y1="180" x2="580" y2="180" stroke="#0E0E0E33"/><text x="20" y="195" font-family="sans-serif" font-size="10" fill="#7A7570">Powered by RateRadar · rateradar-web.vercel.app</text></svg>