<svg xmlns="http://www.w3.org/2000/svg" viewBox="0 0 600 200" width="600" height="200" role="img" aria-label="RateRadar live odds for ECB 2026-07-23"><rect width="600" height="200" fill="#F5F1E8"/><text x="20" y="30" font-family="sans-serif" font-size="11" letter-spacing="1.5" fill="#7A7570">EUROPEAN CENTRAL BANK · JUL 23, 2026</text><text x="20" y="80" font-family="Georgia, serif" font-size="32" fill="#0E0E0E">Move -25bp</text><text x="20" y="130" font-family="monospace" font-size="42" fill="#C8841C">61%</text><text x="20" y="155" font-family="sans-serif" font-size="11" fill="#7A7570">market-implied probability</text><path d="M 360.0,90.9 L 368.8,90.9 L 377.6,90.9 L 386.4,90.9 L 395.2,90.9 L 404.0,90.9 L 412.8,90.9 L 421.6,90.9 L 430.4,90.9 L 439.2,90.9 L 448.0,90.9 L 456.8,90.9 L 465.6,90.9 L 474.4,90.9 L 483.2,90.9 L 492.0,90.9 L 500.8,90.9 L 509.6,90.9 L 518.4,90.9 L 527.2,90.9 L 536.0,90.9 L 544.8,90.9 L 553.6,90.9 L 562.4,90.9 L 571.2,90.9 L 580.0,90.9" stroke="#C8841C" stroke-width="1.5" fill="none"/><line x1="20" y1="180" x2="580" y2="180" stroke="#0E0E0E33"/><text x="20" y="195" font-family="sans-serif" font-size="10" fill="#7A7570">Powered by RateRadar · rateradar-web.vercel.app</text></svg>