<svg xmlns="http://www.w3.org/2000/svg" viewBox="0 0 600 200" width="600" height="200" role="img" aria-label="RateRadar live odds for ECB 2026-09-10"><rect width="600" height="200" fill="#F5F1E8"/><text x="20" y="30" font-family="sans-serif" font-size="11" letter-spacing="1.5" fill="#7A7570">EUROPEAN CENTRAL BANK · SEP 10, 2026</text><text x="20" y="80" font-family="Georgia, serif" font-size="32" fill="#0E0E0E">Hold rates</text><text x="20" y="130" font-family="monospace" font-size="42" fill="#3E5640">100%</text><text x="20" y="155" font-family="sans-serif" font-size="11" fill="#7A7570">market-implied probability</text><path d="M 360.0,66.1 L 362.4,66.1 L 364.7,66.1 L 367.1,66.1 L 369.5,66.1 L 371.8,66.1 L 374.2,66.1 L 376.6,66.1 L 378.9,66.1 L 381.3,66.1 L 383.7,66.1 L 386.0,66.1 L 388.4,66.1 L 390.8,66.1 L 393.1,66.1 L 395.5,66.1 L 397.8,66.1 L 400.2,66.1 L 402.6,66.1 L 404.9,66.1 L 407.3,66.1 L 409.7,66.1 L 412.0,66.1 L 414.4,66.1 L 416.8,66.1 L 419.1,66.1 L 421.5,66.1 L 423.9,66.1 L 426.2,66.1 L 428.6,66.1 L 431.0,66.1 L 433.3,60.0 L 435.7,60.0 L 438.1,60.0 L 440.4,60.0 L 442.8,60.0 L 445.2,60.0 L 447.5,60.0 L 449.9,60.0 L 452.3,60.0 L 454.6,60.0 L 457.0,60.0 L 459.4,60.0 L 461.7,60.0 L 464.1,60.0 L 466.5,60.0 L 468.8,60.0 L 471.2,60.0 L 473.5,60.0 L 475.9,60.0 L 478.3,60.0 L 480.6,60.0 L 483.0,60.0 L 485.4,60.0 L 487.7,60.0 L 490.1,60.0 L 492.5,60.0 L 494.8,60.0 L 497.2,60.0 L 499.6,60.0 L 501.9,60.0 L 504.3,60.0 L 506.7,60.0 L 509.0,60.0 L 511.4,60.0 L 513.8,60.0 L 516.1,60.0 L 518.5,60.0 L 520.9,60.0 L 523.2,60.0 L 525.6,60.0 L 528.0,60.0 L 530.3,60.0 L 532.7,60.0 L 535.1,60.0 L 537.4,60.0 L 539.8,60.0 L 542.2,60.0 L 544.5,60.0 L 546.9,60.0 L 549.2,60.0 L 551.6,60.0 L 554.0,60.0 L 556.3,60.0 L 558.7,60.0 L 561.1,60.0 L 563.4,60.0 L 565.8,60.0 L 568.2,60.0 L 570.5,60.0 L 572.9,60.0 L 575.3,60.0 L 577.6,60.0 L 580.0,60.0" stroke="#3E5640" stroke-width="1.5" fill="none"/><line x1="20" y1="180" x2="580" y2="180" stroke="#0E0E0E33"/><text x="20" y="195" font-family="sans-serif" font-size="10" fill="#7A7570">Powered by RateRadar · rateradar-web.vercel.app</text></svg>