<svg xmlns="http://www.w3.org/2000/svg" viewBox="0 0 600 200" width="600" height="200" role="img" aria-label="RateRadar live odds for ECB 2026-09-10"><rect width="600" height="200" fill="#F5F1E8"/><text x="20" y="30" font-family="sans-serif" font-size="11" letter-spacing="1.5" fill="#7A7570">EUROPEAN CENTRAL BANK · SEP 10, 2026</text><text x="20" y="80" font-family="Georgia, serif" font-size="32" fill="#0E0E0E">Hold rates</text><text x="20" y="130" font-family="monospace" font-size="42" fill="#3E5640">100%</text><text x="20" y="155" font-family="sans-serif" font-size="11" fill="#7A7570">market-implied probability</text><path d="M 360.0,66.1 L 363.9,66.1 L 367.9,66.1 L 371.8,66.1 L 375.7,66.1 L 379.6,66.1 L 383.6,66.1 L 387.5,66.1 L 391.4,66.1 L 395.4,66.1 L 399.3,66.1 L 403.2,66.1 L 407.1,66.1 L 411.1,66.1 L 415.0,66.1 L 418.9,66.1 L 422.9,66.1 L 426.8,66.1 L 430.7,66.1 L 434.6,66.1 L 438.6,66.1 L 442.5,66.1 L 446.4,66.1 L 450.4,66.1 L 454.3,66.1 L 458.2,66.1 L 462.1,66.1 L 466.1,66.1 L 470.0,66.1 L 473.9,66.1 L 477.9,66.1 L 481.8,60.0 L 485.7,60.0 L 489.6,60.0 L 493.6,60.0 L 497.5,60.0 L 501.4,60.0 L 505.4,60.0 L 509.3,60.0 L 513.2,60.0 L 517.1,60.0 L 521.1,60.0 L 525.0,60.0 L 528.9,60.0 L 532.9,60.0 L 536.8,60.0 L 540.7,60.0 L 544.6,60.0 L 548.6,60.0 L 552.5,60.0 L 556.4,60.0 L 560.4,60.0 L 564.3,60.0 L 568.2,60.0 L 572.1,60.0 L 576.1,60.0 L 580.0,60.0" stroke="#3E5640" stroke-width="1.5" fill="none"/><line x1="20" y1="180" x2="580" y2="180" stroke="#0E0E0E33"/><text x="20" y="195" font-family="sans-serif" font-size="10" fill="#7A7570">Powered by RateRadar · rateradar-web.vercel.app</text></svg>