<svg xmlns="http://www.w3.org/2000/svg" viewBox="0 0 600 200" width="600" height="200" role="img" aria-label="RateRadar live odds for ECB 2026-09-10"><rect width="600" height="200" fill="#F5F1E8"/><text x="20" y="30" font-family="sans-serif" font-size="11" letter-spacing="1.5" fill="#7A7570">EUROPEAN CENTRAL BANK · SEP 10, 2026</text><text x="20" y="80" font-family="Georgia, serif" font-size="32" fill="#0E0E0E">Hold rates</text><text x="20" y="130" font-family="monospace" font-size="42" fill="#3E5640">100%</text><text x="20" y="155" font-family="sans-serif" font-size="11" fill="#7A7570">market-implied probability</text><path d="M 360.0,66.1 L 362.8,66.1 L 365.6,66.1 L 368.4,66.1 L 371.1,66.1 L 373.9,66.1 L 376.7,66.1 L 379.5,66.1 L 382.3,66.1 L 385.1,66.1 L 387.8,66.1 L 390.6,66.1 L 393.4,66.1 L 396.2,66.1 L 399.0,66.1 L 401.8,66.1 L 404.6,66.1 L 407.3,66.1 L 410.1,66.1 L 412.9,66.1 L 415.7,66.1 L 418.5,66.1 L 421.3,66.1 L 424.1,66.1 L 426.8,66.1 L 429.6,66.1 L 432.4,66.1 L 435.2,66.1 L 438.0,66.1 L 440.8,66.1 L 443.5,66.1 L 446.3,60.0 L 449.1,60.0 L 451.9,60.0 L 454.7,60.0 L 457.5,60.0 L 460.3,60.0 L 463.0,60.0 L 465.8,60.0 L 468.6,60.0 L 471.4,60.0 L 474.2,60.0 L 477.0,60.0 L 479.7,60.0 L 482.5,60.0 L 485.3,60.0 L 488.1,60.0 L 490.9,60.0 L 493.7,60.0 L 496.5,60.0 L 499.2,60.0 L 502.0,60.0 L 504.8,60.0 L 507.6,60.0 L 510.4,60.0 L 513.2,60.0 L 515.9,60.0 L 518.7,60.0 L 521.5,60.0 L 524.3,60.0 L 527.1,60.0 L 529.9,60.0 L 532.7,60.0 L 535.4,60.0 L 538.2,60.0 L 541.0,60.0 L 543.8,60.0 L 546.6,60.0 L 549.4,60.0 L 552.2,60.0 L 554.9,60.0 L 557.7,60.0 L 560.5,60.0 L 563.3,60.0 L 566.1,60.0 L 568.9,60.0 L 571.6,60.0 L 574.4,60.0 L 577.2,60.0 L 580.0,60.0" stroke="#3E5640" stroke-width="1.5" fill="none"/><line x1="20" y1="180" x2="580" y2="180" stroke="#0E0E0E33"/><text x="20" y="195" font-family="sans-serif" font-size="10" fill="#7A7570">Powered by RateRadar · rateradar-web.vercel.app</text></svg>