<svg xmlns="http://www.w3.org/2000/svg" viewBox="0 0 600 200" width="600" height="200" role="img" aria-label="RateRadar live odds for ECB 2026-09-10"><rect width="600" height="200" fill="#F5F1E8"/><text x="20" y="30" font-family="sans-serif" font-size="11" letter-spacing="1.5" fill="#7A7570">EUROPEAN CENTRAL BANK · SEP 10, 2026</text><text x="20" y="80" font-family="Georgia, serif" font-size="32" fill="#0E0E0E">Hold rates</text><text x="20" y="130" font-family="monospace" font-size="42" fill="#3E5640">100%</text><text x="20" y="155" font-family="sans-serif" font-size="11" fill="#7A7570">market-implied probability</text><path d="M 360.0,66.1 L 364.7,66.1 L 369.4,66.1 L 374.0,66.1 L 378.7,66.1 L 383.4,66.1 L 388.1,66.1 L 392.8,66.1 L 397.4,66.1 L 402.1,66.1 L 406.8,66.1 L 411.5,66.1 L 416.2,66.1 L 420.9,66.1 L 425.5,66.1 L 430.2,66.1 L 434.9,66.1 L 439.6,66.1 L 444.3,66.1 L 448.9,66.1 L 453.6,66.1 L 458.3,66.1 L 463.0,66.1 L 467.7,66.1 L 472.3,66.1 L 477.0,66.1 L 481.7,66.1 L 486.4,66.1 L 491.1,66.1 L 495.7,66.1 L 500.4,66.1 L 505.1,60.0 L 509.8,60.0 L 514.5,60.0 L 519.1,60.0 L 523.8,60.0 L 528.5,60.0 L 533.2,60.0 L 537.9,60.0 L 542.6,60.0 L 547.2,60.0 L 551.9,60.0 L 556.6,60.0 L 561.3,60.0 L 566.0,60.0 L 570.6,60.0 L 575.3,60.0 L 580.0,60.0" stroke="#3E5640" stroke-width="1.5" fill="none"/><line x1="20" y1="180" x2="580" y2="180" stroke="#0E0E0E33"/><text x="20" y="195" font-family="sans-serif" font-size="10" fill="#7A7570">Powered by RateRadar · rateradar-web.vercel.app</text></svg>