<svg xmlns="http://www.w3.org/2000/svg" viewBox="0 0 600 200" width="600" height="200" role="img" aria-label="RateRadar live odds for ECB 2026-12-17"><rect width="600" height="200" fill="#F5F1E8"/><text x="20" y="30" font-family="sans-serif" font-size="11" letter-spacing="1.5" fill="#7A7570">EUROPEAN CENTRAL BANK · DEC 17, 2026</text><text x="20" y="80" font-family="Georgia, serif" font-size="32" fill="#0E0E0E">Hold rates</text><text x="20" y="130" font-family="monospace" font-size="42" fill="#3E5640">100%</text><text x="20" y="155" font-family="sans-serif" font-size="11" fill="#7A7570">market-implied probability</text><path d="M 360.0,140.0 L 362.1,140.0 L 364.2,140.0 L 366.3,140.0 L 368.5,140.0 L 370.6,140.0 L 372.7,140.0 L 374.8,140.0 L 376.9,140.0 L 379.0,140.0 L 381.2,140.0 L 383.3,140.0 L 385.4,140.0 L 387.5,140.0 L 389.6,140.0 L 391.7,140.0 L 393.8,140.0 L 396.0,140.0 L 398.1,140.0 L 400.2,140.0 L 402.3,140.0 L 404.4,140.0 L 406.5,140.0 L 408.7,140.0 L 410.8,140.0 L 412.9,140.0 L 415.0,140.0 L 417.1,140.0 L 419.2,140.0 L 421.3,140.0 L 423.5,140.0 L 425.6,60.0 L 427.7,60.0 L 429.8,60.0 L 431.9,60.0 L 434.0,60.0 L 436.2,60.0 L 438.3,60.0 L 440.4,60.0 L 442.5,60.0 L 444.6,60.0 L 446.7,60.0 L 448.8,60.0 L 451.0,60.0 L 453.1,60.0 L 455.2,60.0 L 457.3,60.0 L 459.4,60.0 L 461.5,60.0 L 463.7,60.0 L 465.8,60.0 L 467.9,60.0 L 470.0,60.0 L 472.1,60.0 L 474.2,60.0 L 476.3,60.0 L 478.5,60.0 L 480.6,60.0 L 482.7,60.0 L 484.8,60.0 L 486.9,60.0 L 489.0,60.0 L 491.2,60.0 L 493.3,60.0 L 495.4,60.0 L 497.5,60.0 L 499.6,60.0 L 501.7,60.0 L 503.8,60.0 L 506.0,60.0 L 508.1,60.0 L 510.2,60.0 L 512.3,60.0 L 514.4,60.0 L 516.5,60.0 L 518.7,60.0 L 520.8,60.0 L 522.9,60.0 L 525.0,60.0 L 527.1,60.0 L 529.2,60.0 L 531.3,60.0 L 533.5,60.0 L 535.6,60.0 L 537.7,60.0 L 539.8,60.0 L 541.9,60.0 L 544.0,60.0 L 546.2,60.0 L 548.3,60.0 L 550.4,60.0 L 552.5,60.0 L 554.6,60.0 L 556.7,60.0 L 558.8,60.0 L 561.0,60.0 L 563.1,60.0 L 565.2,60.0 L 567.3,60.0 L 569.4,60.0 L 571.5,60.0 L 573.7,60.0 L 575.8,60.0 L 577.9,60.0 L 580.0,60.0" stroke="#3E5640" stroke-width="1.5" fill="none"/><line x1="20" y1="180" x2="580" y2="180" stroke="#0E0E0E33"/><text x="20" y="195" font-family="sans-serif" font-size="10" fill="#7A7570">Powered by RateRadar · rateradar-web.vercel.app</text></svg>