<svg xmlns="http://www.w3.org/2000/svg" viewBox="0 0 600 200" width="600" height="200" role="img" aria-label="RateRadar live odds for ECB 2026-07-23"><rect width="600" height="200" fill="#F5F1E8"/><text x="20" y="30" font-family="sans-serif" font-size="11" letter-spacing="1.5" fill="#7A7570">EUROPEAN CENTRAL BANK · JUL 23, 2026</text><text x="20" y="80" font-family="Georgia, serif" font-size="32" fill="#0E0E0E">Move -25bp</text><text x="20" y="130" font-family="monospace" font-size="42" fill="#C8841C">61%</text><text x="20" y="155" font-family="sans-serif" font-size="11" fill="#7A7570">market-implied probability</text><path d="M 360.0,90.9 L 367.6,90.9 L 375.2,90.9 L 382.8,90.9 L 390.3,90.9 L 397.9,90.9 L 405.5,90.9 L 413.1,90.9 L 420.7,90.9 L 428.3,90.9 L 435.9,90.9 L 443.4,90.9 L 451.0,90.9 L 458.6,90.9 L 466.2,90.9 L 473.8,90.9 L 481.4,90.9 L 489.0,90.9 L 496.6,90.9 L 504.1,90.9 L 511.7,90.9 L 519.3,90.9 L 526.9,90.9 L 534.5,90.9 L 542.1,90.9 L 549.7,90.9 L 557.2,90.9 L 564.8,90.9 L 572.4,90.9 L 580.0,90.9" stroke="#C8841C" stroke-width="1.5" fill="none"/><line x1="20" y1="180" x2="580" y2="180" stroke="#0E0E0E33"/><text x="20" y="195" font-family="sans-serif" font-size="10" fill="#7A7570">Powered by RateRadar · rateradar-web.vercel.app</text></svg>