<svg xmlns="http://www.w3.org/2000/svg" viewBox="0 0 600 200" width="600" height="200" role="img" aria-label="RateRadar live odds for ECB 2026-09-10"><rect width="600" height="200" fill="#F5F1E8"/><text x="20" y="30" font-family="sans-serif" font-size="11" letter-spacing="1.5" fill="#7A7570">EUROPEAN CENTRAL BANK · SEP 10, 2026</text><text x="20" y="80" font-family="Georgia, serif" font-size="32" fill="#0E0E0E">Hold rates</text><text x="20" y="130" font-family="monospace" font-size="42" fill="#3E5640">92%</text><text x="20" y="155" font-family="sans-serif" font-size="11" fill="#7A7570">market-implied probability</text><path d="M 360.0,66.1 L 370.5,66.1 L 381.0,66.1 L 391.4,66.1 L 401.9,66.1 L 412.4,66.1 L 422.9,66.1 L 433.3,66.1 L 443.8,66.1 L 454.3,66.1 L 464.8,66.1 L 475.2,66.1 L 485.7,66.1 L 496.2,66.1 L 506.7,66.1 L 517.1,66.1 L 527.6,66.1 L 538.1,66.1 L 548.6,66.1 L 559.0,66.1 L 569.5,66.1 L 580.0,66.1" stroke="#3E5640" stroke-width="1.5" fill="none"/><line x1="20" y1="180" x2="580" y2="180" stroke="#0E0E0E33"/><text x="20" y="195" font-family="sans-serif" font-size="10" fill="#7A7570">Powered by RateRadar · rateradar-web.vercel.app</text></svg>