<svg xmlns="http://www.w3.org/2000/svg" viewBox="0 0 600 200" width="600" height="200" role="img" aria-label="RateRadar live odds for ECB 2026-07-23"><rect width="600" height="200" fill="#F5F1E8"/><text x="20" y="30" font-family="sans-serif" font-size="11" letter-spacing="1.5" fill="#7A7570">EUROPEAN CENTRAL BANK · JUL 23, 2026</text><text x="20" y="80" font-family="Georgia, serif" font-size="32" fill="#0E0E0E">Hold rates</text><text x="20" y="130" font-family="monospace" font-size="42" fill="#3E5640">100%</text><text x="20" y="155" font-family="sans-serif" font-size="11" fill="#7A7570">market-implied probability</text><path d="M 360.0,140.0 L 362.7,140.0 L 365.3,140.0 L 368.0,140.0 L 370.6,140.0 L 373.3,140.0 L 375.9,140.0 L 378.6,140.0 L 381.2,140.0 L 383.9,140.0 L 386.5,140.0 L 389.2,140.0 L 391.8,140.0 L 394.5,140.0 L 397.1,140.0 L 399.8,140.0 L 402.4,140.0 L 405.1,140.0 L 407.7,140.0 L 410.4,140.0 L 413.0,140.0 L 415.7,140.0 L 418.3,140.0 L 421.0,140.0 L 423.6,140.0 L 426.3,140.0 L 428.9,140.0 L 431.6,140.0 L 434.2,140.0 L 436.9,140.0 L 439.5,140.0 L 442.2,60.0 L 444.8,60.0 L 447.5,60.0 L 450.1,60.0 L 452.8,60.0 L 455.4,60.0 L 458.1,60.0 L 460.7,60.0 L 463.4,60.0 L 466.0,60.0 L 468.7,60.0 L 471.3,60.0 L 474.0,60.0 L 476.6,60.0 L 479.3,60.0 L 481.9,60.0 L 484.6,60.0 L 487.2,60.0 L 489.9,60.0 L 492.5,60.0 L 495.2,60.0 L 497.8,60.0 L 500.5,60.0 L 503.1,60.0 L 505.8,60.0 L 508.4,60.0 L 511.1,60.0 L 513.7,60.0 L 516.4,60.0 L 519.0,60.0 L 521.7,60.0 L 524.3,60.0 L 527.0,60.0 L 529.6,60.0 L 532.3,60.0 L 534.9,60.0 L 537.6,60.0 L 540.2,60.0 L 542.9,60.0 L 545.5,60.0 L 548.2,60.0 L 550.8,60.0 L 553.5,60.0 L 556.1,60.0 L 558.8,60.0 L 561.4,60.0 L 564.1,60.0 L 566.7,60.0 L 569.4,60.0 L 572.0,60.0 L 574.7,60.0 L 577.3,60.0 L 580.0,60.0" stroke="#3E5640" stroke-width="1.5" fill="none"/><line x1="20" y1="180" x2="580" y2="180" stroke="#0E0E0E33"/><text x="20" y="195" font-family="sans-serif" font-size="10" fill="#7A7570">Powered by RateRadar · rateradar-web.vercel.app</text></svg>