<svg xmlns="http://www.w3.org/2000/svg" viewBox="0 0 600 200" width="600" height="200" role="img" aria-label="RateRadar live odds for ECB 2026-09-10"><rect width="600" height="200" fill="#F5F1E8"/><text x="20" y="30" font-family="sans-serif" font-size="11" letter-spacing="1.5" fill="#7A7570">EUROPEAN CENTRAL BANK · SEP 10, 2026</text><text x="20" y="80" font-family="Georgia, serif" font-size="32" fill="#0E0E0E">Hold rates</text><text x="20" y="130" font-family="monospace" font-size="42" fill="#3E5640">100%</text><text x="20" y="155" font-family="sans-serif" font-size="11" fill="#7A7570">market-implied probability</text><path d="M 360.0,66.1 L 363.0,66.1 L 366.0,66.1 L 369.0,66.1 L 372.1,66.1 L 375.1,66.1 L 378.1,66.1 L 381.1,66.1 L 384.1,66.1 L 387.1,66.1 L 390.1,66.1 L 393.2,66.1 L 396.2,66.1 L 399.2,66.1 L 402.2,66.1 L 405.2,66.1 L 408.2,66.1 L 411.2,66.1 L 414.2,66.1 L 417.3,66.1 L 420.3,66.1 L 423.3,66.1 L 426.3,66.1 L 429.3,66.1 L 432.3,66.1 L 435.3,66.1 L 438.4,66.1 L 441.4,66.1 L 444.4,66.1 L 447.4,66.1 L 450.4,66.1 L 453.4,60.0 L 456.4,60.0 L 459.5,60.0 L 462.5,60.0 L 465.5,60.0 L 468.5,60.0 L 471.5,60.0 L 474.5,60.0 L 477.5,60.0 L 480.5,60.0 L 483.6,60.0 L 486.6,60.0 L 489.6,60.0 L 492.6,60.0 L 495.6,60.0 L 498.6,60.0 L 501.6,60.0 L 504.7,60.0 L 507.7,60.0 L 510.7,60.0 L 513.7,60.0 L 516.7,60.0 L 519.7,60.0 L 522.7,60.0 L 525.8,60.0 L 528.8,60.0 L 531.8,60.0 L 534.8,60.0 L 537.8,60.0 L 540.8,60.0 L 543.8,60.0 L 546.8,60.0 L 549.9,60.0 L 552.9,60.0 L 555.9,60.0 L 558.9,60.0 L 561.9,60.0 L 564.9,60.0 L 567.9,60.0 L 571.0,60.0 L 574.0,60.0 L 577.0,60.0 L 580.0,60.0" stroke="#3E5640" stroke-width="1.5" fill="none"/><line x1="20" y1="180" x2="580" y2="180" stroke="#0E0E0E33"/><text x="20" y="195" font-family="sans-serif" font-size="10" fill="#7A7570">Powered by RateRadar · rateradar-web.vercel.app</text></svg>