<svg xmlns="http://www.w3.org/2000/svg" viewBox="0 0 600 200" width="600" height="200" role="img" aria-label="RateRadar live odds for ECB 2026-12-17"><rect width="600" height="200" fill="#F5F1E8"/><text x="20" y="30" font-family="sans-serif" font-size="11" letter-spacing="1.5" fill="#7A7570">EUROPEAN CENTRAL BANK · DEC 17, 2026</text><text x="20" y="80" font-family="Georgia, serif" font-size="32" fill="#0E0E0E">Hold rates</text><text x="20" y="130" font-family="monospace" font-size="42" fill="#3E5640">100%</text><text x="20" y="155" font-family="sans-serif" font-size="11" fill="#7A7570">market-implied probability</text><path d="M 360.0,140.0 L 362.3,140.0 L 364.5,140.0 L 366.8,140.0 L 369.1,140.0 L 371.3,140.0 L 373.6,140.0 L 375.9,140.0 L 378.1,140.0 L 380.4,140.0 L 382.7,140.0 L 384.9,140.0 L 387.2,140.0 L 389.5,140.0 L 391.8,140.0 L 394.0,140.0 L 396.3,140.0 L 398.6,140.0 L 400.8,140.0 L 403.1,140.0 L 405.4,140.0 L 407.6,140.0 L 409.9,140.0 L 412.2,140.0 L 414.4,140.0 L 416.7,140.0 L 419.0,140.0 L 421.2,140.0 L 423.5,140.0 L 425.8,140.0 L 428.0,140.0 L 430.3,60.0 L 432.6,60.0 L 434.8,60.0 L 437.1,60.0 L 439.4,60.0 L 441.6,60.0 L 443.9,60.0 L 446.2,60.0 L 448.5,60.0 L 450.7,60.0 L 453.0,60.0 L 455.3,60.0 L 457.5,60.0 L 459.8,60.0 L 462.1,60.0 L 464.3,60.0 L 466.6,60.0 L 468.9,60.0 L 471.1,60.0 L 473.4,60.0 L 475.7,60.0 L 477.9,60.0 L 480.2,60.0 L 482.5,60.0 L 484.7,60.0 L 487.0,60.0 L 489.3,60.0 L 491.5,60.0 L 493.8,60.0 L 496.1,60.0 L 498.4,60.0 L 500.6,60.0 L 502.9,60.0 L 505.2,60.0 L 507.4,60.0 L 509.7,60.0 L 512.0,60.0 L 514.2,60.0 L 516.5,60.0 L 518.8,60.0 L 521.0,60.0 L 523.3,60.0 L 525.6,60.0 L 527.8,60.0 L 530.1,60.0 L 532.4,60.0 L 534.6,60.0 L 536.9,60.0 L 539.2,60.0 L 541.4,60.0 L 543.7,60.0 L 546.0,60.0 L 548.2,60.0 L 550.5,60.0 L 552.8,60.0 L 555.1,60.0 L 557.3,60.0 L 559.6,60.0 L 561.9,60.0 L 564.1,60.0 L 566.4,60.0 L 568.7,60.0 L 570.9,60.0 L 573.2,60.0 L 575.5,60.0 L 577.7,60.0 L 580.0,60.0" stroke="#3E5640" stroke-width="1.5" fill="none"/><line x1="20" y1="180" x2="580" y2="180" stroke="#0E0E0E33"/><text x="20" y="195" font-family="sans-serif" font-size="10" fill="#7A7570">Powered by RateRadar · rateradar-web.vercel.app</text></svg>