<svg xmlns="http://www.w3.org/2000/svg" viewBox="0 0 600 200" width="600" height="200" role="img" aria-label="RateRadar live odds for ECB 2026-12-17"><rect width="600" height="200" fill="#F5F1E8"/><text x="20" y="30" font-family="sans-serif" font-size="11" letter-spacing="1.5" fill="#7A7570">EUROPEAN CENTRAL BANK · DEC 17, 2026</text><text x="20" y="80" font-family="Georgia, serif" font-size="32" fill="#0E0E0E">Hold rates</text><text x="20" y="130" font-family="monospace" font-size="42" fill="#3E5640">100%</text><text x="20" y="155" font-family="sans-serif" font-size="11" fill="#7A7570">market-implied probability</text><path d="M 360.0,140.0 L 363.0,140.0 L 365.9,140.0 L 368.9,140.0 L 371.9,140.0 L 374.9,140.0 L 377.8,140.0 L 380.8,140.0 L 383.8,140.0 L 386.8,140.0 L 389.7,140.0 L 392.7,140.0 L 395.7,140.0 L 398.6,140.0 L 401.6,140.0 L 404.6,140.0 L 407.6,140.0 L 410.5,140.0 L 413.5,140.0 L 416.5,140.0 L 419.5,140.0 L 422.4,140.0 L 425.4,140.0 L 428.4,140.0 L 431.4,140.0 L 434.3,140.0 L 437.3,140.0 L 440.3,140.0 L 443.2,140.0 L 446.2,140.0 L 449.2,140.0 L 452.2,60.0 L 455.1,60.0 L 458.1,60.0 L 461.1,60.0 L 464.1,60.0 L 467.0,60.0 L 470.0,60.0 L 473.0,60.0 L 475.9,60.0 L 478.9,60.0 L 481.9,60.0 L 484.9,60.0 L 487.8,60.0 L 490.8,60.0 L 493.8,60.0 L 496.8,60.0 L 499.7,60.0 L 502.7,60.0 L 505.7,60.0 L 508.6,60.0 L 511.6,60.0 L 514.6,60.0 L 517.6,60.0 L 520.5,60.0 L 523.5,60.0 L 526.5,60.0 L 529.5,60.0 L 532.4,60.0 L 535.4,60.0 L 538.4,60.0 L 541.4,60.0 L 544.3,60.0 L 547.3,60.0 L 550.3,60.0 L 553.2,60.0 L 556.2,60.0 L 559.2,60.0 L 562.2,60.0 L 565.1,60.0 L 568.1,60.0 L 571.1,60.0 L 574.1,60.0 L 577.0,60.0 L 580.0,60.0" stroke="#3E5640" stroke-width="1.5" fill="none"/><line x1="20" y1="180" x2="580" y2="180" stroke="#0E0E0E33"/><text x="20" y="195" font-family="sans-serif" font-size="10" fill="#7A7570">Powered by RateRadar · rateradar-web.vercel.app</text></svg>