<svg xmlns="http://www.w3.org/2000/svg" viewBox="0 0 600 200" width="600" height="200" role="img" aria-label="RateRadar live odds for ECB 2026-12-17"><rect width="600" height="200" fill="#F5F1E8"/><text x="20" y="30" font-family="sans-serif" font-size="11" letter-spacing="1.5" fill="#7A7570">EUROPEAN CENTRAL BANK · DEC 17, 2026</text><text x="20" y="80" font-family="Georgia, serif" font-size="32" fill="#0E0E0E">Hold rates</text><text x="20" y="130" font-family="monospace" font-size="42" fill="#3E5640">100%</text><text x="20" y="155" font-family="sans-serif" font-size="11" fill="#7A7570">market-implied probability</text><path d="M 360.0,140.0 L 362.4,140.0 L 364.9,140.0 L 367.3,140.0 L 369.8,140.0 L 372.2,140.0 L 374.7,140.0 L 377.1,140.0 L 379.6,140.0 L 382.0,140.0 L 384.4,140.0 L 386.9,140.0 L 389.3,140.0 L 391.8,140.0 L 394.2,140.0 L 396.7,140.0 L 399.1,140.0 L 401.6,140.0 L 404.0,140.0 L 406.4,140.0 L 408.9,140.0 L 411.3,140.0 L 413.8,140.0 L 416.2,140.0 L 418.7,140.0 L 421.1,140.0 L 423.6,140.0 L 426.0,140.0 L 428.4,140.0 L 430.9,140.0 L 433.3,140.0 L 435.8,60.0 L 438.2,60.0 L 440.7,60.0 L 443.1,60.0 L 445.6,60.0 L 448.0,60.0 L 450.4,60.0 L 452.9,60.0 L 455.3,60.0 L 457.8,60.0 L 460.2,60.0 L 462.7,60.0 L 465.1,60.0 L 467.6,60.0 L 470.0,60.0 L 472.4,60.0 L 474.9,60.0 L 477.3,60.0 L 479.8,60.0 L 482.2,60.0 L 484.7,60.0 L 487.1,60.0 L 489.6,60.0 L 492.0,60.0 L 494.4,60.0 L 496.9,60.0 L 499.3,60.0 L 501.8,60.0 L 504.2,60.0 L 506.7,60.0 L 509.1,60.0 L 511.6,60.0 L 514.0,60.0 L 516.4,60.0 L 518.9,60.0 L 521.3,60.0 L 523.8,60.0 L 526.2,60.0 L 528.7,60.0 L 531.1,60.0 L 533.6,60.0 L 536.0,60.0 L 538.4,60.0 L 540.9,60.0 L 543.3,60.0 L 545.8,60.0 L 548.2,60.0 L 550.7,60.0 L 553.1,60.0 L 555.6,60.0 L 558.0,60.0 L 560.4,60.0 L 562.9,60.0 L 565.3,60.0 L 567.8,60.0 L 570.2,60.0 L 572.7,60.0 L 575.1,60.0 L 577.6,60.0 L 580.0,60.0" stroke="#3E5640" stroke-width="1.5" fill="none"/><line x1="20" y1="180" x2="580" y2="180" stroke="#0E0E0E33"/><text x="20" y="195" font-family="sans-serif" font-size="10" fill="#7A7570">Powered by RateRadar · rateradar-web.vercel.app</text></svg>