<svg xmlns="http://www.w3.org/2000/svg" viewBox="0 0 600 200" width="600" height="200" role="img" aria-label="RateRadar live odds for ECB 2026-09-10"><rect width="600" height="200" fill="#F5F1E8"/><text x="20" y="30" font-family="sans-serif" font-size="11" letter-spacing="1.5" fill="#7A7570">EUROPEAN CENTRAL BANK · SEP 10, 2026</text><text x="20" y="80" font-family="Georgia, serif" font-size="32" fill="#0E0E0E">Hold rates</text><text x="20" y="130" font-family="monospace" font-size="42" fill="#3E5640">100%</text><text x="20" y="155" font-family="sans-serif" font-size="11" fill="#7A7570">market-implied probability</text><path d="M 360.0,66.1 L 363.3,66.1 L 366.6,66.1 L 369.9,66.1 L 373.1,66.1 L 376.4,66.1 L 379.7,66.1 L 383.0,66.1 L 386.3,66.1 L 389.6,66.1 L 392.8,66.1 L 396.1,66.1 L 399.4,66.1 L 402.7,66.1 L 406.0,66.1 L 409.3,66.1 L 412.5,66.1 L 415.8,66.1 L 419.1,66.1 L 422.4,66.1 L 425.7,66.1 L 429.0,66.1 L 432.2,66.1 L 435.5,66.1 L 438.8,66.1 L 442.1,66.1 L 445.4,66.1 L 448.7,66.1 L 451.9,66.1 L 455.2,66.1 L 458.5,66.1 L 461.8,60.0 L 465.1,60.0 L 468.4,60.0 L 471.6,60.0 L 474.9,60.0 L 478.2,60.0 L 481.5,60.0 L 484.8,60.0 L 488.1,60.0 L 491.3,60.0 L 494.6,60.0 L 497.9,60.0 L 501.2,60.0 L 504.5,60.0 L 507.8,60.0 L 511.0,60.0 L 514.3,60.0 L 517.6,60.0 L 520.9,60.0 L 524.2,60.0 L 527.5,60.0 L 530.7,60.0 L 534.0,60.0 L 537.3,60.0 L 540.6,60.0 L 543.9,60.0 L 547.2,60.0 L 550.4,60.0 L 553.7,60.0 L 557.0,60.0 L 560.3,60.0 L 563.6,60.0 L 566.9,60.0 L 570.1,60.0 L 573.4,60.0 L 576.7,60.0 L 580.0,60.0" stroke="#3E5640" stroke-width="1.5" fill="none"/><line x1="20" y1="180" x2="580" y2="180" stroke="#0E0E0E33"/><text x="20" y="195" font-family="sans-serif" font-size="10" fill="#7A7570">Powered by RateRadar · rateradar-web.vercel.app</text></svg>