<svg xmlns="http://www.w3.org/2000/svg" viewBox="0 0 600 200" width="600" height="200" role="img" aria-label="RateRadar live odds for ECB 2026-06-11"><rect width="600" height="200" fill="#F5F1E8"/><text x="20" y="30" font-family="sans-serif" font-size="11" letter-spacing="1.5" fill="#7A7570">EUROPEAN CENTRAL BANK · JUN 11, 2026</text><text x="20" y="80" font-family="Georgia, serif" font-size="32" fill="#0E0E0E">Hold rates</text><text x="20" y="130" font-family="monospace" font-size="42" fill="#3E5640">100%</text><text x="20" y="155" font-family="sans-serif" font-size="11" fill="#7A7570">market-implied probability</text><path d="M 360.0,95.4 L 365.0,95.4 L 370.0,95.4 L 375.0,95.4 L 380.0,95.4 L 385.0,95.4 L 390.0,95.4 L 395.0,95.4 L 400.0,95.4 L 405.0,95.4 L 410.0,95.4 L 415.0,95.4 L 420.0,95.4 L 425.0,95.4 L 430.0,95.4 L 435.0,95.4 L 440.0,95.4 L 445.0,95.4 L 450.0,95.4 L 455.0,95.4 L 460.0,95.4 L 465.0,95.4 L 470.0,95.4 L 475.0,95.4 L 480.0,95.4 L 485.0,95.4 L 490.0,95.4 L 495.0,95.4 L 500.0,95.4 L 505.0,95.4 L 510.0,95.4 L 515.0,60.0 L 520.0,60.0 L 525.0,60.0 L 530.0,60.0 L 535.0,60.0 L 540.0,60.0 L 545.0,60.0 L 550.0,60.0 L 555.0,60.0 L 560.0,60.0 L 565.0,60.0 L 570.0,60.0 L 575.0,60.0 L 580.0,60.0" stroke="#3E5640" stroke-width="1.5" fill="none"/><line x1="20" y1="180" x2="580" y2="180" stroke="#0E0E0E33"/><text x="20" y="195" font-family="sans-serif" font-size="10" fill="#7A7570">Powered by RateRadar · rateradar-web.vercel.app</text></svg>