<svg xmlns="http://www.w3.org/2000/svg" viewBox="0 0 600 200" width="600" height="200" role="img" aria-label="RateRadar live odds for ECB 2026-09-10"><rect width="600" height="200" fill="#F5F1E8"/><text x="20" y="30" font-family="sans-serif" font-size="11" letter-spacing="1.5" fill="#7A7570">EUROPEAN CENTRAL BANK · SEP 10, 2026</text><text x="20" y="80" font-family="Georgia, serif" font-size="32" fill="#0E0E0E">Hold rates</text><text x="20" y="130" font-family="monospace" font-size="42" fill="#3E5640">100%</text><text x="20" y="155" font-family="sans-serif" font-size="11" fill="#7A7570">market-implied probability</text><path d="M 360.0,66.1 L 366.7,66.1 L 373.3,66.1 L 380.0,66.1 L 386.7,66.1 L 393.3,66.1 L 400.0,66.1 L 406.7,66.1 L 413.3,66.1 L 420.0,66.1 L 426.7,66.1 L 433.3,66.1 L 440.0,66.1 L 446.7,66.1 L 453.3,66.1 L 460.0,66.1 L 466.7,66.1 L 473.3,66.1 L 480.0,66.1 L 486.7,66.1 L 493.3,66.1 L 500.0,66.1 L 506.7,66.1 L 513.3,66.1 L 520.0,66.1 L 526.7,66.1 L 533.3,66.1 L 540.0,66.1 L 546.7,66.1 L 553.3,66.1 L 560.0,66.1 L 566.7,60.0 L 573.3,60.0 L 580.0,60.0" stroke="#3E5640" stroke-width="1.5" fill="none"/><line x1="20" y1="180" x2="580" y2="180" stroke="#0E0E0E33"/><text x="20" y="195" font-family="sans-serif" font-size="10" fill="#7A7570">Powered by RateRadar · rateradar-web.vercel.app</text></svg>