<svg xmlns="http://www.w3.org/2000/svg" viewBox="0 0 600 200" width="600" height="200" role="img" aria-label="RateRadar live odds for ECB 2026-09-10"><rect width="600" height="200" fill="#F5F1E8"/><text x="20" y="30" font-family="sans-serif" font-size="11" letter-spacing="1.5" fill="#7A7570">EUROPEAN CENTRAL BANK · SEP 10, 2026</text><text x="20" y="80" font-family="Georgia, serif" font-size="32" fill="#0E0E0E">Hold rates</text><text x="20" y="130" font-family="monospace" font-size="42" fill="#3E5640">100%</text><text x="20" y="155" font-family="sans-serif" font-size="11" fill="#7A7570">market-implied probability</text><path d="M 360.0,66.1 L 366.1,66.1 L 372.2,66.1 L 378.3,66.1 L 384.4,66.1 L 390.6,66.1 L 396.7,66.1 L 402.8,66.1 L 408.9,66.1 L 415.0,66.1 L 421.1,66.1 L 427.2,66.1 L 433.3,66.1 L 439.4,66.1 L 445.6,66.1 L 451.7,66.1 L 457.8,66.1 L 463.9,66.1 L 470.0,66.1 L 476.1,66.1 L 482.2,66.1 L 488.3,66.1 L 494.4,66.1 L 500.6,66.1 L 506.7,66.1 L 512.8,66.1 L 518.9,66.1 L 525.0,66.1 L 531.1,66.1 L 537.2,66.1 L 543.3,66.1 L 549.4,60.0 L 555.6,60.0 L 561.7,60.0 L 567.8,60.0 L 573.9,60.0 L 580.0,60.0" stroke="#3E5640" stroke-width="1.5" fill="none"/><line x1="20" y1="180" x2="580" y2="180" stroke="#0E0E0E33"/><text x="20" y="195" font-family="sans-serif" font-size="10" fill="#7A7570">Powered by RateRadar · rateradar-web.vercel.app</text></svg>