<svg xmlns="http://www.w3.org/2000/svg" viewBox="0 0 600 200" width="600" height="200" role="img" aria-label="RateRadar live odds for ECB 2026-09-10"><rect width="600" height="200" fill="#F5F1E8"/><text x="20" y="30" font-family="sans-serif" font-size="11" letter-spacing="1.5" fill="#7A7570">EUROPEAN CENTRAL BANK · SEP 10, 2026</text><text x="20" y="80" font-family="Georgia, serif" font-size="32" fill="#0E0E0E">Hold rates</text><text x="20" y="130" font-family="monospace" font-size="42" fill="#3E5640">100%</text><text x="20" y="155" font-family="sans-serif" font-size="11" fill="#7A7570">market-implied probability</text><path d="M 360.0,66.1 L 362.4,66.1 L 364.8,66.1 L 367.3,66.1 L 369.7,66.1 L 372.1,66.1 L 374.5,66.1 L 376.9,66.1 L 379.3,66.1 L 381.8,66.1 L 384.2,66.1 L 386.6,66.1 L 389.0,66.1 L 391.4,66.1 L 393.8,66.1 L 396.3,66.1 L 398.7,66.1 L 401.1,66.1 L 403.5,66.1 L 405.9,66.1 L 408.4,66.1 L 410.8,66.1 L 413.2,66.1 L 415.6,66.1 L 418.0,66.1 L 420.4,66.1 L 422.9,66.1 L 425.3,66.1 L 427.7,66.1 L 430.1,66.1 L 432.5,66.1 L 434.9,60.0 L 437.4,60.0 L 439.8,60.0 L 442.2,60.0 L 444.6,60.0 L 447.0,60.0 L 449.5,60.0 L 451.9,60.0 L 454.3,60.0 L 456.7,60.0 L 459.1,60.0 L 461.5,60.0 L 464.0,60.0 L 466.4,60.0 L 468.8,60.0 L 471.2,60.0 L 473.6,60.0 L 476.0,60.0 L 478.5,60.0 L 480.9,60.0 L 483.3,60.0 L 485.7,60.0 L 488.1,60.0 L 490.5,60.0 L 493.0,60.0 L 495.4,60.0 L 497.8,60.0 L 500.2,60.0 L 502.6,60.0 L 505.1,60.0 L 507.5,60.0 L 509.9,60.0 L 512.3,60.0 L 514.7,60.0 L 517.1,60.0 L 519.6,60.0 L 522.0,60.0 L 524.4,60.0 L 526.8,60.0 L 529.2,60.0 L 531.6,60.0 L 534.1,60.0 L 536.5,60.0 L 538.9,60.0 L 541.3,60.0 L 543.7,60.0 L 546.2,60.0 L 548.6,60.0 L 551.0,60.0 L 553.4,60.0 L 555.8,60.0 L 558.2,60.0 L 560.7,60.0 L 563.1,60.0 L 565.5,60.0 L 567.9,60.0 L 570.3,60.0 L 572.7,60.0 L 575.2,60.0 L 577.6,60.0 L 580.0,60.0" stroke="#3E5640" stroke-width="1.5" fill="none"/><line x1="20" y1="180" x2="580" y2="180" stroke="#0E0E0E33"/><text x="20" y="195" font-family="sans-serif" font-size="10" fill="#7A7570">Powered by RateRadar · rateradar-web.vercel.app</text></svg>