<svg xmlns="http://www.w3.org/2000/svg" viewBox="0 0 600 200" width="600" height="200" role="img" aria-label="RateRadar live odds for ECB 2026-07-23"><rect width="600" height="200" fill="#F5F1E8"/><text x="20" y="30" font-family="sans-serif" font-size="11" letter-spacing="1.5" fill="#7A7570">EUROPEAN CENTRAL BANK · JUL 23, 2026</text><text x="20" y="80" font-family="Georgia, serif" font-size="32" fill="#0E0E0E">Hold rates</text><text x="20" y="130" font-family="monospace" font-size="42" fill="#3E5640">100%</text><text x="20" y="155" font-family="sans-serif" font-size="11" fill="#7A7570">market-implied probability</text><path d="M 360.0,140.0 L 362.3,140.0 L 364.7,140.0 L 367.0,140.0 L 369.4,140.0 L 371.7,140.0 L 374.0,140.0 L 376.4,140.0 L 378.7,140.0 L 381.1,140.0 L 383.4,140.0 L 385.7,140.0 L 388.1,140.0 L 390.4,140.0 L 392.8,140.0 L 395.1,140.0 L 397.4,140.0 L 399.8,140.0 L 402.1,140.0 L 404.5,140.0 L 406.8,140.0 L 409.1,140.0 L 411.5,140.0 L 413.8,140.0 L 416.2,140.0 L 418.5,140.0 L 420.9,140.0 L 423.2,140.0 L 425.5,140.0 L 427.9,140.0 L 430.2,140.0 L 432.6,60.0 L 434.9,60.0 L 437.2,60.0 L 439.6,60.0 L 441.9,60.0 L 444.3,60.0 L 446.6,60.0 L 448.9,60.0 L 451.3,60.0 L 453.6,60.0 L 456.0,60.0 L 458.3,60.0 L 460.6,60.0 L 463.0,60.0 L 465.3,60.0 L 467.7,60.0 L 470.0,60.0 L 472.3,60.0 L 474.7,60.0 L 477.0,60.0 L 479.4,60.0 L 481.7,60.0 L 484.0,60.0 L 486.4,60.0 L 488.7,60.0 L 491.1,60.0 L 493.4,60.0 L 495.7,60.0 L 498.1,60.0 L 500.4,60.0 L 502.8,60.0 L 505.1,60.0 L 507.4,60.0 L 509.8,60.0 L 512.1,60.0 L 514.5,60.0 L 516.8,60.0 L 519.1,60.0 L 521.5,60.0 L 523.8,60.0 L 526.2,60.0 L 528.5,60.0 L 530.9,60.0 L 533.2,60.0 L 535.5,60.0 L 537.9,60.0 L 540.2,60.0 L 542.6,60.0 L 544.9,60.0 L 547.2,60.0 L 549.6,60.0 L 551.9,60.0 L 554.3,60.0 L 556.6,60.0 L 558.9,60.0 L 561.3,60.0 L 563.6,60.0 L 566.0,60.0 L 568.3,60.0 L 570.6,60.0 L 573.0,60.0 L 575.3,60.0 L 577.7,60.0 L 580.0,60.0" stroke="#3E5640" stroke-width="1.5" fill="none"/><line x1="20" y1="180" x2="580" y2="180" stroke="#0E0E0E33"/><text x="20" y="195" font-family="sans-serif" font-size="10" fill="#7A7570">Powered by RateRadar · rateradar-web.vercel.app</text></svg>