<svg xmlns="http://www.w3.org/2000/svg" viewBox="0 0 600 200" width="600" height="200" role="img" aria-label="RateRadar live odds for ECB 2026-07-23"><rect width="600" height="200" fill="#F5F1E8"/><text x="20" y="30" font-family="sans-serif" font-size="11" letter-spacing="1.5" fill="#7A7570">EUROPEAN CENTRAL BANK · JUL 23, 2026</text><text x="20" y="80" font-family="Georgia, serif" font-size="32" fill="#0E0E0E">Hold rates</text><text x="20" y="130" font-family="monospace" font-size="42" fill="#3E5640">100%</text><text x="20" y="155" font-family="sans-serif" font-size="11" fill="#7A7570">market-implied probability</text><path d="M 360.0,140.0 L 362.4,140.0 L 364.8,140.0 L 367.2,140.0 L 369.6,140.0 L 372.0,140.0 L 374.3,140.0 L 376.7,140.0 L 379.1,140.0 L 381.5,140.0 L 383.9,140.0 L 386.3,140.0 L 388.7,140.0 L 391.1,140.0 L 393.5,140.0 L 395.9,140.0 L 398.3,140.0 L 400.7,140.0 L 403.0,140.0 L 405.4,140.0 L 407.8,140.0 L 410.2,140.0 L 412.6,140.0 L 415.0,140.0 L 417.4,140.0 L 419.8,140.0 L 422.2,140.0 L 424.6,140.0 L 427.0,140.0 L 429.3,140.0 L 431.7,140.0 L 434.1,60.0 L 436.5,60.0 L 438.9,60.0 L 441.3,60.0 L 443.7,60.0 L 446.1,60.0 L 448.5,60.0 L 450.9,60.0 L 453.3,60.0 L 455.7,60.0 L 458.0,60.0 L 460.4,60.0 L 462.8,60.0 L 465.2,60.0 L 467.6,60.0 L 470.0,60.0 L 472.4,60.0 L 474.8,60.0 L 477.2,60.0 L 479.6,60.0 L 482.0,60.0 L 484.3,60.0 L 486.7,60.0 L 489.1,60.0 L 491.5,60.0 L 493.9,60.0 L 496.3,60.0 L 498.7,60.0 L 501.1,60.0 L 503.5,60.0 L 505.9,60.0 L 508.3,60.0 L 510.7,60.0 L 513.0,60.0 L 515.4,60.0 L 517.8,60.0 L 520.2,60.0 L 522.6,60.0 L 525.0,60.0 L 527.4,60.0 L 529.8,60.0 L 532.2,60.0 L 534.6,60.0 L 537.0,60.0 L 539.3,60.0 L 541.7,60.0 L 544.1,60.0 L 546.5,60.0 L 548.9,60.0 L 551.3,60.0 L 553.7,60.0 L 556.1,60.0 L 558.5,60.0 L 560.9,60.0 L 563.3,60.0 L 565.7,60.0 L 568.0,60.0 L 570.4,60.0 L 572.8,60.0 L 575.2,60.0 L 577.6,60.0 L 580.0,60.0" stroke="#3E5640" stroke-width="1.5" fill="none"/><line x1="20" y1="180" x2="580" y2="180" stroke="#0E0E0E33"/><text x="20" y="195" font-family="sans-serif" font-size="10" fill="#7A7570">Powered by RateRadar · rateradar-web.vercel.app</text></svg>