<svg xmlns="http://www.w3.org/2000/svg" viewBox="0 0 600 200" width="600" height="200" role="img" aria-label="RateRadar live odds for ECB 2026-09-10"><rect width="600" height="200" fill="#F5F1E8"/><text x="20" y="30" font-family="sans-serif" font-size="11" letter-spacing="1.5" fill="#7A7570">EUROPEAN CENTRAL BANK · SEP 10, 2026</text><text x="20" y="80" font-family="Georgia, serif" font-size="32" fill="#0E0E0E">Hold rates</text><text x="20" y="130" font-family="monospace" font-size="42" fill="#3E5640">100%</text><text x="20" y="155" font-family="sans-serif" font-size="11" fill="#7A7570">market-implied probability</text><path d="M 360.0,66.1 L 364.4,66.1 L 368.8,66.1 L 373.2,66.1 L 377.6,66.1 L 382.0,66.1 L 386.4,66.1 L 390.8,66.1 L 395.2,66.1 L 399.6,66.1 L 404.0,66.1 L 408.4,66.1 L 412.8,66.1 L 417.2,66.1 L 421.6,66.1 L 426.0,66.1 L 430.4,66.1 L 434.8,66.1 L 439.2,66.1 L 443.6,66.1 L 448.0,66.1 L 452.4,66.1 L 456.8,66.1 L 461.2,66.1 L 465.6,66.1 L 470.0,66.1 L 474.4,66.1 L 478.8,66.1 L 483.2,66.1 L 487.6,66.1 L 492.0,66.1 L 496.4,60.0 L 500.8,60.0 L 505.2,60.0 L 509.6,60.0 L 514.0,60.0 L 518.4,60.0 L 522.8,60.0 L 527.2,60.0 L 531.6,60.0 L 536.0,60.0 L 540.4,60.0 L 544.8,60.0 L 549.2,60.0 L 553.6,60.0 L 558.0,60.0 L 562.4,60.0 L 566.8,60.0 L 571.2,60.0 L 575.6,60.0 L 580.0,60.0" stroke="#3E5640" stroke-width="1.5" fill="none"/><line x1="20" y1="180" x2="580" y2="180" stroke="#0E0E0E33"/><text x="20" y="195" font-family="sans-serif" font-size="10" fill="#7A7570">Powered by RateRadar · rateradar-web.vercel.app</text></svg>