<svg xmlns="http://www.w3.org/2000/svg" viewBox="0 0 600 200" width="600" height="200" role="img" aria-label="RateRadar live odds for ECB 2026-09-10"><rect width="600" height="200" fill="#F5F1E8"/><text x="20" y="30" font-family="sans-serif" font-size="11" letter-spacing="1.5" fill="#7A7570">EUROPEAN CENTRAL BANK · SEP 10, 2026</text><text x="20" y="80" font-family="Georgia, serif" font-size="32" fill="#0E0E0E">Hold rates</text><text x="20" y="130" font-family="monospace" font-size="42" fill="#3E5640">100%</text><text x="20" y="155" font-family="sans-serif" font-size="11" fill="#7A7570">market-implied probability</text><path d="M 360.0,66.1 L 363.5,66.1 L 367.0,66.1 L 370.5,66.1 L 374.0,66.1 L 377.5,66.1 L 381.0,66.1 L 384.4,66.1 L 387.9,66.1 L 391.4,66.1 L 394.9,66.1 L 398.4,66.1 L 401.9,66.1 L 405.4,66.1 L 408.9,66.1 L 412.4,66.1 L 415.9,66.1 L 419.4,66.1 L 422.9,66.1 L 426.3,66.1 L 429.8,66.1 L 433.3,66.1 L 436.8,66.1 L 440.3,66.1 L 443.8,66.1 L 447.3,66.1 L 450.8,66.1 L 454.3,66.1 L 457.8,66.1 L 461.3,66.1 L 464.8,66.1 L 468.3,60.0 L 471.7,60.0 L 475.2,60.0 L 478.7,60.0 L 482.2,60.0 L 485.7,60.0 L 489.2,60.0 L 492.7,60.0 L 496.2,60.0 L 499.7,60.0 L 503.2,60.0 L 506.7,60.0 L 510.2,60.0 L 513.7,60.0 L 517.1,60.0 L 520.6,60.0 L 524.1,60.0 L 527.6,60.0 L 531.1,60.0 L 534.6,60.0 L 538.1,60.0 L 541.6,60.0 L 545.1,60.0 L 548.6,60.0 L 552.1,60.0 L 555.6,60.0 L 559.0,60.0 L 562.5,60.0 L 566.0,60.0 L 569.5,60.0 L 573.0,60.0 L 576.5,60.0 L 580.0,60.0" stroke="#3E5640" stroke-width="1.5" fill="none"/><line x1="20" y1="180" x2="580" y2="180" stroke="#0E0E0E33"/><text x="20" y="195" font-family="sans-serif" font-size="10" fill="#7A7570">Powered by RateRadar · rateradar-web.vercel.app</text></svg>