<svg xmlns="http://www.w3.org/2000/svg" viewBox="0 0 600 200" width="600" height="200" role="img" aria-label="RateRadar live odds for ECB 2026-09-10"><rect width="600" height="200" fill="#F5F1E8"/><text x="20" y="30" font-family="sans-serif" font-size="11" letter-spacing="1.5" fill="#7A7570">EUROPEAN CENTRAL BANK · SEP 10, 2026</text><text x="20" y="80" font-family="Georgia, serif" font-size="32" fill="#0E0E0E">Hold rates</text><text x="20" y="130" font-family="monospace" font-size="42" fill="#3E5640">100%</text><text x="20" y="155" font-family="sans-serif" font-size="11" fill="#7A7570">market-implied probability</text><path d="M 360.0,66.1 L 363.1,66.1 L 366.3,66.1 L 369.4,66.1 L 372.6,66.1 L 375.7,66.1 L 378.9,66.1 L 382.0,66.1 L 385.1,66.1 L 388.3,66.1 L 391.4,66.1 L 394.6,66.1 L 397.7,66.1 L 400.9,66.1 L 404.0,66.1 L 407.1,66.1 L 410.3,66.1 L 413.4,66.1 L 416.6,66.1 L 419.7,66.1 L 422.9,66.1 L 426.0,66.1 L 429.1,66.1 L 432.3,66.1 L 435.4,66.1 L 438.6,66.1 L 441.7,66.1 L 444.9,66.1 L 448.0,66.1 L 451.1,66.1 L 454.3,66.1 L 457.4,60.0 L 460.6,60.0 L 463.7,60.0 L 466.9,60.0 L 470.0,60.0 L 473.1,60.0 L 476.3,60.0 L 479.4,60.0 L 482.6,60.0 L 485.7,60.0 L 488.9,60.0 L 492.0,60.0 L 495.1,60.0 L 498.3,60.0 L 501.4,60.0 L 504.6,60.0 L 507.7,60.0 L 510.9,60.0 L 514.0,60.0 L 517.1,60.0 L 520.3,60.0 L 523.4,60.0 L 526.6,60.0 L 529.7,60.0 L 532.9,60.0 L 536.0,60.0 L 539.1,60.0 L 542.3,60.0 L 545.4,60.0 L 548.6,60.0 L 551.7,60.0 L 554.9,60.0 L 558.0,60.0 L 561.1,60.0 L 564.3,60.0 L 567.4,60.0 L 570.6,60.0 L 573.7,60.0 L 576.9,60.0 L 580.0,60.0" stroke="#3E5640" stroke-width="1.5" fill="none"/><line x1="20" y1="180" x2="580" y2="180" stroke="#0E0E0E33"/><text x="20" y="195" font-family="sans-serif" font-size="10" fill="#7A7570">Powered by RateRadar · rateradar-web.vercel.app</text></svg>