<svg xmlns="http://www.w3.org/2000/svg" viewBox="0 0 600 200" width="600" height="200" role="img" aria-label="RateRadar live odds for ECB 2026-06-11"><rect width="600" height="200" fill="#F5F1E8"/><text x="20" y="30" font-family="sans-serif" font-size="11" letter-spacing="1.5" fill="#7A7570">EUROPEAN CENTRAL BANK · JUN 11, 2026</text><text x="20" y="80" font-family="Georgia, serif" font-size="32" fill="#0E0E0E">Hold rates</text><text x="20" y="130" font-family="monospace" font-size="42" fill="#3E5640">56%</text><text x="20" y="155" font-family="sans-serif" font-size="11" fill="#7A7570">market-implied probability</text><path d="M 360.0,95.4 L 369.6,95.4 L 379.1,95.4 L 388.7,95.4 L 398.3,95.4 L 407.8,95.4 L 417.4,95.4 L 427.0,95.4 L 436.5,95.4 L 446.1,95.4 L 455.7,95.4 L 465.2,95.4 L 474.8,95.4 L 484.3,95.4 L 493.9,95.4 L 503.5,95.4 L 513.0,95.4 L 522.6,95.4 L 532.2,95.4 L 541.7,95.4 L 551.3,95.4 L 560.9,95.4 L 570.4,95.4 L 580.0,95.4" stroke="#3E5640" stroke-width="1.5" fill="none"/><line x1="20" y1="180" x2="580" y2="180" stroke="#0E0E0E33"/><text x="20" y="195" font-family="sans-serif" font-size="10" fill="#7A7570">Powered by RateRadar · rateradar-web.vercel.app</text></svg>