<svg xmlns="http://www.w3.org/2000/svg" viewBox="0 0 600 200" width="600" height="200" role="img" aria-label="RateRadar live odds for ECB 2026-09-10"><rect width="600" height="200" fill="#F5F1E8"/><text x="20" y="30" font-family="sans-serif" font-size="11" letter-spacing="1.5" fill="#7A7570">EUROPEAN CENTRAL BANK · SEP 10, 2026</text><text x="20" y="80" font-family="Georgia, serif" font-size="32" fill="#0E0E0E">Hold rates</text><text x="20" y="130" font-family="monospace" font-size="42" fill="#3E5640">100%</text><text x="20" y="155" font-family="sans-serif" font-size="11" fill="#7A7570">market-implied probability</text><path d="M 360.0,66.1 L 363.9,66.1 L 367.7,66.1 L 371.6,66.1 L 375.4,66.1 L 379.3,66.1 L 383.2,66.1 L 387.0,66.1 L 390.9,66.1 L 394.7,66.1 L 398.6,66.1 L 402.5,66.1 L 406.3,66.1 L 410.2,66.1 L 414.0,66.1 L 417.9,66.1 L 421.8,66.1 L 425.6,66.1 L 429.5,66.1 L 433.3,66.1 L 437.2,66.1 L 441.1,66.1 L 444.9,66.1 L 448.8,66.1 L 452.6,66.1 L 456.5,66.1 L 460.4,66.1 L 464.2,66.1 L 468.1,66.1 L 471.9,66.1 L 475.8,66.1 L 479.6,60.0 L 483.5,60.0 L 487.4,60.0 L 491.2,60.0 L 495.1,60.0 L 498.9,60.0 L 502.8,60.0 L 506.7,60.0 L 510.5,60.0 L 514.4,60.0 L 518.2,60.0 L 522.1,60.0 L 526.0,60.0 L 529.8,60.0 L 533.7,60.0 L 537.5,60.0 L 541.4,60.0 L 545.3,60.0 L 549.1,60.0 L 553.0,60.0 L 556.8,60.0 L 560.7,60.0 L 564.6,60.0 L 568.4,60.0 L 572.3,60.0 L 576.1,60.0 L 580.0,60.0" stroke="#3E5640" stroke-width="1.5" fill="none"/><line x1="20" y1="180" x2="580" y2="180" stroke="#0E0E0E33"/><text x="20" y="195" font-family="sans-serif" font-size="10" fill="#7A7570">Powered by RateRadar · rateradar-web.vercel.app</text></svg>