<svg xmlns="http://www.w3.org/2000/svg" viewBox="0 0 600 200" width="600" height="200" role="img" aria-label="RateRadar live odds for ECB 2026-12-17"><rect width="600" height="200" fill="#F5F1E8"/><text x="20" y="30" font-family="sans-serif" font-size="11" letter-spacing="1.5" fill="#7A7570">EUROPEAN CENTRAL BANK · DEC 17, 2026</text><text x="20" y="80" font-family="Georgia, serif" font-size="32" fill="#0E0E0E">Hold rates</text><text x="20" y="130" font-family="monospace" font-size="42" fill="#3E5640">100%</text><text x="20" y="155" font-family="sans-serif" font-size="11" fill="#7A7570">market-implied probability</text><path d="M 360.0,140.0 L 364.0,140.0 L 368.0,140.0 L 372.0,140.0 L 376.0,140.0 L 380.0,140.0 L 384.0,140.0 L 388.0,140.0 L 392.0,140.0 L 396.0,140.0 L 400.0,140.0 L 404.0,140.0 L 408.0,140.0 L 412.0,140.0 L 416.0,140.0 L 420.0,140.0 L 424.0,140.0 L 428.0,140.0 L 432.0,140.0 L 436.0,140.0 L 440.0,140.0 L 444.0,140.0 L 448.0,140.0 L 452.0,140.0 L 456.0,140.0 L 460.0,140.0 L 464.0,140.0 L 468.0,140.0 L 472.0,140.0 L 476.0,140.0 L 480.0,140.0 L 484.0,60.0 L 488.0,60.0 L 492.0,60.0 L 496.0,60.0 L 500.0,60.0 L 504.0,60.0 L 508.0,60.0 L 512.0,60.0 L 516.0,60.0 L 520.0,60.0 L 524.0,60.0 L 528.0,60.0 L 532.0,60.0 L 536.0,60.0 L 540.0,60.0 L 544.0,60.0 L 548.0,60.0 L 552.0,60.0 L 556.0,60.0 L 560.0,60.0 L 564.0,60.0 L 568.0,60.0 L 572.0,60.0 L 576.0,60.0 L 580.0,60.0" stroke="#3E5640" stroke-width="1.5" fill="none"/><line x1="20" y1="180" x2="580" y2="180" stroke="#0E0E0E33"/><text x="20" y="195" font-family="sans-serif" font-size="10" fill="#7A7570">Powered by RateRadar · rateradar-web.vercel.app</text></svg>