<svg xmlns="http://www.w3.org/2000/svg" viewBox="0 0 600 200" width="600" height="200" role="img" aria-label="RateRadar live odds for ECB 2026-09-10"><rect width="600" height="200" fill="#F5F1E8"/><text x="20" y="30" font-family="sans-serif" font-size="11" letter-spacing="1.5" fill="#7A7570">EUROPEAN CENTRAL BANK · SEP 10, 2026</text><text x="20" y="80" font-family="Georgia, serif" font-size="32" fill="#0E0E0E">Hold rates</text><text x="20" y="130" font-family="monospace" font-size="42" fill="#3E5640">100%</text><text x="20" y="155" font-family="sans-serif" font-size="11" fill="#7A7570">market-implied probability</text><path d="M 360.0,66.1 L 365.1,66.1 L 370.2,66.1 L 375.3,66.1 L 380.5,66.1 L 385.6,66.1 L 390.7,66.1 L 395.8,66.1 L 400.9,66.1 L 406.0,66.1 L 411.2,66.1 L 416.3,66.1 L 421.4,66.1 L 426.5,66.1 L 431.6,66.1 L 436.7,66.1 L 441.9,66.1 L 447.0,66.1 L 452.1,66.1 L 457.2,66.1 L 462.3,66.1 L 467.4,66.1 L 472.6,66.1 L 477.7,66.1 L 482.8,66.1 L 487.9,66.1 L 493.0,66.1 L 498.1,66.1 L 503.3,66.1 L 508.4,66.1 L 513.5,66.1 L 518.6,60.0 L 523.7,60.0 L 528.8,60.0 L 534.0,60.0 L 539.1,60.0 L 544.2,60.0 L 549.3,60.0 L 554.4,60.0 L 559.5,60.0 L 564.7,60.0 L 569.8,60.0 L 574.9,60.0 L 580.0,60.0" stroke="#3E5640" stroke-width="1.5" fill="none"/><line x1="20" y1="180" x2="580" y2="180" stroke="#0E0E0E33"/><text x="20" y="195" font-family="sans-serif" font-size="10" fill="#7A7570">Powered by RateRadar · rateradar-web.vercel.app</text></svg>