<svg xmlns="http://www.w3.org/2000/svg" viewBox="0 0 600 200" width="600" height="200" role="img" aria-label="RateRadar live odds for ECB 2026-09-10"><rect width="600" height="200" fill="#F5F1E8"/><text x="20" y="30" font-family="sans-serif" font-size="11" letter-spacing="1.5" fill="#7A7570">EUROPEAN CENTRAL BANK · SEP 10, 2026</text><text x="20" y="80" font-family="Georgia, serif" font-size="32" fill="#0E0E0E">Hold rates</text><text x="20" y="130" font-family="monospace" font-size="42" fill="#3E5640">100%</text><text x="20" y="155" font-family="sans-serif" font-size="11" fill="#7A7570">market-implied probability</text><path d="M 360.0,66.1 L 364.2,66.1 L 368.5,66.1 L 372.7,66.1 L 376.9,66.1 L 381.2,66.1 L 385.4,66.1 L 389.6,66.1 L 393.8,66.1 L 398.1,66.1 L 402.3,66.1 L 406.5,66.1 L 410.8,66.1 L 415.0,66.1 L 419.2,66.1 L 423.5,66.1 L 427.7,66.1 L 431.9,66.1 L 436.2,66.1 L 440.4,66.1 L 444.6,66.1 L 448.8,66.1 L 453.1,66.1 L 457.3,66.1 L 461.5,66.1 L 465.8,66.1 L 470.0,66.1 L 474.2,66.1 L 478.5,66.1 L 482.7,66.1 L 486.9,66.1 L 491.2,60.0 L 495.4,60.0 L 499.6,60.0 L 503.8,60.0 L 508.1,60.0 L 512.3,60.0 L 516.5,60.0 L 520.8,60.0 L 525.0,60.0 L 529.2,60.0 L 533.5,60.0 L 537.7,60.0 L 541.9,60.0 L 546.2,60.0 L 550.4,60.0 L 554.6,60.0 L 558.8,60.0 L 563.1,60.0 L 567.3,60.0 L 571.5,60.0 L 575.8,60.0 L 580.0,60.0" stroke="#3E5640" stroke-width="1.5" fill="none"/><line x1="20" y1="180" x2="580" y2="180" stroke="#0E0E0E33"/><text x="20" y="195" font-family="sans-serif" font-size="10" fill="#7A7570">Powered by RateRadar · rateradar-web.vercel.app</text></svg>