<svg xmlns="http://www.w3.org/2000/svg" viewBox="0 0 600 200" width="600" height="200" role="img" aria-label="RateRadar live odds for ECB 2026-07-23"><rect width="600" height="200" fill="#F5F1E8"/><text x="20" y="30" font-family="sans-serif" font-size="11" letter-spacing="1.5" fill="#7A7570">EUROPEAN CENTRAL BANK · JUL 23, 2026</text><text x="20" y="80" font-family="Georgia, serif" font-size="32" fill="#0E0E0E">Hold rates</text><text x="20" y="130" font-family="monospace" font-size="42" fill="#3E5640">100%</text><text x="20" y="155" font-family="sans-serif" font-size="11" fill="#7A7570">market-implied probability</text><path d="M 360.0,140.0 L 362.1,140.0 L 364.2,140.0 L 366.3,140.0 L 368.4,140.0 L 370.5,140.0 L 372.6,140.0 L 374.7,140.0 L 376.8,140.0 L 378.9,140.0 L 381.0,140.0 L 383.0,140.0 L 385.1,140.0 L 387.2,140.0 L 389.3,140.0 L 391.4,140.0 L 393.5,140.0 L 395.6,140.0 L 397.7,140.0 L 399.8,140.0 L 401.9,140.0 L 404.0,140.0 L 406.1,140.0 L 408.2,140.0 L 410.3,140.0 L 412.4,140.0 L 414.5,140.0 L 416.6,140.0 L 418.7,140.0 L 420.8,140.0 L 422.9,140.0 L 425.0,60.0 L 427.0,60.0 L 429.1,60.0 L 431.2,60.0 L 433.3,60.0 L 435.4,60.0 L 437.5,60.0 L 439.6,60.0 L 441.7,60.0 L 443.8,60.0 L 445.9,60.0 L 448.0,60.0 L 450.1,60.0 L 452.2,60.0 L 454.3,60.0 L 456.4,60.0 L 458.5,60.0 L 460.6,60.0 L 462.7,60.0 L 464.8,60.0 L 466.9,60.0 L 469.0,60.0 L 471.0,60.0 L 473.1,60.0 L 475.2,60.0 L 477.3,60.0 L 479.4,60.0 L 481.5,60.0 L 483.6,60.0 L 485.7,60.0 L 487.8,60.0 L 489.9,60.0 L 492.0,60.0 L 494.1,60.0 L 496.2,60.0 L 498.3,60.0 L 500.4,60.0 L 502.5,60.0 L 504.6,60.0 L 506.7,60.0 L 508.8,60.0 L 510.9,60.0 L 513.0,60.0 L 515.0,60.0 L 517.1,60.0 L 519.2,60.0 L 521.3,60.0 L 523.4,60.0 L 525.5,60.0 L 527.6,60.0 L 529.7,60.0 L 531.8,60.0 L 533.9,60.0 L 536.0,60.0 L 538.1,60.0 L 540.2,60.0 L 542.3,60.0 L 544.4,60.0 L 546.5,60.0 L 548.6,60.0 L 550.7,60.0 L 552.8,60.0 L 554.9,60.0 L 557.0,60.0 L 559.0,60.0 L 561.1,60.0 L 563.2,60.0 L 565.3,60.0 L 567.4,60.0 L 569.5,60.0 L 571.6,60.0 L 573.7,60.0 L 575.8,60.0 L 577.9,60.0 L 580.0,60.0" stroke="#3E5640" stroke-width="1.5" fill="none"/><line x1="20" y1="180" x2="580" y2="180" stroke="#0E0E0E33"/><text x="20" y="195" font-family="sans-serif" font-size="10" fill="#7A7570">Powered by RateRadar · rateradar-web.vercel.app</text></svg>