<svg xmlns="http://www.w3.org/2000/svg" viewBox="0 0 600 200" width="600" height="200" role="img" aria-label="RateRadar live odds for ECB 2026-09-10"><rect width="600" height="200" fill="#F5F1E8"/><text x="20" y="30" font-family="sans-serif" font-size="11" letter-spacing="1.5" fill="#7A7570">EUROPEAN CENTRAL BANK · SEP 10, 2026</text><text x="20" y="80" font-family="Georgia, serif" font-size="32" fill="#0E0E0E">Hold rates</text><text x="20" y="130" font-family="monospace" font-size="42" fill="#3E5640">100%</text><text x="20" y="155" font-family="sans-serif" font-size="11" fill="#7A7570">market-implied probability</text><path d="M 360.0,66.1 L 362.6,66.1 L 365.2,66.1 L 367.8,66.1 L 370.4,66.1 L 372.9,66.1 L 375.5,66.1 L 378.1,66.1 L 380.7,66.1 L 383.3,66.1 L 385.9,66.1 L 388.5,66.1 L 391.1,66.1 L 393.6,66.1 L 396.2,66.1 L 398.8,66.1 L 401.4,66.1 L 404.0,66.1 L 406.6,66.1 L 409.2,66.1 L 411.8,66.1 L 414.4,66.1 L 416.9,66.1 L 419.5,66.1 L 422.1,66.1 L 424.7,66.1 L 427.3,66.1 L 429.9,66.1 L 432.5,66.1 L 435.1,66.1 L 437.6,66.1 L 440.2,60.0 L 442.8,60.0 L 445.4,60.0 L 448.0,60.0 L 450.6,60.0 L 453.2,60.0 L 455.8,60.0 L 458.4,60.0 L 460.9,60.0 L 463.5,60.0 L 466.1,60.0 L 468.7,60.0 L 471.3,60.0 L 473.9,60.0 L 476.5,60.0 L 479.1,60.0 L 481.6,60.0 L 484.2,60.0 L 486.8,60.0 L 489.4,60.0 L 492.0,60.0 L 494.6,60.0 L 497.2,60.0 L 499.8,60.0 L 502.4,60.0 L 504.9,60.0 L 507.5,60.0 L 510.1,60.0 L 512.7,60.0 L 515.3,60.0 L 517.9,60.0 L 520.5,60.0 L 523.1,60.0 L 525.6,60.0 L 528.2,60.0 L 530.8,60.0 L 533.4,60.0 L 536.0,60.0 L 538.6,60.0 L 541.2,60.0 L 543.8,60.0 L 546.4,60.0 L 548.9,60.0 L 551.5,60.0 L 554.1,60.0 L 556.7,60.0 L 559.3,60.0 L 561.9,60.0 L 564.5,60.0 L 567.1,60.0 L 569.6,60.0 L 572.2,60.0 L 574.8,60.0 L 577.4,60.0 L 580.0,60.0" stroke="#3E5640" stroke-width="1.5" fill="none"/><line x1="20" y1="180" x2="580" y2="180" stroke="#0E0E0E33"/><text x="20" y="195" font-family="sans-serif" font-size="10" fill="#7A7570">Powered by RateRadar · rateradar-web.vercel.app</text></svg>