<svg xmlns="http://www.w3.org/2000/svg" viewBox="0 0 600 200" width="600" height="200" role="img" aria-label="RateRadar live odds for ECB 2026-12-17"><rect width="600" height="200" fill="#F5F1E8"/><text x="20" y="30" font-family="sans-serif" font-size="11" letter-spacing="1.5" fill="#7A7570">EUROPEAN CENTRAL BANK · DEC 17, 2026</text><text x="20" y="80" font-family="Georgia, serif" font-size="32" fill="#0E0E0E">Hold rates</text><text x="20" y="130" font-family="monospace" font-size="42" fill="#3E5640">100%</text><text x="20" y="155" font-family="sans-serif" font-size="11" fill="#7A7570">market-implied probability</text><path d="M 360.0,140.0 L 363.1,140.0 L 366.1,140.0 L 369.2,140.0 L 372.2,140.0 L 375.3,140.0 L 378.3,140.0 L 381.4,140.0 L 384.4,140.0 L 387.5,140.0 L 390.6,140.0 L 393.6,140.0 L 396.7,140.0 L 399.7,140.0 L 402.8,140.0 L 405.8,140.0 L 408.9,140.0 L 411.9,140.0 L 415.0,140.0 L 418.1,140.0 L 421.1,140.0 L 424.2,140.0 L 427.2,140.0 L 430.3,140.0 L 433.3,140.0 L 436.4,140.0 L 439.4,140.0 L 442.5,140.0 L 445.6,140.0 L 448.6,140.0 L 451.7,140.0 L 454.7,60.0 L 457.8,60.0 L 460.8,60.0 L 463.9,60.0 L 466.9,60.0 L 470.0,60.0 L 473.1,60.0 L 476.1,60.0 L 479.2,60.0 L 482.2,60.0 L 485.3,60.0 L 488.3,60.0 L 491.4,60.0 L 494.4,60.0 L 497.5,60.0 L 500.6,60.0 L 503.6,60.0 L 506.7,60.0 L 509.7,60.0 L 512.8,60.0 L 515.8,60.0 L 518.9,60.0 L 521.9,60.0 L 525.0,60.0 L 528.1,60.0 L 531.1,60.0 L 534.2,60.0 L 537.2,60.0 L 540.3,60.0 L 543.3,60.0 L 546.4,60.0 L 549.4,60.0 L 552.5,60.0 L 555.6,60.0 L 558.6,60.0 L 561.7,60.0 L 564.7,60.0 L 567.8,60.0 L 570.8,60.0 L 573.9,60.0 L 576.9,60.0 L 580.0,60.0" stroke="#3E5640" stroke-width="1.5" fill="none"/><line x1="20" y1="180" x2="580" y2="180" stroke="#0E0E0E33"/><text x="20" y="195" font-family="sans-serif" font-size="10" fill="#7A7570">Powered by RateRadar · rateradar-web.vercel.app</text></svg>