<svg xmlns="http://www.w3.org/2000/svg" viewBox="0 0 600 200" width="600" height="200" role="img" aria-label="RateRadar live odds for FED 2026-10-28"><rect width="600" height="200" fill="#F5F1E8"/><text x="20" y="30" font-family="sans-serif" font-size="11" letter-spacing="1.5" fill="#7A7570">FEDERAL RESERVE · OCT 28, 2026</text><text x="20" y="80" font-family="Georgia, serif" font-size="32" fill="#0E0E0E">Hold rates</text><text x="20" y="130" font-family="monospace" font-size="42" fill="#3E5640">87%</text><text x="20" y="155" font-family="sans-serif" font-size="11" fill="#7A7570">market-implied probability</text><path d="M 360.0,140.0 L 366.3,140.0 L 372.6,140.0 L 378.9,140.0 L 385.1,140.0 L 391.4,140.0 L 397.7,140.0 L 404.0,140.0 L 410.3,140.0 L 416.6,140.0 L 422.9,140.0 L 429.1,140.0 L 435.4,140.0 L 441.7,140.0 L 448.0,140.0 L 454.3,140.0 L 460.6,140.0 L 466.9,140.0 L 473.1,140.0 L 479.4,140.0 L 485.7,140.0 L 492.0,140.0 L 498.3,140.0 L 504.6,140.0 L 510.9,140.0 L 517.1,140.0 L 523.4,140.0 L 529.7,140.0 L 536.0,140.0 L 542.3,140.0 L 548.6,140.0 L 554.9,70.1 L 561.1,70.1 L 567.4,71.7 L 573.7,71.7 L 580.0,70.3" stroke="#3E5640" stroke-width="1.5" fill="none"/><line x1="20" y1="180" x2="580" y2="180" stroke="#0E0E0E33"/><text x="20" y="195" font-family="sans-serif" font-size="10" fill="#7A7570">Powered by RateRadar · rateradar-web.vercel.app</text></svg>