<svg xmlns="http://www.w3.org/2000/svg" viewBox="0 0 600 200" width="600" height="200" role="img" aria-label="RateRadar live odds for FED 2026-09-16"><rect width="600" height="200" fill="#F5F1E8"/><text x="20" y="30" font-family="sans-serif" font-size="11" letter-spacing="1.5" fill="#7A7570">FEDERAL RESERVE · SEP 16, 2026</text><text x="20" y="80" font-family="Georgia, serif" font-size="32" fill="#0E0E0E">Move +25bp</text><text x="20" y="130" font-family="monospace" font-size="42" fill="#A8312A">51%</text><text x="20" y="155" font-family="sans-serif" font-size="11" fill="#7A7570">market-implied probability</text><path d="M 360.0,140.0 L 362.2,140.0 L 364.4,140.0 L 366.6,140.0 L 368.8,140.0 L 371.0,140.0 L 373.2,140.0 L 375.4,140.0 L 377.6,140.0 L 379.8,140.0 L 382.0,140.0 L 384.2,140.0 L 386.4,140.0 L 388.6,140.0 L 390.8,140.0 L 393.0,140.0 L 395.2,140.0 L 397.4,140.0 L 399.6,140.0 L 401.8,140.0 L 404.0,140.0 L 406.2,140.0 L 408.4,140.0 L 410.6,140.0 L 412.8,140.0 L 415.0,140.0 L 417.2,140.0 L 419.4,140.0 L 421.6,140.0 L 423.8,140.0 L 426.0,140.0 L 428.2,122.9 L 430.4,122.9 L 432.6,122.9 L 434.8,122.9 L 437.0,126.3 L 439.2,129.7 L 441.4,116.0 L 443.6,112.6 L 445.8,112.6 L 448.0,109.1 L 450.2,112.6 L 452.4,112.6 L 454.6,116.0 L 456.8,116.0 L 459.0,119.4 L 461.2,119.4 L 463.4,119.4 L 465.6,119.4 L 467.8,122.9 L 470.0,119.4 L 472.2,119.4 L 474.4,122.9 L 476.6,102.3 L 478.8,98.9 L 481.0,98.9 L 483.2,98.9 L 485.4,95.4 L 487.6,95.4 L 489.8,92.0 L 492.0,88.6 L 494.2,95.4 L 496.4,95.4 L 498.6,95.4 L 500.8,102.3 L 503.0,102.3 L 505.2,98.9 L 507.4,102.3 L 509.6,102.3 L 511.8,102.3 L 514.0,102.3 L 516.2,98.9 L 518.4,95.4 L 520.6,98.9 L 522.8,98.9 L 525.0,105.7 L 527.2,105.7 L 529.4,105.7 L 531.6,105.7 L 533.8,112.6 L 536.0,105.7 L 538.2,102.3 L 540.4,102.3 L 542.6,98.9 L 544.8,98.9 L 547.0,98.9 L 549.2,98.9 L 551.4,98.9 L 553.6,98.9 L 555.8,95.4 L 558.0,95.4 L 560.2,98.9 L 562.4,98.9 L 564.6,109.1 L 566.8,102.3 L 569.0,98.9 L 571.2,105.7 L 573.4,98.9 L 575.6,98.9 L 577.8,98.9 L 580.0,98.9" stroke="#A8312A" stroke-width="1.5" fill="none"/><line x1="20" y1="180" x2="580" y2="180" stroke="#0E0E0E33"/><text x="20" y="195" font-family="sans-serif" font-size="10" fill="#7A7570">Powered by RateRadar · rateradar-web.vercel.app</text></svg>