<svg xmlns="http://www.w3.org/2000/svg" viewBox="0 0 600 200" width="600" height="200" role="img" aria-label="RateRadar live odds for FED 2026-10-28"><rect width="600" height="200" fill="#F5F1E8"/><text x="20" y="30" font-family="sans-serif" font-size="11" letter-spacing="1.5" fill="#7A7570">FEDERAL RESERVE · OCT 28, 2026</text><text x="20" y="80" font-family="Georgia, serif" font-size="32" fill="#0E0E0E">Hold rates</text><text x="20" y="130" font-family="monospace" font-size="42" fill="#3E5640">79%</text><text x="20" y="155" font-family="sans-serif" font-size="11" fill="#7A7570">market-implied probability</text><path d="M 360.0,140.0 L 362.4,140.0 L 364.7,140.0 L 367.1,140.0 L 369.5,140.0 L 371.8,140.0 L 374.2,140.0 L 376.6,140.0 L 378.9,140.0 L 381.3,140.0 L 383.7,140.0 L 386.0,140.0 L 388.4,140.0 L 390.8,140.0 L 393.1,140.0 L 395.5,140.0 L 397.8,140.0 L 400.2,140.0 L 402.6,140.0 L 404.9,140.0 L 407.3,140.0 L 409.7,140.0 L 412.0,140.0 L 414.4,140.0 L 416.8,140.0 L 419.1,140.0 L 421.5,140.0 L 423.9,140.0 L 426.2,140.0 L 428.6,140.0 L 431.0,140.0 L 433.3,70.1 L 435.7,70.1 L 438.1,71.7 L 440.4,71.7 L 442.8,70.3 L 445.2,73.7 L 447.5,77.6 L 449.9,72.6 L 452.3,75.8 L 454.6,73.9 L 457.0,72.6 L 459.4,74.2 L 461.7,74.4 L 464.1,77.6 L 466.5,66.6 L 468.8,65.0 L 471.2,68.2 L 473.5,68.2 L 475.9,70.1 L 478.3,66.6 L 480.6,66.6 L 483.0,71.7 L 485.4,79.9 L 487.7,79.7 L 490.1,79.7 L 492.5,78.1 L 494.8,82.6 L 497.2,82.6 L 499.6,82.4 L 501.9,79.0 L 504.3,77.8 L 506.7,81.0 L 509.0,74.6 L 511.4,79.9 L 513.8,78.3 L 516.1,76.5 L 518.5,71.9 L 520.9,75.1 L 523.2,75.1 L 525.6,76.7 L 528.0,78.1 L 530.3,77.8 L 532.7,78.1 L 535.1,79.7 L 537.4,76.9 L 539.8,76.9 L 542.2,76.9 L 544.5,76.9 L 546.9,80.6 L 549.2,75.3 L 551.6,79.9 L 554.0,78.3 L 556.3,79.7 L 558.7,82.9 L 561.1,76.5 L 563.4,76.5 L 565.8,79.7 L 568.2,79.7 L 570.5,84.2 L 572.9,82.6 L 575.3,74.9 L 577.6,74.9 L 580.0,77.1" stroke="#3E5640" stroke-width="1.5" fill="none"/><line x1="20" y1="180" x2="580" y2="180" stroke="#0E0E0E33"/><text x="20" y="195" font-family="sans-serif" font-size="10" fill="#7A7570">Powered by RateRadar · rateradar-web.vercel.app</text></svg>