<svg xmlns="http://www.w3.org/2000/svg" viewBox="0 0 600 200" width="600" height="200" role="img" aria-label="RateRadar live odds for FED 2026-07-29"><rect width="600" height="200" fill="#F5F1E8"/><text x="20" y="30" font-family="sans-serif" font-size="11" letter-spacing="1.5" fill="#7A7570">FEDERAL RESERVE · JUL 29, 2026</text><text x="20" y="80" font-family="Georgia, serif" font-size="32" fill="#0E0E0E">Hold rates</text><text x="20" y="130" font-family="monospace" font-size="42" fill="#3E5640">90%</text><text x="20" y="155" font-family="sans-serif" font-size="11" fill="#7A7570">market-implied probability</text><path d="M 360.0,140.0 L 362.3,140.0 L 364.6,140.0 L 366.9,140.0 L 369.3,140.0 L 371.6,140.0 L 373.9,140.0 L 376.2,140.0 L 378.5,140.0 L 380.8,140.0 L 383.2,140.0 L 385.5,140.0 L 387.8,140.0 L 390.1,140.0 L 392.4,140.0 L 394.7,140.0 L 397.1,140.0 L 399.4,140.0 L 401.7,140.0 L 404.0,140.0 L 406.3,140.0 L 408.6,140.0 L 410.9,140.0 L 413.3,140.0 L 415.6,140.0 L 417.9,140.0 L 420.2,140.0 L 422.5,140.0 L 424.8,140.0 L 427.2,140.0 L 429.5,140.0 L 431.8,68.2 L 434.1,68.2 L 436.4,69.8 L 438.7,68.2 L 441.1,70.1 L 443.4,68.5 L 445.7,73.3 L 448.0,73.3 L 450.3,73.0 L 452.6,73.0 L 454.9,71.4 L 457.3,71.4 L 459.6,71.4 L 461.9,73.0 L 464.2,66.6 L 466.5,70.1 L 468.8,70.1 L 471.2,68.2 L 473.5,68.0 L 475.8,69.8 L 478.1,71.4 L 480.4,69.8 L 482.7,93.6 L 485.1,87.0 L 487.4,92.0 L 489.7,93.4 L 492.0,93.4 L 494.3,93.4 L 496.6,90.2 L 498.9,90.2 L 501.3,90.2 L 503.6,90.4 L 505.9,87.0 L 508.2,88.6 L 510.5,87.2 L 512.8,85.6 L 515.2,84.0 L 517.5,84.0 L 519.8,85.6 L 522.1,85.6 L 524.4,87.2 L 526.7,87.2 L 529.1,84.0 L 531.4,84.0 L 533.7,76.0 L 536.0,76.0 L 538.3,79.2 L 540.6,79.2 L 542.9,82.4 L 545.3,79.2 L 547.6,82.4 L 549.9,84.0 L 552.2,85.6 L 554.5,84.0 L 556.8,79.2 L 559.2,79.2 L 561.5,85.6 L 563.8,87.2 L 566.1,93.6 L 568.4,95.2 L 570.7,72.8 L 573.1,72.8 L 575.4,69.6 L 577.7,68.0 L 580.0,68.0" stroke="#3E5640" stroke-width="1.5" fill="none"/><line x1="20" y1="180" x2="580" y2="180" stroke="#0E0E0E33"/><text x="20" y="195" font-family="sans-serif" font-size="10" fill="#7A7570">Powered by RateRadar · rateradar-web.vercel.app</text></svg>