<svg xmlns="http://www.w3.org/2000/svg" viewBox="0 0 600 200" width="600" height="200" role="img" aria-label="RateRadar live odds for FED 2026-10-28"><rect width="600" height="200" fill="#F5F1E8"/><text x="20" y="30" font-family="sans-serif" font-size="11" letter-spacing="1.5" fill="#7A7570">FEDERAL RESERVE · OCT 28, 2026</text><text x="20" y="80" font-family="Georgia, serif" font-size="32" fill="#0E0E0E">Hold rates</text><text x="20" y="130" font-family="monospace" font-size="42" fill="#3E5640">79%</text><text x="20" y="155" font-family="sans-serif" font-size="11" fill="#7A7570">market-implied probability</text><path d="M 360.0,140.0 L 362.6,140.0 L 365.1,140.0 L 367.7,140.0 L 370.2,140.0 L 372.8,140.0 L 375.3,140.0 L 377.9,140.0 L 380.5,140.0 L 383.0,140.0 L 385.6,140.0 L 388.1,140.0 L 390.7,140.0 L 393.3,140.0 L 395.8,140.0 L 398.4,140.0 L 400.9,140.0 L 403.5,140.0 L 406.0,140.0 L 408.6,140.0 L 411.2,140.0 L 413.7,140.0 L 416.3,140.0 L 418.8,140.0 L 421.4,140.0 L 424.0,140.0 L 426.5,140.0 L 429.1,140.0 L 431.6,140.0 L 434.2,140.0 L 436.7,140.0 L 439.3,70.1 L 441.9,70.1 L 444.4,71.7 L 447.0,71.7 L 449.5,70.3 L 452.1,73.7 L 454.7,77.6 L 457.2,72.6 L 459.8,75.8 L 462.3,73.9 L 464.9,72.6 L 467.4,74.2 L 470.0,74.4 L 472.6,77.6 L 475.1,66.6 L 477.7,65.0 L 480.2,68.2 L 482.8,68.2 L 485.3,70.1 L 487.9,66.6 L 490.5,66.6 L 493.0,71.7 L 495.6,79.9 L 498.1,79.7 L 500.7,79.7 L 503.3,78.1 L 505.8,82.6 L 508.4,82.6 L 510.9,82.4 L 513.5,79.0 L 516.0,77.8 L 518.6,81.0 L 521.2,74.6 L 523.7,79.9 L 526.3,78.3 L 528.8,76.5 L 531.4,71.9 L 534.0,75.1 L 536.5,75.1 L 539.1,76.7 L 541.6,78.1 L 544.2,77.8 L 546.7,78.1 L 549.3,79.7 L 551.9,76.9 L 554.4,76.9 L 557.0,76.9 L 559.5,76.9 L 562.1,80.6 L 564.7,75.3 L 567.2,79.9 L 569.8,78.3 L 572.3,79.7 L 574.9,82.9 L 577.4,76.5 L 580.0,76.5" stroke="#3E5640" stroke-width="1.5" fill="none"/><line x1="20" y1="180" x2="580" y2="180" stroke="#0E0E0E33"/><text x="20" y="195" font-family="sans-serif" font-size="10" fill="#7A7570">Powered by RateRadar · rateradar-web.vercel.app</text></svg>