<svg xmlns="http://www.w3.org/2000/svg" viewBox="0 0 600 200" width="600" height="200" role="img" aria-label="RateRadar live odds for FED 2026-10-28"><rect width="600" height="200" fill="#F5F1E8"/><text x="20" y="30" font-family="sans-serif" font-size="11" letter-spacing="1.5" fill="#7A7570">FEDERAL RESERVE · OCT 28, 2026</text><text x="20" y="80" font-family="Georgia, serif" font-size="32" fill="#0E0E0E">Hold rates</text><text x="20" y="130" font-family="monospace" font-size="42" fill="#3E5640">78%</text><text x="20" y="155" font-family="sans-serif" font-size="11" fill="#7A7570">market-implied probability</text><path d="M 360.0,140.0 L 365.9,140.0 L 371.9,140.0 L 377.8,140.0 L 383.8,140.0 L 389.7,140.0 L 395.7,140.0 L 401.6,140.0 L 407.6,140.0 L 413.5,140.0 L 419.5,140.0 L 425.4,140.0 L 431.4,140.0 L 437.3,140.0 L 443.2,140.0 L 449.2,140.0 L 455.1,140.0 L 461.1,140.0 L 467.0,140.0 L 473.0,140.0 L 478.9,140.0 L 484.9,140.0 L 490.8,140.0 L 496.8,140.0 L 502.7,140.0 L 508.6,140.0 L 514.6,140.0 L 520.5,140.0 L 526.5,140.0 L 532.4,140.0 L 538.4,140.0 L 544.3,70.1 L 550.3,70.1 L 556.2,71.7 L 562.2,71.7 L 568.1,70.3 L 574.1,73.7 L 580.0,77.6" stroke="#3E5640" stroke-width="1.5" fill="none"/><line x1="20" y1="180" x2="580" y2="180" stroke="#0E0E0E33"/><text x="20" y="195" font-family="sans-serif" font-size="10" fill="#7A7570">Powered by RateRadar · rateradar-web.vercel.app</text></svg>