<svg xmlns="http://www.w3.org/2000/svg" viewBox="0 0 600 200" width="600" height="200" role="img" aria-label="RateRadar live odds for FED 2026-10-28"><rect width="600" height="200" fill="#F5F1E8"/><text x="20" y="30" font-family="sans-serif" font-size="11" letter-spacing="1.5" fill="#7A7570">FEDERAL RESERVE · OCT 28, 2026</text><text x="20" y="80" font-family="Georgia, serif" font-size="32" fill="#0E0E0E">Hold rates</text><text x="20" y="130" font-family="monospace" font-size="42" fill="#3E5640">79%</text><text x="20" y="155" font-family="sans-serif" font-size="11" fill="#7A7570">market-implied probability</text><path d="M 360.0,140.0 L 362.9,140.0 L 365.7,140.0 L 368.6,140.0 L 371.4,140.0 L 374.3,140.0 L 377.1,140.0 L 380.0,140.0 L 382.9,140.0 L 385.7,140.0 L 388.6,140.0 L 391.4,140.0 L 394.3,140.0 L 397.1,140.0 L 400.0,140.0 L 402.9,140.0 L 405.7,140.0 L 408.6,140.0 L 411.4,140.0 L 414.3,140.0 L 417.1,140.0 L 420.0,140.0 L 422.9,140.0 L 425.7,140.0 L 428.6,140.0 L 431.4,140.0 L 434.3,140.0 L 437.1,140.0 L 440.0,140.0 L 442.9,140.0 L 445.7,140.0 L 448.6,70.1 L 451.4,70.1 L 454.3,71.7 L 457.1,71.7 L 460.0,70.3 L 462.9,73.7 L 465.7,77.6 L 468.6,72.6 L 471.4,75.8 L 474.3,73.9 L 477.1,72.6 L 480.0,74.2 L 482.9,74.4 L 485.7,77.6 L 488.6,66.6 L 491.4,65.0 L 494.3,68.2 L 497.1,68.2 L 500.0,70.1 L 502.9,66.6 L 505.7,66.6 L 508.6,71.7 L 511.4,79.9 L 514.3,79.7 L 517.1,79.7 L 520.0,78.1 L 522.9,82.6 L 525.7,82.6 L 528.6,82.4 L 531.4,79.0 L 534.3,77.8 L 537.1,81.0 L 540.0,74.6 L 542.9,79.9 L 545.7,78.3 L 548.6,76.5 L 551.4,71.9 L 554.3,75.1 L 557.1,75.1 L 560.0,76.7 L 562.9,78.1 L 565.7,77.8 L 568.6,78.1 L 571.4,79.7 L 574.3,76.9 L 577.1,76.9 L 580.0,76.9" stroke="#3E5640" stroke-width="1.5" fill="none"/><line x1="20" y1="180" x2="580" y2="180" stroke="#0E0E0E33"/><text x="20" y="195" font-family="sans-serif" font-size="10" fill="#7A7570">Powered by RateRadar · rateradar-web.vercel.app</text></svg>