<svg xmlns="http://www.w3.org/2000/svg" viewBox="0 0 600 200" width="600" height="200" role="img" aria-label="RateRadar live odds for FED 2026-07-29"><rect width="600" height="200" fill="#F5F1E8"/><text x="20" y="30" font-family="sans-serif" font-size="11" letter-spacing="1.5" fill="#7A7570">FEDERAL RESERVE · JUL 29, 2026</text><text x="20" y="80" font-family="Georgia, serif" font-size="32" fill="#0E0E0E">Hold rates</text><text x="20" y="130" font-family="monospace" font-size="42" fill="#3E5640">86%</text><text x="20" y="155" font-family="sans-serif" font-size="11" fill="#7A7570">market-implied probability</text><path d="M 360.0,140.0 L 365.2,140.0 L 370.5,140.0 L 375.7,140.0 L 381.0,140.0 L 386.2,140.0 L 391.4,140.0 L 396.7,140.0 L 401.9,140.0 L 407.1,140.0 L 412.4,140.0 L 417.6,140.0 L 422.9,140.0 L 428.1,140.0 L 433.3,140.0 L 438.6,140.0 L 443.8,140.0 L 449.0,140.0 L 454.3,140.0 L 459.5,140.0 L 464.8,140.0 L 470.0,140.0 L 475.2,140.0 L 480.5,140.0 L 485.7,140.0 L 491.0,140.0 L 496.2,140.0 L 501.4,140.0 L 506.7,140.0 L 511.9,140.0 L 517.1,140.0 L 522.4,68.2 L 527.6,68.2 L 532.9,69.8 L 538.1,68.2 L 543.3,70.1 L 548.6,68.5 L 553.8,73.3 L 559.0,73.3 L 564.3,73.0 L 569.5,73.0 L 574.8,71.4 L 580.0,71.4" stroke="#3E5640" stroke-width="1.5" fill="none"/><line x1="20" y1="180" x2="580" y2="180" stroke="#0E0E0E33"/><text x="20" y="195" font-family="sans-serif" font-size="10" fill="#7A7570">Powered by RateRadar · rateradar-web.vercel.app</text></svg>