<svg xmlns="http://www.w3.org/2000/svg" viewBox="0 0 600 200" width="600" height="200" role="img" aria-label="RateRadar live odds for FED 2026-07-29"><rect width="600" height="200" fill="#F5F1E8"/><text x="20" y="30" font-family="sans-serif" font-size="11" letter-spacing="1.5" fill="#7A7570">FEDERAL RESERVE · JUL 29, 2026</text><text x="20" y="80" font-family="Georgia, serif" font-size="32" fill="#0E0E0E">Hold rates</text><text x="20" y="130" font-family="monospace" font-size="42" fill="#3E5640">70%</text><text x="20" y="155" font-family="sans-serif" font-size="11" fill="#7A7570">market-implied probability</text><path d="M 360.0,140.0 L 362.6,140.0 L 365.2,140.0 L 367.9,140.0 L 370.5,140.0 L 373.1,140.0 L 375.7,140.0 L 378.3,140.0 L 381.0,140.0 L 383.6,140.0 L 386.2,140.0 L 388.8,140.0 L 391.4,140.0 L 394.0,140.0 L 396.7,140.0 L 399.3,140.0 L 401.9,140.0 L 404.5,140.0 L 407.1,140.0 L 409.8,140.0 L 412.4,140.0 L 415.0,140.0 L 417.6,140.0 L 420.2,140.0 L 422.9,140.0 L 425.5,140.0 L 428.1,140.0 L 430.7,140.0 L 433.3,140.0 L 436.0,140.0 L 438.6,140.0 L 441.2,68.2 L 443.8,68.2 L 446.4,69.8 L 449.0,68.2 L 451.7,70.1 L 454.3,68.5 L 456.9,73.3 L 459.5,73.3 L 462.1,73.0 L 464.8,73.0 L 467.4,71.4 L 470.0,71.4 L 472.6,71.4 L 475.2,73.0 L 477.9,66.6 L 480.5,70.1 L 483.1,70.1 L 485.7,68.2 L 488.3,68.0 L 491.0,69.8 L 493.6,71.4 L 496.2,69.8 L 498.8,93.6 L 501.4,87.0 L 504.0,92.0 L 506.7,93.4 L 509.3,93.4 L 511.9,93.4 L 514.5,90.2 L 517.1,90.2 L 519.8,90.2 L 522.4,90.4 L 525.0,87.0 L 527.6,88.6 L 530.2,87.2 L 532.9,85.6 L 535.5,84.0 L 538.1,84.0 L 540.7,85.6 L 543.3,85.6 L 546.0,87.2 L 548.6,87.2 L 551.2,84.0 L 553.8,84.0 L 556.4,76.0 L 559.0,76.0 L 561.7,79.2 L 564.3,79.2 L 566.9,82.4 L 569.5,79.2 L 572.1,82.4 L 574.8,84.0 L 577.4,85.6 L 580.0,84.0" stroke="#3E5640" stroke-width="1.5" fill="none"/><line x1="20" y1="180" x2="580" y2="180" stroke="#0E0E0E33"/><text x="20" y="195" font-family="sans-serif" font-size="10" fill="#7A7570">Powered by RateRadar · rateradar-web.vercel.app</text></svg>