<svg xmlns="http://www.w3.org/2000/svg" viewBox="0 0 600 200" width="600" height="200" role="img" aria-label="RateRadar live odds for FED 2026-09-16"><rect width="600" height="200" fill="#F5F1E8"/><text x="20" y="30" font-family="sans-serif" font-size="11" letter-spacing="1.5" fill="#7A7570">FEDERAL RESERVE · SEP 16, 2026</text><text x="20" y="80" font-family="Georgia, serif" font-size="32" fill="#0E0E0E">Move +25bp</text><text x="20" y="130" font-family="monospace" font-size="42" fill="#A8312A">56%</text><text x="20" y="155" font-family="sans-serif" font-size="11" fill="#7A7570">market-implied probability</text><path d="M 360.0,140.0 L 363.5,140.0 L 367.1,140.0 L 370.6,140.0 L 374.2,140.0 L 377.7,140.0 L 381.3,140.0 L 384.8,140.0 L 388.4,140.0 L 391.9,140.0 L 395.5,140.0 L 399.0,140.0 L 402.6,140.0 L 406.1,140.0 L 409.7,140.0 L 413.2,140.0 L 416.8,140.0 L 420.3,140.0 L 423.9,140.0 L 427.4,140.0 L 431.0,140.0 L 434.5,140.0 L 438.1,140.0 L 441.6,140.0 L 445.2,140.0 L 448.7,140.0 L 452.3,140.0 L 455.8,140.0 L 459.4,140.0 L 462.9,140.0 L 466.5,140.0 L 470.0,122.9 L 473.5,122.9 L 477.1,122.9 L 480.6,122.9 L 484.2,126.3 L 487.7,129.7 L 491.3,116.0 L 494.8,112.6 L 498.4,112.6 L 501.9,109.1 L 505.5,112.6 L 509.0,112.6 L 512.6,116.0 L 516.1,116.0 L 519.7,119.4 L 523.2,119.4 L 526.8,119.4 L 530.3,119.4 L 533.9,122.9 L 537.4,119.4 L 541.0,119.4 L 544.5,122.9 L 548.1,102.3 L 551.6,98.9 L 555.2,98.9 L 558.7,98.9 L 562.3,95.4 L 565.8,95.4 L 569.4,92.0 L 572.9,88.6 L 576.5,95.4 L 580.0,95.4" stroke="#A8312A" stroke-width="1.5" fill="none"/><line x1="20" y1="180" x2="580" y2="180" stroke="#0E0E0E33"/><text x="20" y="195" font-family="sans-serif" font-size="10" fill="#7A7570">Powered by RateRadar · rateradar-web.vercel.app</text></svg>