<svg xmlns="http://www.w3.org/2000/svg" viewBox="0 0 600 200" width="600" height="200" role="img" aria-label="RateRadar live odds for FED 2026-06-17"><rect width="600" height="200" fill="#F5F1E8"/><text x="20" y="30" font-family="sans-serif" font-size="11" letter-spacing="1.5" fill="#7A7570">FEDERAL RESERVE · JUN 17, 2026</text><text x="20" y="80" font-family="Georgia, serif" font-size="32" fill="#0E0E0E">Move -25bp</text><text x="20" y="130" font-family="monospace" font-size="42" fill="#C8841C">55%</text><text x="20" y="155" font-family="sans-serif" font-size="11" fill="#7A7570">market-implied probability</text><path d="M 360.0,95.7 L 368.1,95.7 L 376.3,95.7 L 384.4,95.7 L 392.6,95.7 L 400.7,95.7 L 408.9,95.7 L 417.0,95.7 L 425.2,95.7 L 433.3,95.7 L 441.5,95.7 L 449.6,95.7 L 457.8,95.7 L 465.9,95.7 L 474.1,95.7 L 482.2,95.7 L 490.4,95.7 L 498.5,95.7 L 506.7,95.7 L 514.8,95.7 L 523.0,95.7 L 531.1,95.7 L 539.3,95.7 L 547.4,95.7 L 555.6,95.7 L 563.7,95.7 L 571.9,95.7 L 580.0,95.7" stroke="#C8841C" stroke-width="1.5" fill="none"/><line x1="20" y1="180" x2="580" y2="180" stroke="#0E0E0E33"/><text x="20" y="195" font-family="sans-serif" font-size="10" fill="#7A7570">Powered by RateRadar · rateradar-web.vercel.app</text></svg>