<svg xmlns="http://www.w3.org/2000/svg" viewBox="0 0 600 200" width="600" height="200" role="img" aria-label="RateRadar live odds for FED 2026-10-28"><rect width="600" height="200" fill="#F5F1E8"/><text x="20" y="30" font-family="sans-serif" font-size="11" letter-spacing="1.5" fill="#7A7570">FEDERAL RESERVE · OCT 28, 2026</text><text x="20" y="80" font-family="Georgia, serif" font-size="32" fill="#0E0E0E">Hold rates</text><text x="20" y="130" font-family="monospace" font-size="42" fill="#3E5640">71%</text><text x="20" y="155" font-family="sans-serif" font-size="11" fill="#7A7570">market-implied probability</text><path d="M 360.0,140.0 L 362.1,140.0 L 364.2,140.0 L 366.3,140.0 L 368.4,140.0 L 370.5,140.0 L 372.6,140.0 L 374.7,140.0 L 376.8,140.0 L 378.9,140.0 L 381.0,140.0 L 383.0,140.0 L 385.1,140.0 L 387.2,140.0 L 389.3,140.0 L 391.4,140.0 L 393.5,140.0 L 395.6,140.0 L 397.7,140.0 L 399.8,140.0 L 401.9,140.0 L 404.0,140.0 L 406.1,140.0 L 408.2,140.0 L 410.3,140.0 L 412.4,140.0 L 414.5,140.0 L 416.6,140.0 L 418.7,140.0 L 420.8,140.0 L 422.9,140.0 L 425.0,70.1 L 427.0,70.1 L 429.1,71.7 L 431.2,71.7 L 433.3,70.3 L 435.4,73.7 L 437.5,77.6 L 439.6,72.6 L 441.7,75.8 L 443.8,73.9 L 445.9,72.6 L 448.0,74.2 L 450.1,74.4 L 452.2,77.6 L 454.3,66.6 L 456.4,65.0 L 458.5,68.2 L 460.6,68.2 L 462.7,70.1 L 464.8,66.6 L 466.9,66.6 L 469.0,71.7 L 471.0,79.9 L 473.1,79.7 L 475.2,79.7 L 477.3,78.1 L 479.4,82.6 L 481.5,82.6 L 483.6,82.4 L 485.7,79.0 L 487.8,77.8 L 489.9,81.0 L 492.0,74.6 L 494.1,79.9 L 496.2,78.3 L 498.3,76.5 L 500.4,71.9 L 502.5,75.1 L 504.6,75.1 L 506.7,76.7 L 508.8,78.1 L 510.9,77.8 L 513.0,78.1 L 515.0,79.7 L 517.1,76.9 L 519.2,76.9 L 521.3,76.9 L 523.4,76.9 L 525.5,80.6 L 527.6,75.3 L 529.7,79.9 L 531.8,78.3 L 533.9,79.7 L 536.0,82.9 L 538.1,76.5 L 540.2,76.5 L 542.3,79.7 L 544.4,79.7 L 546.5,84.2 L 548.6,82.6 L 550.7,74.9 L 552.8,74.9 L 554.9,77.1 L 557.0,75.1 L 559.0,74.9 L 561.1,76.9 L 563.2,79.7 L 565.3,79.7 L 567.4,84.5 L 569.5,82.9 L 571.6,84.0 L 573.7,82.4 L 575.8,87.2 L 577.9,83.8 L 580.0,83.3" stroke="#3E5640" stroke-width="1.5" fill="none"/><line x1="20" y1="180" x2="580" y2="180" stroke="#0E0E0E33"/><text x="20" y="195" font-family="sans-serif" font-size="10" fill="#7A7570">Powered by RateRadar · rateradar-web.vercel.app</text></svg>