<svg xmlns="http://www.w3.org/2000/svg" viewBox="0 0 600 200" width="600" height="200" role="img" aria-label="RateRadar live odds for FED 2026-10-28"><rect width="600" height="200" fill="#F5F1E8"/><text x="20" y="30" font-family="sans-serif" font-size="11" letter-spacing="1.5" fill="#7A7570">FEDERAL RESERVE · OCT 28, 2026</text><text x="20" y="80" font-family="Georgia, serif" font-size="32" fill="#0E0E0E">Hold rates</text><text x="20" y="130" font-family="monospace" font-size="42" fill="#3E5640">72%</text><text x="20" y="155" font-family="sans-serif" font-size="11" fill="#7A7570">market-implied probability</text><path d="M 360.0,140.0 L 363.9,140.0 L 367.7,140.0 L 371.6,140.0 L 375.4,140.0 L 379.3,140.0 L 383.2,140.0 L 387.0,140.0 L 390.9,140.0 L 394.7,140.0 L 398.6,140.0 L 402.5,140.0 L 406.3,140.0 L 410.2,140.0 L 414.0,140.0 L 417.9,140.0 L 421.8,140.0 L 425.6,140.0 L 429.5,140.0 L 433.3,140.0 L 437.2,140.0 L 441.1,140.0 L 444.9,140.0 L 448.8,140.0 L 452.6,140.0 L 456.5,140.0 L 460.4,140.0 L 464.2,140.0 L 468.1,140.0 L 471.9,140.0 L 475.8,140.0 L 479.6,70.1 L 483.5,70.1 L 487.4,71.7 L 491.2,71.7 L 495.1,70.3 L 498.9,73.7 L 502.8,77.6 L 506.7,72.6 L 510.5,75.8 L 514.4,73.9 L 518.2,72.6 L 522.1,74.2 L 526.0,74.4 L 529.8,77.6 L 533.7,66.6 L 537.5,65.0 L 541.4,68.2 L 545.3,68.2 L 549.1,70.1 L 553.0,66.6 L 556.8,66.6 L 560.7,71.7 L 564.6,79.9 L 568.4,79.7 L 572.3,79.7 L 576.1,78.1 L 580.0,82.6" stroke="#3E5640" stroke-width="1.5" fill="none"/><line x1="20" y1="180" x2="580" y2="180" stroke="#0E0E0E33"/><text x="20" y="195" font-family="sans-serif" font-size="10" fill="#7A7570">Powered by RateRadar · rateradar-web.vercel.app</text></svg>