<svg xmlns="http://www.w3.org/2000/svg" viewBox="0 0 600 200" width="600" height="200" role="img" aria-label="RateRadar live odds for FED 2026-10-28"><rect width="600" height="200" fill="#F5F1E8"/><text x="20" y="30" font-family="sans-serif" font-size="11" letter-spacing="1.5" fill="#7A7570">FEDERAL RESERVE · OCT 28, 2026</text><text x="20" y="80" font-family="Georgia, serif" font-size="32" fill="#0E0E0E">Hold rates</text><text x="20" y="130" font-family="monospace" font-size="42" fill="#3E5640">81%</text><text x="20" y="155" font-family="sans-serif" font-size="11" fill="#7A7570">market-implied probability</text><path d="M 360.0,140.0 L 363.2,140.0 L 366.5,140.0 L 369.7,140.0 L 372.9,140.0 L 376.2,140.0 L 379.4,140.0 L 382.6,140.0 L 385.9,140.0 L 389.1,140.0 L 392.4,140.0 L 395.6,140.0 L 398.8,140.0 L 402.1,140.0 L 405.3,140.0 L 408.5,140.0 L 411.8,140.0 L 415.0,140.0 L 418.2,140.0 L 421.5,140.0 L 424.7,140.0 L 427.9,140.0 L 431.2,140.0 L 434.4,140.0 L 437.6,140.0 L 440.9,140.0 L 444.1,140.0 L 447.4,140.0 L 450.6,140.0 L 453.8,140.0 L 457.1,140.0 L 460.3,70.1 L 463.5,70.1 L 466.8,71.7 L 470.0,71.7 L 473.2,70.3 L 476.5,73.7 L 479.7,77.6 L 482.9,72.6 L 486.2,75.8 L 489.4,73.9 L 492.6,72.6 L 495.9,74.2 L 499.1,74.4 L 502.4,77.6 L 505.6,66.6 L 508.8,65.0 L 512.1,68.2 L 515.3,68.2 L 518.5,70.1 L 521.8,66.6 L 525.0,66.6 L 528.2,71.7 L 531.5,79.9 L 534.7,79.7 L 537.9,79.7 L 541.2,78.1 L 544.4,82.6 L 547.6,82.6 L 550.9,82.4 L 554.1,79.0 L 557.4,77.8 L 560.6,81.0 L 563.8,74.6 L 567.1,79.9 L 570.3,78.3 L 573.5,76.5 L 576.8,71.9 L 580.0,75.1" stroke="#3E5640" stroke-width="1.5" fill="none"/><line x1="20" y1="180" x2="580" y2="180" stroke="#0E0E0E33"/><text x="20" y="195" font-family="sans-serif" font-size="10" fill="#7A7570">Powered by RateRadar · rateradar-web.vercel.app</text></svg>