<svg xmlns="http://www.w3.org/2000/svg" viewBox="0 0 600 200" width="600" height="200" role="img" aria-label="RateRadar live odds for FED 2026-07-29"><rect width="600" height="200" fill="#F5F1E8"/><text x="20" y="30" font-family="sans-serif" font-size="11" letter-spacing="1.5" fill="#7A7570">FEDERAL RESERVE · JUL 29, 2026</text><text x="20" y="80" font-family="Georgia, serif" font-size="32" fill="#0E0E0E">Hold rates</text><text x="20" y="130" font-family="monospace" font-size="42" fill="#3E5640">86%</text><text x="20" y="155" font-family="sans-serif" font-size="11" fill="#7A7570">market-implied probability</text><path d="M 360.0,140.0 L 365.1,140.0 L 370.2,140.0 L 375.3,140.0 L 380.5,140.0 L 385.6,140.0 L 390.7,140.0 L 395.8,140.0 L 400.9,140.0 L 406.0,140.0 L 411.2,140.0 L 416.3,140.0 L 421.4,140.0 L 426.5,140.0 L 431.6,140.0 L 436.7,140.0 L 441.9,140.0 L 447.0,140.0 L 452.1,140.0 L 457.2,140.0 L 462.3,140.0 L 467.4,140.0 L 472.6,140.0 L 477.7,140.0 L 482.8,140.0 L 487.9,140.0 L 493.0,140.0 L 498.1,140.0 L 503.3,140.0 L 508.4,140.0 L 513.5,140.0 L 518.6,68.2 L 523.7,68.2 L 528.8,69.8 L 534.0,68.2 L 539.1,70.1 L 544.2,68.5 L 549.3,73.3 L 554.4,73.3 L 559.5,73.0 L 564.7,73.0 L 569.8,71.4 L 574.9,71.4 L 580.0,71.4" stroke="#3E5640" stroke-width="1.5" fill="none"/><line x1="20" y1="180" x2="580" y2="180" stroke="#0E0E0E33"/><text x="20" y="195" font-family="sans-serif" font-size="10" fill="#7A7570">Powered by RateRadar · rateradar-web.vercel.app</text></svg>