<svg xmlns="http://www.w3.org/2000/svg" viewBox="0 0 600 200" width="600" height="200" role="img" aria-label="RateRadar live odds for FED 2026-10-28"><rect width="600" height="200" fill="#F5F1E8"/><text x="20" y="30" font-family="sans-serif" font-size="11" letter-spacing="1.5" fill="#7A7570">FEDERAL RESERVE · OCT 28, 2026</text><text x="20" y="80" font-family="Georgia, serif" font-size="32" fill="#0E0E0E">Hold rates</text><text x="20" y="130" font-family="monospace" font-size="42" fill="#3E5640">77%</text><text x="20" y="155" font-family="sans-serif" font-size="11" fill="#7A7570">market-implied probability</text><path d="M 360.0,140.0 L 363.9,140.0 L 367.9,140.0 L 371.8,140.0 L 375.7,140.0 L 379.6,140.0 L 383.6,140.0 L 387.5,140.0 L 391.4,140.0 L 395.4,140.0 L 399.3,140.0 L 403.2,140.0 L 407.1,140.0 L 411.1,140.0 L 415.0,140.0 L 418.9,140.0 L 422.9,140.0 L 426.8,140.0 L 430.7,140.0 L 434.6,140.0 L 438.6,140.0 L 442.5,140.0 L 446.4,140.0 L 450.4,140.0 L 454.3,140.0 L 458.2,140.0 L 462.1,140.0 L 466.1,140.0 L 470.0,140.0 L 473.9,140.0 L 477.9,140.0 L 481.8,70.1 L 485.7,70.1 L 489.6,71.7 L 493.6,71.7 L 497.5,70.3 L 501.4,73.7 L 505.4,77.6 L 509.3,72.6 L 513.2,75.8 L 517.1,73.9 L 521.1,72.6 L 525.0,74.2 L 528.9,74.4 L 532.9,77.6 L 536.8,66.6 L 540.7,65.0 L 544.6,68.2 L 548.6,68.2 L 552.5,70.1 L 556.4,66.6 L 560.4,66.6 L 564.3,71.7 L 568.2,79.9 L 572.1,79.7 L 576.1,79.7 L 580.0,78.1" stroke="#3E5640" stroke-width="1.5" fill="none"/><line x1="20" y1="180" x2="580" y2="180" stroke="#0E0E0E33"/><text x="20" y="195" font-family="sans-serif" font-size="10" fill="#7A7570">Powered by RateRadar · rateradar-web.vercel.app</text></svg>