<svg xmlns="http://www.w3.org/2000/svg" viewBox="0 0 600 200" width="600" height="200" role="img" aria-label="RateRadar live odds for FED 2026-06-17"><rect width="600" height="200" fill="#F5F1E8"/><text x="20" y="30" font-family="sans-serif" font-size="11" letter-spacing="1.5" fill="#7A7570">FEDERAL RESERVE · JUN 17, 2026</text><text x="20" y="80" font-family="Georgia, serif" font-size="32" fill="#0E0E0E">Hold rates</text><text x="20" y="130" font-family="monospace" font-size="42" fill="#3E5640">98%</text><text x="20" y="155" font-family="sans-serif" font-size="11" fill="#7A7570">market-implied probability</text><path d="M 360.0,104.3 L 364.9,104.3 L 369.8,104.3 L 374.7,104.3 L 379.6,104.3 L 384.4,104.3 L 389.3,104.3 L 394.2,104.3 L 399.1,104.3 L 404.0,104.3 L 408.9,104.3 L 413.8,104.3 L 418.7,104.3 L 423.6,104.3 L 428.4,104.3 L 433.3,104.3 L 438.2,104.3 L 443.1,104.3 L 448.0,104.3 L 452.9,104.3 L 457.8,104.3 L 462.7,104.3 L 467.6,104.3 L 472.4,104.3 L 477.3,104.3 L 482.2,104.3 L 487.1,104.3 L 492.0,104.3 L 496.9,104.3 L 501.8,104.3 L 506.7,104.3 L 511.6,61.8 L 516.4,61.8 L 521.3,61.8 L 526.2,61.8 L 531.1,63.7 L 536.0,63.7 L 540.9,63.7 L 545.8,63.7 L 550.7,61.8 L 555.6,61.8 L 560.4,61.8 L 565.3,61.8 L 570.2,61.8 L 575.1,61.8 L 580.0,61.8" stroke="#3E5640" stroke-width="1.5" fill="none"/><line x1="20" y1="180" x2="580" y2="180" stroke="#0E0E0E33"/><text x="20" y="195" font-family="sans-serif" font-size="10" fill="#7A7570">Powered by RateRadar · rateradar-web.vercel.app</text></svg>