<svg xmlns="http://www.w3.org/2000/svg" viewBox="0 0 600 200" width="600" height="200" role="img" aria-label="RateRadar live odds for FED 2026-07-29"><rect width="600" height="200" fill="#F5F1E8"/><text x="20" y="30" font-family="sans-serif" font-size="11" letter-spacing="1.5" fill="#7A7570">FEDERAL RESERVE · JUL 29, 2026</text><text x="20" y="80" font-family="Georgia, serif" font-size="32" fill="#0E0E0E">Hold rates</text><text x="20" y="130" font-family="monospace" font-size="42" fill="#3E5640">62%</text><text x="20" y="155" font-family="sans-serif" font-size="11" fill="#7A7570">market-implied probability</text><path d="M 360.0,140.0 L 362.1,140.0 L 364.2,140.0 L 366.3,140.0 L 368.4,140.0 L 370.5,140.0 L 372.6,140.0 L 374.7,140.0 L 376.8,140.0 L 378.9,140.0 L 381.0,140.0 L 383.0,140.0 L 385.1,140.0 L 387.2,140.0 L 389.3,140.0 L 391.4,140.0 L 393.5,140.0 L 395.6,140.0 L 397.7,140.0 L 399.8,140.0 L 401.9,140.0 L 404.0,140.0 L 406.1,140.0 L 408.2,140.0 L 410.3,140.0 L 412.4,140.0 L 414.5,140.0 L 416.6,140.0 L 418.7,140.0 L 420.8,140.0 L 422.9,140.0 L 425.0,68.2 L 427.0,68.2 L 429.1,69.8 L 431.2,68.2 L 433.3,70.1 L 435.4,68.5 L 437.5,73.3 L 439.6,73.3 L 441.7,73.0 L 443.8,73.0 L 445.9,71.4 L 448.0,71.4 L 450.1,71.4 L 452.2,73.0 L 454.3,66.6 L 456.4,70.1 L 458.5,70.1 L 460.6,68.2 L 462.7,68.0 L 464.8,69.8 L 466.9,71.4 L 469.0,69.8 L 471.0,93.6 L 473.1,87.0 L 475.2,92.0 L 477.3,93.4 L 479.4,93.4 L 481.5,93.4 L 483.6,90.2 L 485.7,90.2 L 487.8,90.2 L 489.9,90.4 L 492.0,87.0 L 494.1,88.6 L 496.2,87.2 L 498.3,85.6 L 500.4,84.0 L 502.5,84.0 L 504.6,85.6 L 506.7,85.6 L 508.8,87.2 L 510.9,87.2 L 513.0,84.0 L 515.0,84.0 L 517.1,76.0 L 519.2,76.0 L 521.3,79.2 L 523.4,79.2 L 525.5,82.4 L 527.6,79.2 L 529.7,82.4 L 531.8,84.0 L 533.9,85.6 L 536.0,84.0 L 538.1,79.2 L 540.2,79.2 L 542.3,85.6 L 544.4,87.2 L 546.5,93.6 L 548.6,95.2 L 550.7,72.8 L 552.8,72.8 L 554.9,69.6 L 557.0,68.0 L 559.0,68.0 L 561.1,69.6 L 563.2,71.2 L 565.3,72.8 L 567.4,72.8 L 569.5,74.4 L 571.6,82.4 L 573.7,80.8 L 575.8,88.8 L 577.9,90.4 L 580.0,90.4" stroke="#3E5640" stroke-width="1.5" fill="none"/><line x1="20" y1="180" x2="580" y2="180" stroke="#0E0E0E33"/><text x="20" y="195" font-family="sans-serif" font-size="10" fill="#7A7570">Powered by RateRadar · rateradar-web.vercel.app</text></svg>