<svg xmlns="http://www.w3.org/2000/svg" viewBox="0 0 600 200" width="600" height="200" role="img" aria-label="RateRadar live odds for FED 2026-06-17"><rect width="600" height="200" fill="#F5F1E8"/><text x="20" y="30" font-family="sans-serif" font-size="11" letter-spacing="1.5" fill="#7A7570">FEDERAL RESERVE · JUN 17, 2026</text><text x="20" y="80" font-family="Georgia, serif" font-size="32" fill="#0E0E0E">Hold rates</text><text x="20" y="130" font-family="monospace" font-size="42" fill="#3E5640">98%</text><text x="20" y="155" font-family="sans-serif" font-size="11" fill="#7A7570">market-implied probability</text><path d="M 360.0,104.3 L 367.1,104.3 L 374.2,104.3 L 381.3,104.3 L 388.4,104.3 L 395.5,104.3 L 402.6,104.3 L 409.7,104.3 L 416.8,104.3 L 423.9,104.3 L 431.0,104.3 L 438.1,104.3 L 445.2,104.3 L 452.3,104.3 L 459.4,104.3 L 466.5,104.3 L 473.5,104.3 L 480.6,104.3 L 487.7,104.3 L 494.8,104.3 L 501.9,104.3 L 509.0,104.3 L 516.1,104.3 L 523.2,104.3 L 530.3,104.3 L 537.4,104.3 L 544.5,104.3 L 551.6,104.3 L 558.7,104.3 L 565.8,104.3 L 572.9,104.3 L 580.0,61.8" stroke="#3E5640" stroke-width="1.5" fill="none"/><line x1="20" y1="180" x2="580" y2="180" stroke="#0E0E0E33"/><text x="20" y="195" font-family="sans-serif" font-size="10" fill="#7A7570">Powered by RateRadar · rateradar-web.vercel.app</text></svg>