<svg xmlns="http://www.w3.org/2000/svg" viewBox="0 0 600 200" width="600" height="200" role="img" aria-label="RateRadar live odds for FED 2026-07-29"><rect width="600" height="200" fill="#F5F1E8"/><text x="20" y="30" font-family="sans-serif" font-size="11" letter-spacing="1.5" fill="#7A7570">FEDERAL RESERVE · JUL 29, 2026</text><text x="20" y="80" font-family="Georgia, serif" font-size="32" fill="#0E0E0E">Hold rates</text><text x="20" y="130" font-family="monospace" font-size="42" fill="#3E5640">66%</text><text x="20" y="155" font-family="sans-serif" font-size="11" fill="#7A7570">market-implied probability</text><path d="M 360.0,140.0 L 363.4,140.0 L 366.8,140.0 L 370.2,140.0 L 373.5,140.0 L 376.9,140.0 L 380.3,140.0 L 383.7,140.0 L 387.1,140.0 L 390.5,140.0 L 393.8,140.0 L 397.2,140.0 L 400.6,140.0 L 404.0,140.0 L 407.4,140.0 L 410.8,140.0 L 414.2,140.0 L 417.5,140.0 L 420.9,140.0 L 424.3,140.0 L 427.7,140.0 L 431.1,140.0 L 434.5,140.0 L 437.8,140.0 L 441.2,140.0 L 444.6,140.0 L 448.0,140.0 L 451.4,140.0 L 454.8,140.0 L 458.2,140.0 L 461.5,140.0 L 464.9,68.2 L 468.3,68.2 L 471.7,69.8 L 475.1,68.2 L 478.5,70.1 L 481.8,68.5 L 485.2,73.3 L 488.6,73.3 L 492.0,73.0 L 495.4,73.0 L 498.8,71.4 L 502.2,71.4 L 505.5,71.4 L 508.9,73.0 L 512.3,66.6 L 515.7,70.1 L 519.1,70.1 L 522.5,68.2 L 525.8,68.0 L 529.2,69.8 L 532.6,71.4 L 536.0,69.8 L 539.4,93.6 L 542.8,87.0 L 546.2,92.0 L 549.5,93.4 L 552.9,93.4 L 556.3,93.4 L 559.7,90.2 L 563.1,90.2 L 566.5,90.2 L 569.8,90.4 L 573.2,87.0 L 576.6,88.6 L 580.0,87.2" stroke="#3E5640" stroke-width="1.5" fill="none"/><line x1="20" y1="180" x2="580" y2="180" stroke="#0E0E0E33"/><text x="20" y="195" font-family="sans-serif" font-size="10" fill="#7A7570">Powered by RateRadar · rateradar-web.vercel.app</text></svg>