<svg xmlns="http://www.w3.org/2000/svg" viewBox="0 0 600 200" width="600" height="200" role="img" aria-label="RateRadar live odds for FED 2026-06-17"><rect width="600" height="200" fill="#F5F1E8"/><text x="20" y="30" font-family="sans-serif" font-size="11" letter-spacing="1.5" fill="#7A7570">FEDERAL RESERVE · JUN 17, 2026</text><text x="20" y="80" font-family="Georgia, serif" font-size="32" fill="#0E0E0E">Hold rates</text><text x="20" y="130" font-family="monospace" font-size="42" fill="#3E5640">95%</text><text x="20" y="155" font-family="sans-serif" font-size="11" fill="#7A7570">market-implied probability</text><path d="M 360.0,104.3 L 366.1,104.3 L 372.2,104.3 L 378.3,104.3 L 384.4,104.3 L 390.6,104.3 L 396.7,104.3 L 402.8,104.3 L 408.9,104.3 L 415.0,104.3 L 421.1,104.3 L 427.2,104.3 L 433.3,104.3 L 439.4,104.3 L 445.6,104.3 L 451.7,104.3 L 457.8,104.3 L 463.9,104.3 L 470.0,104.3 L 476.1,104.3 L 482.2,104.3 L 488.3,104.3 L 494.4,104.3 L 500.6,104.3 L 506.7,104.3 L 512.8,104.3 L 518.9,104.3 L 525.0,104.3 L 531.1,104.3 L 537.2,104.3 L 543.3,104.3 L 549.4,61.8 L 555.6,61.8 L 561.7,61.8 L 567.8,61.8 L 573.9,63.7 L 580.0,63.7" stroke="#3E5640" stroke-width="1.5" fill="none"/><line x1="20" y1="180" x2="580" y2="180" stroke="#0E0E0E33"/><text x="20" y="195" font-family="sans-serif" font-size="10" fill="#7A7570">Powered by RateRadar · rateradar-web.vercel.app</text></svg>