<svg xmlns="http://www.w3.org/2000/svg" viewBox="0 0 600 200" width="600" height="200" role="img" aria-label="RateRadar live odds for FED 2026-09-16"><rect width="600" height="200" fill="#F5F1E8"/><text x="20" y="30" font-family="sans-serif" font-size="11" letter-spacing="1.5" fill="#7A7570">FEDERAL RESERVE · SEP 16, 2026</text><text x="20" y="80" font-family="Georgia, serif" font-size="32" fill="#0E0E0E">Move +25bp</text><text x="20" y="130" font-family="monospace" font-size="42" fill="#A8312A">51%</text><text x="20" y="155" font-family="sans-serif" font-size="11" fill="#7A7570">market-implied probability</text><path d="M 360.0,140.0 L 362.3,140.0 L 364.5,140.0 L 366.8,140.0 L 369.1,140.0 L 371.3,140.0 L 373.6,140.0 L 375.9,140.0 L 378.1,140.0 L 380.4,140.0 L 382.7,140.0 L 384.9,140.0 L 387.2,140.0 L 389.5,140.0 L 391.8,140.0 L 394.0,140.0 L 396.3,140.0 L 398.6,140.0 L 400.8,140.0 L 403.1,140.0 L 405.4,140.0 L 407.6,140.0 L 409.9,140.0 L 412.2,140.0 L 414.4,140.0 L 416.7,140.0 L 419.0,140.0 L 421.2,140.0 L 423.5,140.0 L 425.8,140.0 L 428.0,140.0 L 430.3,122.9 L 432.6,122.9 L 434.8,122.9 L 437.1,122.9 L 439.4,126.3 L 441.6,129.7 L 443.9,116.0 L 446.2,112.6 L 448.5,112.6 L 450.7,109.1 L 453.0,112.6 L 455.3,112.6 L 457.5,116.0 L 459.8,116.0 L 462.1,119.4 L 464.3,119.4 L 466.6,119.4 L 468.9,119.4 L 471.1,122.9 L 473.4,119.4 L 475.7,119.4 L 477.9,122.9 L 480.2,102.3 L 482.5,98.9 L 484.7,98.9 L 487.0,98.9 L 489.3,95.4 L 491.5,95.4 L 493.8,92.0 L 496.1,88.6 L 498.4,95.4 L 500.6,95.4 L 502.9,95.4 L 505.2,102.3 L 507.4,102.3 L 509.7,98.9 L 512.0,102.3 L 514.2,102.3 L 516.5,102.3 L 518.8,102.3 L 521.0,98.9 L 523.3,95.4 L 525.6,98.9 L 527.8,98.9 L 530.1,105.7 L 532.4,105.7 L 534.6,105.7 L 536.9,105.7 L 539.2,112.6 L 541.4,105.7 L 543.7,102.3 L 546.0,102.3 L 548.2,98.9 L 550.5,98.9 L 552.8,98.9 L 555.1,98.9 L 557.3,98.9 L 559.6,98.9 L 561.9,95.4 L 564.1,95.4 L 566.4,98.9 L 568.7,98.9 L 570.9,109.1 L 573.2,102.3 L 575.5,98.9 L 577.7,105.7 L 580.0,98.9" stroke="#A8312A" stroke-width="1.5" fill="none"/><line x1="20" y1="180" x2="580" y2="180" stroke="#0E0E0E33"/><text x="20" y="195" font-family="sans-serif" font-size="10" fill="#7A7570">Powered by RateRadar · rateradar-web.vercel.app</text></svg>