<svg xmlns="http://www.w3.org/2000/svg" viewBox="0 0 600 200" width="600" height="200" role="img" aria-label="RateRadar live odds for FED 2026-12-09"><rect width="600" height="200" fill="#F5F1E8"/><text x="20" y="30" font-family="sans-serif" font-size="11" letter-spacing="1.5" fill="#7A7570">FEDERAL RESERVE · DEC 09, 2026</text><text x="20" y="80" font-family="Georgia, serif" font-size="32" fill="#0E0E0E">Hold rates</text><text x="20" y="130" font-family="monospace" font-size="42" fill="#3E5640">56%</text><text x="20" y="155" font-family="sans-serif" font-size="11" fill="#7A7570">market-implied probability</text><path d="M 360.0,140.0 L 362.2,140.0 L 364.3,140.0 L 366.5,140.0 L 368.6,140.0 L 370.8,140.0 L 372.9,140.0 L 375.1,140.0 L 377.3,140.0 L 379.4,140.0 L 381.6,140.0 L 383.7,140.0 L 385.9,140.0 L 388.0,140.0 L 390.2,140.0 L 392.4,140.0 L 394.5,140.0 L 396.7,140.0 L 398.8,140.0 L 401.0,140.0 L 403.1,140.0 L 405.3,140.0 L 407.5,140.0 L 409.6,140.0 L 411.8,140.0 L 413.9,140.0 L 416.1,140.0 L 418.2,140.0 L 420.4,140.0 L 422.5,140.0 L 424.7,140.0 L 426.9,85.6 L 429.0,87.2 L 431.2,87.2 L 433.3,85.6 L 435.5,82.4 L 437.6,82.4 L 439.8,95.2 L 442.0,93.6 L 444.1,95.2 L 446.3,95.2 L 448.4,90.4 L 450.6,88.8 L 452.7,93.6 L 454.9,93.6 L 457.1,85.6 L 459.2,87.2 L 461.4,90.4 L 463.5,88.8 L 465.7,87.2 L 467.8,88.8 L 470.0,90.4 L 472.2,88.8 L 474.3,100.0 L 476.5,100.0 L 478.6,95.2 L 480.8,92.0 L 482.9,95.2 L 485.1,95.2 L 487.3,95.2 L 489.4,92.0 L 491.6,88.8 L 493.7,88.8 L 495.9,87.2 L 498.0,88.8 L 500.2,87.2 L 502.4,88.8 L 504.5,85.6 L 506.7,85.6 L 508.8,87.2 L 511.0,87.2 L 513.1,90.4 L 515.3,90.4 L 517.5,93.6 L 519.6,93.6 L 521.8,92.0 L 523.9,92.0 L 526.1,90.4 L 528.2,90.4 L 530.4,85.6 L 532.5,87.2 L 534.7,90.4 L 536.9,93.6 L 539.0,92.0 L 541.2,93.6 L 543.3,90.4 L 545.5,92.0 L 547.6,92.0 L 549.8,92.0 L 552.0,93.6 L 554.1,95.2 L 556.3,90.4 L 558.4,90.4 L 560.6,85.6 L 562.7,85.6 L 564.9,87.2 L 567.1,87.2 L 569.2,90.4 L 571.4,90.4 L 573.5,92.0 L 575.7,92.0 L 577.8,93.6 L 580.0,95.2" stroke="#3E5640" stroke-width="1.5" fill="none"/><line x1="20" y1="180" x2="580" y2="180" stroke="#0E0E0E33"/><text x="20" y="195" font-family="sans-serif" font-size="10" fill="#7A7570">Powered by RateRadar · rateradar-web.vercel.app</text></svg>