<svg xmlns="http://www.w3.org/2000/svg" viewBox="0 0 600 200" width="600" height="200" role="img" aria-label="RateRadar live odds for FED 2026-12-09"><rect width="600" height="200" fill="#F5F1E8"/><text x="20" y="30" font-family="sans-serif" font-size="11" letter-spacing="1.5" fill="#7A7570">FEDERAL RESERVE · DEC 09, 2026</text><text x="20" y="80" font-family="Georgia, serif" font-size="32" fill="#0E0E0E">Hold rates</text><text x="20" y="130" font-family="monospace" font-size="42" fill="#3E5640">60%</text><text x="20" y="155" font-family="sans-serif" font-size="11" fill="#7A7570">market-implied probability</text><path d="M 360.0,140.0 L 362.9,140.0 L 365.9,140.0 L 368.8,140.0 L 371.7,140.0 L 374.7,140.0 L 377.6,140.0 L 380.5,140.0 L 383.5,140.0 L 386.4,140.0 L 389.3,140.0 L 392.3,140.0 L 395.2,140.0 L 398.1,140.0 L 401.1,140.0 L 404.0,140.0 L 406.9,140.0 L 409.9,140.0 L 412.8,140.0 L 415.7,140.0 L 418.7,140.0 L 421.6,140.0 L 424.5,140.0 L 427.5,140.0 L 430.4,140.0 L 433.3,140.0 L 436.3,140.0 L 439.2,140.0 L 442.1,140.0 L 445.1,140.0 L 448.0,140.0 L 450.9,85.6 L 453.9,87.2 L 456.8,87.2 L 459.7,85.6 L 462.7,82.4 L 465.6,82.4 L 468.5,95.2 L 471.5,93.6 L 474.4,95.2 L 477.3,95.2 L 480.3,90.4 L 483.2,88.8 L 486.1,93.6 L 489.1,93.6 L 492.0,85.6 L 494.9,87.2 L 497.9,90.4 L 500.8,88.8 L 503.7,87.2 L 506.7,88.8 L 509.6,90.4 L 512.5,88.8 L 515.5,100.0 L 518.4,100.0 L 521.3,95.2 L 524.3,92.0 L 527.2,95.2 L 530.1,95.2 L 533.1,95.2 L 536.0,92.0 L 538.9,88.8 L 541.9,88.8 L 544.8,87.2 L 547.7,88.8 L 550.7,87.2 L 553.6,88.8 L 556.5,85.6 L 559.5,85.6 L 562.4,87.2 L 565.3,87.2 L 568.3,90.4 L 571.2,90.4 L 574.1,93.6 L 577.1,93.6 L 580.0,92.0" stroke="#3E5640" stroke-width="1.5" fill="none"/><line x1="20" y1="180" x2="580" y2="180" stroke="#0E0E0E33"/><text x="20" y="195" font-family="sans-serif" font-size="10" fill="#7A7570">Powered by RateRadar · rateradar-web.vercel.app</text></svg>