<svg xmlns="http://www.w3.org/2000/svg" viewBox="0 0 600 200" width="600" height="200" role="img" aria-label="RateRadar live odds for FED 2026-12-09"><rect width="600" height="200" fill="#F5F1E8"/><text x="20" y="30" font-family="sans-serif" font-size="11" letter-spacing="1.5" fill="#7A7570">FEDERAL RESERVE · DEC 09, 2026</text><text x="20" y="80" font-family="Georgia, serif" font-size="32" fill="#0E0E0E">Hold rates</text><text x="20" y="130" font-family="monospace" font-size="42" fill="#3E5640">62%</text><text x="20" y="155" font-family="sans-serif" font-size="11" fill="#7A7570">market-implied probability</text><path d="M 360.0,140.0 L 362.9,140.0 L 365.7,140.0 L 368.6,140.0 L 371.4,140.0 L 374.3,140.0 L 377.1,140.0 L 380.0,140.0 L 382.9,140.0 L 385.7,140.0 L 388.6,140.0 L 391.4,140.0 L 394.3,140.0 L 397.1,140.0 L 400.0,140.0 L 402.9,140.0 L 405.7,140.0 L 408.6,140.0 L 411.4,140.0 L 414.3,140.0 L 417.1,140.0 L 420.0,140.0 L 422.9,140.0 L 425.7,140.0 L 428.6,140.0 L 431.4,140.0 L 434.3,140.0 L 437.1,140.0 L 440.0,140.0 L 442.9,140.0 L 445.7,140.0 L 448.6,85.6 L 451.4,87.2 L 454.3,87.2 L 457.1,85.6 L 460.0,82.4 L 462.9,82.4 L 465.7,95.2 L 468.6,93.6 L 471.4,95.2 L 474.3,95.2 L 477.1,90.4 L 480.0,88.8 L 482.9,93.6 L 485.7,93.6 L 488.6,85.6 L 491.4,87.2 L 494.3,90.4 L 497.1,88.8 L 500.0,87.2 L 502.9,88.8 L 505.7,90.4 L 508.6,88.8 L 511.4,100.0 L 514.3,100.0 L 517.1,95.2 L 520.0,92.0 L 522.9,95.2 L 525.7,95.2 L 528.6,95.2 L 531.4,92.0 L 534.3,88.8 L 537.1,88.8 L 540.0,87.2 L 542.9,88.8 L 545.7,87.2 L 548.6,88.8 L 551.4,85.6 L 554.3,85.6 L 557.1,87.2 L 560.0,87.2 L 562.9,90.4 L 565.7,90.4 L 568.6,93.6 L 571.4,93.6 L 574.3,92.0 L 577.1,92.0 L 580.0,90.4" stroke="#3E5640" stroke-width="1.5" fill="none"/><line x1="20" y1="180" x2="580" y2="180" stroke="#0E0E0E33"/><text x="20" y="195" font-family="sans-serif" font-size="10" fill="#7A7570">Powered by RateRadar · rateradar-web.vercel.app</text></svg>