<svg xmlns="http://www.w3.org/2000/svg" viewBox="0 0 600 200" width="600" height="200" role="img" aria-label="RateRadar live odds for FED 2026-10-28"><rect width="600" height="200" fill="#F5F1E8"/><text x="20" y="30" font-family="sans-serif" font-size="11" letter-spacing="1.5" fill="#7A7570">FEDERAL RESERVE · OCT 28, 2026</text><text x="20" y="80" font-family="Georgia, serif" font-size="32" fill="#0E0E0E">Hold rates</text><text x="20" y="130" font-family="monospace" font-size="42" fill="#3E5640">71%</text><text x="20" y="155" font-family="sans-serif" font-size="11" fill="#7A7570">market-implied probability</text><path d="M 360.0,140.0 L 362.2,140.0 L 364.4,140.0 L 366.6,140.0 L 368.8,140.0 L 371.0,140.0 L 373.2,140.0 L 375.4,140.0 L 377.6,140.0 L 379.8,140.0 L 382.0,140.0 L 384.2,140.0 L 386.4,140.0 L 388.6,140.0 L 390.8,140.0 L 393.0,140.0 L 395.2,140.0 L 397.4,140.0 L 399.6,140.0 L 401.8,140.0 L 404.0,140.0 L 406.2,140.0 L 408.4,140.0 L 410.6,140.0 L 412.8,140.0 L 415.0,140.0 L 417.2,140.0 L 419.4,140.0 L 421.6,140.0 L 423.8,140.0 L 426.0,140.0 L 428.2,70.1 L 430.4,70.1 L 432.6,71.7 L 434.8,71.7 L 437.0,70.3 L 439.2,73.7 L 441.4,77.6 L 443.6,72.6 L 445.8,75.8 L 448.0,73.9 L 450.2,72.6 L 452.4,74.2 L 454.6,74.4 L 456.8,77.6 L 459.0,66.6 L 461.2,65.0 L 463.4,68.2 L 465.6,68.2 L 467.8,70.1 L 470.0,66.6 L 472.2,66.6 L 474.4,71.7 L 476.6,79.9 L 478.8,79.7 L 481.0,79.7 L 483.2,78.1 L 485.4,82.6 L 487.6,82.6 L 489.8,82.4 L 492.0,79.0 L 494.2,77.8 L 496.4,81.0 L 498.6,74.6 L 500.8,79.9 L 503.0,78.3 L 505.2,76.5 L 507.4,71.9 L 509.6,75.1 L 511.8,75.1 L 514.0,76.7 L 516.2,78.1 L 518.4,77.8 L 520.6,78.1 L 522.8,79.7 L 525.0,76.9 L 527.2,76.9 L 529.4,76.9 L 531.6,76.9 L 533.8,80.6 L 536.0,75.3 L 538.2,79.9 L 540.4,78.3 L 542.6,79.7 L 544.8,82.9 L 547.0,76.5 L 549.2,76.5 L 551.4,79.7 L 553.6,79.7 L 555.8,84.2 L 558.0,82.6 L 560.2,74.9 L 562.4,74.9 L 564.6,77.1 L 566.8,75.1 L 569.0,74.9 L 571.2,76.9 L 573.4,79.7 L 575.6,79.7 L 577.8,84.5 L 580.0,82.9" stroke="#3E5640" stroke-width="1.5" fill="none"/><line x1="20" y1="180" x2="580" y2="180" stroke="#0E0E0E33"/><text x="20" y="195" font-family="sans-serif" font-size="10" fill="#7A7570">Powered by RateRadar · rateradar-web.vercel.app</text></svg>