<svg xmlns="http://www.w3.org/2000/svg" viewBox="0 0 600 200" width="600" height="200" role="img" aria-label="RateRadar live odds for FED 2026-12-09"><rect width="600" height="200" fill="#F5F1E8"/><text x="20" y="30" font-family="sans-serif" font-size="11" letter-spacing="1.5" fill="#7A7570">FEDERAL RESERVE · DEC 09, 2026</text><text x="20" y="80" font-family="Georgia, serif" font-size="32" fill="#0E0E0E">Hold rates</text><text x="20" y="130" font-family="monospace" font-size="42" fill="#3E5640">58%</text><text x="20" y="155" font-family="sans-serif" font-size="11" fill="#7A7570">market-implied probability</text><path d="M 360.0,140.0 L 362.1,140.0 L 364.2,140.0 L 366.2,140.0 L 368.3,140.0 L 370.4,140.0 L 372.5,140.0 L 374.5,140.0 L 376.6,140.0 L 378.7,140.0 L 380.8,140.0 L 382.8,140.0 L 384.9,140.0 L 387.0,140.0 L 389.1,140.0 L 391.1,140.0 L 393.2,140.0 L 395.3,140.0 L 397.4,140.0 L 399.4,140.0 L 401.5,140.0 L 403.6,140.0 L 405.7,140.0 L 407.7,140.0 L 409.8,140.0 L 411.9,140.0 L 414.0,140.0 L 416.0,140.0 L 418.1,140.0 L 420.2,140.0 L 422.3,140.0 L 424.3,85.6 L 426.4,87.2 L 428.5,87.2 L 430.6,85.6 L 432.6,82.4 L 434.7,82.4 L 436.8,95.2 L 438.9,93.6 L 440.9,95.2 L 443.0,95.2 L 445.1,90.4 L 447.2,88.8 L 449.2,93.6 L 451.3,93.6 L 453.4,85.6 L 455.5,87.2 L 457.5,90.4 L 459.6,88.8 L 461.7,87.2 L 463.8,88.8 L 465.8,90.4 L 467.9,88.8 L 470.0,100.0 L 472.1,100.0 L 474.2,95.2 L 476.2,92.0 L 478.3,95.2 L 480.4,95.2 L 482.5,95.2 L 484.5,92.0 L 486.6,88.8 L 488.7,88.8 L 490.8,87.2 L 492.8,88.8 L 494.9,87.2 L 497.0,88.8 L 499.1,85.6 L 501.1,85.6 L 503.2,87.2 L 505.3,87.2 L 507.4,90.4 L 509.4,90.4 L 511.5,93.6 L 513.6,93.6 L 515.7,92.0 L 517.7,92.0 L 519.8,90.4 L 521.9,90.4 L 524.0,85.6 L 526.0,87.2 L 528.1,90.4 L 530.2,93.6 L 532.3,92.0 L 534.3,93.6 L 536.4,90.4 L 538.5,92.0 L 540.6,92.0 L 542.6,92.0 L 544.7,93.6 L 546.8,95.2 L 548.9,90.4 L 550.9,90.4 L 553.0,85.6 L 555.1,85.6 L 557.2,87.2 L 559.2,87.2 L 561.3,90.4 L 563.4,90.4 L 565.5,92.0 L 567.5,92.0 L 569.6,93.6 L 571.7,95.2 L 573.8,93.6 L 575.8,93.6 L 577.9,95.2 L 580.0,93.6" stroke="#3E5640" stroke-width="1.5" fill="none"/><line x1="20" y1="180" x2="580" y2="180" stroke="#0E0E0E33"/><text x="20" y="195" font-family="sans-serif" font-size="10" fill="#7A7570">Powered by RateRadar · rateradar-web.vercel.app</text></svg>