<svg xmlns="http://www.w3.org/2000/svg" viewBox="0 0 600 200" width="600" height="200" role="img" aria-label="RateRadar live odds for FED 2026-07-29"><rect width="600" height="200" fill="#F5F1E8"/><text x="20" y="30" font-family="sans-serif" font-size="11" letter-spacing="1.5" fill="#7A7570">FEDERAL RESERVE · JUL 29, 2026</text><text x="20" y="80" font-family="Georgia, serif" font-size="32" fill="#0E0E0E">Hold rates</text><text x="20" y="130" font-family="monospace" font-size="42" fill="#3E5640">88%</text><text x="20" y="155" font-family="sans-serif" font-size="11" fill="#7A7570">market-implied probability</text><path d="M 360.0,140.0 L 362.3,140.0 L 364.6,140.0 L 366.9,140.0 L 369.2,140.0 L 371.5,140.0 L 373.8,140.0 L 376.0,140.0 L 378.3,140.0 L 380.6,140.0 L 382.9,140.0 L 385.2,140.0 L 387.5,140.0 L 389.8,140.0 L 392.1,140.0 L 394.4,140.0 L 396.7,140.0 L 399.0,140.0 L 401.2,140.0 L 403.5,140.0 L 405.8,140.0 L 408.1,140.0 L 410.4,140.0 L 412.7,140.0 L 415.0,140.0 L 417.3,140.0 L 419.6,140.0 L 421.9,140.0 L 424.2,140.0 L 426.5,140.0 L 428.8,140.0 L 431.0,68.2 L 433.3,68.2 L 435.6,69.8 L 437.9,68.2 L 440.2,70.1 L 442.5,68.5 L 444.8,73.3 L 447.1,73.3 L 449.4,73.0 L 451.7,73.0 L 454.0,71.4 L 456.2,71.4 L 458.5,71.4 L 460.8,73.0 L 463.1,66.6 L 465.4,70.1 L 467.7,70.1 L 470.0,68.2 L 472.3,68.0 L 474.6,69.8 L 476.9,71.4 L 479.2,69.8 L 481.5,93.6 L 483.8,87.0 L 486.0,92.0 L 488.3,93.4 L 490.6,93.4 L 492.9,93.4 L 495.2,90.2 L 497.5,90.2 L 499.8,90.2 L 502.1,90.4 L 504.4,87.0 L 506.7,88.6 L 509.0,87.2 L 511.2,85.6 L 513.5,84.0 L 515.8,84.0 L 518.1,85.6 L 520.4,85.6 L 522.7,87.2 L 525.0,87.2 L 527.3,84.0 L 529.6,84.0 L 531.9,76.0 L 534.2,76.0 L 536.5,79.2 L 538.8,79.2 L 541.0,82.4 L 543.3,79.2 L 545.6,82.4 L 547.9,84.0 L 550.2,85.6 L 552.5,84.0 L 554.8,79.2 L 557.1,79.2 L 559.4,85.6 L 561.7,87.2 L 564.0,93.6 L 566.2,95.2 L 568.5,72.8 L 570.8,72.8 L 573.1,69.6 L 575.4,68.0 L 577.7,68.0 L 580.0,69.6" stroke="#3E5640" stroke-width="1.5" fill="none"/><line x1="20" y1="180" x2="580" y2="180" stroke="#0E0E0E33"/><text x="20" y="195" font-family="sans-serif" font-size="10" fill="#7A7570">Powered by RateRadar · rateradar-web.vercel.app</text></svg>