<svg xmlns="http://www.w3.org/2000/svg" viewBox="0 0 600 200" width="600" height="200" role="img" aria-label="RateRadar live odds for FED 2026-09-16"><rect width="600" height="200" fill="#F5F1E8"/><text x="20" y="30" font-family="sans-serif" font-size="11" letter-spacing="1.5" fill="#7A7570">FEDERAL RESERVE · SEP 16, 2026</text><text x="20" y="80" font-family="Georgia, serif" font-size="32" fill="#0E0E0E">Move +25bp</text><text x="20" y="130" font-family="monospace" font-size="42" fill="#A8312A">51%</text><text x="20" y="155" font-family="sans-serif" font-size="11" fill="#7A7570">market-implied probability</text><path d="M 360.0,140.0 L 362.6,140.0 L 365.1,140.0 L 367.7,140.0 L 370.2,140.0 L 372.8,140.0 L 375.3,140.0 L 377.9,140.0 L 380.5,140.0 L 383.0,140.0 L 385.6,140.0 L 388.1,140.0 L 390.7,140.0 L 393.3,140.0 L 395.8,140.0 L 398.4,140.0 L 400.9,140.0 L 403.5,140.0 L 406.0,140.0 L 408.6,140.0 L 411.2,140.0 L 413.7,140.0 L 416.3,140.0 L 418.8,140.0 L 421.4,140.0 L 424.0,140.0 L 426.5,140.0 L 429.1,140.0 L 431.6,140.0 L 434.2,140.0 L 436.7,140.0 L 439.3,122.9 L 441.9,122.9 L 444.4,122.9 L 447.0,122.9 L 449.5,126.3 L 452.1,129.7 L 454.7,116.0 L 457.2,112.6 L 459.8,112.6 L 462.3,109.1 L 464.9,112.6 L 467.4,112.6 L 470.0,116.0 L 472.6,116.0 L 475.1,119.4 L 477.7,119.4 L 480.2,119.4 L 482.8,119.4 L 485.3,122.9 L 487.9,119.4 L 490.5,119.4 L 493.0,122.9 L 495.6,102.3 L 498.1,98.9 L 500.7,98.9 L 503.3,98.9 L 505.8,95.4 L 508.4,95.4 L 510.9,92.0 L 513.5,88.6 L 516.0,95.4 L 518.6,95.4 L 521.2,95.4 L 523.7,102.3 L 526.3,102.3 L 528.8,98.9 L 531.4,102.3 L 534.0,102.3 L 536.5,102.3 L 539.1,102.3 L 541.6,98.9 L 544.2,95.4 L 546.7,98.9 L 549.3,98.9 L 551.9,105.7 L 554.4,105.7 L 557.0,105.7 L 559.5,105.7 L 562.1,112.6 L 564.7,105.7 L 567.2,102.3 L 569.8,102.3 L 572.3,98.9 L 574.9,98.9 L 577.4,98.9 L 580.0,98.9" stroke="#A8312A" stroke-width="1.5" fill="none"/><line x1="20" y1="180" x2="580" y2="180" stroke="#0E0E0E33"/><text x="20" y="195" font-family="sans-serif" font-size="10" fill="#7A7570">Powered by RateRadar · rateradar-web.vercel.app</text></svg>