<svg xmlns="http://www.w3.org/2000/svg" viewBox="0 0 600 200" width="600" height="200" role="img" aria-label="RateRadar live odds for FED 2026-09-16"><rect width="600" height="200" fill="#F5F1E8"/><text x="20" y="30" font-family="sans-serif" font-size="11" letter-spacing="1.5" fill="#7A7570">FEDERAL RESERVE · SEP 16, 2026</text><text x="20" y="80" font-family="Georgia, serif" font-size="32" fill="#0E0E0E">Hold rates</text><text x="20" y="130" font-family="monospace" font-size="42" fill="#3E5640">79%</text><text x="20" y="155" font-family="sans-serif" font-size="11" fill="#7A7570">market-implied probability</text><path d="M 360.0,140.0 L 366.5,140.0 L 372.9,140.0 L 379.4,140.0 L 385.9,140.0 L 392.4,140.0 L 398.8,140.0 L 405.3,140.0 L 411.8,140.0 L 418.2,140.0 L 424.7,140.0 L 431.2,140.0 L 437.6,140.0 L 444.1,140.0 L 450.6,140.0 L 457.1,140.0 L 463.5,140.0 L 470.0,140.0 L 476.5,140.0 L 482.9,140.0 L 489.4,140.0 L 495.9,140.0 L 502.4,140.0 L 508.8,140.0 L 515.3,140.0 L 521.8,140.0 L 528.2,140.0 L 534.7,140.0 L 541.2,140.0 L 547.6,140.0 L 554.1,140.0 L 560.6,77.1 L 567.1,77.1 L 573.5,77.1 L 580.0,77.1" stroke="#3E5640" stroke-width="1.5" fill="none"/><line x1="20" y1="180" x2="580" y2="180" stroke="#0E0E0E33"/><text x="20" y="195" font-family="sans-serif" font-size="10" fill="#7A7570">Powered by RateRadar · rateradar-web.vercel.app</text></svg>