<svg xmlns="http://www.w3.org/2000/svg" viewBox="0 0 600 200" width="600" height="200" role="img" aria-label="RateRadar live odds for FED 2026-12-09"><rect width="600" height="200" fill="#F5F1E8"/><text x="20" y="30" font-family="sans-serif" font-size="11" letter-spacing="1.5" fill="#7A7570">FEDERAL RESERVE · DEC 09, 2026</text><text x="20" y="80" font-family="Georgia, serif" font-size="32" fill="#0E0E0E">Hold rates</text><text x="20" y="130" font-family="monospace" font-size="42" fill="#3E5640">66%</text><text x="20" y="155" font-family="sans-serif" font-size="11" fill="#7A7570">market-implied probability</text><path d="M 360.0,140.0 L 362.3,140.0 L 364.6,140.0 L 366.9,140.0 L 369.3,140.0 L 371.6,140.0 L 373.9,140.0 L 376.2,140.0 L 378.5,140.0 L 380.8,140.0 L 383.2,140.0 L 385.5,140.0 L 387.8,140.0 L 390.1,140.0 L 392.4,140.0 L 394.7,140.0 L 397.1,140.0 L 399.4,140.0 L 401.7,140.0 L 404.0,140.0 L 406.3,140.0 L 408.6,140.0 L 410.9,140.0 L 413.3,140.0 L 415.6,140.0 L 417.9,140.0 L 420.2,140.0 L 422.5,140.0 L 424.8,140.0 L 427.2,140.0 L 429.5,140.0 L 431.8,85.6 L 434.1,87.2 L 436.4,87.2 L 438.7,85.6 L 441.1,82.4 L 443.4,82.4 L 445.7,95.2 L 448.0,93.6 L 450.3,95.2 L 452.6,95.2 L 454.9,90.4 L 457.3,88.8 L 459.6,93.6 L 461.9,93.6 L 464.2,85.6 L 466.5,87.2 L 468.8,90.4 L 471.2,88.8 L 473.5,87.2 L 475.8,88.8 L 478.1,90.4 L 480.4,88.8 L 482.7,100.0 L 485.1,100.0 L 487.4,95.2 L 489.7,92.0 L 492.0,95.2 L 494.3,95.2 L 496.6,95.2 L 498.9,92.0 L 501.3,88.8 L 503.6,88.8 L 505.9,87.2 L 508.2,88.8 L 510.5,87.2 L 512.8,88.8 L 515.2,85.6 L 517.5,85.6 L 519.8,87.2 L 522.1,87.2 L 524.4,90.4 L 526.7,90.4 L 529.1,93.6 L 531.4,93.6 L 533.7,92.0 L 536.0,92.0 L 538.3,90.4 L 540.6,90.4 L 542.9,85.6 L 545.3,87.2 L 547.6,90.4 L 549.9,93.6 L 552.2,92.0 L 554.5,93.6 L 556.8,90.4 L 559.2,92.0 L 561.5,92.0 L 563.8,92.0 L 566.1,93.6 L 568.4,95.2 L 570.7,90.4 L 573.1,90.4 L 575.4,85.6 L 577.7,85.6 L 580.0,87.2" stroke="#3E5640" stroke-width="1.5" fill="none"/><line x1="20" y1="180" x2="580" y2="180" stroke="#0E0E0E33"/><text x="20" y="195" font-family="sans-serif" font-size="10" fill="#7A7570">Powered by RateRadar · rateradar-web.vercel.app</text></svg>