<svg xmlns="http://www.w3.org/2000/svg" viewBox="0 0 600 200" width="600" height="200" role="img" aria-label="RateRadar live odds for FED 2026-09-16"><rect width="600" height="200" fill="#F5F1E8"/><text x="20" y="30" font-family="sans-serif" font-size="11" letter-spacing="1.5" fill="#7A7570">FEDERAL RESERVE · SEP 16, 2026</text><text x="20" y="80" font-family="Georgia, serif" font-size="32" fill="#0E0E0E">Move +25bp</text><text x="20" y="130" font-family="monospace" font-size="42" fill="#A8312A">51%</text><text x="20" y="155" font-family="sans-serif" font-size="11" fill="#7A7570">market-implied probability</text><path d="M 360.0,140.0 L 363.0,140.0 L 366.0,140.0 L 369.0,140.0 L 372.1,140.0 L 375.1,140.0 L 378.1,140.0 L 381.1,140.0 L 384.1,140.0 L 387.1,140.0 L 390.1,140.0 L 393.2,140.0 L 396.2,140.0 L 399.2,140.0 L 402.2,140.0 L 405.2,140.0 L 408.2,140.0 L 411.2,140.0 L 414.2,140.0 L 417.3,140.0 L 420.3,140.0 L 423.3,140.0 L 426.3,140.0 L 429.3,140.0 L 432.3,140.0 L 435.3,140.0 L 438.4,140.0 L 441.4,140.0 L 444.4,140.0 L 447.4,140.0 L 450.4,140.0 L 453.4,122.9 L 456.4,122.9 L 459.5,122.9 L 462.5,122.9 L 465.5,126.3 L 468.5,129.7 L 471.5,116.0 L 474.5,112.6 L 477.5,112.6 L 480.5,109.1 L 483.6,112.6 L 486.6,112.6 L 489.6,116.0 L 492.6,116.0 L 495.6,119.4 L 498.6,119.4 L 501.6,119.4 L 504.7,119.4 L 507.7,122.9 L 510.7,119.4 L 513.7,119.4 L 516.7,122.9 L 519.7,102.3 L 522.7,98.9 L 525.8,98.9 L 528.8,98.9 L 531.8,95.4 L 534.8,95.4 L 537.8,92.0 L 540.8,88.6 L 543.8,95.4 L 546.8,95.4 L 549.9,95.4 L 552.9,102.3 L 555.9,102.3 L 558.9,98.9 L 561.9,102.3 L 564.9,102.3 L 567.9,102.3 L 571.0,102.3 L 574.0,98.9 L 577.0,95.4 L 580.0,98.9" stroke="#A8312A" stroke-width="1.5" fill="none"/><line x1="20" y1="180" x2="580" y2="180" stroke="#0E0E0E33"/><text x="20" y="195" font-family="sans-serif" font-size="10" fill="#7A7570">Powered by RateRadar · rateradar-web.vercel.app</text></svg>