<svg xmlns="http://www.w3.org/2000/svg" viewBox="0 0 600 200" width="600" height="200" role="img" aria-label="RateRadar live odds for FED 2026-07-29"><rect width="600" height="200" fill="#F5F1E8"/><text x="20" y="30" font-family="sans-serif" font-size="11" letter-spacing="1.5" fill="#7A7570">FEDERAL RESERVE · JUL 29, 2026</text><text x="20" y="80" font-family="Georgia, serif" font-size="32" fill="#0E0E0E">Hold rates</text><text x="20" y="130" font-family="monospace" font-size="42" fill="#3E5640">88%</text><text x="20" y="155" font-family="sans-serif" font-size="11" fill="#7A7570">market-implied probability</text><path d="M 360.0,140.0 L 366.7,140.0 L 373.3,140.0 L 380.0,140.0 L 386.7,140.0 L 393.3,140.0 L 400.0,140.0 L 406.7,140.0 L 413.3,140.0 L 420.0,140.0 L 426.7,140.0 L 433.3,140.0 L 440.0,140.0 L 446.7,140.0 L 453.3,140.0 L 460.0,140.0 L 466.7,140.0 L 473.3,140.0 L 480.0,140.0 L 486.7,140.0 L 493.3,140.0 L 500.0,140.0 L 506.7,140.0 L 513.3,140.0 L 520.0,140.0 L 526.7,140.0 L 533.3,140.0 L 540.0,140.0 L 546.7,140.0 L 553.3,140.0 L 560.0,140.0 L 566.7,68.2 L 573.3,68.2 L 580.0,69.8" stroke="#3E5640" stroke-width="1.5" fill="none"/><line x1="20" y1="180" x2="580" y2="180" stroke="#0E0E0E33"/><text x="20" y="195" font-family="sans-serif" font-size="10" fill="#7A7570">Powered by RateRadar · rateradar-web.vercel.app</text></svg>