<svg xmlns="http://www.w3.org/2000/svg" viewBox="0 0 600 200" width="600" height="200" role="img" aria-label="RateRadar live odds for FED 2026-10-28"><rect width="600" height="200" fill="#F5F1E8"/><text x="20" y="30" font-family="sans-serif" font-size="11" letter-spacing="1.5" fill="#7A7570">FEDERAL RESERVE · OCT 28, 2026</text><text x="20" y="80" font-family="Georgia, serif" font-size="32" fill="#0E0E0E">Hold rates</text><text x="20" y="130" font-family="monospace" font-size="42" fill="#3E5640">75%</text><text x="20" y="155" font-family="sans-serif" font-size="11" fill="#7A7570">market-implied probability</text><path d="M 360.0,140.0 L 362.5,140.0 L 365.1,140.0 L 367.6,140.0 L 370.1,140.0 L 372.6,140.0 L 375.2,140.0 L 377.7,140.0 L 380.2,140.0 L 382.8,140.0 L 385.3,140.0 L 387.8,140.0 L 390.3,140.0 L 392.9,140.0 L 395.4,140.0 L 397.9,140.0 L 400.5,140.0 L 403.0,140.0 L 405.5,140.0 L 408.0,140.0 L 410.6,140.0 L 413.1,140.0 L 415.6,140.0 L 418.2,140.0 L 420.7,140.0 L 423.2,140.0 L 425.7,140.0 L 428.3,140.0 L 430.8,140.0 L 433.3,140.0 L 435.9,140.0 L 438.4,70.1 L 440.9,70.1 L 443.4,71.7 L 446.0,71.7 L 448.5,70.3 L 451.0,73.7 L 453.6,77.6 L 456.1,72.6 L 458.6,75.8 L 461.1,73.9 L 463.7,72.6 L 466.2,74.2 L 468.7,74.4 L 471.3,77.6 L 473.8,66.6 L 476.3,65.0 L 478.9,68.2 L 481.4,68.2 L 483.9,70.1 L 486.4,66.6 L 489.0,66.6 L 491.5,71.7 L 494.0,79.9 L 496.6,79.7 L 499.1,79.7 L 501.6,78.1 L 504.1,82.6 L 506.7,82.6 L 509.2,82.4 L 511.7,79.0 L 514.3,77.8 L 516.8,81.0 L 519.3,74.6 L 521.8,79.9 L 524.4,78.3 L 526.9,76.5 L 529.4,71.9 L 532.0,75.1 L 534.5,75.1 L 537.0,76.7 L 539.5,78.1 L 542.1,77.8 L 544.6,78.1 L 547.1,79.7 L 549.7,76.9 L 552.2,76.9 L 554.7,76.9 L 557.2,76.9 L 559.8,80.6 L 562.3,75.3 L 564.8,79.9 L 567.4,78.3 L 569.9,79.7 L 572.4,82.9 L 574.9,76.5 L 577.5,76.5 L 580.0,79.7" stroke="#3E5640" stroke-width="1.5" fill="none"/><line x1="20" y1="180" x2="580" y2="180" stroke="#0E0E0E33"/><text x="20" y="195" font-family="sans-serif" font-size="10" fill="#7A7570">Powered by RateRadar · rateradar-web.vercel.app</text></svg>