<svg xmlns="http://www.w3.org/2000/svg" viewBox="0 0 600 200" width="600" height="200" role="img" aria-label="RateRadar live odds for FED 2026-09-16"><rect width="600" height="200" fill="#F5F1E8"/><text x="20" y="30" font-family="sans-serif" font-size="11" letter-spacing="1.5" fill="#7A7570">FEDERAL RESERVE · SEP 16, 2026</text><text x="20" y="80" font-family="Georgia, serif" font-size="32" fill="#0E0E0E">Hold rates</text><text x="20" y="130" font-family="monospace" font-size="42" fill="#3E5640">57%</text><text x="20" y="155" font-family="sans-serif" font-size="11" fill="#7A7570">market-implied probability</text><path d="M 360.0,140.0 L 362.9,140.0 L 365.8,140.0 L 368.7,140.0 L 371.6,140.0 L 374.5,140.0 L 377.4,140.0 L 380.3,140.0 L 383.2,140.0 L 386.1,140.0 L 388.9,140.0 L 391.8,140.0 L 394.7,140.0 L 397.6,140.0 L 400.5,140.0 L 403.4,140.0 L 406.3,140.0 L 409.2,140.0 L 412.1,140.0 L 415.0,140.0 L 417.9,140.0 L 420.8,140.0 L 423.7,140.0 L 426.6,140.0 L 429.5,140.0 L 432.4,140.0 L 435.3,140.0 L 438.2,140.0 L 441.1,140.0 L 443.9,140.0 L 446.8,140.0 L 449.7,77.1 L 452.6,77.1 L 455.5,77.1 L 458.4,77.1 L 461.3,73.7 L 464.2,70.3 L 467.1,84.0 L 470.0,87.4 L 472.9,87.4 L 475.8,90.9 L 478.7,87.4 L 481.6,87.4 L 484.5,84.0 L 487.4,84.0 L 490.3,80.6 L 493.2,80.6 L 496.1,80.6 L 498.9,80.6 L 501.8,77.1 L 504.7,80.6 L 507.6,80.6 L 510.5,77.1 L 513.4,97.7 L 516.3,101.1 L 519.2,101.1 L 522.1,101.1 L 525.0,104.6 L 527.9,104.6 L 530.8,108.0 L 533.7,111.4 L 536.6,104.6 L 539.5,104.6 L 542.4,104.6 L 545.3,97.7 L 548.2,97.7 L 551.1,101.1 L 553.9,97.7 L 556.8,97.7 L 559.7,97.7 L 562.6,97.7 L 565.5,101.1 L 568.4,104.6 L 571.3,101.1 L 574.2,101.1 L 577.1,94.3 L 580.0,94.3" stroke="#3E5640" stroke-width="1.5" fill="none"/><line x1="20" y1="180" x2="580" y2="180" stroke="#0E0E0E33"/><text x="20" y="195" font-family="sans-serif" font-size="10" fill="#7A7570">Powered by RateRadar · rateradar-web.vercel.app</text></svg>