<svg xmlns="http://www.w3.org/2000/svg" viewBox="0 0 600 200" width="600" height="200" role="img" aria-label="RateRadar live odds for FED 2026-09-16"><rect width="600" height="200" fill="#F5F1E8"/><text x="20" y="30" font-family="sans-serif" font-size="11" letter-spacing="1.5" fill="#7A7570">FEDERAL RESERVE · SEP 16, 2026</text><text x="20" y="80" font-family="Georgia, serif" font-size="32" fill="#0E0E0E">Move +25bp</text><text x="20" y="130" font-family="monospace" font-size="42" fill="#A8312A">51%</text><text x="20" y="155" font-family="sans-serif" font-size="11" fill="#7A7570">market-implied probability</text><path d="M 360.0,140.0 L 364.1,140.0 L 368.1,140.0 L 372.2,140.0 L 376.3,140.0 L 380.4,140.0 L 384.4,140.0 L 388.5,140.0 L 392.6,140.0 L 396.7,140.0 L 400.7,140.0 L 404.8,140.0 L 408.9,140.0 L 413.0,140.0 L 417.0,140.0 L 421.1,140.0 L 425.2,140.0 L 429.3,140.0 L 433.3,140.0 L 437.4,140.0 L 441.5,140.0 L 445.6,140.0 L 449.6,140.0 L 453.7,140.0 L 457.8,140.0 L 461.9,140.0 L 465.9,140.0 L 470.0,140.0 L 474.1,140.0 L 478.1,140.0 L 482.2,140.0 L 486.3,122.9 L 490.4,122.9 L 494.4,122.9 L 498.5,122.9 L 502.6,126.3 L 506.7,129.7 L 510.7,116.0 L 514.8,112.6 L 518.9,112.6 L 523.0,109.1 L 527.0,112.6 L 531.1,112.6 L 535.2,116.0 L 539.3,116.0 L 543.3,119.4 L 547.4,119.4 L 551.5,119.4 L 555.6,119.4 L 559.6,122.9 L 563.7,119.4 L 567.8,119.4 L 571.9,122.9 L 575.9,102.3 L 580.0,98.9" stroke="#A8312A" stroke-width="1.5" fill="none"/><line x1="20" y1="180" x2="580" y2="180" stroke="#0E0E0E33"/><text x="20" y="195" font-family="sans-serif" font-size="10" fill="#7A7570">Powered by RateRadar · rateradar-web.vercel.app</text></svg>