<svg xmlns="http://www.w3.org/2000/svg" viewBox="0 0 600 200" width="600" height="200" role="img" aria-label="RateRadar live odds for FED 2026-12-09"><rect width="600" height="200" fill="#F5F1E8"/><text x="20" y="30" font-family="sans-serif" font-size="11" letter-spacing="1.5" fill="#7A7570">FEDERAL RESERVE · DEC 09, 2026</text><text x="20" y="80" font-family="Georgia, serif" font-size="32" fill="#0E0E0E">Hold rates</text><text x="20" y="130" font-family="monospace" font-size="42" fill="#3E5640">62%</text><text x="20" y="155" font-family="sans-serif" font-size="11" fill="#7A7570">market-implied probability</text><path d="M 360.0,140.0 L 364.3,140.0 L 368.6,140.0 L 372.9,140.0 L 377.3,140.0 L 381.6,140.0 L 385.9,140.0 L 390.2,140.0 L 394.5,140.0 L 398.8,140.0 L 403.1,140.0 L 407.5,140.0 L 411.8,140.0 L 416.1,140.0 L 420.4,140.0 L 424.7,140.0 L 429.0,140.0 L 433.3,140.0 L 437.6,140.0 L 442.0,140.0 L 446.3,140.0 L 450.6,140.0 L 454.9,140.0 L 459.2,140.0 L 463.5,140.0 L 467.8,140.0 L 472.2,140.0 L 476.5,140.0 L 480.8,140.0 L 485.1,140.0 L 489.4,140.0 L 493.7,85.6 L 498.0,87.2 L 502.4,87.2 L 506.7,85.6 L 511.0,82.4 L 515.3,82.4 L 519.6,95.2 L 523.9,93.6 L 528.2,95.2 L 532.5,95.2 L 536.9,90.4 L 541.2,88.8 L 545.5,93.6 L 549.8,93.6 L 554.1,85.6 L 558.4,87.2 L 562.7,90.4 L 567.1,88.8 L 571.4,87.2 L 575.7,88.8 L 580.0,90.4" stroke="#3E5640" stroke-width="1.5" fill="none"/><line x1="20" y1="180" x2="580" y2="180" stroke="#0E0E0E33"/><text x="20" y="195" font-family="sans-serif" font-size="10" fill="#7A7570">Powered by RateRadar · rateradar-web.vercel.app</text></svg>