<svg xmlns="http://www.w3.org/2000/svg" viewBox="0 0 600 200" width="600" height="200" role="img" aria-label="RateRadar live odds for FED 2026-10-28"><rect width="600" height="200" fill="#F5F1E8"/><text x="20" y="30" font-family="sans-serif" font-size="11" letter-spacing="1.5" fill="#7A7570">FEDERAL RESERVE · OCT 28, 2026</text><text x="20" y="80" font-family="Georgia, serif" font-size="32" fill="#0E0E0E">Hold rates</text><text x="20" y="130" font-family="monospace" font-size="42" fill="#3E5640">75%</text><text x="20" y="155" font-family="sans-serif" font-size="11" fill="#7A7570">market-implied probability</text><path d="M 360.0,140.0 L 362.3,140.0 L 364.5,140.0 L 366.8,140.0 L 369.1,140.0 L 371.3,140.0 L 373.6,140.0 L 375.9,140.0 L 378.1,140.0 L 380.4,140.0 L 382.7,140.0 L 384.9,140.0 L 387.2,140.0 L 389.5,140.0 L 391.8,140.0 L 394.0,140.0 L 396.3,140.0 L 398.6,140.0 L 400.8,140.0 L 403.1,140.0 L 405.4,140.0 L 407.6,140.0 L 409.9,140.0 L 412.2,140.0 L 414.4,140.0 L 416.7,140.0 L 419.0,140.0 L 421.2,140.0 L 423.5,140.0 L 425.8,140.0 L 428.0,140.0 L 430.3,70.1 L 432.6,70.1 L 434.8,71.7 L 437.1,71.7 L 439.4,70.3 L 441.6,73.7 L 443.9,77.6 L 446.2,72.6 L 448.5,75.8 L 450.7,73.9 L 453.0,72.6 L 455.3,74.2 L 457.5,74.4 L 459.8,77.6 L 462.1,66.6 L 464.3,65.0 L 466.6,68.2 L 468.9,68.2 L 471.1,70.1 L 473.4,66.6 L 475.7,66.6 L 477.9,71.7 L 480.2,79.9 L 482.5,79.7 L 484.7,79.7 L 487.0,78.1 L 489.3,82.6 L 491.5,82.6 L 493.8,82.4 L 496.1,79.0 L 498.4,77.8 L 500.6,81.0 L 502.9,74.6 L 505.2,79.9 L 507.4,78.3 L 509.7,76.5 L 512.0,71.9 L 514.2,75.1 L 516.5,75.1 L 518.8,76.7 L 521.0,78.1 L 523.3,77.8 L 525.6,78.1 L 527.8,79.7 L 530.1,76.9 L 532.4,76.9 L 534.6,76.9 L 536.9,76.9 L 539.2,80.6 L 541.4,75.3 L 543.7,79.9 L 546.0,78.3 L 548.2,79.7 L 550.5,82.9 L 552.8,76.5 L 555.1,76.5 L 557.3,79.7 L 559.6,79.7 L 561.9,84.2 L 564.1,82.6 L 566.4,74.9 L 568.7,74.9 L 570.9,77.1 L 573.2,75.1 L 575.5,74.9 L 577.7,76.9 L 580.0,79.7" stroke="#3E5640" stroke-width="1.5" fill="none"/><line x1="20" y1="180" x2="580" y2="180" stroke="#0E0E0E33"/><text x="20" y="195" font-family="sans-serif" font-size="10" fill="#7A7570">Powered by RateRadar · rateradar-web.vercel.app</text></svg>