<svg xmlns="http://www.w3.org/2000/svg" viewBox="0 0 600 200" width="600" height="200" role="img" aria-label="RateRadar live odds for FED 2026-09-16"><rect width="600" height="200" fill="#F5F1E8"/><text x="20" y="30" font-family="sans-serif" font-size="11" letter-spacing="1.5" fill="#7A7570">FEDERAL RESERVE · SEP 16, 2026</text><text x="20" y="80" font-family="Georgia, serif" font-size="32" fill="#0E0E0E">Move +25bp</text><text x="20" y="130" font-family="monospace" font-size="42" fill="#A8312A">64%</text><text x="20" y="155" font-family="sans-serif" font-size="11" fill="#7A7570">market-implied probability</text><path d="M 360.0,140.0 L 363.7,140.0 L 367.3,140.0 L 371.0,140.0 L 374.7,140.0 L 378.3,140.0 L 382.0,140.0 L 385.7,140.0 L 389.3,140.0 L 393.0,140.0 L 396.7,140.0 L 400.3,140.0 L 404.0,140.0 L 407.7,140.0 L 411.3,140.0 L 415.0,140.0 L 418.7,140.0 L 422.3,140.0 L 426.0,140.0 L 429.7,140.0 L 433.3,140.0 L 437.0,140.0 L 440.7,140.0 L 444.3,140.0 L 448.0,140.0 L 451.7,140.0 L 455.3,140.0 L 459.0,140.0 L 462.7,140.0 L 466.3,140.0 L 470.0,140.0 L 473.7,122.9 L 477.3,122.9 L 481.0,122.9 L 484.7,122.9 L 488.3,126.3 L 492.0,129.7 L 495.7,116.0 L 499.3,112.6 L 503.0,112.6 L 506.7,109.1 L 510.3,112.6 L 514.0,112.6 L 517.7,116.0 L 521.3,116.0 L 525.0,119.4 L 528.7,119.4 L 532.3,119.4 L 536.0,119.4 L 539.7,122.9 L 543.3,119.4 L 547.0,119.4 L 550.7,122.9 L 554.3,102.3 L 558.0,98.9 L 561.7,98.9 L 565.3,98.9 L 569.0,95.4 L 572.7,95.4 L 576.3,92.0 L 580.0,88.6" stroke="#A8312A" stroke-width="1.5" fill="none"/><line x1="20" y1="180" x2="580" y2="180" stroke="#0E0E0E33"/><text x="20" y="195" font-family="sans-serif" font-size="10" fill="#7A7570">Powered by RateRadar · rateradar-web.vercel.app</text></svg>