<svg xmlns="http://www.w3.org/2000/svg" viewBox="0 0 600 200" width="600" height="200" role="img" aria-label="RateRadar live odds for FED 2026-09-16"><rect width="600" height="200" fill="#F5F1E8"/><text x="20" y="30" font-family="sans-serif" font-size="11" letter-spacing="1.5" fill="#7A7570">FEDERAL RESERVE · SEP 16, 2026</text><text x="20" y="80" font-family="Georgia, serif" font-size="32" fill="#0E0E0E">Move +25bp</text><text x="20" y="130" font-family="monospace" font-size="42" fill="#A8312A">51%</text><text x="20" y="155" font-family="sans-serif" font-size="11" fill="#7A7570">market-implied probability</text><path d="M 360.0,140.0 L 362.6,140.0 L 365.2,140.0 L 367.9,140.0 L 370.5,140.0 L 373.1,140.0 L 375.7,140.0 L 378.3,140.0 L 381.0,140.0 L 383.6,140.0 L 386.2,140.0 L 388.8,140.0 L 391.4,140.0 L 394.0,140.0 L 396.7,140.0 L 399.3,140.0 L 401.9,140.0 L 404.5,140.0 L 407.1,140.0 L 409.8,140.0 L 412.4,140.0 L 415.0,140.0 L 417.6,140.0 L 420.2,140.0 L 422.9,140.0 L 425.5,140.0 L 428.1,140.0 L 430.7,140.0 L 433.3,140.0 L 436.0,140.0 L 438.6,140.0 L 441.2,122.9 L 443.8,122.9 L 446.4,122.9 L 449.0,122.9 L 451.7,126.3 L 454.3,129.7 L 456.9,116.0 L 459.5,112.6 L 462.1,112.6 L 464.8,109.1 L 467.4,112.6 L 470.0,112.6 L 472.6,116.0 L 475.2,116.0 L 477.9,119.4 L 480.5,119.4 L 483.1,119.4 L 485.7,119.4 L 488.3,122.9 L 491.0,119.4 L 493.6,119.4 L 496.2,122.9 L 498.8,102.3 L 501.4,98.9 L 504.0,98.9 L 506.7,98.9 L 509.3,95.4 L 511.9,95.4 L 514.5,92.0 L 517.1,88.6 L 519.8,95.4 L 522.4,95.4 L 525.0,95.4 L 527.6,102.3 L 530.2,102.3 L 532.9,98.9 L 535.5,102.3 L 538.1,102.3 L 540.7,102.3 L 543.3,102.3 L 546.0,98.9 L 548.6,95.4 L 551.2,98.9 L 553.8,98.9 L 556.4,105.7 L 559.0,105.7 L 561.7,105.7 L 564.3,105.7 L 566.9,112.6 L 569.5,105.7 L 572.1,102.3 L 574.8,102.3 L 577.4,98.9 L 580.0,98.9" stroke="#A8312A" stroke-width="1.5" fill="none"/><line x1="20" y1="180" x2="580" y2="180" stroke="#0E0E0E33"/><text x="20" y="195" font-family="sans-serif" font-size="10" fill="#7A7570">Powered by RateRadar · rateradar-web.vercel.app</text></svg>