<svg xmlns="http://www.w3.org/2000/svg" viewBox="0 0 600 200" width="600" height="200" role="img" aria-label="RateRadar live odds for FED 2026-09-16"><rect width="600" height="200" fill="#F5F1E8"/><text x="20" y="30" font-family="sans-serif" font-size="11" letter-spacing="1.5" fill="#7A7570">FEDERAL RESERVE · SEP 16, 2026</text><text x="20" y="80" font-family="Georgia, serif" font-size="32" fill="#0E0E0E">Hold rates</text><text x="20" y="130" font-family="monospace" font-size="42" fill="#3E5640">57%</text><text x="20" y="155" font-family="sans-serif" font-size="11" fill="#7A7570">market-implied probability</text><path d="M 360.0,140.0 L 362.8,140.0 L 365.5,140.0 L 368.2,140.0 L 371.0,140.0 L 373.8,140.0 L 376.5,140.0 L 379.2,140.0 L 382.0,140.0 L 384.8,140.0 L 387.5,140.0 L 390.2,140.0 L 393.0,140.0 L 395.8,140.0 L 398.5,140.0 L 401.2,140.0 L 404.0,140.0 L 406.8,140.0 L 409.5,140.0 L 412.2,140.0 L 415.0,140.0 L 417.8,140.0 L 420.5,140.0 L 423.2,140.0 L 426.0,140.0 L 428.8,140.0 L 431.5,140.0 L 434.2,140.0 L 437.0,140.0 L 439.8,140.0 L 442.5,140.0 L 445.2,77.1 L 448.0,77.1 L 450.8,77.1 L 453.5,77.1 L 456.2,73.7 L 459.0,70.3 L 461.8,84.0 L 464.5,87.4 L 467.2,87.4 L 470.0,90.9 L 472.8,87.4 L 475.5,87.4 L 478.2,84.0 L 481.0,84.0 L 483.8,80.6 L 486.5,80.6 L 489.2,80.6 L 492.0,80.6 L 494.8,77.1 L 497.5,80.6 L 500.2,80.6 L 503.0,77.1 L 505.8,97.7 L 508.5,101.1 L 511.2,101.1 L 514.0,101.1 L 516.8,104.6 L 519.5,104.6 L 522.2,108.0 L 525.0,111.4 L 527.8,104.6 L 530.5,104.6 L 533.2,104.6 L 536.0,97.7 L 538.8,97.7 L 541.5,101.1 L 544.2,97.7 L 547.0,97.7 L 549.8,97.7 L 552.5,97.7 L 555.2,101.1 L 558.0,104.6 L 560.8,101.1 L 563.5,101.1 L 566.2,94.3 L 569.0,94.3 L 571.8,94.3 L 574.5,94.3 L 577.2,87.4 L 580.0,94.3" stroke="#3E5640" stroke-width="1.5" fill="none"/><line x1="20" y1="180" x2="580" y2="180" stroke="#0E0E0E33"/><text x="20" y="195" font-family="sans-serif" font-size="10" fill="#7A7570">Powered by RateRadar · rateradar-web.vercel.app</text></svg>