<svg xmlns="http://www.w3.org/2000/svg" viewBox="0 0 600 200" width="600" height="200" role="img" aria-label="RateRadar live odds for FED 2026-09-16"><rect width="600" height="200" fill="#F5F1E8"/><text x="20" y="30" font-family="sans-serif" font-size="11" letter-spacing="1.5" fill="#7A7570">FEDERAL RESERVE · SEP 16, 2026</text><text x="20" y="80" font-family="Georgia, serif" font-size="32" fill="#0E0E0E">Move +25bp</text><text x="20" y="130" font-family="monospace" font-size="42" fill="#A8312A">60%</text><text x="20" y="155" font-family="sans-serif" font-size="11" fill="#7A7570">market-implied probability</text><path d="M 360.0,140.0 L 362.2,140.0 L 364.4,140.0 L 366.5,140.0 L 368.7,140.0 L 370.9,140.0 L 373.1,140.0 L 375.2,140.0 L 377.4,140.0 L 379.6,140.0 L 381.8,140.0 L 384.0,140.0 L 386.1,140.0 L 388.3,140.0 L 390.5,140.0 L 392.7,140.0 L 394.9,140.0 L 397.0,140.0 L 399.2,140.0 L 401.4,140.0 L 403.6,140.0 L 405.7,140.0 L 407.9,140.0 L 410.1,140.0 L 412.3,140.0 L 414.5,140.0 L 416.6,140.0 L 418.8,140.0 L 421.0,140.0 L 423.2,140.0 L 425.3,140.0 L 427.5,122.9 L 429.7,122.9 L 431.9,122.9 L 434.1,122.9 L 436.2,126.3 L 438.4,129.7 L 440.6,116.0 L 442.8,112.6 L 445.0,112.6 L 447.1,109.1 L 449.3,112.6 L 451.5,112.6 L 453.7,116.0 L 455.8,116.0 L 458.0,119.4 L 460.2,119.4 L 462.4,119.4 L 464.6,119.4 L 466.7,122.9 L 468.9,119.4 L 471.1,119.4 L 473.3,122.9 L 475.4,102.3 L 477.6,98.9 L 479.8,98.9 L 482.0,98.9 L 484.2,95.4 L 486.3,95.4 L 488.5,92.0 L 490.7,88.6 L 492.9,95.4 L 495.0,95.4 L 497.2,95.4 L 499.4,102.3 L 501.6,102.3 L 503.8,98.9 L 505.9,102.3 L 508.1,102.3 L 510.3,102.3 L 512.5,102.3 L 514.7,98.9 L 516.8,95.4 L 519.0,98.9 L 521.2,98.9 L 523.4,105.7 L 525.5,105.7 L 527.7,105.7 L 529.9,105.7 L 532.1,112.6 L 534.3,105.7 L 536.4,102.3 L 538.6,102.3 L 540.8,98.9 L 543.0,98.9 L 545.1,98.9 L 547.3,98.9 L 549.5,98.9 L 551.7,98.9 L 553.9,95.4 L 556.0,95.4 L 558.2,98.9 L 560.4,98.9 L 562.6,109.1 L 564.8,102.3 L 566.9,98.9 L 569.1,105.7 L 571.3,98.9 L 573.5,98.9 L 575.6,98.9 L 577.8,98.9 L 580.0,92.0" stroke="#A8312A" stroke-width="1.5" fill="none"/><line x1="20" y1="180" x2="580" y2="180" stroke="#0E0E0E33"/><text x="20" y="195" font-family="sans-serif" font-size="10" fill="#7A7570">Powered by RateRadar · rateradar-web.vercel.app</text></svg>