<svg xmlns="http://www.w3.org/2000/svg" viewBox="0 0 600 200" width="600" height="200" role="img" aria-label="RateRadar live odds for FED 2026-10-28"><rect width="600" height="200" fill="#F5F1E8"/><text x="20" y="30" font-family="sans-serif" font-size="11" letter-spacing="1.5" fill="#7A7570">FEDERAL RESERVE · OCT 28, 2026</text><text x="20" y="80" font-family="Georgia, serif" font-size="32" fill="#0E0E0E">Hold rates</text><text x="20" y="130" font-family="monospace" font-size="42" fill="#3E5640">81%</text><text x="20" y="155" font-family="sans-serif" font-size="11" fill="#7A7570">market-implied probability</text><path d="M 360.0,140.0 L 362.8,140.0 L 365.5,140.0 L 368.2,140.0 L 371.0,140.0 L 373.8,140.0 L 376.5,140.0 L 379.2,140.0 L 382.0,140.0 L 384.8,140.0 L 387.5,140.0 L 390.2,140.0 L 393.0,140.0 L 395.8,140.0 L 398.5,140.0 L 401.2,140.0 L 404.0,140.0 L 406.8,140.0 L 409.5,140.0 L 412.2,140.0 L 415.0,140.0 L 417.8,140.0 L 420.5,140.0 L 423.2,140.0 L 426.0,140.0 L 428.8,140.0 L 431.5,140.0 L 434.2,140.0 L 437.0,140.0 L 439.8,140.0 L 442.5,140.0 L 445.2,70.1 L 448.0,70.1 L 450.8,71.7 L 453.5,71.7 L 456.2,70.3 L 459.0,73.7 L 461.8,77.6 L 464.5,72.6 L 467.2,75.8 L 470.0,73.9 L 472.8,72.6 L 475.5,74.2 L 478.2,74.4 L 481.0,77.6 L 483.8,66.6 L 486.5,65.0 L 489.2,68.2 L 492.0,68.2 L 494.8,70.1 L 497.5,66.6 L 500.2,66.6 L 503.0,71.7 L 505.8,79.9 L 508.5,79.7 L 511.2,79.7 L 514.0,78.1 L 516.8,82.6 L 519.5,82.6 L 522.2,82.4 L 525.0,79.0 L 527.8,77.8 L 530.5,81.0 L 533.2,74.6 L 536.0,79.9 L 538.8,78.3 L 541.5,76.5 L 544.2,71.9 L 547.0,75.1 L 549.8,75.1 L 552.5,76.7 L 555.2,78.1 L 558.0,77.8 L 560.8,78.1 L 563.5,79.7 L 566.2,76.9 L 569.0,76.9 L 571.8,76.9 L 574.5,76.9 L 577.2,80.6 L 580.0,75.3" stroke="#3E5640" stroke-width="1.5" fill="none"/><line x1="20" y1="180" x2="580" y2="180" stroke="#0E0E0E33"/><text x="20" y="195" font-family="sans-serif" font-size="10" fill="#7A7570">Powered by RateRadar · rateradar-web.vercel.app</text></svg>