<svg xmlns="http://www.w3.org/2000/svg" viewBox="0 0 600 200" width="600" height="200" role="img" aria-label="RateRadar live odds for FED 2026-10-28"><rect width="600" height="200" fill="#F5F1E8"/><text x="20" y="30" font-family="sans-serif" font-size="11" letter-spacing="1.5" fill="#7A7570">FEDERAL RESERVE · OCT 28, 2026</text><text x="20" y="80" font-family="Georgia, serif" font-size="32" fill="#0E0E0E">Hold rates</text><text x="20" y="130" font-family="monospace" font-size="42" fill="#3E5640">85%</text><text x="20" y="155" font-family="sans-serif" font-size="11" fill="#7A7570">market-implied probability</text><path d="M 360.0,140.0 L 363.3,140.0 L 366.6,140.0 L 369.9,140.0 L 373.1,140.0 L 376.4,140.0 L 379.7,140.0 L 383.0,140.0 L 386.3,140.0 L 389.6,140.0 L 392.8,140.0 L 396.1,140.0 L 399.4,140.0 L 402.7,140.0 L 406.0,140.0 L 409.3,140.0 L 412.5,140.0 L 415.8,140.0 L 419.1,140.0 L 422.4,140.0 L 425.7,140.0 L 429.0,140.0 L 432.2,140.0 L 435.5,140.0 L 438.8,140.0 L 442.1,140.0 L 445.4,140.0 L 448.7,140.0 L 451.9,140.0 L 455.2,140.0 L 458.5,140.0 L 461.8,70.1 L 465.1,70.1 L 468.4,71.7 L 471.6,71.7 L 474.9,70.3 L 478.2,73.7 L 481.5,77.6 L 484.8,72.6 L 488.1,75.8 L 491.3,73.9 L 494.6,72.6 L 497.9,74.2 L 501.2,74.4 L 504.5,77.6 L 507.8,66.6 L 511.0,65.0 L 514.3,68.2 L 517.6,68.2 L 520.9,70.1 L 524.2,66.6 L 527.5,66.6 L 530.7,71.7 L 534.0,79.9 L 537.3,79.7 L 540.6,79.7 L 543.9,78.1 L 547.2,82.6 L 550.4,82.6 L 553.7,82.4 L 557.0,79.0 L 560.3,77.8 L 563.6,81.0 L 566.9,74.6 L 570.1,79.9 L 573.4,78.3 L 576.7,76.5 L 580.0,71.9" stroke="#3E5640" stroke-width="1.5" fill="none"/><line x1="20" y1="180" x2="580" y2="180" stroke="#0E0E0E33"/><text x="20" y="195" font-family="sans-serif" font-size="10" fill="#7A7570">Powered by RateRadar · rateradar-web.vercel.app</text></svg>