<svg xmlns="http://www.w3.org/2000/svg" viewBox="0 0 600 200" width="600" height="200" role="img" aria-label="RateRadar live odds for FED 2026-10-28"><rect width="600" height="200" fill="#F5F1E8"/><text x="20" y="30" font-family="sans-serif" font-size="11" letter-spacing="1.5" fill="#7A7570">FEDERAL RESERVE · OCT 28, 2026</text><text x="20" y="80" font-family="Georgia, serif" font-size="32" fill="#0E0E0E">Move -50bp</text><text x="20" y="130" font-family="monospace" font-size="42" fill="#C8841C">100%</text><text x="20" y="155" font-family="sans-serif" font-size="11" fill="#7A7570">market-implied probability</text><path d="M 360.0,60.0 L 368.8,60.0 L 377.6,60.0 L 386.4,60.0 L 395.2,60.0 L 404.0,60.0 L 412.8,60.0 L 421.6,60.0 L 430.4,60.0 L 439.2,60.0 L 448.0,60.0 L 456.8,60.0 L 465.6,60.0 L 474.4,60.0 L 483.2,60.0 L 492.0,60.0 L 500.8,60.0 L 509.6,60.0 L 518.4,60.0 L 527.2,60.0 L 536.0,60.0 L 544.8,60.0 L 553.6,60.0 L 562.4,60.0 L 571.2,60.0 L 580.0,60.0" stroke="#C8841C" stroke-width="1.5" fill="none"/><line x1="20" y1="180" x2="580" y2="180" stroke="#0E0E0E33"/><text x="20" y="195" font-family="sans-serif" font-size="10" fill="#7A7570">Powered by RateRadar · rateradar-web.vercel.app</text></svg>