<svg xmlns="http://www.w3.org/2000/svg" viewBox="0 0 600 200" width="600" height="200" role="img" aria-label="RateRadar live odds for FED 2026-07-29"><rect width="600" height="200" fill="#F5F1E8"/><text x="20" y="30" font-family="sans-serif" font-size="11" letter-spacing="1.5" fill="#7A7570">FEDERAL RESERVE · JUL 29, 2026</text><text x="20" y="80" font-family="Georgia, serif" font-size="32" fill="#0E0E0E">Hold rates</text><text x="20" y="130" font-family="monospace" font-size="42" fill="#3E5640">66%</text><text x="20" y="155" font-family="sans-serif" font-size="11" fill="#7A7570">market-implied probability</text><path d="M 360.0,140.0 L 362.5,140.0 L 365.0,140.0 L 367.5,140.0 L 370.0,140.0 L 372.5,140.0 L 375.0,140.0 L 377.5,140.0 L 380.0,140.0 L 382.5,140.0 L 385.0,140.0 L 387.5,140.0 L 390.0,140.0 L 392.5,140.0 L 395.0,140.0 L 397.5,140.0 L 400.0,140.0 L 402.5,140.0 L 405.0,140.0 L 407.5,140.0 L 410.0,140.0 L 412.5,140.0 L 415.0,140.0 L 417.5,140.0 L 420.0,140.0 L 422.5,140.0 L 425.0,140.0 L 427.5,140.0 L 430.0,140.0 L 432.5,140.0 L 435.0,140.0 L 437.5,68.2 L 440.0,68.2 L 442.5,69.8 L 445.0,68.2 L 447.5,70.1 L 450.0,68.5 L 452.5,73.3 L 455.0,73.3 L 457.5,73.0 L 460.0,73.0 L 462.5,71.4 L 465.0,71.4 L 467.5,71.4 L 470.0,73.0 L 472.5,66.6 L 475.0,70.1 L 477.5,70.1 L 480.0,68.2 L 482.5,68.0 L 485.0,69.8 L 487.5,71.4 L 490.0,69.8 L 492.5,93.6 L 495.0,87.0 L 497.5,92.0 L 500.0,93.4 L 502.5,93.4 L 505.0,93.4 L 507.5,90.2 L 510.0,90.2 L 512.5,90.2 L 515.0,90.4 L 517.5,87.0 L 520.0,88.6 L 522.5,87.2 L 525.0,85.6 L 527.5,84.0 L 530.0,84.0 L 532.5,85.6 L 535.0,85.6 L 537.5,87.2 L 540.0,87.2 L 542.5,84.0 L 545.0,84.0 L 547.5,76.0 L 550.0,76.0 L 552.5,79.2 L 555.0,79.2 L 557.5,82.4 L 560.0,79.2 L 562.5,82.4 L 565.0,84.0 L 567.5,85.6 L 570.0,84.0 L 572.5,79.2 L 575.0,79.2 L 577.5,85.6 L 580.0,87.2" stroke="#3E5640" stroke-width="1.5" fill="none"/><line x1="20" y1="180" x2="580" y2="180" stroke="#0E0E0E33"/><text x="20" y="195" font-family="sans-serif" font-size="10" fill="#7A7570">Powered by RateRadar · rateradar-web.vercel.app</text></svg>