<svg xmlns="http://www.w3.org/2000/svg" viewBox="0 0 600 200" width="600" height="200" role="img" aria-label="RateRadar live odds for FED 2026-10-28"><rect width="600" height="200" fill="#F5F1E8"/><text x="20" y="30" font-family="sans-serif" font-size="11" letter-spacing="1.5" fill="#7A7570">FEDERAL RESERVE · OCT 28, 2026</text><text x="20" y="80" font-family="Georgia, serif" font-size="32" fill="#0E0E0E">Hold rates</text><text x="20" y="130" font-family="monospace" font-size="42" fill="#3E5640">75%</text><text x="20" y="155" font-family="sans-serif" font-size="11" fill="#7A7570">market-implied probability</text><path d="M 360.0,140.0 L 363.4,140.0 L 366.9,140.0 L 370.3,140.0 L 373.8,140.0 L 377.2,140.0 L 380.6,140.0 L 384.1,140.0 L 387.5,140.0 L 390.9,140.0 L 394.4,140.0 L 397.8,140.0 L 401.2,140.0 L 404.7,140.0 L 408.1,140.0 L 411.6,140.0 L 415.0,140.0 L 418.4,140.0 L 421.9,140.0 L 425.3,140.0 L 428.8,140.0 L 432.2,140.0 L 435.6,140.0 L 439.1,140.0 L 442.5,140.0 L 445.9,140.0 L 449.4,140.0 L 452.8,140.0 L 456.2,140.0 L 459.7,140.0 L 463.1,140.0 L 466.6,70.1 L 470.0,70.1 L 473.4,71.7 L 476.9,71.7 L 480.3,70.3 L 483.8,73.7 L 487.2,77.6 L 490.6,72.6 L 494.1,75.8 L 497.5,73.9 L 500.9,72.6 L 504.4,74.2 L 507.8,74.4 L 511.2,77.6 L 514.7,66.6 L 518.1,65.0 L 521.6,68.2 L 525.0,68.2 L 528.4,70.1 L 531.9,66.6 L 535.3,66.6 L 538.8,71.7 L 542.2,79.9 L 545.6,79.7 L 549.1,79.7 L 552.5,78.1 L 555.9,82.6 L 559.4,82.6 L 562.8,82.4 L 566.2,79.0 L 569.7,77.8 L 573.1,81.0 L 576.6,74.6 L 580.0,79.9" stroke="#3E5640" stroke-width="1.5" fill="none"/><line x1="20" y1="180" x2="580" y2="180" stroke="#0E0E0E33"/><text x="20" y="195" font-family="sans-serif" font-size="10" fill="#7A7570">Powered by RateRadar · rateradar-web.vercel.app</text></svg>