<svg xmlns="http://www.w3.org/2000/svg" viewBox="0 0 600 200" width="600" height="200" role="img" aria-label="RateRadar live odds for FED 2026-09-16"><rect width="600" height="200" fill="#F5F1E8"/><text x="20" y="30" font-family="sans-serif" font-size="11" letter-spacing="1.5" fill="#7A7570">FEDERAL RESERVE · SEP 16, 2026</text><text x="20" y="80" font-family="Georgia, serif" font-size="32" fill="#0E0E0E">Move +25bp</text><text x="20" y="130" font-family="monospace" font-size="42" fill="#A8312A">51%</text><text x="20" y="155" font-family="sans-serif" font-size="11" fill="#7A7570">market-implied probability</text><path d="M 360.0,140.0 L 362.3,140.0 L 364.6,140.0 L 366.9,140.0 L 369.3,140.0 L 371.6,140.0 L 373.9,140.0 L 376.2,140.0 L 378.5,140.0 L 380.8,140.0 L 383.2,140.0 L 385.5,140.0 L 387.8,140.0 L 390.1,140.0 L 392.4,140.0 L 394.7,140.0 L 397.1,140.0 L 399.4,140.0 L 401.7,140.0 L 404.0,140.0 L 406.3,140.0 L 408.6,140.0 L 410.9,140.0 L 413.3,140.0 L 415.6,140.0 L 417.9,140.0 L 420.2,140.0 L 422.5,140.0 L 424.8,140.0 L 427.2,140.0 L 429.5,140.0 L 431.8,122.9 L 434.1,122.9 L 436.4,122.9 L 438.7,122.9 L 441.1,126.3 L 443.4,129.7 L 445.7,116.0 L 448.0,112.6 L 450.3,112.6 L 452.6,109.1 L 454.9,112.6 L 457.3,112.6 L 459.6,116.0 L 461.9,116.0 L 464.2,119.4 L 466.5,119.4 L 468.8,119.4 L 471.2,119.4 L 473.5,122.9 L 475.8,119.4 L 478.1,119.4 L 480.4,122.9 L 482.7,102.3 L 485.1,98.9 L 487.4,98.9 L 489.7,98.9 L 492.0,95.4 L 494.3,95.4 L 496.6,92.0 L 498.9,88.6 L 501.3,95.4 L 503.6,95.4 L 505.9,95.4 L 508.2,102.3 L 510.5,102.3 L 512.8,98.9 L 515.2,102.3 L 517.5,102.3 L 519.8,102.3 L 522.1,102.3 L 524.4,98.9 L 526.7,95.4 L 529.1,98.9 L 531.4,98.9 L 533.7,105.7 L 536.0,105.7 L 538.3,105.7 L 540.6,105.7 L 542.9,112.6 L 545.3,105.7 L 547.6,102.3 L 549.9,102.3 L 552.2,98.9 L 554.5,98.9 L 556.8,98.9 L 559.2,98.9 L 561.5,98.9 L 563.8,98.9 L 566.1,95.4 L 568.4,95.4 L 570.7,98.9 L 573.1,98.9 L 575.4,109.1 L 577.7,102.3 L 580.0,98.9" stroke="#A8312A" stroke-width="1.5" fill="none"/><line x1="20" y1="180" x2="580" y2="180" stroke="#0E0E0E33"/><text x="20" y="195" font-family="sans-serif" font-size="10" fill="#7A7570">Powered by RateRadar · rateradar-web.vercel.app</text></svg>