<svg xmlns="http://www.w3.org/2000/svg" viewBox="0 0 600 200" width="600" height="200" role="img" aria-label="RateRadar live odds for FED 2026-07-29"><rect width="600" height="200" fill="#F5F1E8"/><text x="20" y="30" font-family="sans-serif" font-size="11" letter-spacing="1.5" fill="#7A7570">FEDERAL RESERVE · JUL 29, 2026</text><text x="20" y="80" font-family="Georgia, serif" font-size="32" fill="#0E0E0E">Hold rates</text><text x="20" y="130" font-family="monospace" font-size="42" fill="#3E5640">72%</text><text x="20" y="155" font-family="sans-serif" font-size="11" fill="#7A7570">market-implied probability</text><path d="M 360.0,140.0 L 362.7,140.0 L 365.4,140.0 L 368.1,140.0 L 370.9,140.0 L 373.6,140.0 L 376.3,140.0 L 379.0,140.0 L 381.7,140.0 L 384.4,140.0 L 387.2,140.0 L 389.9,140.0 L 392.6,140.0 L 395.3,140.0 L 398.0,140.0 L 400.7,140.0 L 403.5,140.0 L 406.2,140.0 L 408.9,140.0 L 411.6,140.0 L 414.3,140.0 L 417.0,140.0 L 419.8,140.0 L 422.5,140.0 L 425.2,140.0 L 427.9,140.0 L 430.6,140.0 L 433.3,140.0 L 436.0,140.0 L 438.8,140.0 L 441.5,140.0 L 444.2,68.2 L 446.9,68.2 L 449.6,69.8 L 452.3,68.2 L 455.1,70.1 L 457.8,68.5 L 460.5,73.3 L 463.2,73.3 L 465.9,73.0 L 468.6,73.0 L 471.4,71.4 L 474.1,71.4 L 476.8,71.4 L 479.5,73.0 L 482.2,66.6 L 484.9,70.1 L 487.7,70.1 L 490.4,68.2 L 493.1,68.0 L 495.8,69.8 L 498.5,71.4 L 501.2,69.8 L 504.0,93.6 L 506.7,87.0 L 509.4,92.0 L 512.1,93.4 L 514.8,93.4 L 517.5,93.4 L 520.2,90.2 L 523.0,90.2 L 525.7,90.2 L 528.4,90.4 L 531.1,87.0 L 533.8,88.6 L 536.5,87.2 L 539.3,85.6 L 542.0,84.0 L 544.7,84.0 L 547.4,85.6 L 550.1,85.6 L 552.8,87.2 L 555.6,87.2 L 558.3,84.0 L 561.0,84.0 L 563.7,76.0 L 566.4,76.0 L 569.1,79.2 L 571.9,79.2 L 574.6,82.4 L 577.3,79.2 L 580.0,82.4" stroke="#3E5640" stroke-width="1.5" fill="none"/><line x1="20" y1="180" x2="580" y2="180" stroke="#0E0E0E33"/><text x="20" y="195" font-family="sans-serif" font-size="10" fill="#7A7570">Powered by RateRadar · rateradar-web.vercel.app</text></svg>