<svg xmlns="http://www.w3.org/2000/svg" viewBox="0 0 600 200" width="600" height="200" role="img" aria-label="RateRadar live odds for FED 2026-10-28"><rect width="600" height="200" fill="#F5F1E8"/><text x="20" y="30" font-family="sans-serif" font-size="11" letter-spacing="1.5" fill="#7A7570">FEDERAL RESERVE · OCT 28, 2026</text><text x="20" y="80" font-family="Georgia, serif" font-size="32" fill="#0E0E0E">Move -50bp</text><text x="20" y="130" font-family="monospace" font-size="42" fill="#C8841C">100%</text><text x="20" y="155" font-family="sans-serif" font-size="11" fill="#7A7570">market-implied probability</text><path d="M 360.0,60.0 L 370.0,60.0 L 380.0,60.0 L 390.0,60.0 L 400.0,60.0 L 410.0,60.0 L 420.0,60.0 L 430.0,60.0 L 440.0,60.0 L 450.0,60.0 L 460.0,60.0 L 470.0,60.0 L 480.0,60.0 L 490.0,60.0 L 500.0,60.0 L 510.0,60.0 L 520.0,60.0 L 530.0,60.0 L 540.0,60.0 L 550.0,60.0 L 560.0,60.0 L 570.0,60.0 L 580.0,60.0" stroke="#C8841C" stroke-width="1.5" fill="none"/><line x1="20" y1="180" x2="580" y2="180" stroke="#0E0E0E33"/><text x="20" y="195" font-family="sans-serif" font-size="10" fill="#7A7570">Powered by RateRadar · rateradar-web.vercel.app</text></svg>