<svg xmlns="http://www.w3.org/2000/svg" viewBox="0 0 600 200" width="600" height="200" role="img" aria-label="RateRadar live odds for FED 2026-07-29"><rect width="600" height="200" fill="#F5F1E8"/><text x="20" y="30" font-family="sans-serif" font-size="11" letter-spacing="1.5" fill="#7A7570">FEDERAL RESERVE · JUL 29, 2026</text><text x="20" y="80" font-family="Georgia, serif" font-size="32" fill="#0E0E0E">Hold rates</text><text x="20" y="130" font-family="monospace" font-size="42" fill="#3E5640">86%</text><text x="20" y="155" font-family="sans-serif" font-size="11" fill="#7A7570">market-implied probability</text><path d="M 360.0,140.0 L 362.3,140.0 L 364.5,140.0 L 366.8,140.0 L 369.1,140.0 L 371.3,140.0 L 373.6,140.0 L 375.9,140.0 L 378.1,140.0 L 380.4,140.0 L 382.7,140.0 L 384.9,140.0 L 387.2,140.0 L 389.5,140.0 L 391.8,140.0 L 394.0,140.0 L 396.3,140.0 L 398.6,140.0 L 400.8,140.0 L 403.1,140.0 L 405.4,140.0 L 407.6,140.0 L 409.9,140.0 L 412.2,140.0 L 414.4,140.0 L 416.7,140.0 L 419.0,140.0 L 421.2,140.0 L 423.5,140.0 L 425.8,140.0 L 428.0,140.0 L 430.3,68.2 L 432.6,68.2 L 434.8,69.8 L 437.1,68.2 L 439.4,70.1 L 441.6,68.5 L 443.9,73.3 L 446.2,73.3 L 448.5,73.0 L 450.7,73.0 L 453.0,71.4 L 455.3,71.4 L 457.5,71.4 L 459.8,73.0 L 462.1,66.6 L 464.3,70.1 L 466.6,70.1 L 468.9,68.2 L 471.1,68.0 L 473.4,69.8 L 475.7,71.4 L 477.9,69.8 L 480.2,93.6 L 482.5,87.0 L 484.7,92.0 L 487.0,93.4 L 489.3,93.4 L 491.5,93.4 L 493.8,90.2 L 496.1,90.2 L 498.4,90.2 L 500.6,90.4 L 502.9,87.0 L 505.2,88.6 L 507.4,87.2 L 509.7,85.6 L 512.0,84.0 L 514.2,84.0 L 516.5,85.6 L 518.8,85.6 L 521.0,87.2 L 523.3,87.2 L 525.6,84.0 L 527.8,84.0 L 530.1,76.0 L 532.4,76.0 L 534.6,79.2 L 536.9,79.2 L 539.2,82.4 L 541.4,79.2 L 543.7,82.4 L 546.0,84.0 L 548.2,85.6 L 550.5,84.0 L 552.8,79.2 L 555.1,79.2 L 557.3,85.6 L 559.6,87.2 L 561.9,93.6 L 564.1,95.2 L 566.4,72.8 L 568.7,72.8 L 570.9,69.6 L 573.2,68.0 L 575.5,68.0 L 577.7,69.6 L 580.0,71.2" stroke="#3E5640" stroke-width="1.5" fill="none"/><line x1="20" y1="180" x2="580" y2="180" stroke="#0E0E0E33"/><text x="20" y="195" font-family="sans-serif" font-size="10" fill="#7A7570">Powered by RateRadar · rateradar-web.vercel.app</text></svg>