<svg xmlns="http://www.w3.org/2000/svg" viewBox="0 0 600 200" width="600" height="200" role="img" aria-label="RateRadar live odds for FED 2026-09-16"><rect width="600" height="200" fill="#F5F1E8"/><text x="20" y="30" font-family="sans-serif" font-size="11" letter-spacing="1.5" fill="#7A7570">FEDERAL RESERVE · SEP 16, 2026</text><text x="20" y="80" font-family="Georgia, serif" font-size="32" fill="#0E0E0E">Move +25bp</text><text x="20" y="130" font-family="monospace" font-size="42" fill="#A8312A">51%</text><text x="20" y="155" font-family="sans-serif" font-size="11" fill="#7A7570">market-implied probability</text><path d="M 360.0,140.0 L 362.5,140.0 L 365.1,140.0 L 367.6,140.0 L 370.1,140.0 L 372.6,140.0 L 375.2,140.0 L 377.7,140.0 L 380.2,140.0 L 382.8,140.0 L 385.3,140.0 L 387.8,140.0 L 390.3,140.0 L 392.9,140.0 L 395.4,140.0 L 397.9,140.0 L 400.5,140.0 L 403.0,140.0 L 405.5,140.0 L 408.0,140.0 L 410.6,140.0 L 413.1,140.0 L 415.6,140.0 L 418.2,140.0 L 420.7,140.0 L 423.2,140.0 L 425.7,140.0 L 428.3,140.0 L 430.8,140.0 L 433.3,140.0 L 435.9,140.0 L 438.4,122.9 L 440.9,122.9 L 443.4,122.9 L 446.0,122.9 L 448.5,126.3 L 451.0,129.7 L 453.6,116.0 L 456.1,112.6 L 458.6,112.6 L 461.1,109.1 L 463.7,112.6 L 466.2,112.6 L 468.7,116.0 L 471.3,116.0 L 473.8,119.4 L 476.3,119.4 L 478.9,119.4 L 481.4,119.4 L 483.9,122.9 L 486.4,119.4 L 489.0,119.4 L 491.5,122.9 L 494.0,102.3 L 496.6,98.9 L 499.1,98.9 L 501.6,98.9 L 504.1,95.4 L 506.7,95.4 L 509.2,92.0 L 511.7,88.6 L 514.3,95.4 L 516.8,95.4 L 519.3,95.4 L 521.8,102.3 L 524.4,102.3 L 526.9,98.9 L 529.4,102.3 L 532.0,102.3 L 534.5,102.3 L 537.0,102.3 L 539.5,98.9 L 542.1,95.4 L 544.6,98.9 L 547.1,98.9 L 549.7,105.7 L 552.2,105.7 L 554.7,105.7 L 557.2,105.7 L 559.8,112.6 L 562.3,105.7 L 564.8,102.3 L 567.4,102.3 L 569.9,98.9 L 572.4,98.9 L 574.9,98.9 L 577.5,98.9 L 580.0,98.9" stroke="#A8312A" stroke-width="1.5" fill="none"/><line x1="20" y1="180" x2="580" y2="180" stroke="#0E0E0E33"/><text x="20" y="195" font-family="sans-serif" font-size="10" fill="#7A7570">Powered by RateRadar · rateradar-web.vercel.app</text></svg>