<svg xmlns="http://www.w3.org/2000/svg" viewBox="0 0 600 200" width="600" height="200" role="img" aria-label="RateRadar live odds for FED 2026-07-29"><rect width="600" height="200" fill="#F5F1E8"/><text x="20" y="30" font-family="sans-serif" font-size="11" letter-spacing="1.5" fill="#7A7570">FEDERAL RESERVE · JUL 29, 2026</text><text x="20" y="80" font-family="Georgia, serif" font-size="32" fill="#0E0E0E">Hold rates</text><text x="20" y="130" font-family="monospace" font-size="42" fill="#3E5640">68%</text><text x="20" y="155" font-family="sans-serif" font-size="11" fill="#7A7570">market-implied probability</text><path d="M 360.0,140.0 L 363.1,140.0 L 366.3,140.0 L 369.4,140.0 L 372.6,140.0 L 375.7,140.0 L 378.9,140.0 L 382.0,140.0 L 385.1,140.0 L 388.3,140.0 L 391.4,140.0 L 394.6,140.0 L 397.7,140.0 L 400.9,140.0 L 404.0,140.0 L 407.1,140.0 L 410.3,140.0 L 413.4,140.0 L 416.6,140.0 L 419.7,140.0 L 422.9,140.0 L 426.0,140.0 L 429.1,140.0 L 432.3,140.0 L 435.4,140.0 L 438.6,140.0 L 441.7,140.0 L 444.9,140.0 L 448.0,140.0 L 451.1,140.0 L 454.3,140.0 L 457.4,68.2 L 460.6,68.2 L 463.7,69.8 L 466.9,68.2 L 470.0,70.1 L 473.1,68.5 L 476.3,73.3 L 479.4,73.3 L 482.6,73.0 L 485.7,73.0 L 488.9,71.4 L 492.0,71.4 L 495.1,71.4 L 498.3,73.0 L 501.4,66.6 L 504.6,70.1 L 507.7,70.1 L 510.9,68.2 L 514.0,68.0 L 517.1,69.8 L 520.3,71.4 L 523.4,69.8 L 526.6,93.6 L 529.7,87.0 L 532.9,92.0 L 536.0,93.4 L 539.1,93.4 L 542.3,93.4 L 545.4,90.2 L 548.6,90.2 L 551.7,90.2 L 554.9,90.4 L 558.0,87.0 L 561.1,88.6 L 564.3,87.2 L 567.4,85.6 L 570.6,84.0 L 573.7,84.0 L 576.9,85.6 L 580.0,85.6" stroke="#3E5640" stroke-width="1.5" fill="none"/><line x1="20" y1="180" x2="580" y2="180" stroke="#0E0E0E33"/><text x="20" y="195" font-family="sans-serif" font-size="10" fill="#7A7570">Powered by RateRadar · rateradar-web.vercel.app</text></svg>