<svg xmlns="http://www.w3.org/2000/svg" viewBox="0 0 600 200" width="600" height="200" role="img" aria-label="RateRadar live odds for FED 2026-07-29"><rect width="600" height="200" fill="#F5F1E8"/><text x="20" y="30" font-family="sans-serif" font-size="11" letter-spacing="1.5" fill="#7A7570">FEDERAL RESERVE · JUL 29, 2026</text><text x="20" y="80" font-family="Georgia, serif" font-size="32" fill="#0E0E0E">Hold rates</text><text x="20" y="130" font-family="monospace" font-size="42" fill="#3E5640">90%</text><text x="20" y="155" font-family="sans-serif" font-size="11" fill="#7A7570">market-implied probability</text><path d="M 360.0,140.0 L 364.5,140.0 L 369.0,140.0 L 373.5,140.0 L 378.0,140.0 L 382.4,140.0 L 386.9,140.0 L 391.4,140.0 L 395.9,140.0 L 400.4,140.0 L 404.9,140.0 L 409.4,140.0 L 413.9,140.0 L 418.4,140.0 L 422.9,140.0 L 427.3,140.0 L 431.8,140.0 L 436.3,140.0 L 440.8,140.0 L 445.3,140.0 L 449.8,140.0 L 454.3,140.0 L 458.8,140.0 L 463.3,140.0 L 467.8,140.0 L 472.2,140.0 L 476.7,140.0 L 481.2,140.0 L 485.7,140.0 L 490.2,140.0 L 494.7,140.0 L 499.2,68.2 L 503.7,68.2 L 508.2,69.8 L 512.7,68.2 L 517.1,70.1 L 521.6,68.5 L 526.1,73.3 L 530.6,73.3 L 535.1,73.0 L 539.6,73.0 L 544.1,71.4 L 548.6,71.4 L 553.1,71.4 L 557.6,73.0 L 562.0,66.6 L 566.5,70.1 L 571.0,70.1 L 575.5,68.2 L 580.0,68.0" stroke="#3E5640" stroke-width="1.5" fill="none"/><line x1="20" y1="180" x2="580" y2="180" stroke="#0E0E0E33"/><text x="20" y="195" font-family="sans-serif" font-size="10" fill="#7A7570">Powered by RateRadar · rateradar-web.vercel.app</text></svg>