<svg xmlns="http://www.w3.org/2000/svg" viewBox="0 0 600 200" width="600" height="200" role="img" aria-label="RateRadar live odds for FED 2026-10-28"><rect width="600" height="200" fill="#F5F1E8"/><text x="20" y="30" font-family="sans-serif" font-size="11" letter-spacing="1.5" fill="#7A7570">FEDERAL RESERVE · OCT 28, 2026</text><text x="20" y="80" font-family="Georgia, serif" font-size="32" fill="#0E0E0E">Hold rates</text><text x="20" y="130" font-family="monospace" font-size="42" fill="#3E5640">81%</text><text x="20" y="155" font-family="sans-serif" font-size="11" fill="#7A7570">market-implied probability</text><path d="M 360.0,140.0 L 362.3,140.0 L 364.6,140.0 L 366.9,140.0 L 369.3,140.0 L 371.6,140.0 L 373.9,140.0 L 376.2,140.0 L 378.5,140.0 L 380.8,140.0 L 383.2,140.0 L 385.5,140.0 L 387.8,140.0 L 390.1,140.0 L 392.4,140.0 L 394.7,140.0 L 397.1,140.0 L 399.4,140.0 L 401.7,140.0 L 404.0,140.0 L 406.3,140.0 L 408.6,140.0 L 410.9,140.0 L 413.3,140.0 L 415.6,140.0 L 417.9,140.0 L 420.2,140.0 L 422.5,140.0 L 424.8,140.0 L 427.2,140.0 L 429.5,140.0 L 431.8,70.1 L 434.1,70.1 L 436.4,71.7 L 438.7,71.7 L 441.1,70.3 L 443.4,73.7 L 445.7,77.6 L 448.0,72.6 L 450.3,75.8 L 452.6,73.9 L 454.9,72.6 L 457.3,74.2 L 459.6,74.4 L 461.9,77.6 L 464.2,66.6 L 466.5,65.0 L 468.8,68.2 L 471.2,68.2 L 473.5,70.1 L 475.8,66.6 L 478.1,66.6 L 480.4,71.7 L 482.7,79.9 L 485.1,79.7 L 487.4,79.7 L 489.7,78.1 L 492.0,82.6 L 494.3,82.6 L 496.6,82.4 L 498.9,79.0 L 501.3,77.8 L 503.6,81.0 L 505.9,74.6 L 508.2,79.9 L 510.5,78.3 L 512.8,76.5 L 515.2,71.9 L 517.5,75.1 L 519.8,75.1 L 522.1,76.7 L 524.4,78.1 L 526.7,77.8 L 529.1,78.1 L 531.4,79.7 L 533.7,76.9 L 536.0,76.9 L 538.3,76.9 L 540.6,76.9 L 542.9,80.6 L 545.3,75.3 L 547.6,79.9 L 549.9,78.3 L 552.2,79.7 L 554.5,82.9 L 556.8,76.5 L 559.2,76.5 L 561.5,79.7 L 563.8,79.7 L 566.1,84.2 L 568.4,82.6 L 570.7,74.9 L 573.1,74.9 L 575.4,77.1 L 577.7,75.1 L 580.0,74.9" stroke="#3E5640" stroke-width="1.5" fill="none"/><line x1="20" y1="180" x2="580" y2="180" stroke="#0E0E0E33"/><text x="20" y="195" font-family="sans-serif" font-size="10" fill="#7A7570">Powered by RateRadar · rateradar-web.vercel.app</text></svg>