<svg xmlns="http://www.w3.org/2000/svg" viewBox="0 0 600 200" width="600" height="200" role="img" aria-label="RateRadar live odds for FED 2026-06-17"><rect width="600" height="200" fill="#F5F1E8"/><text x="20" y="30" font-family="sans-serif" font-size="11" letter-spacing="1.5" fill="#7A7570">FEDERAL RESERVE · JUN 17, 2026</text><text x="20" y="80" font-family="Georgia, serif" font-size="32" fill="#0E0E0E">Hold rates</text><text x="20" y="130" font-family="monospace" font-size="42" fill="#3E5640">98%</text><text x="20" y="155" font-family="sans-serif" font-size="11" fill="#7A7570">market-implied probability</text><path d="M 360.0,104.3 L 364.4,104.3 L 368.8,104.3 L 373.2,104.3 L 377.6,104.3 L 382.0,104.3 L 386.4,104.3 L 390.8,104.3 L 395.2,104.3 L 399.6,104.3 L 404.0,104.3 L 408.4,104.3 L 412.8,104.3 L 417.2,104.3 L 421.6,104.3 L 426.0,104.3 L 430.4,104.3 L 434.8,104.3 L 439.2,104.3 L 443.6,104.3 L 448.0,104.3 L 452.4,104.3 L 456.8,104.3 L 461.2,104.3 L 465.6,104.3 L 470.0,104.3 L 474.4,104.3 L 478.8,104.3 L 483.2,104.3 L 487.6,104.3 L 492.0,104.3 L 496.4,61.8 L 500.8,61.8 L 505.2,61.8 L 509.6,61.8 L 514.0,63.7 L 518.4,63.7 L 522.8,63.7 L 527.2,63.7 L 531.6,61.8 L 536.0,61.8 L 540.4,61.8 L 544.8,61.8 L 549.2,61.8 L 553.6,61.8 L 558.0,61.8 L 562.4,63.7 L 566.8,63.7 L 571.2,61.8 L 575.6,60.0 L 580.0,61.8" stroke="#3E5640" stroke-width="1.5" fill="none"/><line x1="20" y1="180" x2="580" y2="180" stroke="#0E0E0E33"/><text x="20" y="195" font-family="sans-serif" font-size="10" fill="#7A7570">Powered by RateRadar · rateradar-web.vercel.app</text></svg>