<svg xmlns="http://www.w3.org/2000/svg" viewBox="0 0 600 200" width="600" height="200" role="img" aria-label="RateRadar live odds for FED 2026-06-17"><rect width="600" height="200" fill="#F5F1E8"/><text x="20" y="30" font-family="sans-serif" font-size="11" letter-spacing="1.5" fill="#7A7570">FEDERAL RESERVE · JUN 17, 2026</text><text x="20" y="80" font-family="Georgia, serif" font-size="32" fill="#0E0E0E">Hold rates</text><text x="20" y="130" font-family="monospace" font-size="42" fill="#3E5640">95%</text><text x="20" y="155" font-family="sans-serif" font-size="11" fill="#7A7570">market-implied probability</text><path d="M 360.0,104.3 L 364.8,104.3 L 369.6,104.3 L 374.3,104.3 L 379.1,104.3 L 383.9,104.3 L 388.7,104.3 L 393.5,104.3 L 398.3,104.3 L 403.0,104.3 L 407.8,104.3 L 412.6,104.3 L 417.4,104.3 L 422.2,104.3 L 427.0,104.3 L 431.7,104.3 L 436.5,104.3 L 441.3,104.3 L 446.1,104.3 L 450.9,104.3 L 455.7,104.3 L 460.4,104.3 L 465.2,104.3 L 470.0,104.3 L 474.8,104.3 L 479.6,104.3 L 484.3,104.3 L 489.1,104.3 L 493.9,104.3 L 498.7,104.3 L 503.5,104.3 L 508.3,61.8 L 513.0,61.8 L 517.8,61.8 L 522.6,61.8 L 527.4,63.7 L 532.2,63.7 L 537.0,63.7 L 541.7,63.7 L 546.5,61.8 L 551.3,61.8 L 556.1,61.8 L 560.9,61.8 L 565.7,61.8 L 570.4,61.8 L 575.2,61.8 L 580.0,63.7" stroke="#3E5640" stroke-width="1.5" fill="none"/><line x1="20" y1="180" x2="580" y2="180" stroke="#0E0E0E33"/><text x="20" y="195" font-family="sans-serif" font-size="10" fill="#7A7570">Powered by RateRadar · rateradar-web.vercel.app</text></svg>