<svg xmlns="http://www.w3.org/2000/svg" viewBox="0 0 600 200" width="600" height="200" role="img" aria-label="RateRadar live odds for FED 2026-12-09"><rect width="600" height="200" fill="#F5F1E8"/><text x="20" y="30" font-family="sans-serif" font-size="11" letter-spacing="1.5" fill="#7A7570">FEDERAL RESERVE · DEC 09, 2026</text><text x="20" y="80" font-family="Georgia, serif" font-size="32" fill="#0E0E0E">Hold rates</text><text x="20" y="130" font-family="monospace" font-size="42" fill="#3E5640">68%</text><text x="20" y="155" font-family="sans-serif" font-size="11" fill="#7A7570">market-implied probability</text><path d="M 360.0,140.0 L 362.3,140.0 L 364.7,140.0 L 367.0,140.0 L 369.4,140.0 L 371.7,140.0 L 374.0,140.0 L 376.4,140.0 L 378.7,140.0 L 381.1,140.0 L 383.4,140.0 L 385.7,140.0 L 388.1,140.0 L 390.4,140.0 L 392.8,140.0 L 395.1,140.0 L 397.4,140.0 L 399.8,140.0 L 402.1,140.0 L 404.5,140.0 L 406.8,140.0 L 409.1,140.0 L 411.5,140.0 L 413.8,140.0 L 416.2,140.0 L 418.5,140.0 L 420.9,140.0 L 423.2,140.0 L 425.5,140.0 L 427.9,140.0 L 430.2,140.0 L 432.6,85.6 L 434.9,87.2 L 437.2,87.2 L 439.6,85.6 L 441.9,82.4 L 444.3,82.4 L 446.6,95.2 L 448.9,93.6 L 451.3,95.2 L 453.6,95.2 L 456.0,90.4 L 458.3,88.8 L 460.6,93.6 L 463.0,93.6 L 465.3,85.6 L 467.7,87.2 L 470.0,90.4 L 472.3,88.8 L 474.7,87.2 L 477.0,88.8 L 479.4,90.4 L 481.7,88.8 L 484.0,100.0 L 486.4,100.0 L 488.7,95.2 L 491.1,92.0 L 493.4,95.2 L 495.7,95.2 L 498.1,95.2 L 500.4,92.0 L 502.8,88.8 L 505.1,88.8 L 507.4,87.2 L 509.8,88.8 L 512.1,87.2 L 514.5,88.8 L 516.8,85.6 L 519.1,85.6 L 521.5,87.2 L 523.8,87.2 L 526.2,90.4 L 528.5,90.4 L 530.9,93.6 L 533.2,93.6 L 535.5,92.0 L 537.9,92.0 L 540.2,90.4 L 542.6,90.4 L 544.9,85.6 L 547.2,87.2 L 549.6,90.4 L 551.9,93.6 L 554.3,92.0 L 556.6,93.6 L 558.9,90.4 L 561.3,92.0 L 563.6,92.0 L 566.0,92.0 L 568.3,93.6 L 570.6,95.2 L 573.0,90.4 L 575.3,90.4 L 577.7,85.6 L 580.0,85.6" stroke="#3E5640" stroke-width="1.5" fill="none"/><line x1="20" y1="180" x2="580" y2="180" stroke="#0E0E0E33"/><text x="20" y="195" font-family="sans-serif" font-size="10" fill="#7A7570">Powered by RateRadar · rateradar-web.vercel.app</text></svg>