<svg xmlns="http://www.w3.org/2000/svg" viewBox="0 0 600 200" width="600" height="200" role="img" aria-label="RateRadar live odds for FED 2026-12-09"><rect width="600" height="200" fill="#F5F1E8"/><text x="20" y="30" font-family="sans-serif" font-size="11" letter-spacing="1.5" fill="#7A7570">FEDERAL RESERVE · DEC 09, 2026</text><text x="20" y="80" font-family="Georgia, serif" font-size="32" fill="#0E0E0E">Hold rates</text><text x="20" y="130" font-family="monospace" font-size="42" fill="#3E5640">62%</text><text x="20" y="155" font-family="sans-serif" font-size="11" fill="#7A7570">market-implied probability</text><path d="M 360.0,140.0 L 362.4,140.0 L 364.8,140.0 L 367.3,140.0 L 369.7,140.0 L 372.1,140.0 L 374.5,140.0 L 376.9,140.0 L 379.3,140.0 L 381.8,140.0 L 384.2,140.0 L 386.6,140.0 L 389.0,140.0 L 391.4,140.0 L 393.8,140.0 L 396.3,140.0 L 398.7,140.0 L 401.1,140.0 L 403.5,140.0 L 405.9,140.0 L 408.4,140.0 L 410.8,140.0 L 413.2,140.0 L 415.6,140.0 L 418.0,140.0 L 420.4,140.0 L 422.9,140.0 L 425.3,140.0 L 427.7,140.0 L 430.1,140.0 L 432.5,140.0 L 434.9,85.6 L 437.4,87.2 L 439.8,87.2 L 442.2,85.6 L 444.6,82.4 L 447.0,82.4 L 449.5,95.2 L 451.9,93.6 L 454.3,95.2 L 456.7,95.2 L 459.1,90.4 L 461.5,88.8 L 464.0,93.6 L 466.4,93.6 L 468.8,85.6 L 471.2,87.2 L 473.6,90.4 L 476.0,88.8 L 478.5,87.2 L 480.9,88.8 L 483.3,90.4 L 485.7,88.8 L 488.1,100.0 L 490.5,100.0 L 493.0,95.2 L 495.4,92.0 L 497.8,95.2 L 500.2,95.2 L 502.6,95.2 L 505.1,92.0 L 507.5,88.8 L 509.9,88.8 L 512.3,87.2 L 514.7,88.8 L 517.1,87.2 L 519.6,88.8 L 522.0,85.6 L 524.4,85.6 L 526.8,87.2 L 529.2,87.2 L 531.6,90.4 L 534.1,90.4 L 536.5,93.6 L 538.9,93.6 L 541.3,92.0 L 543.7,92.0 L 546.2,90.4 L 548.6,90.4 L 551.0,85.6 L 553.4,87.2 L 555.8,90.4 L 558.2,93.6 L 560.7,92.0 L 563.1,93.6 L 565.5,90.4 L 567.9,92.0 L 570.3,92.0 L 572.7,92.0 L 575.2,93.6 L 577.6,95.2 L 580.0,90.4" stroke="#3E5640" stroke-width="1.5" fill="none"/><line x1="20" y1="180" x2="580" y2="180" stroke="#0E0E0E33"/><text x="20" y="195" font-family="sans-serif" font-size="10" fill="#7A7570">Powered by RateRadar · rateradar-web.vercel.app</text></svg>