<svg xmlns="http://www.w3.org/2000/svg" viewBox="0 0 600 200" width="600" height="200" role="img" aria-label="RateRadar live odds for FED 2026-06-17"><rect width="600" height="200" fill="#F5F1E8"/><text x="20" y="30" font-family="sans-serif" font-size="11" letter-spacing="1.5" fill="#7A7570">FEDERAL RESERVE · JUN 17, 2026</text><text x="20" y="80" font-family="Georgia, serif" font-size="32" fill="#0E0E0E">Hold rates</text><text x="20" y="130" font-family="monospace" font-size="42" fill="#3E5640">98%</text><text x="20" y="155" font-family="sans-serif" font-size="11" fill="#7A7570">market-implied probability</text><path d="M 360.0,104.3 L 365.5,104.3 L 371.0,104.3 L 376.5,104.3 L 382.0,104.3 L 387.5,104.3 L 393.0,104.3 L 398.5,104.3 L 404.0,104.3 L 409.5,104.3 L 415.0,104.3 L 420.5,104.3 L 426.0,104.3 L 431.5,104.3 L 437.0,104.3 L 442.5,104.3 L 448.0,104.3 L 453.5,104.3 L 459.0,104.3 L 464.5,104.3 L 470.0,104.3 L 475.5,104.3 L 481.0,104.3 L 486.5,104.3 L 492.0,104.3 L 497.5,104.3 L 503.0,104.3 L 508.5,104.3 L 514.0,104.3 L 519.5,104.3 L 525.0,104.3 L 530.5,61.8 L 536.0,61.8 L 541.5,61.8 L 547.0,61.8 L 552.5,63.7 L 558.0,63.7 L 563.5,63.7 L 569.0,63.7 L 574.5,61.8 L 580.0,61.8" stroke="#3E5640" stroke-width="1.5" fill="none"/><line x1="20" y1="180" x2="580" y2="180" stroke="#0E0E0E33"/><text x="20" y="195" font-family="sans-serif" font-size="10" fill="#7A7570">Powered by RateRadar · rateradar-web.vercel.app</text></svg>