<svg xmlns="http://www.w3.org/2000/svg" viewBox="0 0 600 200" width="600" height="200" role="img" aria-label="RateRadar live odds for FED 2026-12-09"><rect width="600" height="200" fill="#F5F1E8"/><text x="20" y="30" font-family="sans-serif" font-size="11" letter-spacing="1.5" fill="#7A7570">FEDERAL RESERVE · DEC 09, 2026</text><text x="20" y="80" font-family="Georgia, serif" font-size="32" fill="#0E0E0E">Hold rates</text><text x="20" y="130" font-family="monospace" font-size="42" fill="#3E5640">66%</text><text x="20" y="155" font-family="sans-serif" font-size="11" fill="#7A7570">market-implied probability</text><path d="M 360.0,140.0 L 366.9,140.0 L 373.8,140.0 L 380.6,140.0 L 387.5,140.0 L 394.4,140.0 L 401.2,140.0 L 408.1,140.0 L 415.0,140.0 L 421.9,140.0 L 428.8,140.0 L 435.6,140.0 L 442.5,140.0 L 449.4,140.0 L 456.2,140.0 L 463.1,140.0 L 470.0,140.0 L 476.9,140.0 L 483.8,140.0 L 490.6,140.0 L 497.5,140.0 L 504.4,140.0 L 511.2,140.0 L 518.1,140.0 L 525.0,140.0 L 531.9,140.0 L 538.8,140.0 L 545.6,140.0 L 552.5,140.0 L 559.4,140.0 L 566.2,140.0 L 573.1,85.6 L 580.0,87.2" stroke="#3E5640" stroke-width="1.5" fill="none"/><line x1="20" y1="180" x2="580" y2="180" stroke="#0E0E0E33"/><text x="20" y="195" font-family="sans-serif" font-size="10" fill="#7A7570">Powered by RateRadar · rateradar-web.vercel.app</text></svg>