<svg xmlns="http://www.w3.org/2000/svg" viewBox="0 0 600 200" width="600" height="200" role="img" aria-label="RateRadar live odds for FED 2026-09-16"><rect width="600" height="200" fill="#F5F1E8"/><text x="20" y="30" font-family="sans-serif" font-size="11" letter-spacing="1.5" fill="#7A7570">FEDERAL RESERVE · SEP 16, 2026</text><text x="20" y="80" font-family="Georgia, serif" font-size="32" fill="#0E0E0E">Move +25bp</text><text x="20" y="130" font-family="monospace" font-size="42" fill="#A8312A">51%</text><text x="20" y="155" font-family="sans-serif" font-size="11" fill="#7A7570">market-implied probability</text><path d="M 360.0,140.0 L 364.0,140.0 L 368.0,140.0 L 372.0,140.0 L 376.0,140.0 L 380.0,140.0 L 384.0,140.0 L 388.0,140.0 L 392.0,140.0 L 396.0,140.0 L 400.0,140.0 L 404.0,140.0 L 408.0,140.0 L 412.0,140.0 L 416.0,140.0 L 420.0,140.0 L 424.0,140.0 L 428.0,140.0 L 432.0,140.0 L 436.0,140.0 L 440.0,140.0 L 444.0,140.0 L 448.0,140.0 L 452.0,140.0 L 456.0,140.0 L 460.0,140.0 L 464.0,140.0 L 468.0,140.0 L 472.0,140.0 L 476.0,140.0 L 480.0,140.0 L 484.0,122.9 L 488.0,122.9 L 492.0,122.9 L 496.0,122.9 L 500.0,126.3 L 504.0,129.7 L 508.0,116.0 L 512.0,112.6 L 516.0,112.6 L 520.0,109.1 L 524.0,112.6 L 528.0,112.6 L 532.0,116.0 L 536.0,116.0 L 540.0,119.4 L 544.0,119.4 L 548.0,119.4 L 552.0,119.4 L 556.0,122.9 L 560.0,119.4 L 564.0,119.4 L 568.0,122.9 L 572.0,102.3 L 576.0,98.9 L 580.0,98.9" stroke="#A8312A" stroke-width="1.5" fill="none"/><line x1="20" y1="180" x2="580" y2="180" stroke="#0E0E0E33"/><text x="20" y="195" font-family="sans-serif" font-size="10" fill="#7A7570">Powered by RateRadar · rateradar-web.vercel.app</text></svg>