<svg xmlns="http://www.w3.org/2000/svg" viewBox="0 0 600 200" width="600" height="200" role="img" aria-label="RateRadar live odds for FED 2026-12-09"><rect width="600" height="200" fill="#F5F1E8"/><text x="20" y="30" font-family="sans-serif" font-size="11" letter-spacing="1.5" fill="#7A7570">FEDERAL RESERVE · DEC 09, 2026</text><text x="20" y="80" font-family="Georgia, serif" font-size="32" fill="#0E0E0E">Hold rates</text><text x="20" y="130" font-family="monospace" font-size="42" fill="#3E5640">58%</text><text x="20" y="155" font-family="sans-serif" font-size="11" fill="#7A7570">market-implied probability</text><path d="M 360.0,140.0 L 362.1,140.0 L 364.2,140.0 L 366.3,140.0 L 368.5,140.0 L 370.6,140.0 L 372.7,140.0 L 374.8,140.0 L 376.9,140.0 L 379.0,140.0 L 381.2,140.0 L 383.3,140.0 L 385.4,140.0 L 387.5,140.0 L 389.6,140.0 L 391.7,140.0 L 393.8,140.0 L 396.0,140.0 L 398.1,140.0 L 400.2,140.0 L 402.3,140.0 L 404.4,140.0 L 406.5,140.0 L 408.7,140.0 L 410.8,140.0 L 412.9,140.0 L 415.0,140.0 L 417.1,140.0 L 419.2,140.0 L 421.3,140.0 L 423.5,140.0 L 425.6,85.6 L 427.7,87.2 L 429.8,87.2 L 431.9,85.6 L 434.0,82.4 L 436.2,82.4 L 438.3,95.2 L 440.4,93.6 L 442.5,95.2 L 444.6,95.2 L 446.7,90.4 L 448.8,88.8 L 451.0,93.6 L 453.1,93.6 L 455.2,85.6 L 457.3,87.2 L 459.4,90.4 L 461.5,88.8 L 463.7,87.2 L 465.8,88.8 L 467.9,90.4 L 470.0,88.8 L 472.1,100.0 L 474.2,100.0 L 476.3,95.2 L 478.5,92.0 L 480.6,95.2 L 482.7,95.2 L 484.8,95.2 L 486.9,92.0 L 489.0,88.8 L 491.2,88.8 L 493.3,87.2 L 495.4,88.8 L 497.5,87.2 L 499.6,88.8 L 501.7,85.6 L 503.8,85.6 L 506.0,87.2 L 508.1,87.2 L 510.2,90.4 L 512.3,90.4 L 514.4,93.6 L 516.5,93.6 L 518.7,92.0 L 520.8,92.0 L 522.9,90.4 L 525.0,90.4 L 527.1,85.6 L 529.2,87.2 L 531.3,90.4 L 533.5,93.6 L 535.6,92.0 L 537.7,93.6 L 539.8,90.4 L 541.9,92.0 L 544.0,92.0 L 546.2,92.0 L 548.3,93.6 L 550.4,95.2 L 552.5,90.4 L 554.6,90.4 L 556.7,85.6 L 558.8,85.6 L 561.0,87.2 L 563.1,87.2 L 565.2,90.4 L 567.3,90.4 L 569.4,92.0 L 571.5,92.0 L 573.7,93.6 L 575.8,95.2 L 577.9,93.6 L 580.0,93.6" stroke="#3E5640" stroke-width="1.5" fill="none"/><line x1="20" y1="180" x2="580" y2="180" stroke="#0E0E0E33"/><text x="20" y="195" font-family="sans-serif" font-size="10" fill="#7A7570">Powered by RateRadar · rateradar-web.vercel.app</text></svg>