<svg xmlns="http://www.w3.org/2000/svg" viewBox="0 0 600 200" width="600" height="200" role="img" aria-label="RateRadar live odds for FED 2026-10-28"><rect width="600" height="200" fill="#F5F1E8"/><text x="20" y="30" font-family="sans-serif" font-size="11" letter-spacing="1.5" fill="#7A7570">FEDERAL RESERVE · OCT 28, 2026</text><text x="20" y="80" font-family="Georgia, serif" font-size="32" fill="#0E0E0E">Hold rates</text><text x="20" y="130" font-family="monospace" font-size="42" fill="#3E5640">69%</text><text x="20" y="155" font-family="sans-serif" font-size="11" fill="#7A7570">market-implied probability</text><path d="M 360.0,140.0 L 362.2,140.0 L 364.4,140.0 L 366.7,140.0 L 368.9,140.0 L 371.1,140.0 L 373.3,140.0 L 375.6,140.0 L 377.8,140.0 L 380.0,140.0 L 382.2,140.0 L 384.4,140.0 L 386.7,140.0 L 388.9,140.0 L 391.1,140.0 L 393.3,140.0 L 395.6,140.0 L 397.8,140.0 L 400.0,140.0 L 402.2,140.0 L 404.4,140.0 L 406.7,140.0 L 408.9,140.0 L 411.1,140.0 L 413.3,140.0 L 415.6,140.0 L 417.8,140.0 L 420.0,140.0 L 422.2,140.0 L 424.4,140.0 L 426.7,140.0 L 428.9,70.1 L 431.1,70.1 L 433.3,71.7 L 435.6,71.7 L 437.8,70.3 L 440.0,73.7 L 442.2,77.6 L 444.4,72.6 L 446.7,75.8 L 448.9,73.9 L 451.1,72.6 L 453.3,74.2 L 455.6,74.4 L 457.8,77.6 L 460.0,66.6 L 462.2,65.0 L 464.4,68.2 L 466.7,68.2 L 468.9,70.1 L 471.1,66.6 L 473.3,66.6 L 475.6,71.7 L 477.8,79.9 L 480.0,79.7 L 482.2,79.7 L 484.4,78.1 L 486.7,82.6 L 488.9,82.6 L 491.1,82.4 L 493.3,79.0 L 495.6,77.8 L 497.8,81.0 L 500.0,74.6 L 502.2,79.9 L 504.4,78.3 L 506.7,76.5 L 508.9,71.9 L 511.1,75.1 L 513.3,75.1 L 515.6,76.7 L 517.8,78.1 L 520.0,77.8 L 522.2,78.1 L 524.4,79.7 L 526.7,76.9 L 528.9,76.9 L 531.1,76.9 L 533.3,76.9 L 535.6,80.6 L 537.8,75.3 L 540.0,79.9 L 542.2,78.3 L 544.4,79.7 L 546.7,82.9 L 548.9,76.5 L 551.1,76.5 L 553.3,79.7 L 555.6,79.7 L 557.8,84.2 L 560.0,82.6 L 562.2,74.9 L 564.4,74.9 L 566.7,77.1 L 568.9,75.1 L 571.1,74.9 L 573.3,76.9 L 575.6,79.7 L 577.8,79.7 L 580.0,84.5" stroke="#3E5640" stroke-width="1.5" fill="none"/><line x1="20" y1="180" x2="580" y2="180" stroke="#0E0E0E33"/><text x="20" y="195" font-family="sans-serif" font-size="10" fill="#7A7570">Powered by RateRadar · rateradar-web.vercel.app</text></svg>