<svg xmlns="http://www.w3.org/2000/svg" viewBox="0 0 600 200" width="600" height="200" role="img" aria-label="RateRadar live odds for FED 2026-06-17"><rect width="600" height="200" fill="#F5F1E8"/><text x="20" y="30" font-family="sans-serif" font-size="11" letter-spacing="1.5" fill="#7A7570">FEDERAL RESERVE · JUN 17, 2026</text><text x="20" y="80" font-family="Georgia, serif" font-size="32" fill="#0E0E0E">Hold rates</text><text x="20" y="130" font-family="monospace" font-size="42" fill="#3E5640">98%</text><text x="20" y="155" font-family="sans-serif" font-size="11" fill="#7A7570">market-implied probability</text><path d="M 360.0,104.3 L 365.6,104.3 L 371.3,104.3 L 376.9,104.3 L 382.6,104.3 L 388.2,104.3 L 393.8,104.3 L 399.5,104.3 L 405.1,104.3 L 410.8,104.3 L 416.4,104.3 L 422.1,104.3 L 427.7,104.3 L 433.3,104.3 L 439.0,104.3 L 444.6,104.3 L 450.3,104.3 L 455.9,104.3 L 461.5,104.3 L 467.2,104.3 L 472.8,104.3 L 478.5,104.3 L 484.1,104.3 L 489.7,104.3 L 495.4,104.3 L 501.0,104.3 L 506.7,104.3 L 512.3,104.3 L 517.9,104.3 L 523.6,104.3 L 529.2,104.3 L 534.9,61.8 L 540.5,61.8 L 546.2,61.8 L 551.8,61.8 L 557.4,63.7 L 563.1,63.7 L 568.7,63.7 L 574.4,63.7 L 580.0,61.8" stroke="#3E5640" stroke-width="1.5" fill="none"/><line x1="20" y1="180" x2="580" y2="180" stroke="#0E0E0E33"/><text x="20" y="195" font-family="sans-serif" font-size="10" fill="#7A7570">Powered by RateRadar · rateradar-web.vercel.app</text></svg>