<svg xmlns="http://www.w3.org/2000/svg" viewBox="0 0 600 200" width="600" height="200" role="img" aria-label="RateRadar live odds for FED 2026-09-16"><rect width="600" height="200" fill="#F5F1E8"/><text x="20" y="30" font-family="sans-serif" font-size="11" letter-spacing="1.5" fill="#7A7570">FEDERAL RESERVE · SEP 16, 2026</text><text x="20" y="80" font-family="Georgia, serif" font-size="32" fill="#0E0E0E">Move +25bp</text><text x="20" y="130" font-family="monospace" font-size="42" fill="#A8312A">60%</text><text x="20" y="155" font-family="sans-serif" font-size="11" fill="#7A7570">market-implied probability</text><path d="M 360.0,140.0 L 362.2,140.0 L 364.3,140.0 L 366.5,140.0 L 368.6,140.0 L 370.8,140.0 L 372.9,140.0 L 375.1,140.0 L 377.3,140.0 L 379.4,140.0 L 381.6,140.0 L 383.7,140.0 L 385.9,140.0 L 388.0,140.0 L 390.2,140.0 L 392.4,140.0 L 394.5,140.0 L 396.7,140.0 L 398.8,140.0 L 401.0,140.0 L 403.1,140.0 L 405.3,140.0 L 407.5,140.0 L 409.6,140.0 L 411.8,140.0 L 413.9,140.0 L 416.1,140.0 L 418.2,140.0 L 420.4,140.0 L 422.5,140.0 L 424.7,140.0 L 426.9,122.9 L 429.0,122.9 L 431.2,122.9 L 433.3,122.9 L 435.5,126.3 L 437.6,129.7 L 439.8,116.0 L 442.0,112.6 L 444.1,112.6 L 446.3,109.1 L 448.4,112.6 L 450.6,112.6 L 452.7,116.0 L 454.9,116.0 L 457.1,119.4 L 459.2,119.4 L 461.4,119.4 L 463.5,119.4 L 465.7,122.9 L 467.8,119.4 L 470.0,119.4 L 472.2,122.9 L 474.3,102.3 L 476.5,98.9 L 478.6,98.9 L 480.8,98.9 L 482.9,95.4 L 485.1,95.4 L 487.3,92.0 L 489.4,88.6 L 491.6,95.4 L 493.7,95.4 L 495.9,95.4 L 498.0,102.3 L 500.2,102.3 L 502.4,98.9 L 504.5,102.3 L 506.7,102.3 L 508.8,102.3 L 511.0,102.3 L 513.1,98.9 L 515.3,95.4 L 517.5,98.9 L 519.6,98.9 L 521.8,105.7 L 523.9,105.7 L 526.1,105.7 L 528.2,105.7 L 530.4,112.6 L 532.5,105.7 L 534.7,102.3 L 536.9,102.3 L 539.0,98.9 L 541.2,98.9 L 543.3,98.9 L 545.5,98.9 L 547.6,98.9 L 549.8,98.9 L 552.0,95.4 L 554.1,95.4 L 556.3,98.9 L 558.4,98.9 L 560.6,109.1 L 562.7,102.3 L 564.9,98.9 L 567.1,105.7 L 569.2,98.9 L 571.4,98.9 L 573.5,98.9 L 575.7,98.9 L 577.8,92.0 L 580.0,92.0" stroke="#A8312A" stroke-width="1.5" fill="none"/><line x1="20" y1="180" x2="580" y2="180" stroke="#0E0E0E33"/><text x="20" y="195" font-family="sans-serif" font-size="10" fill="#7A7570">Powered by RateRadar · rateradar-web.vercel.app</text></svg>