<svg xmlns="http://www.w3.org/2000/svg" viewBox="0 0 600 200" width="600" height="200" role="img" aria-label="RateRadar live odds for FED 2026-10-28"><rect width="600" height="200" fill="#F5F1E8"/><text x="20" y="30" font-family="sans-serif" font-size="11" letter-spacing="1.5" fill="#7A7570">FEDERAL RESERVE · OCT 28, 2026</text><text x="20" y="80" font-family="Georgia, serif" font-size="32" fill="#0E0E0E">Hold rates</text><text x="20" y="130" font-family="monospace" font-size="42" fill="#3E5640">90%</text><text x="20" y="155" font-family="sans-serif" font-size="11" fill="#7A7570">market-implied probability</text><path d="M 360.0,140.0 L 364.6,140.0 L 369.2,140.0 L 373.8,140.0 L 378.3,140.0 L 382.9,140.0 L 387.5,140.0 L 392.1,140.0 L 396.7,140.0 L 401.2,140.0 L 405.8,140.0 L 410.4,140.0 L 415.0,140.0 L 419.6,140.0 L 424.2,140.0 L 428.8,140.0 L 433.3,140.0 L 437.9,140.0 L 442.5,140.0 L 447.1,140.0 L 451.7,140.0 L 456.2,140.0 L 460.8,140.0 L 465.4,140.0 L 470.0,140.0 L 474.6,140.0 L 479.2,140.0 L 483.8,140.0 L 488.3,140.0 L 492.9,140.0 L 497.5,140.0 L 502.1,70.1 L 506.7,70.1 L 511.2,71.7 L 515.8,71.7 L 520.4,70.3 L 525.0,73.7 L 529.6,77.6 L 534.2,72.6 L 538.8,75.8 L 543.3,73.9 L 547.9,72.6 L 552.5,74.2 L 557.1,74.4 L 561.7,77.6 L 566.2,66.6 L 570.8,65.0 L 575.4,68.2 L 580.0,68.2" stroke="#3E5640" stroke-width="1.5" fill="none"/><line x1="20" y1="180" x2="580" y2="180" stroke="#0E0E0E33"/><text x="20" y="195" font-family="sans-serif" font-size="10" fill="#7A7570">Powered by RateRadar · rateradar-web.vercel.app</text></svg>