<svg xmlns="http://www.w3.org/2000/svg" viewBox="0 0 600 200" width="600" height="200" role="img" aria-label="RateRadar live odds for FED 2026-10-28"><rect width="600" height="200" fill="#F5F1E8"/><text x="20" y="30" font-family="sans-serif" font-size="11" letter-spacing="1.5" fill="#7A7570">FEDERAL RESERVE · OCT 28, 2026</text><text x="20" y="80" font-family="Georgia, serif" font-size="32" fill="#0E0E0E">Hold rates</text><text x="20" y="130" font-family="monospace" font-size="42" fill="#3E5640">78%</text><text x="20" y="155" font-family="sans-serif" font-size="11" fill="#7A7570">market-implied probability</text><path d="M 360.0,140.0 L 363.6,140.0 L 367.2,140.0 L 370.8,140.0 L 374.4,140.0 L 378.0,140.0 L 381.6,140.0 L 385.2,140.0 L 388.9,140.0 L 392.5,140.0 L 396.1,140.0 L 399.7,140.0 L 403.3,140.0 L 406.9,140.0 L 410.5,140.0 L 414.1,140.0 L 417.7,140.0 L 421.3,140.0 L 424.9,140.0 L 428.5,140.0 L 432.1,140.0 L 435.7,140.0 L 439.3,140.0 L 443.0,140.0 L 446.6,140.0 L 450.2,140.0 L 453.8,140.0 L 457.4,140.0 L 461.0,140.0 L 464.6,140.0 L 468.2,140.0 L 471.8,70.1 L 475.4,70.1 L 479.0,71.7 L 482.6,71.7 L 486.2,70.3 L 489.8,73.7 L 493.4,77.6 L 497.0,72.6 L 500.7,75.8 L 504.3,73.9 L 507.9,72.6 L 511.5,74.2 L 515.1,74.4 L 518.7,77.6 L 522.3,66.6 L 525.9,65.0 L 529.5,68.2 L 533.1,68.2 L 536.7,70.1 L 540.3,66.6 L 543.9,66.6 L 547.5,71.7 L 551.1,79.9 L 554.8,79.7 L 558.4,79.7 L 562.0,78.1 L 565.6,82.6 L 569.2,82.6 L 572.8,82.4 L 576.4,79.0 L 580.0,77.8" stroke="#3E5640" stroke-width="1.5" fill="none"/><line x1="20" y1="180" x2="580" y2="180" stroke="#0E0E0E33"/><text x="20" y="195" font-family="sans-serif" font-size="10" fill="#7A7570">Powered by RateRadar · rateradar-web.vercel.app</text></svg>