<svg xmlns="http://www.w3.org/2000/svg" viewBox="0 0 600 200" width="600" height="200" role="img" aria-label="RateRadar live odds for FED 2026-10-28"><rect width="600" height="200" fill="#F5F1E8"/><text x="20" y="30" font-family="sans-serif" font-size="11" letter-spacing="1.5" fill="#7A7570">FEDERAL RESERVE · OCT 28, 2026</text><text x="20" y="80" font-family="Georgia, serif" font-size="32" fill="#0E0E0E">Hold rates</text><text x="20" y="130" font-family="monospace" font-size="42" fill="#3E5640">69%</text><text x="20" y="155" font-family="sans-serif" font-size="11" fill="#7A7570">market-implied probability</text><path d="M 360.0,140.0 L 362.1,140.0 L 364.2,140.0 L 366.2,140.0 L 368.3,140.0 L 370.4,140.0 L 372.5,140.0 L 374.5,140.0 L 376.6,140.0 L 378.7,140.0 L 380.8,140.0 L 382.8,140.0 L 384.9,140.0 L 387.0,140.0 L 389.1,140.0 L 391.1,140.0 L 393.2,140.0 L 395.3,140.0 L 397.4,140.0 L 399.4,140.0 L 401.5,140.0 L 403.6,140.0 L 405.7,140.0 L 407.7,140.0 L 409.8,140.0 L 411.9,140.0 L 414.0,140.0 L 416.0,140.0 L 418.1,140.0 L 420.2,140.0 L 422.3,140.0 L 424.3,70.1 L 426.4,70.1 L 428.5,71.7 L 430.6,71.7 L 432.6,70.3 L 434.7,73.7 L 436.8,77.6 L 438.9,72.6 L 440.9,75.8 L 443.0,73.9 L 445.1,72.6 L 447.2,74.2 L 449.2,74.4 L 451.3,77.6 L 453.4,66.6 L 455.5,65.0 L 457.5,68.2 L 459.6,68.2 L 461.7,70.1 L 463.8,66.6 L 465.8,66.6 L 467.9,71.7 L 470.0,79.9 L 472.1,79.7 L 474.2,79.7 L 476.2,78.1 L 478.3,82.6 L 480.4,82.6 L 482.5,82.4 L 484.5,79.0 L 486.6,77.8 L 488.7,81.0 L 490.8,74.6 L 492.8,79.9 L 494.9,78.3 L 497.0,76.5 L 499.1,71.9 L 501.1,75.1 L 503.2,75.1 L 505.3,76.7 L 507.4,78.1 L 509.4,77.8 L 511.5,78.1 L 513.6,79.7 L 515.7,76.9 L 517.7,76.9 L 519.8,76.9 L 521.9,76.9 L 524.0,80.6 L 526.0,75.3 L 528.1,79.9 L 530.2,78.3 L 532.3,79.7 L 534.3,82.9 L 536.4,76.5 L 538.5,76.5 L 540.6,79.7 L 542.6,79.7 L 544.7,84.2 L 546.8,82.6 L 548.9,74.9 L 550.9,74.9 L 553.0,77.1 L 555.1,75.1 L 557.2,74.9 L 559.2,76.9 L 561.3,79.7 L 563.4,79.7 L 565.5,84.5 L 567.5,82.9 L 569.6,84.0 L 571.7,82.4 L 573.8,87.2 L 575.8,83.8 L 577.9,83.3 L 580.0,84.9" stroke="#3E5640" stroke-width="1.5" fill="none"/><line x1="20" y1="180" x2="580" y2="180" stroke="#0E0E0E33"/><text x="20" y="195" font-family="sans-serif" font-size="10" fill="#7A7570">Powered by RateRadar · rateradar-web.vercel.app</text></svg>