<svg xmlns="http://www.w3.org/2000/svg" viewBox="0 0 600 200" width="600" height="200" role="img" aria-label="RateRadar live odds for FED 2026-12-09"><rect width="600" height="200" fill="#F5F1E8"/><text x="20" y="30" font-family="sans-serif" font-size="11" letter-spacing="1.5" fill="#7A7570">FEDERAL RESERVE · DEC 09, 2026</text><text x="20" y="80" font-family="Georgia, serif" font-size="32" fill="#0E0E0E">Hold rates</text><text x="20" y="130" font-family="monospace" font-size="42" fill="#3E5640">60%</text><text x="20" y="155" font-family="sans-serif" font-size="11" fill="#7A7570">market-implied probability</text><path d="M 360.0,140.0 L 362.5,140.0 L 365.0,140.0 L 367.5,140.0 L 370.0,140.0 L 372.5,140.0 L 375.0,140.0 L 377.5,140.0 L 380.0,140.0 L 382.5,140.0 L 385.0,140.0 L 387.5,140.0 L 390.0,140.0 L 392.5,140.0 L 395.0,140.0 L 397.5,140.0 L 400.0,140.0 L 402.5,140.0 L 405.0,140.0 L 407.5,140.0 L 410.0,140.0 L 412.5,140.0 L 415.0,140.0 L 417.5,140.0 L 420.0,140.0 L 422.5,140.0 L 425.0,140.0 L 427.5,140.0 L 430.0,140.0 L 432.5,140.0 L 435.0,140.0 L 437.5,85.6 L 440.0,87.2 L 442.5,87.2 L 445.0,85.6 L 447.5,82.4 L 450.0,82.4 L 452.5,95.2 L 455.0,93.6 L 457.5,95.2 L 460.0,95.2 L 462.5,90.4 L 465.0,88.8 L 467.5,93.6 L 470.0,93.6 L 472.5,85.6 L 475.0,87.2 L 477.5,90.4 L 480.0,88.8 L 482.5,87.2 L 485.0,88.8 L 487.5,90.4 L 490.0,88.8 L 492.5,100.0 L 495.0,100.0 L 497.5,95.2 L 500.0,92.0 L 502.5,95.2 L 505.0,95.2 L 507.5,95.2 L 510.0,92.0 L 512.5,88.8 L 515.0,88.8 L 517.5,87.2 L 520.0,88.8 L 522.5,87.2 L 525.0,88.8 L 527.5,85.6 L 530.0,85.6 L 532.5,87.2 L 535.0,87.2 L 537.5,90.4 L 540.0,90.4 L 542.5,93.6 L 545.0,93.6 L 547.5,92.0 L 550.0,92.0 L 552.5,90.4 L 555.0,90.4 L 557.5,85.6 L 560.0,87.2 L 562.5,90.4 L 565.0,93.6 L 567.5,92.0 L 570.0,93.6 L 572.5,90.4 L 575.0,92.0 L 577.5,92.0 L 580.0,92.0" stroke="#3E5640" stroke-width="1.5" fill="none"/><line x1="20" y1="180" x2="580" y2="180" stroke="#0E0E0E33"/><text x="20" y="195" font-family="sans-serif" font-size="10" fill="#7A7570">Powered by RateRadar · rateradar-web.vercel.app</text></svg>