<svg xmlns="http://www.w3.org/2000/svg" viewBox="0 0 600 200" width="600" height="200" role="img" aria-label="RateRadar live odds for FED 2026-09-16"><rect width="600" height="200" fill="#F5F1E8"/><text x="20" y="30" font-family="sans-serif" font-size="11" letter-spacing="1.5" fill="#7A7570">FEDERAL RESERVE · SEP 16, 2026</text><text x="20" y="80" font-family="Georgia, serif" font-size="32" fill="#0E0E0E">Move +25bp</text><text x="20" y="130" font-family="monospace" font-size="42" fill="#A8312A">51%</text><text x="20" y="155" font-family="sans-serif" font-size="11" fill="#7A7570">market-implied probability</text><path d="M 360.0,140.0 L 363.9,140.0 L 367.9,140.0 L 371.8,140.0 L 375.7,140.0 L 379.6,140.0 L 383.6,140.0 L 387.5,140.0 L 391.4,140.0 L 395.4,140.0 L 399.3,140.0 L 403.2,140.0 L 407.1,140.0 L 411.1,140.0 L 415.0,140.0 L 418.9,140.0 L 422.9,140.0 L 426.8,140.0 L 430.7,140.0 L 434.6,140.0 L 438.6,140.0 L 442.5,140.0 L 446.4,140.0 L 450.4,140.0 L 454.3,140.0 L 458.2,140.0 L 462.1,140.0 L 466.1,140.0 L 470.0,140.0 L 473.9,140.0 L 477.9,140.0 L 481.8,122.9 L 485.7,122.9 L 489.6,122.9 L 493.6,122.9 L 497.5,126.3 L 501.4,129.7 L 505.4,116.0 L 509.3,112.6 L 513.2,112.6 L 517.1,109.1 L 521.1,112.6 L 525.0,112.6 L 528.9,116.0 L 532.9,116.0 L 536.8,119.4 L 540.7,119.4 L 544.6,119.4 L 548.6,119.4 L 552.5,122.9 L 556.4,119.4 L 560.4,119.4 L 564.3,122.9 L 568.2,102.3 L 572.1,98.9 L 576.1,98.9 L 580.0,98.9" stroke="#A8312A" stroke-width="1.5" fill="none"/><line x1="20" y1="180" x2="580" y2="180" stroke="#0E0E0E33"/><text x="20" y="195" font-family="sans-serif" font-size="10" fill="#7A7570">Powered by RateRadar · rateradar-web.vercel.app</text></svg>