<svg xmlns="http://www.w3.org/2000/svg" viewBox="0 0 600 200" width="600" height="200" role="img" aria-label="RateRadar live odds for FED 2026-10-28"><rect width="600" height="200" fill="#F5F1E8"/><text x="20" y="30" font-family="sans-serif" font-size="11" letter-spacing="1.5" fill="#7A7570">FEDERAL RESERVE · OCT 28, 2026</text><text x="20" y="80" font-family="Georgia, serif" font-size="32" fill="#0E0E0E">Hold rates</text><text x="20" y="130" font-family="monospace" font-size="42" fill="#3E5640">70%</text><text x="20" y="155" font-family="sans-serif" font-size="11" fill="#7A7570">market-implied probability</text><path d="M 360.0,140.0 L 362.5,140.0 L 364.9,140.0 L 367.4,140.0 L 369.9,140.0 L 372.4,140.0 L 374.8,140.0 L 377.3,140.0 L 379.8,140.0 L 382.2,140.0 L 384.7,140.0 L 387.2,140.0 L 389.7,140.0 L 392.1,140.0 L 394.6,140.0 L 397.1,140.0 L 399.6,140.0 L 402.0,140.0 L 404.5,140.0 L 407.0,140.0 L 409.4,140.0 L 411.9,140.0 L 414.4,140.0 L 416.9,140.0 L 419.3,140.0 L 421.8,140.0 L 424.3,140.0 L 426.7,140.0 L 429.2,140.0 L 431.7,140.0 L 434.2,140.0 L 436.6,70.1 L 439.1,70.1 L 441.6,71.7 L 444.0,71.7 L 446.5,70.3 L 449.0,73.7 L 451.5,77.6 L 453.9,72.6 L 456.4,75.8 L 458.9,73.9 L 461.3,72.6 L 463.8,74.2 L 466.3,74.4 L 468.8,77.6 L 471.2,66.6 L 473.7,65.0 L 476.2,68.2 L 478.7,68.2 L 481.1,70.1 L 483.6,66.6 L 486.1,66.6 L 488.5,71.7 L 491.0,79.9 L 493.5,79.7 L 496.0,79.7 L 498.4,78.1 L 500.9,82.6 L 503.4,82.6 L 505.8,82.4 L 508.3,79.0 L 510.8,77.8 L 513.3,81.0 L 515.7,74.6 L 518.2,79.9 L 520.7,78.3 L 523.1,76.5 L 525.6,71.9 L 528.1,75.1 L 530.6,75.1 L 533.0,76.7 L 535.5,78.1 L 538.0,77.8 L 540.4,78.1 L 542.9,79.7 L 545.4,76.9 L 547.9,76.9 L 550.3,76.9 L 552.8,76.9 L 555.3,80.6 L 557.8,75.3 L 560.2,79.9 L 562.7,78.3 L 565.2,79.7 L 567.6,82.9 L 570.1,76.5 L 572.6,76.5 L 575.1,79.7 L 577.5,79.7 L 580.0,84.2" stroke="#3E5640" stroke-width="1.5" fill="none"/><line x1="20" y1="180" x2="580" y2="180" stroke="#0E0E0E33"/><text x="20" y="195" font-family="sans-serif" font-size="10" fill="#7A7570">Powered by RateRadar · rateradar-web.vercel.app</text></svg>