<svg xmlns="http://www.w3.org/2000/svg" viewBox="0 0 600 200" width="600" height="200" role="img" aria-label="RateRadar live odds for FED 2026-07-29"><rect width="600" height="200" fill="#F5F1E8"/><text x="20" y="30" font-family="sans-serif" font-size="11" letter-spacing="1.5" fill="#7A7570">FEDERAL RESERVE · JUL 29, 2026</text><text x="20" y="80" font-family="Georgia, serif" font-size="32" fill="#0E0E0E">Hold rates</text><text x="20" y="130" font-family="monospace" font-size="42" fill="#3E5640">64%</text><text x="20" y="155" font-family="sans-serif" font-size="11" fill="#7A7570">market-implied probability</text><path d="M 360.0,140.0 L 362.1,140.0 L 364.3,140.0 L 366.4,140.0 L 368.5,140.0 L 370.7,140.0 L 372.8,140.0 L 375.0,140.0 L 377.1,140.0 L 379.2,140.0 L 381.4,140.0 L 383.5,140.0 L 385.6,140.0 L 387.8,140.0 L 389.9,140.0 L 392.0,140.0 L 394.2,140.0 L 396.3,140.0 L 398.4,140.0 L 400.6,140.0 L 402.7,140.0 L 404.9,140.0 L 407.0,140.0 L 409.1,140.0 L 411.3,140.0 L 413.4,140.0 L 415.5,140.0 L 417.7,140.0 L 419.8,140.0 L 421.9,140.0 L 424.1,140.0 L 426.2,68.2 L 428.3,68.2 L 430.5,69.8 L 432.6,68.2 L 434.8,70.1 L 436.9,68.5 L 439.0,73.3 L 441.2,73.3 L 443.3,73.0 L 445.4,73.0 L 447.6,71.4 L 449.7,71.4 L 451.8,71.4 L 454.0,73.0 L 456.1,66.6 L 458.3,70.1 L 460.4,70.1 L 462.5,68.2 L 464.7,68.0 L 466.8,69.8 L 468.9,71.4 L 471.1,69.8 L 473.2,93.6 L 475.3,87.0 L 477.5,92.0 L 479.6,93.4 L 481.7,93.4 L 483.9,93.4 L 486.0,90.2 L 488.2,90.2 L 490.3,90.2 L 492.4,90.4 L 494.6,87.0 L 496.7,88.6 L 498.8,87.2 L 501.0,85.6 L 503.1,84.0 L 505.2,84.0 L 507.4,85.6 L 509.5,85.6 L 511.7,87.2 L 513.8,87.2 L 515.9,84.0 L 518.1,84.0 L 520.2,76.0 L 522.3,76.0 L 524.5,79.2 L 526.6,79.2 L 528.7,82.4 L 530.9,79.2 L 533.0,82.4 L 535.1,84.0 L 537.3,85.6 L 539.4,84.0 L 541.6,79.2 L 543.7,79.2 L 545.8,85.6 L 548.0,87.2 L 550.1,93.6 L 552.2,95.2 L 554.4,72.8 L 556.5,72.8 L 558.6,69.6 L 560.8,68.0 L 562.9,68.0 L 565.0,69.6 L 567.2,71.2 L 569.3,72.8 L 571.5,72.8 L 573.6,74.4 L 575.7,82.4 L 577.9,80.8 L 580.0,88.8" stroke="#3E5640" stroke-width="1.5" fill="none"/><line x1="20" y1="180" x2="580" y2="180" stroke="#0E0E0E33"/><text x="20" y="195" font-family="sans-serif" font-size="10" fill="#7A7570">Powered by RateRadar · rateradar-web.vercel.app</text></svg>