<svg xmlns="http://www.w3.org/2000/svg" viewBox="0 0 600 200" width="600" height="200" role="img" aria-label="RateRadar live odds for FED 2026-12-09"><rect width="600" height="200" fill="#F5F1E8"/><text x="20" y="30" font-family="sans-serif" font-size="11" letter-spacing="1.5" fill="#7A7570">FEDERAL RESERVE · DEC 09, 2026</text><text x="20" y="80" font-family="Georgia, serif" font-size="32" fill="#0E0E0E">Hold rates</text><text x="20" y="130" font-family="monospace" font-size="42" fill="#3E5640">60%</text><text x="20" y="155" font-family="sans-serif" font-size="11" fill="#7A7570">market-implied probability</text><path d="M 360.0,140.0 L 362.6,140.0 L 365.1,140.0 L 367.7,140.0 L 370.2,140.0 L 372.8,140.0 L 375.3,140.0 L 377.9,140.0 L 380.5,140.0 L 383.0,140.0 L 385.6,140.0 L 388.1,140.0 L 390.7,140.0 L 393.3,140.0 L 395.8,140.0 L 398.4,140.0 L 400.9,140.0 L 403.5,140.0 L 406.0,140.0 L 408.6,140.0 L 411.2,140.0 L 413.7,140.0 L 416.3,140.0 L 418.8,140.0 L 421.4,140.0 L 424.0,140.0 L 426.5,140.0 L 429.1,140.0 L 431.6,140.0 L 434.2,140.0 L 436.7,140.0 L 439.3,85.6 L 441.9,87.2 L 444.4,87.2 L 447.0,85.6 L 449.5,82.4 L 452.1,82.4 L 454.7,95.2 L 457.2,93.6 L 459.8,95.2 L 462.3,95.2 L 464.9,90.4 L 467.4,88.8 L 470.0,93.6 L 472.6,93.6 L 475.1,85.6 L 477.7,87.2 L 480.2,90.4 L 482.8,88.8 L 485.3,87.2 L 487.9,88.8 L 490.5,90.4 L 493.0,88.8 L 495.6,100.0 L 498.1,100.0 L 500.7,95.2 L 503.3,92.0 L 505.8,95.2 L 508.4,95.2 L 510.9,95.2 L 513.5,92.0 L 516.0,88.8 L 518.6,88.8 L 521.2,87.2 L 523.7,88.8 L 526.3,87.2 L 528.8,88.8 L 531.4,85.6 L 534.0,85.6 L 536.5,87.2 L 539.1,87.2 L 541.6,90.4 L 544.2,90.4 L 546.7,93.6 L 549.3,93.6 L 551.9,92.0 L 554.4,92.0 L 557.0,90.4 L 559.5,90.4 L 562.1,85.6 L 564.7,87.2 L 567.2,90.4 L 569.8,93.6 L 572.3,92.0 L 574.9,93.6 L 577.4,90.4 L 580.0,92.0" stroke="#3E5640" stroke-width="1.5" fill="none"/><line x1="20" y1="180" x2="580" y2="180" stroke="#0E0E0E33"/><text x="20" y="195" font-family="sans-serif" font-size="10" fill="#7A7570">Powered by RateRadar · rateradar-web.vercel.app</text></svg>