<svg xmlns="http://www.w3.org/2000/svg" viewBox="0 0 600 200" width="600" height="200" role="img" aria-label="RateRadar live odds for FED 2026-10-28"><rect width="600" height="200" fill="#F5F1E8"/><text x="20" y="30" font-family="sans-serif" font-size="11" letter-spacing="1.5" fill="#7A7570">FEDERAL RESERVE · OCT 28, 2026</text><text x="20" y="80" font-family="Georgia, serif" font-size="32" fill="#0E0E0E">Hold rates</text><text x="20" y="130" font-family="monospace" font-size="42" fill="#3E5640">79%</text><text x="20" y="155" font-family="sans-serif" font-size="11" fill="#7A7570">market-implied probability</text><path d="M 360.0,140.0 L 362.9,140.0 L 365.8,140.0 L 368.7,140.0 L 371.6,140.0 L 374.5,140.0 L 377.4,140.0 L 380.3,140.0 L 383.2,140.0 L 386.1,140.0 L 388.9,140.0 L 391.8,140.0 L 394.7,140.0 L 397.6,140.0 L 400.5,140.0 L 403.4,140.0 L 406.3,140.0 L 409.2,140.0 L 412.1,140.0 L 415.0,140.0 L 417.9,140.0 L 420.8,140.0 L 423.7,140.0 L 426.6,140.0 L 429.5,140.0 L 432.4,140.0 L 435.3,140.0 L 438.2,140.0 L 441.1,140.0 L 443.9,140.0 L 446.8,140.0 L 449.7,70.1 L 452.6,70.1 L 455.5,71.7 L 458.4,71.7 L 461.3,70.3 L 464.2,73.7 L 467.1,77.6 L 470.0,72.6 L 472.9,75.8 L 475.8,73.9 L 478.7,72.6 L 481.6,74.2 L 484.5,74.4 L 487.4,77.6 L 490.3,66.6 L 493.2,65.0 L 496.1,68.2 L 498.9,68.2 L 501.8,70.1 L 504.7,66.6 L 507.6,66.6 L 510.5,71.7 L 513.4,79.9 L 516.3,79.7 L 519.2,79.7 L 522.1,78.1 L 525.0,82.6 L 527.9,82.6 L 530.8,82.4 L 533.7,79.0 L 536.6,77.8 L 539.5,81.0 L 542.4,74.6 L 545.3,79.9 L 548.2,78.3 L 551.1,76.5 L 553.9,71.9 L 556.8,75.1 L 559.7,75.1 L 562.6,76.7 L 565.5,78.1 L 568.4,77.8 L 571.3,78.1 L 574.2,79.7 L 577.1,76.9 L 580.0,76.9" stroke="#3E5640" stroke-width="1.5" fill="none"/><line x1="20" y1="180" x2="580" y2="180" stroke="#0E0E0E33"/><text x="20" y="195" font-family="sans-serif" font-size="10" fill="#7A7570">Powered by RateRadar · rateradar-web.vercel.app</text></svg>