<svg xmlns="http://www.w3.org/2000/svg" viewBox="0 0 600 200" width="600" height="200" role="img" aria-label="RateRadar live odds for FED 2026-12-09"><rect width="600" height="200" fill="#F5F1E8"/><text x="20" y="30" font-family="sans-serif" font-size="11" letter-spacing="1.5" fill="#7A7570">FEDERAL RESERVE · DEC 09, 2026</text><text x="20" y="80" font-family="Georgia, serif" font-size="32" fill="#0E0E0E">Move +50bp</text><text x="20" y="130" font-family="monospace" font-size="42" fill="#A8312A">100%</text><text x="20" y="155" font-family="sans-serif" font-size="11" fill="#7A7570">market-implied probability</text><path d="M 360.0,60.0 L 368.1,60.0 L 376.3,60.0 L 384.4,60.0 L 392.6,60.0 L 400.7,60.0 L 408.9,60.0 L 417.0,60.0 L 425.2,60.0 L 433.3,60.0 L 441.5,60.0 L 449.6,60.0 L 457.8,60.0 L 465.9,60.0 L 474.1,60.0 L 482.2,60.0 L 490.4,60.0 L 498.5,60.0 L 506.7,60.0 L 514.8,60.0 L 523.0,60.0 L 531.1,60.0 L 539.3,60.0 L 547.4,60.0 L 555.6,60.0 L 563.7,60.0 L 571.9,60.0 L 580.0,60.0" stroke="#A8312A" stroke-width="1.5" fill="none"/><line x1="20" y1="180" x2="580" y2="180" stroke="#0E0E0E33"/><text x="20" y="195" font-family="sans-serif" font-size="10" fill="#7A7570">Powered by RateRadar · rateradar-web.vercel.app</text></svg>