<svg xmlns="http://www.w3.org/2000/svg" viewBox="0 0 600 200" width="600" height="200" role="img" aria-label="RateRadar live odds for FED 2026-10-28"><rect width="600" height="200" fill="#F5F1E8"/><text x="20" y="30" font-family="sans-serif" font-size="11" letter-spacing="1.5" fill="#7A7570">FEDERAL RESERVE · OCT 28, 2026</text><text x="20" y="80" font-family="Georgia, serif" font-size="32" fill="#0E0E0E">Hold rates</text><text x="20" y="130" font-family="monospace" font-size="42" fill="#3E5640">77%</text><text x="20" y="155" font-family="sans-serif" font-size="11" fill="#7A7570">market-implied probability</text><path d="M 360.0,140.0 L 363.4,140.0 L 366.8,140.0 L 370.2,140.0 L 373.5,140.0 L 376.9,140.0 L 380.3,140.0 L 383.7,140.0 L 387.1,140.0 L 390.5,140.0 L 393.8,140.0 L 397.2,140.0 L 400.6,140.0 L 404.0,140.0 L 407.4,140.0 L 410.8,140.0 L 414.2,140.0 L 417.5,140.0 L 420.9,140.0 L 424.3,140.0 L 427.7,140.0 L 431.1,140.0 L 434.5,140.0 L 437.8,140.0 L 441.2,140.0 L 444.6,140.0 L 448.0,140.0 L 451.4,140.0 L 454.8,140.0 L 458.2,140.0 L 461.5,140.0 L 464.9,70.1 L 468.3,70.1 L 471.7,71.7 L 475.1,71.7 L 478.5,70.3 L 481.8,73.7 L 485.2,77.6 L 488.6,72.6 L 492.0,75.8 L 495.4,73.9 L 498.8,72.6 L 502.2,74.2 L 505.5,74.4 L 508.9,77.6 L 512.3,66.6 L 515.7,65.0 L 519.1,68.2 L 522.5,68.2 L 525.8,70.1 L 529.2,66.6 L 532.6,66.6 L 536.0,71.7 L 539.4,79.9 L 542.8,79.7 L 546.2,79.7 L 549.5,78.1 L 552.9,82.6 L 556.3,82.6 L 559.7,82.4 L 563.1,79.0 L 566.5,77.8 L 569.8,81.0 L 573.2,74.6 L 576.6,79.9 L 580.0,78.3" stroke="#3E5640" stroke-width="1.5" fill="none"/><line x1="20" y1="180" x2="580" y2="180" stroke="#0E0E0E33"/><text x="20" y="195" font-family="sans-serif" font-size="10" fill="#7A7570">Powered by RateRadar · rateradar-web.vercel.app</text></svg>