<svg xmlns="http://www.w3.org/2000/svg" viewBox="0 0 600 200" width="600" height="200" role="img" aria-label="RateRadar live odds for FED 2026-10-28"><rect width="600" height="200" fill="#F5F1E8"/><text x="20" y="30" font-family="sans-serif" font-size="11" letter-spacing="1.5" fill="#7A7570">FEDERAL RESERVE · OCT 28, 2026</text><text x="20" y="80" font-family="Georgia, serif" font-size="32" fill="#0E0E0E">Hold rates</text><text x="20" y="130" font-family="monospace" font-size="42" fill="#3E5640">75%</text><text x="20" y="155" font-family="sans-serif" font-size="11" fill="#7A7570">market-implied probability</text><path d="M 360.0,140.0 L 362.2,140.0 L 364.5,140.0 L 366.7,140.0 L 369.0,140.0 L 371.2,140.0 L 373.5,140.0 L 375.7,140.0 L 378.0,140.0 L 380.2,140.0 L 382.4,140.0 L 384.7,140.0 L 386.9,140.0 L 389.2,140.0 L 391.4,140.0 L 393.7,140.0 L 395.9,140.0 L 398.2,140.0 L 400.4,140.0 L 402.7,140.0 L 404.9,140.0 L 407.1,140.0 L 409.4,140.0 L 411.6,140.0 L 413.9,140.0 L 416.1,140.0 L 418.4,140.0 L 420.6,140.0 L 422.9,140.0 L 425.1,140.0 L 427.3,140.0 L 429.6,70.1 L 431.8,70.1 L 434.1,71.7 L 436.3,71.7 L 438.6,70.3 L 440.8,73.7 L 443.1,77.6 L 445.3,72.6 L 447.6,75.8 L 449.8,73.9 L 452.0,72.6 L 454.3,74.2 L 456.5,74.4 L 458.8,77.6 L 461.0,66.6 L 463.3,65.0 L 465.5,68.2 L 467.8,68.2 L 470.0,70.1 L 472.2,66.6 L 474.5,66.6 L 476.7,71.7 L 479.0,79.9 L 481.2,79.7 L 483.5,79.7 L 485.7,78.1 L 488.0,82.6 L 490.2,82.6 L 492.4,82.4 L 494.7,79.0 L 496.9,77.8 L 499.2,81.0 L 501.4,74.6 L 503.7,79.9 L 505.9,78.3 L 508.2,76.5 L 510.4,71.9 L 512.7,75.1 L 514.9,75.1 L 517.1,76.7 L 519.4,78.1 L 521.6,77.8 L 523.9,78.1 L 526.1,79.7 L 528.4,76.9 L 530.6,76.9 L 532.9,76.9 L 535.1,76.9 L 537.3,80.6 L 539.6,75.3 L 541.8,79.9 L 544.1,78.3 L 546.3,79.7 L 548.6,82.9 L 550.8,76.5 L 553.1,76.5 L 555.3,79.7 L 557.6,79.7 L 559.8,84.2 L 562.0,82.6 L 564.3,74.9 L 566.5,74.9 L 568.8,77.1 L 571.0,75.1 L 573.3,74.9 L 575.5,76.9 L 577.8,79.7 L 580.0,79.7" stroke="#3E5640" stroke-width="1.5" fill="none"/><line x1="20" y1="180" x2="580" y2="180" stroke="#0E0E0E33"/><text x="20" y="195" font-family="sans-serif" font-size="10" fill="#7A7570">Powered by RateRadar · rateradar-web.vercel.app</text></svg>