<svg xmlns="http://www.w3.org/2000/svg" viewBox="0 0 600 200" width="600" height="200" role="img" aria-label="RateRadar live odds for FED 2026-12-09"><rect width="600" height="200" fill="#F5F1E8"/><text x="20" y="30" font-family="sans-serif" font-size="11" letter-spacing="1.5" fill="#7A7570">FEDERAL RESERVE · DEC 09, 2026</text><text x="20" y="80" font-family="Georgia, serif" font-size="32" fill="#0E0E0E">Hold rates</text><text x="20" y="130" font-family="monospace" font-size="42" fill="#3E5640">62%</text><text x="20" y="155" font-family="sans-serif" font-size="11" fill="#7A7570">market-implied probability</text><path d="M 360.0,140.0 L 362.8,140.0 L 365.6,140.0 L 368.5,140.0 L 371.3,140.0 L 374.1,140.0 L 376.9,140.0 L 379.7,140.0 L 382.6,140.0 L 385.4,140.0 L 388.2,140.0 L 391.0,140.0 L 393.8,140.0 L 396.7,140.0 L 399.5,140.0 L 402.3,140.0 L 405.1,140.0 L 407.9,140.0 L 410.8,140.0 L 413.6,140.0 L 416.4,140.0 L 419.2,140.0 L 422.1,140.0 L 424.9,140.0 L 427.7,140.0 L 430.5,140.0 L 433.3,140.0 L 436.2,140.0 L 439.0,140.0 L 441.8,140.0 L 444.6,140.0 L 447.4,85.6 L 450.3,87.2 L 453.1,87.2 L 455.9,85.6 L 458.7,82.4 L 461.5,82.4 L 464.4,95.2 L 467.2,93.6 L 470.0,95.2 L 472.8,95.2 L 475.6,90.4 L 478.5,88.8 L 481.3,93.6 L 484.1,93.6 L 486.9,85.6 L 489.7,87.2 L 492.6,90.4 L 495.4,88.8 L 498.2,87.2 L 501.0,88.8 L 503.8,90.4 L 506.7,88.8 L 509.5,100.0 L 512.3,100.0 L 515.1,95.2 L 517.9,92.0 L 520.8,95.2 L 523.6,95.2 L 526.4,95.2 L 529.2,92.0 L 532.1,88.8 L 534.9,88.8 L 537.7,87.2 L 540.5,88.8 L 543.3,87.2 L 546.2,88.8 L 549.0,85.6 L 551.8,85.6 L 554.6,87.2 L 557.4,87.2 L 560.3,90.4 L 563.1,90.4 L 565.9,93.6 L 568.7,93.6 L 571.5,92.0 L 574.4,92.0 L 577.2,90.4 L 580.0,90.4" stroke="#3E5640" stroke-width="1.5" fill="none"/><line x1="20" y1="180" x2="580" y2="180" stroke="#0E0E0E33"/><text x="20" y="195" font-family="sans-serif" font-size="10" fill="#7A7570">Powered by RateRadar · rateradar-web.vercel.app</text></svg>