<svg xmlns="http://www.w3.org/2000/svg" viewBox="0 0 600 200" width="600" height="200" role="img" aria-label="RateRadar live odds for FED 2026-07-29"><rect width="600" height="200" fill="#F5F1E8"/><text x="20" y="30" font-family="sans-serif" font-size="11" letter-spacing="1.5" fill="#7A7570">FEDERAL RESERVE · JUL 29, 2026</text><text x="20" y="80" font-family="Georgia, serif" font-size="32" fill="#0E0E0E">Hold rates</text><text x="20" y="130" font-family="monospace" font-size="42" fill="#3E5640">68%</text><text x="20" y="155" font-family="sans-serif" font-size="11" fill="#7A7570">market-implied probability</text><path d="M 360.0,140.0 L 363.2,140.0 L 366.4,140.0 L 369.6,140.0 L 372.8,140.0 L 375.9,140.0 L 379.1,140.0 L 382.3,140.0 L 385.5,140.0 L 388.7,140.0 L 391.9,140.0 L 395.1,140.0 L 398.3,140.0 L 401.4,140.0 L 404.6,140.0 L 407.8,140.0 L 411.0,140.0 L 414.2,140.0 L 417.4,140.0 L 420.6,140.0 L 423.8,140.0 L 427.0,140.0 L 430.1,140.0 L 433.3,140.0 L 436.5,140.0 L 439.7,140.0 L 442.9,140.0 L 446.1,140.0 L 449.3,140.0 L 452.5,140.0 L 455.7,140.0 L 458.8,68.2 L 462.0,68.2 L 465.2,69.8 L 468.4,68.2 L 471.6,70.1 L 474.8,68.5 L 478.0,73.3 L 481.2,73.3 L 484.3,73.0 L 487.5,73.0 L 490.7,71.4 L 493.9,71.4 L 497.1,71.4 L 500.3,73.0 L 503.5,66.6 L 506.7,70.1 L 509.9,70.1 L 513.0,68.2 L 516.2,68.0 L 519.4,69.8 L 522.6,71.4 L 525.8,69.8 L 529.0,93.6 L 532.2,87.0 L 535.4,92.0 L 538.6,93.4 L 541.7,93.4 L 544.9,93.4 L 548.1,90.2 L 551.3,90.2 L 554.5,90.2 L 557.7,90.4 L 560.9,87.0 L 564.1,88.6 L 567.2,87.2 L 570.4,85.6 L 573.6,84.0 L 576.8,84.0 L 580.0,85.6" stroke="#3E5640" stroke-width="1.5" fill="none"/><line x1="20" y1="180" x2="580" y2="180" stroke="#0E0E0E33"/><text x="20" y="195" font-family="sans-serif" font-size="10" fill="#7A7570">Powered by RateRadar · rateradar-web.vercel.app</text></svg>