<svg xmlns="http://www.w3.org/2000/svg" viewBox="0 0 600 200" width="600" height="200" role="img" aria-label="RateRadar live odds for FED 2026-10-28"><rect width="600" height="200" fill="#F5F1E8"/><text x="20" y="30" font-family="sans-serif" font-size="11" letter-spacing="1.5" fill="#7A7570">FEDERAL RESERVE · OCT 28, 2026</text><text x="20" y="80" font-family="Georgia, serif" font-size="32" fill="#0E0E0E">Hold rates</text><text x="20" y="130" font-family="monospace" font-size="42" fill="#3E5640">82%</text><text x="20" y="155" font-family="sans-serif" font-size="11" fill="#7A7570">market-implied probability</text><path d="M 360.0,140.0 L 363.5,140.0 L 367.0,140.0 L 370.5,140.0 L 374.0,140.0 L 377.5,140.0 L 381.0,140.0 L 384.4,140.0 L 387.9,140.0 L 391.4,140.0 L 394.9,140.0 L 398.4,140.0 L 401.9,140.0 L 405.4,140.0 L 408.9,140.0 L 412.4,140.0 L 415.9,140.0 L 419.4,140.0 L 422.9,140.0 L 426.3,140.0 L 429.8,140.0 L 433.3,140.0 L 436.8,140.0 L 440.3,140.0 L 443.8,140.0 L 447.3,140.0 L 450.8,140.0 L 454.3,140.0 L 457.8,140.0 L 461.3,140.0 L 464.8,140.0 L 468.3,70.1 L 471.7,70.1 L 475.2,71.7 L 478.7,71.7 L 482.2,70.3 L 485.7,73.7 L 489.2,77.6 L 492.7,72.6 L 496.2,75.8 L 499.7,73.9 L 503.2,72.6 L 506.7,74.2 L 510.2,74.4 L 513.7,77.6 L 517.1,66.6 L 520.6,65.0 L 524.1,68.2 L 527.6,68.2 L 531.1,70.1 L 534.6,66.6 L 538.1,66.6 L 541.6,71.7 L 545.1,79.9 L 548.6,79.7 L 552.1,79.7 L 555.6,78.1 L 559.0,82.6 L 562.5,82.6 L 566.0,82.4 L 569.5,79.0 L 573.0,77.8 L 576.5,81.0 L 580.0,74.6" stroke="#3E5640" stroke-width="1.5" fill="none"/><line x1="20" y1="180" x2="580" y2="180" stroke="#0E0E0E33"/><text x="20" y="195" font-family="sans-serif" font-size="10" fill="#7A7570">Powered by RateRadar · rateradar-web.vercel.app</text></svg>