<svg xmlns="http://www.w3.org/2000/svg" viewBox="0 0 600 200" width="600" height="200" role="img" aria-label="RateRadar live odds for FED 2026-09-16"><rect width="600" height="200" fill="#F5F1E8"/><text x="20" y="30" font-family="sans-serif" font-size="11" letter-spacing="1.5" fill="#7A7570">FEDERAL RESERVE · SEP 16, 2026</text><text x="20" y="80" font-family="Georgia, serif" font-size="32" fill="#0E0E0E">Hold rates</text><text x="20" y="130" font-family="monospace" font-size="42" fill="#3E5640">53%</text><text x="20" y="155" font-family="sans-serif" font-size="11" fill="#7A7570">market-implied probability</text><path d="M 360.0,140.0 L 363.3,140.0 L 366.6,140.0 L 369.9,140.0 L 373.1,140.0 L 376.4,140.0 L 379.7,140.0 L 383.0,140.0 L 386.3,140.0 L 389.6,140.0 L 392.8,140.0 L 396.1,140.0 L 399.4,140.0 L 402.7,140.0 L 406.0,140.0 L 409.3,140.0 L 412.5,140.0 L 415.8,140.0 L 419.1,140.0 L 422.4,140.0 L 425.7,140.0 L 429.0,140.0 L 432.2,140.0 L 435.5,140.0 L 438.8,140.0 L 442.1,140.0 L 445.4,140.0 L 448.7,140.0 L 451.9,140.0 L 455.2,140.0 L 458.5,140.0 L 461.8,77.1 L 465.1,77.1 L 468.4,77.1 L 471.6,77.1 L 474.9,73.7 L 478.2,70.3 L 481.5,84.0 L 484.8,87.4 L 488.1,87.4 L 491.3,90.9 L 494.6,87.4 L 497.9,87.4 L 501.2,84.0 L 504.5,84.0 L 507.8,80.6 L 511.0,80.6 L 514.3,80.6 L 517.6,80.6 L 520.9,77.1 L 524.2,80.6 L 527.5,80.6 L 530.7,77.1 L 534.0,97.7 L 537.3,101.1 L 540.6,101.1 L 543.9,101.1 L 547.2,104.6 L 550.4,104.6 L 553.7,108.0 L 557.0,111.4 L 560.3,104.6 L 563.6,104.6 L 566.9,104.6 L 570.1,97.7 L 573.4,97.7 L 576.7,101.1 L 580.0,97.7" stroke="#3E5640" stroke-width="1.5" fill="none"/><line x1="20" y1="180" x2="580" y2="180" stroke="#0E0E0E33"/><text x="20" y="195" font-family="sans-serif" font-size="10" fill="#7A7570">Powered by RateRadar · rateradar-web.vercel.app</text></svg>