<svg xmlns="http://www.w3.org/2000/svg" viewBox="0 0 600 200" width="600" height="200" role="img" aria-label="RateRadar live odds for FED 2026-10-28"><rect width="600" height="200" fill="#F5F1E8"/><text x="20" y="30" font-family="sans-serif" font-size="11" letter-spacing="1.5" fill="#7A7570">FEDERAL RESERVE · OCT 28, 2026</text><text x="20" y="80" font-family="Georgia, serif" font-size="32" fill="#0E0E0E">Hold rates</text><text x="20" y="130" font-family="monospace" font-size="42" fill="#3E5640">72%</text><text x="20" y="155" font-family="sans-serif" font-size="11" fill="#7A7570">market-implied probability</text><path d="M 360.0,140.0 L 362.2,140.0 L 364.3,140.0 L 366.5,140.0 L 368.6,140.0 L 370.8,140.0 L 372.9,140.0 L 375.1,140.0 L 377.3,140.0 L 379.4,140.0 L 381.6,140.0 L 383.7,140.0 L 385.9,140.0 L 388.0,140.0 L 390.2,140.0 L 392.4,140.0 L 394.5,140.0 L 396.7,140.0 L 398.8,140.0 L 401.0,140.0 L 403.1,140.0 L 405.3,140.0 L 407.5,140.0 L 409.6,140.0 L 411.8,140.0 L 413.9,140.0 L 416.1,140.0 L 418.2,140.0 L 420.4,140.0 L 422.5,140.0 L 424.7,140.0 L 426.9,70.1 L 429.0,70.1 L 431.2,71.7 L 433.3,71.7 L 435.5,70.3 L 437.6,73.7 L 439.8,77.6 L 442.0,72.6 L 444.1,75.8 L 446.3,73.9 L 448.4,72.6 L 450.6,74.2 L 452.7,74.4 L 454.9,77.6 L 457.1,66.6 L 459.2,65.0 L 461.4,68.2 L 463.5,68.2 L 465.7,70.1 L 467.8,66.6 L 470.0,66.6 L 472.2,71.7 L 474.3,79.9 L 476.5,79.7 L 478.6,79.7 L 480.8,78.1 L 482.9,82.6 L 485.1,82.6 L 487.3,82.4 L 489.4,79.0 L 491.6,77.8 L 493.7,81.0 L 495.9,74.6 L 498.0,79.9 L 500.2,78.3 L 502.4,76.5 L 504.5,71.9 L 506.7,75.1 L 508.8,75.1 L 511.0,76.7 L 513.1,78.1 L 515.3,77.8 L 517.5,78.1 L 519.6,79.7 L 521.8,76.9 L 523.9,76.9 L 526.1,76.9 L 528.2,76.9 L 530.4,80.6 L 532.5,75.3 L 534.7,79.9 L 536.9,78.3 L 539.0,79.7 L 541.2,82.9 L 543.3,76.5 L 545.5,76.5 L 547.6,79.7 L 549.8,79.7 L 552.0,84.2 L 554.1,82.6 L 556.3,74.9 L 558.4,74.9 L 560.6,77.1 L 562.7,75.1 L 564.9,74.9 L 567.1,76.9 L 569.2,79.7 L 571.4,79.7 L 573.5,84.5 L 575.7,82.9 L 577.8,84.0 L 580.0,82.4" stroke="#3E5640" stroke-width="1.5" fill="none"/><line x1="20" y1="180" x2="580" y2="180" stroke="#0E0E0E33"/><text x="20" y="195" font-family="sans-serif" font-size="10" fill="#7A7570">Powered by RateRadar · rateradar-web.vercel.app</text></svg>