<svg xmlns="http://www.w3.org/2000/svg" viewBox="0 0 600 200" width="600" height="200" role="img" aria-label="RateRadar live odds for FED 2026-06-17"><rect width="600" height="200" fill="#F5F1E8"/><text x="20" y="30" font-family="sans-serif" font-size="11" letter-spacing="1.5" fill="#7A7570">FEDERAL RESERVE · JUN 17, 2026</text><text x="20" y="80" font-family="Georgia, serif" font-size="32" fill="#0E0E0E">Hold rates</text><text x="20" y="130" font-family="monospace" font-size="42" fill="#3E5640">95%</text><text x="20" y="155" font-family="sans-serif" font-size="11" fill="#7A7570">market-implied probability</text><path d="M 360.0,104.3 L 365.8,104.3 L 371.6,104.3 L 377.4,104.3 L 383.2,104.3 L 388.9,104.3 L 394.7,104.3 L 400.5,104.3 L 406.3,104.3 L 412.1,104.3 L 417.9,104.3 L 423.7,104.3 L 429.5,104.3 L 435.3,104.3 L 441.1,104.3 L 446.8,104.3 L 452.6,104.3 L 458.4,104.3 L 464.2,104.3 L 470.0,104.3 L 475.8,104.3 L 481.6,104.3 L 487.4,104.3 L 493.2,104.3 L 498.9,104.3 L 504.7,104.3 L 510.5,104.3 L 516.3,104.3 L 522.1,104.3 L 527.9,104.3 L 533.7,104.3 L 539.5,61.8 L 545.3,61.8 L 551.1,61.8 L 556.8,61.8 L 562.6,63.7 L 568.4,63.7 L 574.2,63.7 L 580.0,63.7" stroke="#3E5640" stroke-width="1.5" fill="none"/><line x1="20" y1="180" x2="580" y2="180" stroke="#0E0E0E33"/><text x="20" y="195" font-family="sans-serif" font-size="10" fill="#7A7570">Powered by RateRadar · rateradar-web.vercel.app</text></svg>