<svg xmlns="http://www.w3.org/2000/svg" viewBox="0 0 600 200" width="600" height="200" role="img" aria-label="RateRadar live odds for FED 2026-09-16"><rect width="600" height="200" fill="#F5F1E8"/><text x="20" y="30" font-family="sans-serif" font-size="11" letter-spacing="1.5" fill="#7A7570">FEDERAL RESERVE · SEP 16, 2026</text><text x="20" y="80" font-family="Georgia, serif" font-size="32" fill="#0E0E0E">Move +25bp</text><text x="20" y="130" font-family="monospace" font-size="42" fill="#A8312A">51%</text><text x="20" y="155" font-family="sans-serif" font-size="11" fill="#7A7570">market-implied probability</text><path d="M 360.0,140.0 L 362.4,140.0 L 364.8,140.0 L 367.2,140.0 L 369.6,140.0 L 372.0,140.0 L 374.3,140.0 L 376.7,140.0 L 379.1,140.0 L 381.5,140.0 L 383.9,140.0 L 386.3,140.0 L 388.7,140.0 L 391.1,140.0 L 393.5,140.0 L 395.9,140.0 L 398.3,140.0 L 400.7,140.0 L 403.0,140.0 L 405.4,140.0 L 407.8,140.0 L 410.2,140.0 L 412.6,140.0 L 415.0,140.0 L 417.4,140.0 L 419.8,140.0 L 422.2,140.0 L 424.6,140.0 L 427.0,140.0 L 429.3,140.0 L 431.7,140.0 L 434.1,122.9 L 436.5,122.9 L 438.9,122.9 L 441.3,122.9 L 443.7,126.3 L 446.1,129.7 L 448.5,116.0 L 450.9,112.6 L 453.3,112.6 L 455.7,109.1 L 458.0,112.6 L 460.4,112.6 L 462.8,116.0 L 465.2,116.0 L 467.6,119.4 L 470.0,119.4 L 472.4,119.4 L 474.8,119.4 L 477.2,122.9 L 479.6,119.4 L 482.0,119.4 L 484.3,122.9 L 486.7,102.3 L 489.1,98.9 L 491.5,98.9 L 493.9,98.9 L 496.3,95.4 L 498.7,95.4 L 501.1,92.0 L 503.5,88.6 L 505.9,95.4 L 508.3,95.4 L 510.7,95.4 L 513.0,102.3 L 515.4,102.3 L 517.8,98.9 L 520.2,102.3 L 522.6,102.3 L 525.0,102.3 L 527.4,102.3 L 529.8,98.9 L 532.2,95.4 L 534.6,98.9 L 537.0,98.9 L 539.3,105.7 L 541.7,105.7 L 544.1,105.7 L 546.5,105.7 L 548.9,112.6 L 551.3,105.7 L 553.7,102.3 L 556.1,102.3 L 558.5,98.9 L 560.9,98.9 L 563.3,98.9 L 565.7,98.9 L 568.0,98.9 L 570.4,98.9 L 572.8,95.4 L 575.2,95.4 L 577.6,98.9 L 580.0,98.9" stroke="#A8312A" stroke-width="1.5" fill="none"/><line x1="20" y1="180" x2="580" y2="180" stroke="#0E0E0E33"/><text x="20" y="195" font-family="sans-serif" font-size="10" fill="#7A7570">Powered by RateRadar · rateradar-web.vercel.app</text></svg>