<svg xmlns="http://www.w3.org/2000/svg" viewBox="0 0 600 200" width="600" height="200" role="img" aria-label="RateRadar live odds for FED 2026-09-16"><rect width="600" height="200" fill="#F5F1E8"/><text x="20" y="30" font-family="sans-serif" font-size="11" letter-spacing="1.5" fill="#7A7570">FEDERAL RESERVE · SEP 16, 2026</text><text x="20" y="80" font-family="Georgia, serif" font-size="32" fill="#0E0E0E">Move +25bp</text><text x="20" y="130" font-family="monospace" font-size="42" fill="#A8312A">51%</text><text x="20" y="155" font-family="sans-serif" font-size="11" fill="#7A7570">market-implied probability</text><path d="M 360.0,140.0 L 362.2,140.0 L 364.4,140.0 L 366.7,140.0 L 368.9,140.0 L 371.1,140.0 L 373.3,140.0 L 375.6,140.0 L 377.8,140.0 L 380.0,140.0 L 382.2,140.0 L 384.4,140.0 L 386.7,140.0 L 388.9,140.0 L 391.1,140.0 L 393.3,140.0 L 395.6,140.0 L 397.8,140.0 L 400.0,140.0 L 402.2,140.0 L 404.4,140.0 L 406.7,140.0 L 408.9,140.0 L 411.1,140.0 L 413.3,140.0 L 415.6,140.0 L 417.8,140.0 L 420.0,140.0 L 422.2,140.0 L 424.4,140.0 L 426.7,140.0 L 428.9,122.9 L 431.1,122.9 L 433.3,122.9 L 435.6,122.9 L 437.8,126.3 L 440.0,129.7 L 442.2,116.0 L 444.4,112.6 L 446.7,112.6 L 448.9,109.1 L 451.1,112.6 L 453.3,112.6 L 455.6,116.0 L 457.8,116.0 L 460.0,119.4 L 462.2,119.4 L 464.4,119.4 L 466.7,119.4 L 468.9,122.9 L 471.1,119.4 L 473.3,119.4 L 475.6,122.9 L 477.8,102.3 L 480.0,98.9 L 482.2,98.9 L 484.4,98.9 L 486.7,95.4 L 488.9,95.4 L 491.1,92.0 L 493.3,88.6 L 495.6,95.4 L 497.8,95.4 L 500.0,95.4 L 502.2,102.3 L 504.4,102.3 L 506.7,98.9 L 508.9,102.3 L 511.1,102.3 L 513.3,102.3 L 515.6,102.3 L 517.8,98.9 L 520.0,95.4 L 522.2,98.9 L 524.4,98.9 L 526.7,105.7 L 528.9,105.7 L 531.1,105.7 L 533.3,105.7 L 535.6,112.6 L 537.8,105.7 L 540.0,102.3 L 542.2,102.3 L 544.4,98.9 L 546.7,98.9 L 548.9,98.9 L 551.1,98.9 L 553.3,98.9 L 555.6,98.9 L 557.8,95.4 L 560.0,95.4 L 562.2,98.9 L 564.4,98.9 L 566.7,109.1 L 568.9,102.3 L 571.1,98.9 L 573.3,105.7 L 575.6,98.9 L 577.8,98.9 L 580.0,98.9" stroke="#A8312A" stroke-width="1.5" fill="none"/><line x1="20" y1="180" x2="580" y2="180" stroke="#0E0E0E33"/><text x="20" y="195" font-family="sans-serif" font-size="10" fill="#7A7570">Powered by RateRadar · rateradar-web.vercel.app</text></svg>