<svg xmlns="http://www.w3.org/2000/svg" viewBox="0 0 600 200" width="600" height="200" role="img" aria-label="RateRadar live odds for FED 2026-07-29"><rect width="600" height="200" fill="#F5F1E8"/><text x="20" y="30" font-family="sans-serif" font-size="11" letter-spacing="1.5" fill="#7A7570">FEDERAL RESERVE · JUL 29, 2026</text><text x="20" y="80" font-family="Georgia, serif" font-size="32" fill="#0E0E0E">Hold rates</text><text x="20" y="130" font-family="monospace" font-size="42" fill="#3E5640">76%</text><text x="20" y="155" font-family="sans-serif" font-size="11" fill="#7A7570">market-implied probability</text><path d="M 360.0,140.0 L 362.8,140.0 L 365.5,140.0 L 368.2,140.0 L 371.0,140.0 L 373.8,140.0 L 376.5,140.0 L 379.2,140.0 L 382.0,140.0 L 384.8,140.0 L 387.5,140.0 L 390.2,140.0 L 393.0,140.0 L 395.8,140.0 L 398.5,140.0 L 401.2,140.0 L 404.0,140.0 L 406.8,140.0 L 409.5,140.0 L 412.2,140.0 L 415.0,140.0 L 417.8,140.0 L 420.5,140.0 L 423.2,140.0 L 426.0,140.0 L 428.8,140.0 L 431.5,140.0 L 434.2,140.0 L 437.0,140.0 L 439.8,140.0 L 442.5,140.0 L 445.2,68.2 L 448.0,68.2 L 450.8,69.8 L 453.5,68.2 L 456.2,70.1 L 459.0,68.5 L 461.8,73.3 L 464.5,73.3 L 467.2,73.0 L 470.0,73.0 L 472.8,71.4 L 475.5,71.4 L 478.2,71.4 L 481.0,73.0 L 483.8,66.6 L 486.5,70.1 L 489.2,70.1 L 492.0,68.2 L 494.8,68.0 L 497.5,69.8 L 500.2,71.4 L 503.0,69.8 L 505.8,93.6 L 508.5,87.0 L 511.2,92.0 L 514.0,93.4 L 516.8,93.4 L 519.5,93.4 L 522.2,90.2 L 525.0,90.2 L 527.8,90.2 L 530.5,90.4 L 533.2,87.0 L 536.0,88.6 L 538.8,87.2 L 541.5,85.6 L 544.2,84.0 L 547.0,84.0 L 549.8,85.6 L 552.5,85.6 L 555.2,87.2 L 558.0,87.2 L 560.8,84.0 L 563.5,84.0 L 566.2,76.0 L 569.0,76.0 L 571.8,79.2 L 574.5,79.2 L 577.2,82.4 L 580.0,79.2" stroke="#3E5640" stroke-width="1.5" fill="none"/><line x1="20" y1="180" x2="580" y2="180" stroke="#0E0E0E33"/><text x="20" y="195" font-family="sans-serif" font-size="10" fill="#7A7570">Powered by RateRadar · rateradar-web.vercel.app</text></svg>