<svg xmlns="http://www.w3.org/2000/svg" viewBox="0 0 600 200" width="600" height="200" role="img" aria-label="RateRadar live odds for FED 2026-07-29"><rect width="600" height="200" fill="#F5F1E8"/><text x="20" y="30" font-family="sans-serif" font-size="11" letter-spacing="1.5" fill="#7A7570">FEDERAL RESERVE · JUL 29, 2026</text><text x="20" y="80" font-family="Georgia, serif" font-size="32" fill="#0E0E0E">Hold rates</text><text x="20" y="130" font-family="monospace" font-size="42" fill="#3E5640">72%</text><text x="20" y="155" font-family="sans-serif" font-size="11" fill="#7A7570">market-implied probability</text><path d="M 360.0,140.0 L 362.8,140.0 L 365.6,140.0 L 368.4,140.0 L 371.1,140.0 L 373.9,140.0 L 376.7,140.0 L 379.5,140.0 L 382.3,140.0 L 385.1,140.0 L 387.8,140.0 L 390.6,140.0 L 393.4,140.0 L 396.2,140.0 L 399.0,140.0 L 401.8,140.0 L 404.6,140.0 L 407.3,140.0 L 410.1,140.0 L 412.9,140.0 L 415.7,140.0 L 418.5,140.0 L 421.3,140.0 L 424.1,140.0 L 426.8,140.0 L 429.6,140.0 L 432.4,140.0 L 435.2,140.0 L 438.0,140.0 L 440.8,140.0 L 443.5,140.0 L 446.3,68.2 L 449.1,68.2 L 451.9,69.8 L 454.7,68.2 L 457.5,70.1 L 460.3,68.5 L 463.0,73.3 L 465.8,73.3 L 468.6,73.0 L 471.4,73.0 L 474.2,71.4 L 477.0,71.4 L 479.7,71.4 L 482.5,73.0 L 485.3,66.6 L 488.1,70.1 L 490.9,70.1 L 493.7,68.2 L 496.5,68.0 L 499.2,69.8 L 502.0,71.4 L 504.8,69.8 L 507.6,93.6 L 510.4,87.0 L 513.2,92.0 L 515.9,93.4 L 518.7,93.4 L 521.5,93.4 L 524.3,90.2 L 527.1,90.2 L 529.9,90.2 L 532.7,90.4 L 535.4,87.0 L 538.2,88.6 L 541.0,87.2 L 543.8,85.6 L 546.6,84.0 L 549.4,84.0 L 552.2,85.6 L 554.9,85.6 L 557.7,87.2 L 560.5,87.2 L 563.3,84.0 L 566.1,84.0 L 568.9,76.0 L 571.6,76.0 L 574.4,79.2 L 577.2,79.2 L 580.0,82.4" stroke="#3E5640" stroke-width="1.5" fill="none"/><line x1="20" y1="180" x2="580" y2="180" stroke="#0E0E0E33"/><text x="20" y="195" font-family="sans-serif" font-size="10" fill="#7A7570">Powered by RateRadar · rateradar-web.vercel.app</text></svg>