<svg xmlns="http://www.w3.org/2000/svg" viewBox="0 0 600 200" width="600" height="200" role="img" aria-label="RateRadar live odds for FED 2026-06-17"><rect width="600" height="200" fill="#F5F1E8"/><text x="20" y="30" font-family="sans-serif" font-size="11" letter-spacing="1.5" fill="#7A7570">FEDERAL RESERVE · JUN 17, 2026</text><text x="20" y="80" font-family="Georgia, serif" font-size="32" fill="#0E0E0E">Hold rates</text><text x="20" y="130" font-family="monospace" font-size="42" fill="#3E5640">98%</text><text x="20" y="155" font-family="sans-serif" font-size="11" fill="#7A7570">market-implied probability</text><path d="M 360.0,104.3 L 364.2,104.3 L 368.5,104.3 L 372.7,104.3 L 376.9,104.3 L 381.2,104.3 L 385.4,104.3 L 389.6,104.3 L 393.8,104.3 L 398.1,104.3 L 402.3,104.3 L 406.5,104.3 L 410.8,104.3 L 415.0,104.3 L 419.2,104.3 L 423.5,104.3 L 427.7,104.3 L 431.9,104.3 L 436.2,104.3 L 440.4,104.3 L 444.6,104.3 L 448.8,104.3 L 453.1,104.3 L 457.3,104.3 L 461.5,104.3 L 465.8,104.3 L 470.0,104.3 L 474.2,104.3 L 478.5,104.3 L 482.7,104.3 L 486.9,104.3 L 491.2,61.8 L 495.4,61.8 L 499.6,61.8 L 503.8,61.8 L 508.1,63.7 L 512.3,63.7 L 516.5,63.7 L 520.8,63.7 L 525.0,61.8 L 529.2,61.8 L 533.5,61.8 L 537.7,61.8 L 541.9,61.8 L 546.2,61.8 L 550.4,61.8 L 554.6,63.7 L 558.8,63.7 L 563.1,61.8 L 567.3,60.0 L 571.5,61.8 L 575.8,61.8 L 580.0,61.8" stroke="#3E5640" stroke-width="1.5" fill="none"/><line x1="20" y1="180" x2="580" y2="180" stroke="#0E0E0E33"/><text x="20" y="195" font-family="sans-serif" font-size="10" fill="#7A7570">Powered by RateRadar · rateradar-web.vercel.app</text></svg>