<svg xmlns="http://www.w3.org/2000/svg" viewBox="0 0 600 200" width="600" height="200" role="img" aria-label="RateRadar live odds for FED 2026-09-16"><rect width="600" height="200" fill="#F5F1E8"/><text x="20" y="30" font-family="sans-serif" font-size="11" letter-spacing="1.5" fill="#7A7570">FEDERAL RESERVE · SEP 16, 2026</text><text x="20" y="80" font-family="Georgia, serif" font-size="32" fill="#0E0E0E">Hold rates</text><text x="20" y="130" font-family="monospace" font-size="42" fill="#3E5640">53%</text><text x="20" y="155" font-family="sans-serif" font-size="11" fill="#7A7570">market-implied probability</text><path d="M 360.0,140.0 L 364.2,140.0 L 368.3,140.0 L 372.5,140.0 L 376.6,140.0 L 380.8,140.0 L 384.9,140.0 L 389.1,140.0 L 393.2,140.0 L 397.4,140.0 L 401.5,140.0 L 405.7,140.0 L 409.8,140.0 L 414.0,140.0 L 418.1,140.0 L 422.3,140.0 L 426.4,140.0 L 430.6,140.0 L 434.7,140.0 L 438.9,140.0 L 443.0,140.0 L 447.2,140.0 L 451.3,140.0 L 455.5,140.0 L 459.6,140.0 L 463.8,140.0 L 467.9,140.0 L 472.1,140.0 L 476.2,140.0 L 480.4,140.0 L 484.5,140.0 L 488.7,77.1 L 492.8,77.1 L 497.0,77.1 L 501.1,77.1 L 505.3,73.7 L 509.4,70.3 L 513.6,84.0 L 517.7,87.4 L 521.9,87.4 L 526.0,90.9 L 530.2,87.4 L 534.3,87.4 L 538.5,84.0 L 542.6,84.0 L 546.8,80.6 L 550.9,80.6 L 555.1,80.6 L 559.2,80.6 L 563.4,77.1 L 567.5,80.6 L 571.7,80.6 L 575.8,77.1 L 580.0,97.7" stroke="#3E5640" stroke-width="1.5" fill="none"/><line x1="20" y1="180" x2="580" y2="180" stroke="#0E0E0E33"/><text x="20" y="195" font-family="sans-serif" font-size="10" fill="#7A7570">Powered by RateRadar · rateradar-web.vercel.app</text></svg>