<svg xmlns="http://www.w3.org/2000/svg" viewBox="0 0 600 200" width="600" height="200" role="img" aria-label="RateRadar live odds for FED 2026-12-09"><rect width="600" height="200" fill="#F5F1E8"/><text x="20" y="30" font-family="sans-serif" font-size="11" letter-spacing="1.5" fill="#7A7570">FEDERAL RESERVE · DEC 09, 2026</text><text x="20" y="80" font-family="Georgia, serif" font-size="32" fill="#0E0E0E">Hold rates</text><text x="20" y="130" font-family="monospace" font-size="42" fill="#3E5640">58%</text><text x="20" y="155" font-family="sans-serif" font-size="11" fill="#7A7570">market-implied probability</text><path d="M 360.0,140.0 L 362.5,140.0 L 364.9,140.0 L 367.4,140.0 L 369.9,140.0 L 372.4,140.0 L 374.8,140.0 L 377.3,140.0 L 379.8,140.0 L 382.2,140.0 L 384.7,140.0 L 387.2,140.0 L 389.7,140.0 L 392.1,140.0 L 394.6,140.0 L 397.1,140.0 L 399.6,140.0 L 402.0,140.0 L 404.5,140.0 L 407.0,140.0 L 409.4,140.0 L 411.9,140.0 L 414.4,140.0 L 416.9,140.0 L 419.3,140.0 L 421.8,140.0 L 424.3,140.0 L 426.7,140.0 L 429.2,140.0 L 431.7,140.0 L 434.2,140.0 L 436.6,85.6 L 439.1,87.2 L 441.6,87.2 L 444.0,85.6 L 446.5,82.4 L 449.0,82.4 L 451.5,95.2 L 453.9,93.6 L 456.4,95.2 L 458.9,95.2 L 461.3,90.4 L 463.8,88.8 L 466.3,93.6 L 468.8,93.6 L 471.2,85.6 L 473.7,87.2 L 476.2,90.4 L 478.7,88.8 L 481.1,87.2 L 483.6,88.8 L 486.1,90.4 L 488.5,88.8 L 491.0,100.0 L 493.5,100.0 L 496.0,95.2 L 498.4,92.0 L 500.9,95.2 L 503.4,95.2 L 505.8,95.2 L 508.3,92.0 L 510.8,88.8 L 513.3,88.8 L 515.7,87.2 L 518.2,88.8 L 520.7,87.2 L 523.1,88.8 L 525.6,85.6 L 528.1,85.6 L 530.6,87.2 L 533.0,87.2 L 535.5,90.4 L 538.0,90.4 L 540.4,93.6 L 542.9,93.6 L 545.4,92.0 L 547.9,92.0 L 550.3,90.4 L 552.8,90.4 L 555.3,85.6 L 557.8,87.2 L 560.2,90.4 L 562.7,93.6 L 565.2,92.0 L 567.6,93.6 L 570.1,90.4 L 572.6,92.0 L 575.1,92.0 L 577.5,92.0 L 580.0,93.6" stroke="#3E5640" stroke-width="1.5" fill="none"/><line x1="20" y1="180" x2="580" y2="180" stroke="#0E0E0E33"/><text x="20" y="195" font-family="sans-serif" font-size="10" fill="#7A7570">Powered by RateRadar · rateradar-web.vercel.app</text></svg>