<svg xmlns="http://www.w3.org/2000/svg" viewBox="0 0 600 200" width="600" height="200" role="img" aria-label="RateRadar live odds for FED 2026-12-09"><rect width="600" height="200" fill="#F5F1E8"/><text x="20" y="30" font-family="sans-serif" font-size="11" letter-spacing="1.5" fill="#7A7570">FEDERAL RESERVE · DEC 09, 2026</text><text x="20" y="80" font-family="Georgia, serif" font-size="32" fill="#0E0E0E">Hold rates</text><text x="20" y="130" font-family="monospace" font-size="42" fill="#3E5640">60%</text><text x="20" y="155" font-family="sans-serif" font-size="11" fill="#7A7570">market-implied probability</text><path d="M 360.0,140.0 L 362.9,140.0 L 365.8,140.0 L 368.7,140.0 L 371.6,140.0 L 374.5,140.0 L 377.4,140.0 L 380.3,140.0 L 383.2,140.0 L 386.1,140.0 L 388.9,140.0 L 391.8,140.0 L 394.7,140.0 L 397.6,140.0 L 400.5,140.0 L 403.4,140.0 L 406.3,140.0 L 409.2,140.0 L 412.1,140.0 L 415.0,140.0 L 417.9,140.0 L 420.8,140.0 L 423.7,140.0 L 426.6,140.0 L 429.5,140.0 L 432.4,140.0 L 435.3,140.0 L 438.2,140.0 L 441.1,140.0 L 443.9,140.0 L 446.8,140.0 L 449.7,85.6 L 452.6,87.2 L 455.5,87.2 L 458.4,85.6 L 461.3,82.4 L 464.2,82.4 L 467.1,95.2 L 470.0,93.6 L 472.9,95.2 L 475.8,95.2 L 478.7,90.4 L 481.6,88.8 L 484.5,93.6 L 487.4,93.6 L 490.3,85.6 L 493.2,87.2 L 496.1,90.4 L 498.9,88.8 L 501.8,87.2 L 504.7,88.8 L 507.6,90.4 L 510.5,88.8 L 513.4,100.0 L 516.3,100.0 L 519.2,95.2 L 522.1,92.0 L 525.0,95.2 L 527.9,95.2 L 530.8,95.2 L 533.7,92.0 L 536.6,88.8 L 539.5,88.8 L 542.4,87.2 L 545.3,88.8 L 548.2,87.2 L 551.1,88.8 L 553.9,85.6 L 556.8,85.6 L 559.7,87.2 L 562.6,87.2 L 565.5,90.4 L 568.4,90.4 L 571.3,93.6 L 574.2,93.6 L 577.1,92.0 L 580.0,92.0" stroke="#3E5640" stroke-width="1.5" fill="none"/><line x1="20" y1="180" x2="580" y2="180" stroke="#0E0E0E33"/><text x="20" y="195" font-family="sans-serif" font-size="10" fill="#7A7570">Powered by RateRadar · rateradar-web.vercel.app</text></svg>