<svg xmlns="http://www.w3.org/2000/svg" viewBox="0 0 600 200" width="600" height="200" role="img" aria-label="RateRadar live odds for FED 2026-09-16"><rect width="600" height="200" fill="#F5F1E8"/><text x="20" y="30" font-family="sans-serif" font-size="11" letter-spacing="1.5" fill="#7A7570">FEDERAL RESERVE · SEP 16, 2026</text><text x="20" y="80" font-family="Georgia, serif" font-size="32" fill="#0E0E0E">Move +50bp</text><text x="20" y="130" font-family="monospace" font-size="42" fill="#A8312A">100%</text><text x="20" y="155" font-family="sans-serif" font-size="11" fill="#7A7570">market-implied probability</text><path d="M 360.0,60.0 L 369.6,60.0 L 379.1,60.0 L 388.7,60.0 L 398.3,60.0 L 407.8,60.0 L 417.4,60.0 L 427.0,60.0 L 436.5,60.0 L 446.1,60.0 L 455.7,60.0 L 465.2,60.0 L 474.8,60.0 L 484.3,60.0 L 493.9,60.0 L 503.5,60.0 L 513.0,60.0 L 522.6,60.0 L 532.2,60.0 L 541.7,60.0 L 551.3,60.0 L 560.9,60.0 L 570.4,60.0 L 580.0,60.0" stroke="#A8312A" stroke-width="1.5" fill="none"/><line x1="20" y1="180" x2="580" y2="180" stroke="#0E0E0E33"/><text x="20" y="195" font-family="sans-serif" font-size="10" fill="#7A7570">Powered by RateRadar · rateradar-web.vercel.app</text></svg>