<svg xmlns="http://www.w3.org/2000/svg" viewBox="0 0 600 200" width="600" height="200" role="img" aria-label="RateRadar live odds for FED 2026-10-28"><rect width="600" height="200" fill="#F5F1E8"/><text x="20" y="30" font-family="sans-serif" font-size="11" letter-spacing="1.5" fill="#7A7570">FEDERAL RESERVE · OCT 28, 2026</text><text x="20" y="80" font-family="Georgia, serif" font-size="32" fill="#0E0E0E">Hold rates</text><text x="20" y="130" font-family="monospace" font-size="42" fill="#3E5640">92%</text><text x="20" y="155" font-family="sans-serif" font-size="11" fill="#7A7570">market-implied probability</text><path d="M 360.0,140.0 L 364.3,140.0 L 368.6,140.0 L 372.9,140.0 L 377.3,140.0 L 381.6,140.0 L 385.9,140.0 L 390.2,140.0 L 394.5,140.0 L 398.8,140.0 L 403.1,140.0 L 407.5,140.0 L 411.8,140.0 L 416.1,140.0 L 420.4,140.0 L 424.7,140.0 L 429.0,140.0 L 433.3,140.0 L 437.6,140.0 L 442.0,140.0 L 446.3,140.0 L 450.6,140.0 L 454.9,140.0 L 459.2,140.0 L 463.5,140.0 L 467.8,140.0 L 472.2,140.0 L 476.5,140.0 L 480.8,140.0 L 485.1,140.0 L 489.4,140.0 L 493.7,70.1 L 498.0,70.1 L 502.4,71.7 L 506.7,71.7 L 511.0,70.3 L 515.3,73.7 L 519.6,77.6 L 523.9,72.6 L 528.2,75.8 L 532.5,73.9 L 536.9,72.6 L 541.2,74.2 L 545.5,74.4 L 549.8,77.6 L 554.1,66.6 L 558.4,65.0 L 562.7,68.2 L 567.1,68.2 L 571.4,70.1 L 575.7,66.6 L 580.0,66.6" stroke="#3E5640" stroke-width="1.5" fill="none"/><line x1="20" y1="180" x2="580" y2="180" stroke="#0E0E0E33"/><text x="20" y="195" font-family="sans-serif" font-size="10" fill="#7A7570">Powered by RateRadar · rateradar-web.vercel.app</text></svg>