<svg xmlns="http://www.w3.org/2000/svg" viewBox="0 0 600 200" width="600" height="200" role="img" aria-label="RateRadar live odds for FED 2026-10-28"><rect width="600" height="200" fill="#F5F1E8"/><text x="20" y="30" font-family="sans-serif" font-size="11" letter-spacing="1.5" fill="#7A7570">FEDERAL RESERVE · OCT 28, 2026</text><text x="20" y="80" font-family="Georgia, serif" font-size="32" fill="#0E0E0E">Hold rates</text><text x="20" y="130" font-family="monospace" font-size="42" fill="#3E5640">75%</text><text x="20" y="155" font-family="sans-serif" font-size="11" fill="#7A7570">market-implied probability</text><path d="M 360.0,140.0 L 362.5,140.0 L 365.0,140.0 L 367.5,140.0 L 370.0,140.0 L 372.5,140.0 L 375.0,140.0 L 377.5,140.0 L 380.0,140.0 L 382.5,140.0 L 385.0,140.0 L 387.5,140.0 L 390.0,140.0 L 392.5,140.0 L 395.0,140.0 L 397.5,140.0 L 400.0,140.0 L 402.5,140.0 L 405.0,140.0 L 407.5,140.0 L 410.0,140.0 L 412.5,140.0 L 415.0,140.0 L 417.5,140.0 L 420.0,140.0 L 422.5,140.0 L 425.0,140.0 L 427.5,140.0 L 430.0,140.0 L 432.5,140.0 L 435.0,140.0 L 437.5,70.1 L 440.0,70.1 L 442.5,71.7 L 445.0,71.7 L 447.5,70.3 L 450.0,73.7 L 452.5,77.6 L 455.0,72.6 L 457.5,75.8 L 460.0,73.9 L 462.5,72.6 L 465.0,74.2 L 467.5,74.4 L 470.0,77.6 L 472.5,66.6 L 475.0,65.0 L 477.5,68.2 L 480.0,68.2 L 482.5,70.1 L 485.0,66.6 L 487.5,66.6 L 490.0,71.7 L 492.5,79.9 L 495.0,79.7 L 497.5,79.7 L 500.0,78.1 L 502.5,82.6 L 505.0,82.6 L 507.5,82.4 L 510.0,79.0 L 512.5,77.8 L 515.0,81.0 L 517.5,74.6 L 520.0,79.9 L 522.5,78.3 L 525.0,76.5 L 527.5,71.9 L 530.0,75.1 L 532.5,75.1 L 535.0,76.7 L 537.5,78.1 L 540.0,77.8 L 542.5,78.1 L 545.0,79.7 L 547.5,76.9 L 550.0,76.9 L 552.5,76.9 L 555.0,76.9 L 557.5,80.6 L 560.0,75.3 L 562.5,79.9 L 565.0,78.3 L 567.5,79.7 L 570.0,82.9 L 572.5,76.5 L 575.0,76.5 L 577.5,79.7 L 580.0,79.7" stroke="#3E5640" stroke-width="1.5" fill="none"/><line x1="20" y1="180" x2="580" y2="180" stroke="#0E0E0E33"/><text x="20" y="195" font-family="sans-serif" font-size="10" fill="#7A7570">Powered by RateRadar · rateradar-web.vercel.app</text></svg>