<svg xmlns="http://www.w3.org/2000/svg" viewBox="0 0 600 200" width="600" height="200" role="img" aria-label="RateRadar live odds for FED 2026-06-17"><rect width="600" height="200" fill="#F5F1E8"/><text x="20" y="30" font-family="sans-serif" font-size="11" letter-spacing="1.5" fill="#7A7570">FEDERAL RESERVE · JUN 17, 2026</text><text x="20" y="80" font-family="Georgia, serif" font-size="32" fill="#0E0E0E">Hold rates</text><text x="20" y="130" font-family="monospace" font-size="42" fill="#3E5640">98%</text><text x="20" y="155" font-family="sans-serif" font-size="11" fill="#7A7570">market-implied probability</text><path d="M 360.0,104.3 L 364.3,104.3 L 368.6,104.3 L 372.9,104.3 L 377.3,104.3 L 381.6,104.3 L 385.9,104.3 L 390.2,104.3 L 394.5,104.3 L 398.8,104.3 L 403.1,104.3 L 407.5,104.3 L 411.8,104.3 L 416.1,104.3 L 420.4,104.3 L 424.7,104.3 L 429.0,104.3 L 433.3,104.3 L 437.6,104.3 L 442.0,104.3 L 446.3,104.3 L 450.6,104.3 L 454.9,104.3 L 459.2,104.3 L 463.5,104.3 L 467.8,104.3 L 472.2,104.3 L 476.5,104.3 L 480.8,104.3 L 485.1,104.3 L 489.4,104.3 L 493.7,61.8 L 498.0,61.8 L 502.4,61.8 L 506.7,61.8 L 511.0,63.7 L 515.3,63.7 L 519.6,63.7 L 523.9,63.7 L 528.2,61.8 L 532.5,61.8 L 536.9,61.8 L 541.2,61.8 L 545.5,61.8 L 549.8,61.8 L 554.1,61.8 L 558.4,63.7 L 562.7,63.7 L 567.1,61.8 L 571.4,60.0 L 575.7,61.8 L 580.0,61.8" stroke="#3E5640" stroke-width="1.5" fill="none"/><line x1="20" y1="180" x2="580" y2="180" stroke="#0E0E0E33"/><text x="20" y="195" font-family="sans-serif" font-size="10" fill="#7A7570">Powered by RateRadar · rateradar-web.vercel.app</text></svg>