<svg xmlns="http://www.w3.org/2000/svg" viewBox="0 0 600 200" width="600" height="200" role="img" aria-label="RateRadar live odds for FED 2026-09-16"><rect width="600" height="200" fill="#F5F1E8"/><text x="20" y="30" font-family="sans-serif" font-size="11" letter-spacing="1.5" fill="#7A7570">FEDERAL RESERVE · SEP 16, 2026</text><text x="20" y="80" font-family="Georgia, serif" font-size="32" fill="#0E0E0E">Move +25bp</text><text x="20" y="130" font-family="monospace" font-size="42" fill="#A8312A">56%</text><text x="20" y="155" font-family="sans-serif" font-size="11" fill="#7A7570">market-implied probability</text><path d="M 360.0,140.0 L 363.8,140.0 L 367.6,140.0 L 371.4,140.0 L 375.2,140.0 L 379.0,140.0 L 382.8,140.0 L 386.6,140.0 L 390.3,140.0 L 394.1,140.0 L 397.9,140.0 L 401.7,140.0 L 405.5,140.0 L 409.3,140.0 L 413.1,140.0 L 416.9,140.0 L 420.7,140.0 L 424.5,140.0 L 428.3,140.0 L 432.1,140.0 L 435.9,140.0 L 439.7,140.0 L 443.4,140.0 L 447.2,140.0 L 451.0,140.0 L 454.8,140.0 L 458.6,140.0 L 462.4,140.0 L 466.2,140.0 L 470.0,140.0 L 473.8,140.0 L 477.6,122.9 L 481.4,122.9 L 485.2,122.9 L 489.0,122.9 L 492.8,126.3 L 496.6,129.7 L 500.3,116.0 L 504.1,112.6 L 507.9,112.6 L 511.7,109.1 L 515.5,112.6 L 519.3,112.6 L 523.1,116.0 L 526.9,116.0 L 530.7,119.4 L 534.5,119.4 L 538.3,119.4 L 542.1,119.4 L 545.9,122.9 L 549.7,119.4 L 553.4,119.4 L 557.2,122.9 L 561.0,102.3 L 564.8,98.9 L 568.6,98.9 L 572.4,98.9 L 576.2,95.4 L 580.0,95.4" stroke="#A8312A" stroke-width="1.5" fill="none"/><line x1="20" y1="180" x2="580" y2="180" stroke="#0E0E0E33"/><text x="20" y="195" font-family="sans-serif" font-size="10" fill="#7A7570">Powered by RateRadar · rateradar-web.vercel.app</text></svg>