<svg xmlns="http://www.w3.org/2000/svg" viewBox="0 0 600 200" width="600" height="200" role="img" aria-label="RateRadar live odds for FED 2026-12-09"><rect width="600" height="200" fill="#F5F1E8"/><text x="20" y="30" font-family="sans-serif" font-size="11" letter-spacing="1.5" fill="#7A7570">FEDERAL RESERVE · DEC 09, 2026</text><text x="20" y="80" font-family="Georgia, serif" font-size="32" fill="#0E0E0E">Hold rates</text><text x="20" y="130" font-family="monospace" font-size="42" fill="#3E5640">68%</text><text x="20" y="155" font-family="sans-serif" font-size="11" fill="#7A7570">market-implied probability</text><path d="M 360.0,140.0 L 363.2,140.0 L 366.5,140.0 L 369.7,140.0 L 372.9,140.0 L 376.2,140.0 L 379.4,140.0 L 382.6,140.0 L 385.9,140.0 L 389.1,140.0 L 392.4,140.0 L 395.6,140.0 L 398.8,140.0 L 402.1,140.0 L 405.3,140.0 L 408.5,140.0 L 411.8,140.0 L 415.0,140.0 L 418.2,140.0 L 421.5,140.0 L 424.7,140.0 L 427.9,140.0 L 431.2,140.0 L 434.4,140.0 L 437.6,140.0 L 440.9,140.0 L 444.1,140.0 L 447.4,140.0 L 450.6,140.0 L 453.8,140.0 L 457.1,140.0 L 460.3,85.6 L 463.5,87.2 L 466.8,87.2 L 470.0,85.6 L 473.2,82.4 L 476.5,82.4 L 479.7,95.2 L 482.9,93.6 L 486.2,95.2 L 489.4,95.2 L 492.6,90.4 L 495.9,88.8 L 499.1,93.6 L 502.4,93.6 L 505.6,85.6 L 508.8,87.2 L 512.1,90.4 L 515.3,88.8 L 518.5,87.2 L 521.8,88.8 L 525.0,90.4 L 528.2,88.8 L 531.5,100.0 L 534.7,100.0 L 537.9,95.2 L 541.2,92.0 L 544.4,95.2 L 547.6,95.2 L 550.9,95.2 L 554.1,92.0 L 557.4,88.8 L 560.6,88.8 L 563.8,87.2 L 567.1,88.8 L 570.3,87.2 L 573.5,88.8 L 576.8,85.6 L 580.0,85.6" stroke="#3E5640" stroke-width="1.5" fill="none"/><line x1="20" y1="180" x2="580" y2="180" stroke="#0E0E0E33"/><text x="20" y="195" font-family="sans-serif" font-size="10" fill="#7A7570">Powered by RateRadar · rateradar-web.vercel.app</text></svg>