<svg xmlns="http://www.w3.org/2000/svg" viewBox="0 0 600 200" width="600" height="200" role="img" aria-label="RateRadar live odds for FED 2026-06-17"><rect width="600" height="200" fill="#F5F1E8"/><text x="20" y="30" font-family="sans-serif" font-size="11" letter-spacing="1.5" fill="#7A7570">FEDERAL RESERVE · JUN 17, 2026</text><text x="20" y="80" font-family="Georgia, serif" font-size="32" fill="#0E0E0E">Hold rates</text><text x="20" y="130" font-family="monospace" font-size="42" fill="#3E5640">98%</text><text x="20" y="155" font-family="sans-serif" font-size="11" fill="#7A7570">market-implied probability</text><path d="M 360.0,104.3 L 365.2,104.3 L 370.5,104.3 L 375.7,104.3 L 381.0,104.3 L 386.2,104.3 L 391.4,104.3 L 396.7,104.3 L 401.9,104.3 L 407.1,104.3 L 412.4,104.3 L 417.6,104.3 L 422.9,104.3 L 428.1,104.3 L 433.3,104.3 L 438.6,104.3 L 443.8,104.3 L 449.0,104.3 L 454.3,104.3 L 459.5,104.3 L 464.8,104.3 L 470.0,104.3 L 475.2,104.3 L 480.5,104.3 L 485.7,104.3 L 491.0,104.3 L 496.2,104.3 L 501.4,104.3 L 506.7,104.3 L 511.9,104.3 L 517.1,104.3 L 522.4,61.8 L 527.6,61.8 L 532.9,61.8 L 538.1,61.8 L 543.3,63.7 L 548.6,63.7 L 553.8,63.7 L 559.0,63.7 L 564.3,61.8 L 569.5,61.8 L 574.8,61.8 L 580.0,61.8" stroke="#3E5640" stroke-width="1.5" fill="none"/><line x1="20" y1="180" x2="580" y2="180" stroke="#0E0E0E33"/><text x="20" y="195" font-family="sans-serif" font-size="10" fill="#7A7570">Powered by RateRadar · rateradar-web.vercel.app</text></svg>