<svg xmlns="http://www.w3.org/2000/svg" viewBox="0 0 600 200" width="600" height="200" role="img" aria-label="RateRadar live odds for FED 2026-07-29"><rect width="600" height="200" fill="#F5F1E8"/><text x="20" y="30" font-family="sans-serif" font-size="11" letter-spacing="1.5" fill="#7A7570">FEDERAL RESERVE · JUL 29, 2026</text><text x="20" y="80" font-family="Georgia, serif" font-size="32" fill="#0E0E0E">Hold rates</text><text x="20" y="130" font-family="monospace" font-size="42" fill="#3E5640">68%</text><text x="20" y="155" font-family="sans-serif" font-size="11" fill="#7A7570">market-implied probability</text><path d="M 360.0,140.0 L 363.3,140.0 L 366.7,140.0 L 370.0,140.0 L 373.3,140.0 L 376.7,140.0 L 380.0,140.0 L 383.3,140.0 L 386.7,140.0 L 390.0,140.0 L 393.3,140.0 L 396.7,140.0 L 400.0,140.0 L 403.3,140.0 L 406.7,140.0 L 410.0,140.0 L 413.3,140.0 L 416.7,140.0 L 420.0,140.0 L 423.3,140.0 L 426.7,140.0 L 430.0,140.0 L 433.3,140.0 L 436.7,140.0 L 440.0,140.0 L 443.3,140.0 L 446.7,140.0 L 450.0,140.0 L 453.3,140.0 L 456.7,140.0 L 460.0,140.0 L 463.3,68.2 L 466.7,68.2 L 470.0,69.8 L 473.3,68.2 L 476.7,70.1 L 480.0,68.5 L 483.3,73.3 L 486.7,73.3 L 490.0,73.0 L 493.3,73.0 L 496.7,71.4 L 500.0,71.4 L 503.3,71.4 L 506.7,73.0 L 510.0,66.6 L 513.3,70.1 L 516.7,70.1 L 520.0,68.2 L 523.3,68.0 L 526.7,69.8 L 530.0,71.4 L 533.3,69.8 L 536.7,93.6 L 540.0,87.0 L 543.3,92.0 L 546.7,93.4 L 550.0,93.4 L 553.3,93.4 L 556.7,90.2 L 560.0,90.2 L 563.3,90.2 L 566.7,90.4 L 570.0,87.0 L 573.3,88.6 L 576.7,87.2 L 580.0,85.6" stroke="#3E5640" stroke-width="1.5" fill="none"/><line x1="20" y1="180" x2="580" y2="180" stroke="#0E0E0E33"/><text x="20" y="195" font-family="sans-serif" font-size="10" fill="#7A7570">Powered by RateRadar · rateradar-web.vercel.app</text></svg>