<svg xmlns="http://www.w3.org/2000/svg" viewBox="0 0 600 200" width="600" height="200" role="img" aria-label="RateRadar live odds for FED 2026-06-17"><rect width="600" height="200" fill="#F5F1E8"/><text x="20" y="30" font-family="sans-serif" font-size="11" letter-spacing="1.5" fill="#7A7570">FEDERAL RESERVE · JUN 17, 2026</text><text x="20" y="80" font-family="Georgia, serif" font-size="32" fill="#0E0E0E">Hold rates</text><text x="20" y="130" font-family="monospace" font-size="42" fill="#3E5640">98%</text><text x="20" y="155" font-family="sans-serif" font-size="11" fill="#7A7570">market-implied probability</text><path d="M 360.0,104.3 L 364.1,104.3 L 368.1,104.3 L 372.2,104.3 L 376.3,104.3 L 380.4,104.3 L 384.4,104.3 L 388.5,104.3 L 392.6,104.3 L 396.7,104.3 L 400.7,104.3 L 404.8,104.3 L 408.9,104.3 L 413.0,104.3 L 417.0,104.3 L 421.1,104.3 L 425.2,104.3 L 429.3,104.3 L 433.3,104.3 L 437.4,104.3 L 441.5,104.3 L 445.6,104.3 L 449.6,104.3 L 453.7,104.3 L 457.8,104.3 L 461.9,104.3 L 465.9,104.3 L 470.0,104.3 L 474.1,104.3 L 478.1,104.3 L 482.2,104.3 L 486.3,61.8 L 490.4,61.8 L 494.4,61.8 L 498.5,61.8 L 502.6,63.7 L 506.7,63.7 L 510.7,63.7 L 514.8,63.7 L 518.9,61.8 L 523.0,61.8 L 527.0,61.8 L 531.1,61.8 L 535.2,61.8 L 539.3,61.8 L 543.3,61.8 L 547.4,63.7 L 551.5,63.7 L 555.6,61.8 L 559.6,60.0 L 563.7,61.8 L 567.8,61.8 L 571.9,61.8 L 575.9,60.0 L 580.0,61.8" stroke="#3E5640" stroke-width="1.5" fill="none"/><line x1="20" y1="180" x2="580" y2="180" stroke="#0E0E0E33"/><text x="20" y="195" font-family="sans-serif" font-size="10" fill="#7A7570">Powered by RateRadar · rateradar-web.vercel.app</text></svg>