<svg xmlns="http://www.w3.org/2000/svg" viewBox="0 0 600 200" width="600" height="200" role="img" aria-label="RateRadar live odds for FED 2026-07-29"><rect width="600" height="200" fill="#F5F1E8"/><text x="20" y="30" font-family="sans-serif" font-size="11" letter-spacing="1.5" fill="#7A7570">FEDERAL RESERVE · JUL 29, 2026</text><text x="20" y="80" font-family="Georgia, serif" font-size="32" fill="#0E0E0E">Hold rates</text><text x="20" y="130" font-family="monospace" font-size="42" fill="#3E5640">84%</text><text x="20" y="155" font-family="sans-serif" font-size="11" fill="#7A7570">market-implied probability</text><path d="M 360.0,140.0 L 362.2,140.0 L 364.5,140.0 L 366.7,140.0 L 369.0,140.0 L 371.2,140.0 L 373.5,140.0 L 375.7,140.0 L 378.0,140.0 L 380.2,140.0 L 382.4,140.0 L 384.7,140.0 L 386.9,140.0 L 389.2,140.0 L 391.4,140.0 L 393.7,140.0 L 395.9,140.0 L 398.2,140.0 L 400.4,140.0 L 402.7,140.0 L 404.9,140.0 L 407.1,140.0 L 409.4,140.0 L 411.6,140.0 L 413.9,140.0 L 416.1,140.0 L 418.4,140.0 L 420.6,140.0 L 422.9,140.0 L 425.1,140.0 L 427.3,140.0 L 429.6,68.2 L 431.8,68.2 L 434.1,69.8 L 436.3,68.2 L 438.6,70.1 L 440.8,68.5 L 443.1,73.3 L 445.3,73.3 L 447.6,73.0 L 449.8,73.0 L 452.0,71.4 L 454.3,71.4 L 456.5,71.4 L 458.8,73.0 L 461.0,66.6 L 463.3,70.1 L 465.5,70.1 L 467.8,68.2 L 470.0,68.0 L 472.2,69.8 L 474.5,71.4 L 476.7,69.8 L 479.0,93.6 L 481.2,87.0 L 483.5,92.0 L 485.7,93.4 L 488.0,93.4 L 490.2,93.4 L 492.4,90.2 L 494.7,90.2 L 496.9,90.2 L 499.2,90.4 L 501.4,87.0 L 503.7,88.6 L 505.9,87.2 L 508.2,85.6 L 510.4,84.0 L 512.7,84.0 L 514.9,85.6 L 517.1,85.6 L 519.4,87.2 L 521.6,87.2 L 523.9,84.0 L 526.1,84.0 L 528.4,76.0 L 530.6,76.0 L 532.9,79.2 L 535.1,79.2 L 537.3,82.4 L 539.6,79.2 L 541.8,82.4 L 544.1,84.0 L 546.3,85.6 L 548.6,84.0 L 550.8,79.2 L 553.1,79.2 L 555.3,85.6 L 557.6,87.2 L 559.8,93.6 L 562.0,95.2 L 564.3,72.8 L 566.5,72.8 L 568.8,69.6 L 571.0,68.0 L 573.3,68.0 L 575.5,69.6 L 577.8,71.2 L 580.0,72.8" stroke="#3E5640" stroke-width="1.5" fill="none"/><line x1="20" y1="180" x2="580" y2="180" stroke="#0E0E0E33"/><text x="20" y="195" font-family="sans-serif" font-size="10" fill="#7A7570">Powered by RateRadar · rateradar-web.vercel.app</text></svg>