<svg xmlns="http://www.w3.org/2000/svg" viewBox="0 0 600 200" width="600" height="200" role="img" aria-label="RateRadar live odds for FED 2026-10-28"><rect width="600" height="200" fill="#F5F1E8"/><text x="20" y="30" font-family="sans-serif" font-size="11" letter-spacing="1.5" fill="#7A7570">FEDERAL RESERVE · OCT 28, 2026</text><text x="20" y="80" font-family="Georgia, serif" font-size="32" fill="#0E0E0E">Hold rates</text><text x="20" y="130" font-family="monospace" font-size="42" fill="#3E5640">71%</text><text x="20" y="155" font-family="sans-serif" font-size="11" fill="#7A7570">market-implied probability</text><path d="M 360.0,140.0 L 362.0,140.0 L 364.0,140.0 L 366.0,140.0 L 368.0,140.0 L 370.0,140.0 L 372.0,140.0 L 374.0,140.0 L 376.0,140.0 L 378.0,140.0 L 380.0,140.0 L 382.0,140.0 L 384.0,140.0 L 386.0,140.0 L 388.0,140.0 L 390.0,140.0 L 392.0,140.0 L 394.0,140.0 L 396.0,140.0 L 398.0,140.0 L 400.0,140.0 L 402.0,140.0 L 404.0,140.0 L 406.0,140.0 L 408.0,140.0 L 410.0,140.0 L 412.0,140.0 L 414.0,140.0 L 416.0,140.0 L 418.0,140.0 L 420.0,140.0 L 422.0,70.1 L 424.0,70.1 L 426.0,71.7 L 428.0,71.7 L 430.0,70.3 L 432.0,73.7 L 434.0,77.6 L 436.0,72.6 L 438.0,75.8 L 440.0,73.9 L 442.0,72.6 L 444.0,74.2 L 446.0,74.4 L 448.0,77.6 L 450.0,66.6 L 452.0,65.0 L 454.0,68.2 L 456.0,68.2 L 458.0,70.1 L 460.0,66.6 L 462.0,66.6 L 464.0,71.7 L 466.0,79.9 L 468.0,79.7 L 470.0,79.7 L 472.0,78.1 L 474.0,82.6 L 476.0,82.6 L 478.0,82.4 L 480.0,79.0 L 482.0,77.8 L 484.0,81.0 L 486.0,74.6 L 488.0,79.9 L 490.0,78.3 L 492.0,76.5 L 494.0,71.9 L 496.0,75.1 L 498.0,75.1 L 500.0,76.7 L 502.0,78.1 L 504.0,77.8 L 506.0,78.1 L 508.0,79.7 L 510.0,76.9 L 512.0,76.9 L 514.0,76.9 L 516.0,76.9 L 518.0,80.6 L 520.0,75.3 L 522.0,79.9 L 524.0,78.3 L 526.0,79.7 L 528.0,82.9 L 530.0,76.5 L 532.0,76.5 L 534.0,79.7 L 536.0,79.7 L 538.0,84.2 L 540.0,82.6 L 542.0,74.9 L 544.0,74.9 L 546.0,77.1 L 548.0,75.1 L 550.0,74.9 L 552.0,76.9 L 554.0,79.7 L 556.0,79.7 L 558.0,84.5 L 560.0,82.9 L 562.0,84.0 L 564.0,82.4 L 566.0,87.2 L 568.0,83.8 L 570.0,83.3 L 572.0,84.9 L 574.0,81.7 L 576.0,81.7 L 578.0,85.1 L 580.0,83.3" stroke="#3E5640" stroke-width="1.5" fill="none"/><line x1="20" y1="180" x2="580" y2="180" stroke="#0E0E0E33"/><text x="20" y="195" font-family="sans-serif" font-size="10" fill="#7A7570">Powered by RateRadar · rateradar-web.vercel.app</text></svg>