<svg xmlns="http://www.w3.org/2000/svg" viewBox="0 0 600 200" width="600" height="200" role="img" aria-label="RateRadar live odds for FED 2026-07-29"><rect width="600" height="200" fill="#F5F1E8"/><text x="20" y="30" font-family="sans-serif" font-size="11" letter-spacing="1.5" fill="#7A7570">FEDERAL RESERVE · JUL 29, 2026</text><text x="20" y="80" font-family="Georgia, serif" font-size="32" fill="#0E0E0E">Hold rates</text><text x="20" y="130" font-family="monospace" font-size="42" fill="#3E5640">64%</text><text x="20" y="155" font-family="sans-serif" font-size="11" fill="#7A7570">market-implied probability</text><path d="M 360.0,140.0 L 362.1,140.0 L 364.2,140.0 L 366.2,140.0 L 368.3,140.0 L 370.4,140.0 L 372.5,140.0 L 374.5,140.0 L 376.6,140.0 L 378.7,140.0 L 380.8,140.0 L 382.8,140.0 L 384.9,140.0 L 387.0,140.0 L 389.1,140.0 L 391.1,140.0 L 393.2,140.0 L 395.3,140.0 L 397.4,140.0 L 399.4,140.0 L 401.5,140.0 L 403.6,140.0 L 405.7,140.0 L 407.7,140.0 L 409.8,140.0 L 411.9,140.0 L 414.0,140.0 L 416.0,140.0 L 418.1,140.0 L 420.2,140.0 L 422.3,140.0 L 424.3,68.2 L 426.4,68.2 L 428.5,69.8 L 430.6,68.2 L 432.6,70.1 L 434.7,68.5 L 436.8,73.3 L 438.9,73.3 L 440.9,73.0 L 443.0,73.0 L 445.1,71.4 L 447.2,71.4 L 449.2,71.4 L 451.3,73.0 L 453.4,66.6 L 455.5,70.1 L 457.5,70.1 L 459.6,68.2 L 461.7,68.0 L 463.8,69.8 L 465.8,71.4 L 467.9,69.8 L 470.0,93.6 L 472.1,87.0 L 474.2,92.0 L 476.2,93.4 L 478.3,93.4 L 480.4,93.4 L 482.5,90.2 L 484.5,90.2 L 486.6,90.2 L 488.7,90.4 L 490.8,87.0 L 492.8,88.6 L 494.9,87.2 L 497.0,85.6 L 499.1,84.0 L 501.1,84.0 L 503.2,85.6 L 505.3,85.6 L 507.4,87.2 L 509.4,87.2 L 511.5,84.0 L 513.6,84.0 L 515.7,76.0 L 517.7,76.0 L 519.8,79.2 L 521.9,79.2 L 524.0,82.4 L 526.0,79.2 L 528.1,82.4 L 530.2,84.0 L 532.3,85.6 L 534.3,84.0 L 536.4,79.2 L 538.5,79.2 L 540.6,85.6 L 542.6,87.2 L 544.7,93.6 L 546.8,95.2 L 548.9,72.8 L 550.9,72.8 L 553.0,69.6 L 555.1,68.0 L 557.2,68.0 L 559.2,69.6 L 561.3,71.2 L 563.4,72.8 L 565.5,72.8 L 567.5,74.4 L 569.6,82.4 L 571.7,80.8 L 573.8,88.8 L 575.8,90.4 L 577.9,90.4 L 580.0,88.8" stroke="#3E5640" stroke-width="1.5" fill="none"/><line x1="20" y1="180" x2="580" y2="180" stroke="#0E0E0E33"/><text x="20" y="195" font-family="sans-serif" font-size="10" fill="#7A7570">Powered by RateRadar · rateradar-web.vercel.app</text></svg>