<svg xmlns="http://www.w3.org/2000/svg" viewBox="0 0 600 200" width="600" height="200" role="img" aria-label="RateRadar live odds for FED 2026-06-17"><rect width="600" height="200" fill="#F5F1E8"/><text x="20" y="30" font-family="sans-serif" font-size="11" letter-spacing="1.5" fill="#7A7570">FEDERAL RESERVE · JUN 17, 2026</text><text x="20" y="80" font-family="Georgia, serif" font-size="32" fill="#0E0E0E">Hold rates</text><text x="20" y="130" font-family="monospace" font-size="42" fill="#3E5640">98%</text><text x="20" y="155" font-family="sans-serif" font-size="11" fill="#7A7570">market-implied probability</text><path d="M 360.0,104.3 L 364.6,104.3 L 369.2,104.3 L 373.8,104.3 L 378.3,104.3 L 382.9,104.3 L 387.5,104.3 L 392.1,104.3 L 396.7,104.3 L 401.2,104.3 L 405.8,104.3 L 410.4,104.3 L 415.0,104.3 L 419.6,104.3 L 424.2,104.3 L 428.8,104.3 L 433.3,104.3 L 437.9,104.3 L 442.5,104.3 L 447.1,104.3 L 451.7,104.3 L 456.2,104.3 L 460.8,104.3 L 465.4,104.3 L 470.0,104.3 L 474.6,104.3 L 479.2,104.3 L 483.8,104.3 L 488.3,104.3 L 492.9,104.3 L 497.5,104.3 L 502.1,61.8 L 506.7,61.8 L 511.2,61.8 L 515.8,61.8 L 520.4,63.7 L 525.0,63.7 L 529.6,63.7 L 534.2,63.7 L 538.8,61.8 L 543.3,61.8 L 547.9,61.8 L 552.5,61.8 L 557.1,61.8 L 561.7,61.8 L 566.2,61.8 L 570.8,63.7 L 575.4,63.7 L 580.0,61.8" stroke="#3E5640" stroke-width="1.5" fill="none"/><line x1="20" y1="180" x2="580" y2="180" stroke="#0E0E0E33"/><text x="20" y="195" font-family="sans-serif" font-size="10" fill="#7A7570">Powered by RateRadar · rateradar-web.vercel.app</text></svg>