<svg xmlns="http://www.w3.org/2000/svg" viewBox="0 0 600 200" width="600" height="200" role="img" aria-label="RateRadar live odds for FED 2026-07-29"><rect width="600" height="200" fill="#F5F1E8"/><text x="20" y="30" font-family="sans-serif" font-size="11" letter-spacing="1.5" fill="#7A7570">FEDERAL RESERVE · JUL 29, 2026</text><text x="20" y="80" font-family="Georgia, serif" font-size="32" fill="#0E0E0E">Hold rates</text><text x="20" y="130" font-family="monospace" font-size="42" fill="#3E5640">62%</text><text x="20" y="155" font-family="sans-serif" font-size="11" fill="#7A7570">market-implied probability</text><path d="M 360.0,140.0 L 363.5,140.0 L 367.1,140.0 L 370.6,140.0 L 374.2,140.0 L 377.7,140.0 L 381.3,140.0 L 384.8,140.0 L 388.4,140.0 L 391.9,140.0 L 395.5,140.0 L 399.0,140.0 L 402.6,140.0 L 406.1,140.0 L 409.7,140.0 L 413.2,140.0 L 416.8,140.0 L 420.3,140.0 L 423.9,140.0 L 427.4,140.0 L 431.0,140.0 L 434.5,140.0 L 438.1,140.0 L 441.6,140.0 L 445.2,140.0 L 448.7,140.0 L 452.3,140.0 L 455.8,140.0 L 459.4,140.0 L 462.9,140.0 L 466.5,140.0 L 470.0,68.2 L 473.5,68.2 L 477.1,69.8 L 480.6,68.2 L 484.2,70.1 L 487.7,68.5 L 491.3,73.3 L 494.8,73.3 L 498.4,73.0 L 501.9,73.0 L 505.5,71.4 L 509.0,71.4 L 512.6,71.4 L 516.1,73.0 L 519.7,66.6 L 523.2,70.1 L 526.8,70.1 L 530.3,68.2 L 533.9,68.0 L 537.4,69.8 L 541.0,71.4 L 544.5,69.8 L 548.1,93.6 L 551.6,87.0 L 555.2,92.0 L 558.7,93.4 L 562.3,93.4 L 565.8,93.4 L 569.4,90.2 L 572.9,90.2 L 576.5,90.2 L 580.0,90.4" stroke="#3E5640" stroke-width="1.5" fill="none"/><line x1="20" y1="180" x2="580" y2="180" stroke="#0E0E0E33"/><text x="20" y="195" font-family="sans-serif" font-size="10" fill="#7A7570">Powered by RateRadar · rateradar-web.vercel.app</text></svg>