<svg xmlns="http://www.w3.org/2000/svg" viewBox="0 0 600 200" width="600" height="200" role="img" aria-label="RateRadar live odds for FED 2026-10-28"><rect width="600" height="200" fill="#F5F1E8"/><text x="20" y="30" font-family="sans-serif" font-size="11" letter-spacing="1.5" fill="#7A7570">FEDERAL RESERVE · OCT 28, 2026</text><text x="20" y="80" font-family="Georgia, serif" font-size="32" fill="#0E0E0E">Hold rates</text><text x="20" y="130" font-family="monospace" font-size="42" fill="#3E5640">79%</text><text x="20" y="155" font-family="sans-serif" font-size="11" fill="#7A7570">market-implied probability</text><path d="M 360.0,140.0 L 362.6,140.0 L 365.2,140.0 L 367.8,140.0 L 370.4,140.0 L 372.9,140.0 L 375.5,140.0 L 378.1,140.0 L 380.7,140.0 L 383.3,140.0 L 385.9,140.0 L 388.5,140.0 L 391.1,140.0 L 393.6,140.0 L 396.2,140.0 L 398.8,140.0 L 401.4,140.0 L 404.0,140.0 L 406.6,140.0 L 409.2,140.0 L 411.8,140.0 L 414.4,140.0 L 416.9,140.0 L 419.5,140.0 L 422.1,140.0 L 424.7,140.0 L 427.3,140.0 L 429.9,140.0 L 432.5,140.0 L 435.1,140.0 L 437.6,140.0 L 440.2,70.1 L 442.8,70.1 L 445.4,71.7 L 448.0,71.7 L 450.6,70.3 L 453.2,73.7 L 455.8,77.6 L 458.4,72.6 L 460.9,75.8 L 463.5,73.9 L 466.1,72.6 L 468.7,74.2 L 471.3,74.4 L 473.9,77.6 L 476.5,66.6 L 479.1,65.0 L 481.6,68.2 L 484.2,68.2 L 486.8,70.1 L 489.4,66.6 L 492.0,66.6 L 494.6,71.7 L 497.2,79.9 L 499.8,79.7 L 502.4,79.7 L 504.9,78.1 L 507.5,82.6 L 510.1,82.6 L 512.7,82.4 L 515.3,79.0 L 517.9,77.8 L 520.5,81.0 L 523.1,74.6 L 525.6,79.9 L 528.2,78.3 L 530.8,76.5 L 533.4,71.9 L 536.0,75.1 L 538.6,75.1 L 541.2,76.7 L 543.8,78.1 L 546.4,77.8 L 548.9,78.1 L 551.5,79.7 L 554.1,76.9 L 556.7,76.9 L 559.3,76.9 L 561.9,76.9 L 564.5,80.6 L 567.1,75.3 L 569.6,79.9 L 572.2,78.3 L 574.8,79.7 L 577.4,82.9 L 580.0,76.5" stroke="#3E5640" stroke-width="1.5" fill="none"/><line x1="20" y1="180" x2="580" y2="180" stroke="#0E0E0E33"/><text x="20" y="195" font-family="sans-serif" font-size="10" fill="#7A7570">Powered by RateRadar · rateradar-web.vercel.app</text></svg>