<svg xmlns="http://www.w3.org/2000/svg" viewBox="0 0 600 200" width="600" height="200" role="img" aria-label="RateRadar live odds for FED 2026-10-28"><rect width="600" height="200" fill="#F5F1E8"/><text x="20" y="30" font-family="sans-serif" font-size="11" letter-spacing="1.5" fill="#7A7570">FEDERAL RESERVE · OCT 28, 2026</text><text x="20" y="80" font-family="Georgia, serif" font-size="32" fill="#0E0E0E">Hold rates</text><text x="20" y="130" font-family="monospace" font-size="42" fill="#3E5640">66%</text><text x="20" y="155" font-family="sans-serif" font-size="11" fill="#7A7570">market-implied probability</text><path d="M 360.0,140.0 L 362.1,140.0 L 364.3,140.0 L 366.4,140.0 L 368.5,140.0 L 370.7,140.0 L 372.8,140.0 L 375.0,140.0 L 377.1,140.0 L 379.2,140.0 L 381.4,140.0 L 383.5,140.0 L 385.6,140.0 L 387.8,140.0 L 389.9,140.0 L 392.0,140.0 L 394.2,140.0 L 396.3,140.0 L 398.4,140.0 L 400.6,140.0 L 402.7,140.0 L 404.9,140.0 L 407.0,140.0 L 409.1,140.0 L 411.3,140.0 L 413.4,140.0 L 415.5,140.0 L 417.7,140.0 L 419.8,140.0 L 421.9,140.0 L 424.1,140.0 L 426.2,70.1 L 428.3,70.1 L 430.5,71.7 L 432.6,71.7 L 434.8,70.3 L 436.9,73.7 L 439.0,77.6 L 441.2,72.6 L 443.3,75.8 L 445.4,73.9 L 447.6,72.6 L 449.7,74.2 L 451.8,74.4 L 454.0,77.6 L 456.1,66.6 L 458.3,65.0 L 460.4,68.2 L 462.5,68.2 L 464.7,70.1 L 466.8,66.6 L 468.9,66.6 L 471.1,71.7 L 473.2,79.9 L 475.3,79.7 L 477.5,79.7 L 479.6,78.1 L 481.7,82.6 L 483.9,82.6 L 486.0,82.4 L 488.2,79.0 L 490.3,77.8 L 492.4,81.0 L 494.6,74.6 L 496.7,79.9 L 498.8,78.3 L 501.0,76.5 L 503.1,71.9 L 505.2,75.1 L 507.4,75.1 L 509.5,76.7 L 511.7,78.1 L 513.8,77.8 L 515.9,78.1 L 518.1,79.7 L 520.2,76.9 L 522.3,76.9 L 524.5,76.9 L 526.6,76.9 L 528.7,80.6 L 530.9,75.3 L 533.0,79.9 L 535.1,78.3 L 537.3,79.7 L 539.4,82.9 L 541.6,76.5 L 543.7,76.5 L 545.8,79.7 L 548.0,79.7 L 550.1,84.2 L 552.2,82.6 L 554.4,74.9 L 556.5,74.9 L 558.6,77.1 L 560.8,75.1 L 562.9,74.9 L 565.0,76.9 L 567.2,79.7 L 569.3,79.7 L 571.5,84.5 L 573.6,82.9 L 575.7,84.0 L 577.9,82.4 L 580.0,87.2" stroke="#3E5640" stroke-width="1.5" fill="none"/><line x1="20" y1="180" x2="580" y2="180" stroke="#0E0E0E33"/><text x="20" y="195" font-family="sans-serif" font-size="10" fill="#7A7570">Powered by RateRadar · rateradar-web.vercel.app</text></svg>