<svg xmlns="http://www.w3.org/2000/svg" viewBox="0 0 600 200" width="600" height="200" role="img" aria-label="RateRadar live odds for FED 2026-12-09"><rect width="600" height="200" fill="#F5F1E8"/><text x="20" y="30" font-family="sans-serif" font-size="11" letter-spacing="1.5" fill="#7A7570">FEDERAL RESERVE · DEC 09, 2026</text><text x="20" y="80" font-family="Georgia, serif" font-size="32" fill="#0E0E0E">Hold rates</text><text x="20" y="130" font-family="monospace" font-size="42" fill="#3E5640">64%</text><text x="20" y="155" font-family="sans-serif" font-size="11" fill="#7A7570">market-implied probability</text><path d="M 360.0,140.0 L 364.4,140.0 L 368.8,140.0 L 373.2,140.0 L 377.6,140.0 L 382.0,140.0 L 386.4,140.0 L 390.8,140.0 L 395.2,140.0 L 399.6,140.0 L 404.0,140.0 L 408.4,140.0 L 412.8,140.0 L 417.2,140.0 L 421.6,140.0 L 426.0,140.0 L 430.4,140.0 L 434.8,140.0 L 439.2,140.0 L 443.6,140.0 L 448.0,140.0 L 452.4,140.0 L 456.8,140.0 L 461.2,140.0 L 465.6,140.0 L 470.0,140.0 L 474.4,140.0 L 478.8,140.0 L 483.2,140.0 L 487.6,140.0 L 492.0,140.0 L 496.4,85.6 L 500.8,87.2 L 505.2,87.2 L 509.6,85.6 L 514.0,82.4 L 518.4,82.4 L 522.8,95.2 L 527.2,93.6 L 531.6,95.2 L 536.0,95.2 L 540.4,90.4 L 544.8,88.8 L 549.2,93.6 L 553.6,93.6 L 558.0,85.6 L 562.4,87.2 L 566.8,90.4 L 571.2,88.8 L 575.6,87.2 L 580.0,88.8" stroke="#3E5640" stroke-width="1.5" fill="none"/><line x1="20" y1="180" x2="580" y2="180" stroke="#0E0E0E33"/><text x="20" y="195" font-family="sans-serif" font-size="10" fill="#7A7570">Powered by RateRadar · rateradar-web.vercel.app</text></svg>