<svg xmlns="http://www.w3.org/2000/svg" viewBox="0 0 600 200" width="600" height="200" role="img" aria-label="RateRadar live odds for FED 2026-09-16"><rect width="600" height="200" fill="#F5F1E8"/><text x="20" y="30" font-family="sans-serif" font-size="11" letter-spacing="1.5" fill="#7A7570">FEDERAL RESERVE · SEP 16, 2026</text><text x="20" y="80" font-family="Georgia, serif" font-size="32" fill="#0E0E0E">Hold rates</text><text x="20" y="130" font-family="monospace" font-size="42" fill="#3E5640">53%</text><text x="20" y="155" font-family="sans-serif" font-size="11" fill="#7A7570">market-implied probability</text><path d="M 360.0,140.0 L 362.7,140.0 L 365.4,140.0 L 368.0,140.0 L 370.7,140.0 L 373.4,140.0 L 376.1,140.0 L 378.8,140.0 L 381.5,140.0 L 384.1,140.0 L 386.8,140.0 L 389.5,140.0 L 392.2,140.0 L 394.9,140.0 L 397.6,140.0 L 400.2,140.0 L 402.9,140.0 L 405.6,140.0 L 408.3,140.0 L 411.0,140.0 L 413.7,140.0 L 416.3,140.0 L 419.0,140.0 L 421.7,140.0 L 424.4,140.0 L 427.1,140.0 L 429.8,140.0 L 432.4,140.0 L 435.1,140.0 L 437.8,140.0 L 440.5,140.0 L 443.2,77.1 L 445.9,77.1 L 448.5,77.1 L 451.2,77.1 L 453.9,73.7 L 456.6,70.3 L 459.3,84.0 L 462.0,87.4 L 464.6,87.4 L 467.3,90.9 L 470.0,87.4 L 472.7,87.4 L 475.4,84.0 L 478.0,84.0 L 480.7,80.6 L 483.4,80.6 L 486.1,80.6 L 488.8,80.6 L 491.5,77.1 L 494.1,80.6 L 496.8,80.6 L 499.5,77.1 L 502.2,97.7 L 504.9,101.1 L 507.6,101.1 L 510.2,101.1 L 512.9,104.6 L 515.6,104.6 L 518.3,108.0 L 521.0,111.4 L 523.7,104.6 L 526.3,104.6 L 529.0,104.6 L 531.7,97.7 L 534.4,97.7 L 537.1,101.1 L 539.8,97.7 L 542.4,97.7 L 545.1,97.7 L 547.8,97.7 L 550.5,101.1 L 553.2,104.6 L 555.9,101.1 L 558.5,101.1 L 561.2,94.3 L 563.9,94.3 L 566.6,94.3 L 569.3,94.3 L 572.0,87.4 L 574.6,94.3 L 577.3,97.7 L 580.0,97.7" stroke="#3E5640" stroke-width="1.5" fill="none"/><line x1="20" y1="180" x2="580" y2="180" stroke="#0E0E0E33"/><text x="20" y="195" font-family="sans-serif" font-size="10" fill="#7A7570">Powered by RateRadar · rateradar-web.vercel.app</text></svg>