<svg xmlns="http://www.w3.org/2000/svg" viewBox="0 0 600 200" width="600" height="200" role="img" aria-label="RateRadar live odds for FED 2026-09-16"><rect width="600" height="200" fill="#F5F1E8"/><text x="20" y="30" font-family="sans-serif" font-size="11" letter-spacing="1.5" fill="#7A7570">FEDERAL RESERVE · SEP 16, 2026</text><text x="20" y="80" font-family="Georgia, serif" font-size="32" fill="#0E0E0E">Hold rates</text><text x="20" y="130" font-family="monospace" font-size="42" fill="#3E5640">74%</text><text x="20" y="155" font-family="sans-serif" font-size="11" fill="#7A7570">market-implied probability</text><path d="M 360.0,140.0 L 364.7,140.0 L 369.4,140.0 L 374.0,140.0 L 378.7,140.0 L 383.4,140.0 L 388.1,140.0 L 392.8,140.0 L 397.4,140.0 L 402.1,140.0 L 406.8,140.0 L 411.5,140.0 L 416.2,140.0 L 420.9,140.0 L 425.5,140.0 L 430.2,140.0 L 434.9,140.0 L 439.6,140.0 L 444.3,140.0 L 448.9,140.0 L 453.6,140.0 L 458.3,140.0 L 463.0,140.0 L 467.7,140.0 L 472.3,140.0 L 477.0,140.0 L 481.7,140.0 L 486.4,140.0 L 491.1,140.0 L 495.7,140.0 L 500.4,140.0 L 505.1,77.1 L 509.8,77.1 L 514.5,77.1 L 519.1,77.1 L 523.8,73.7 L 528.5,70.3 L 533.2,84.0 L 537.9,87.4 L 542.6,87.4 L 547.2,90.9 L 551.9,87.4 L 556.6,87.4 L 561.3,84.0 L 566.0,84.0 L 570.6,80.6 L 575.3,80.6 L 580.0,80.6" stroke="#3E5640" stroke-width="1.5" fill="none"/><line x1="20" y1="180" x2="580" y2="180" stroke="#0E0E0E33"/><text x="20" y="195" font-family="sans-serif" font-size="10" fill="#7A7570">Powered by RateRadar · rateradar-web.vercel.app</text></svg>