<svg xmlns="http://www.w3.org/2000/svg" viewBox="0 0 600 200" width="600" height="200" role="img" aria-label="RateRadar live odds for FED 2026-10-28"><rect width="600" height="200" fill="#F5F1E8"/><text x="20" y="30" font-family="sans-serif" font-size="11" letter-spacing="1.5" fill="#7A7570">FEDERAL RESERVE · OCT 28, 2026</text><text x="20" y="80" font-family="Georgia, serif" font-size="32" fill="#0E0E0E">Hold rates</text><text x="20" y="130" font-family="monospace" font-size="42" fill="#3E5640">74%</text><text x="20" y="155" font-family="sans-serif" font-size="11" fill="#7A7570">market-implied probability</text><path d="M 360.0,140.0 L 362.8,140.0 L 365.6,140.0 L 368.4,140.0 L 371.1,140.0 L 373.9,140.0 L 376.7,140.0 L 379.5,140.0 L 382.3,140.0 L 385.1,140.0 L 387.8,140.0 L 390.6,140.0 L 393.4,140.0 L 396.2,140.0 L 399.0,140.0 L 401.8,140.0 L 404.6,140.0 L 407.3,140.0 L 410.1,140.0 L 412.9,140.0 L 415.7,140.0 L 418.5,140.0 L 421.3,140.0 L 424.1,140.0 L 426.8,140.0 L 429.6,140.0 L 432.4,140.0 L 435.2,140.0 L 438.0,140.0 L 440.8,140.0 L 443.5,140.0 L 446.3,70.1 L 449.1,70.1 L 451.9,71.7 L 454.7,71.7 L 457.5,70.3 L 460.3,73.7 L 463.0,77.6 L 465.8,72.6 L 468.6,75.8 L 471.4,73.9 L 474.2,72.6 L 477.0,74.2 L 479.7,74.4 L 482.5,77.6 L 485.3,66.6 L 488.1,65.0 L 490.9,68.2 L 493.7,68.2 L 496.5,70.1 L 499.2,66.6 L 502.0,66.6 L 504.8,71.7 L 507.6,79.9 L 510.4,79.7 L 513.2,79.7 L 515.9,78.1 L 518.7,82.6 L 521.5,82.6 L 524.3,82.4 L 527.1,79.0 L 529.9,77.8 L 532.7,81.0 L 535.4,74.6 L 538.2,79.9 L 541.0,78.3 L 543.8,76.5 L 546.6,71.9 L 549.4,75.1 L 552.2,75.1 L 554.9,76.7 L 557.7,78.1 L 560.5,77.8 L 563.3,78.1 L 566.1,79.7 L 568.9,76.9 L 571.6,76.9 L 574.4,76.9 L 577.2,76.9 L 580.0,80.6" stroke="#3E5640" stroke-width="1.5" fill="none"/><line x1="20" y1="180" x2="580" y2="180" stroke="#0E0E0E33"/><text x="20" y="195" font-family="sans-serif" font-size="10" fill="#7A7570">Powered by RateRadar · rateradar-web.vercel.app</text></svg>