<svg xmlns="http://www.w3.org/2000/svg" viewBox="0 0 600 200" width="600" height="200" role="img" aria-label="RateRadar live odds for FED 2026-12-09"><rect width="600" height="200" fill="#F5F1E8"/><text x="20" y="30" font-family="sans-serif" font-size="11" letter-spacing="1.5" fill="#7A7570">FEDERAL RESERVE · DEC 09, 2026</text><text x="20" y="80" font-family="Georgia, serif" font-size="32" fill="#0E0E0E">Hold rates</text><text x="20" y="130" font-family="monospace" font-size="42" fill="#3E5640">60%</text><text x="20" y="155" font-family="sans-serif" font-size="11" fill="#7A7570">market-implied probability</text><path d="M 360.0,140.0 L 362.2,140.0 L 364.4,140.0 L 366.7,140.0 L 368.9,140.0 L 371.1,140.0 L 373.3,140.0 L 375.6,140.0 L 377.8,140.0 L 380.0,140.0 L 382.2,140.0 L 384.4,140.0 L 386.7,140.0 L 388.9,140.0 L 391.1,140.0 L 393.3,140.0 L 395.6,140.0 L 397.8,140.0 L 400.0,140.0 L 402.2,140.0 L 404.4,140.0 L 406.7,140.0 L 408.9,140.0 L 411.1,140.0 L 413.3,140.0 L 415.6,140.0 L 417.8,140.0 L 420.0,140.0 L 422.2,140.0 L 424.4,140.0 L 426.7,140.0 L 428.9,85.6 L 431.1,87.2 L 433.3,87.2 L 435.6,85.6 L 437.8,82.4 L 440.0,82.4 L 442.2,95.2 L 444.4,93.6 L 446.7,95.2 L 448.9,95.2 L 451.1,90.4 L 453.3,88.8 L 455.6,93.6 L 457.8,93.6 L 460.0,85.6 L 462.2,87.2 L 464.4,90.4 L 466.7,88.8 L 468.9,87.2 L 471.1,88.8 L 473.3,90.4 L 475.6,88.8 L 477.8,100.0 L 480.0,100.0 L 482.2,95.2 L 484.4,92.0 L 486.7,95.2 L 488.9,95.2 L 491.1,95.2 L 493.3,92.0 L 495.6,88.8 L 497.8,88.8 L 500.0,87.2 L 502.2,88.8 L 504.4,87.2 L 506.7,88.8 L 508.9,85.6 L 511.1,85.6 L 513.3,87.2 L 515.6,87.2 L 517.8,90.4 L 520.0,90.4 L 522.2,93.6 L 524.4,93.6 L 526.7,92.0 L 528.9,92.0 L 531.1,90.4 L 533.3,90.4 L 535.6,85.6 L 537.8,87.2 L 540.0,90.4 L 542.2,93.6 L 544.4,92.0 L 546.7,93.6 L 548.9,90.4 L 551.1,92.0 L 553.3,92.0 L 555.6,92.0 L 557.8,93.6 L 560.0,95.2 L 562.2,90.4 L 564.4,90.4 L 566.7,85.6 L 568.9,85.6 L 571.1,87.2 L 573.3,87.2 L 575.6,90.4 L 577.8,90.4 L 580.0,92.0" stroke="#3E5640" stroke-width="1.5" fill="none"/><line x1="20" y1="180" x2="580" y2="180" stroke="#0E0E0E33"/><text x="20" y="195" font-family="sans-serif" font-size="10" fill="#7A7570">Powered by RateRadar · rateradar-web.vercel.app</text></svg>