<svg xmlns="http://www.w3.org/2000/svg" viewBox="0 0 600 200" width="600" height="200" role="img" aria-label="RateRadar live odds for FED 2026-09-16"><rect width="600" height="200" fill="#F5F1E8"/><text x="20" y="30" font-family="sans-serif" font-size="11" letter-spacing="1.5" fill="#7A7570">FEDERAL RESERVE · SEP 16, 2026</text><text x="20" y="80" font-family="Georgia, serif" font-size="32" fill="#0E0E0E">Move +25bp</text><text x="20" y="130" font-family="monospace" font-size="42" fill="#A8312A">60%</text><text x="20" y="155" font-family="sans-serif" font-size="11" fill="#7A7570">market-implied probability</text><path d="M 360.0,140.0 L 362.1,140.0 L 364.3,140.0 L 366.4,140.0 L 368.5,140.0 L 370.7,140.0 L 372.8,140.0 L 375.0,140.0 L 377.1,140.0 L 379.2,140.0 L 381.4,140.0 L 383.5,140.0 L 385.6,140.0 L 387.8,140.0 L 389.9,140.0 L 392.0,140.0 L 394.2,140.0 L 396.3,140.0 L 398.4,140.0 L 400.6,140.0 L 402.7,140.0 L 404.9,140.0 L 407.0,140.0 L 409.1,140.0 L 411.3,140.0 L 413.4,140.0 L 415.5,140.0 L 417.7,140.0 L 419.8,140.0 L 421.9,140.0 L 424.1,140.0 L 426.2,122.9 L 428.3,122.9 L 430.5,122.9 L 432.6,122.9 L 434.8,126.3 L 436.9,129.7 L 439.0,116.0 L 441.2,112.6 L 443.3,112.6 L 445.4,109.1 L 447.6,112.6 L 449.7,112.6 L 451.8,116.0 L 454.0,116.0 L 456.1,119.4 L 458.3,119.4 L 460.4,119.4 L 462.5,119.4 L 464.7,122.9 L 466.8,119.4 L 468.9,119.4 L 471.1,122.9 L 473.2,102.3 L 475.3,98.9 L 477.5,98.9 L 479.6,98.9 L 481.7,95.4 L 483.9,95.4 L 486.0,92.0 L 488.2,88.6 L 490.3,95.4 L 492.4,95.4 L 494.6,95.4 L 496.7,102.3 L 498.8,102.3 L 501.0,98.9 L 503.1,102.3 L 505.2,102.3 L 507.4,102.3 L 509.5,102.3 L 511.7,98.9 L 513.8,95.4 L 515.9,98.9 L 518.1,98.9 L 520.2,105.7 L 522.3,105.7 L 524.5,105.7 L 526.6,105.7 L 528.7,112.6 L 530.9,105.7 L 533.0,102.3 L 535.1,102.3 L 537.3,98.9 L 539.4,98.9 L 541.6,98.9 L 543.7,98.9 L 545.8,98.9 L 548.0,98.9 L 550.1,95.4 L 552.2,95.4 L 554.4,98.9 L 556.5,98.9 L 558.6,109.1 L 560.8,102.3 L 562.9,98.9 L 565.0,105.7 L 567.2,98.9 L 569.3,98.9 L 571.5,98.9 L 573.6,98.9 L 575.7,92.0 L 577.9,92.0 L 580.0,92.0" stroke="#A8312A" stroke-width="1.5" fill="none"/><line x1="20" y1="180" x2="580" y2="180" stroke="#0E0E0E33"/><text x="20" y="195" font-family="sans-serif" font-size="10" fill="#7A7570">Powered by RateRadar · rateradar-web.vercel.app</text></svg>