<svg xmlns="http://www.w3.org/2000/svg" viewBox="0 0 600 200" width="600" height="200" role="img" aria-label="RateRadar live odds for FED 2026-10-28"><rect width="600" height="200" fill="#F5F1E8"/><text x="20" y="30" font-family="sans-serif" font-size="11" letter-spacing="1.5" fill="#7A7570">FEDERAL RESERVE · OCT 28, 2026</text><text x="20" y="80" font-family="Georgia, serif" font-size="32" fill="#0E0E0E">Hold rates</text><text x="20" y="130" font-family="monospace" font-size="42" fill="#3E5640">75%</text><text x="20" y="155" font-family="sans-serif" font-size="11" fill="#7A7570">market-implied probability</text><path d="M 360.0,140.0 L 362.7,140.0 L 365.4,140.0 L 368.1,140.0 L 370.9,140.0 L 373.6,140.0 L 376.3,140.0 L 379.0,140.0 L 381.7,140.0 L 384.4,140.0 L 387.2,140.0 L 389.9,140.0 L 392.6,140.0 L 395.3,140.0 L 398.0,140.0 L 400.7,140.0 L 403.5,140.0 L 406.2,140.0 L 408.9,140.0 L 411.6,140.0 L 414.3,140.0 L 417.0,140.0 L 419.8,140.0 L 422.5,140.0 L 425.2,140.0 L 427.9,140.0 L 430.6,140.0 L 433.3,140.0 L 436.0,140.0 L 438.8,140.0 L 441.5,140.0 L 444.2,70.1 L 446.9,70.1 L 449.6,71.7 L 452.3,71.7 L 455.1,70.3 L 457.8,73.7 L 460.5,77.6 L 463.2,72.6 L 465.9,75.8 L 468.6,73.9 L 471.4,72.6 L 474.1,74.2 L 476.8,74.4 L 479.5,77.6 L 482.2,66.6 L 484.9,65.0 L 487.7,68.2 L 490.4,68.2 L 493.1,70.1 L 495.8,66.6 L 498.5,66.6 L 501.2,71.7 L 504.0,79.9 L 506.7,79.7 L 509.4,79.7 L 512.1,78.1 L 514.8,82.6 L 517.5,82.6 L 520.2,82.4 L 523.0,79.0 L 525.7,77.8 L 528.4,81.0 L 531.1,74.6 L 533.8,79.9 L 536.5,78.3 L 539.3,76.5 L 542.0,71.9 L 544.7,75.1 L 547.4,75.1 L 550.1,76.7 L 552.8,78.1 L 555.6,77.8 L 558.3,78.1 L 561.0,79.7 L 563.7,76.9 L 566.4,76.9 L 569.1,76.9 L 571.9,76.9 L 574.6,80.6 L 577.3,75.3 L 580.0,79.9" stroke="#3E5640" stroke-width="1.5" fill="none"/><line x1="20" y1="180" x2="580" y2="180" stroke="#0E0E0E33"/><text x="20" y="195" font-family="sans-serif" font-size="10" fill="#7A7570">Powered by RateRadar · rateradar-web.vercel.app</text></svg>