<svg xmlns="http://www.w3.org/2000/svg" viewBox="0 0 600 200" width="600" height="200" role="img" aria-label="RateRadar live odds for FED 2026-09-16"><rect width="600" height="200" fill="#F5F1E8"/><text x="20" y="30" font-family="sans-serif" font-size="11" letter-spacing="1.5" fill="#7A7570">FEDERAL RESERVE · SEP 16, 2026</text><text x="20" y="80" font-family="Georgia, serif" font-size="32" fill="#0E0E0E">Move +25bp</text><text x="20" y="130" font-family="monospace" font-size="42" fill="#A8312A">51%</text><text x="20" y="155" font-family="sans-serif" font-size="11" fill="#7A7570">market-implied probability</text><path d="M 360.0,140.0 L 363.1,140.0 L 366.2,140.0 L 369.3,140.0 L 372.4,140.0 L 375.5,140.0 L 378.6,140.0 L 381.7,140.0 L 384.8,140.0 L 387.9,140.0 L 391.0,140.0 L 394.1,140.0 L 397.2,140.0 L 400.3,140.0 L 403.4,140.0 L 406.5,140.0 L 409.6,140.0 L 412.7,140.0 L 415.8,140.0 L 418.9,140.0 L 422.0,140.0 L 425.1,140.0 L 428.2,140.0 L 431.3,140.0 L 434.4,140.0 L 437.5,140.0 L 440.6,140.0 L 443.7,140.0 L 446.8,140.0 L 449.9,140.0 L 453.0,140.0 L 456.1,122.9 L 459.2,122.9 L 462.3,122.9 L 465.4,122.9 L 468.5,126.3 L 471.5,129.7 L 474.6,116.0 L 477.7,112.6 L 480.8,112.6 L 483.9,109.1 L 487.0,112.6 L 490.1,112.6 L 493.2,116.0 L 496.3,116.0 L 499.4,119.4 L 502.5,119.4 L 505.6,119.4 L 508.7,119.4 L 511.8,122.9 L 514.9,119.4 L 518.0,119.4 L 521.1,122.9 L 524.2,102.3 L 527.3,98.9 L 530.4,98.9 L 533.5,98.9 L 536.6,95.4 L 539.7,95.4 L 542.8,92.0 L 545.9,88.6 L 549.0,95.4 L 552.1,95.4 L 555.2,95.4 L 558.3,102.3 L 561.4,102.3 L 564.5,98.9 L 567.6,102.3 L 570.7,102.3 L 573.8,102.3 L 576.9,102.3 L 580.0,98.9" stroke="#A8312A" stroke-width="1.5" fill="none"/><line x1="20" y1="180" x2="580" y2="180" stroke="#0E0E0E33"/><text x="20" y="195" font-family="sans-serif" font-size="10" fill="#7A7570">Powered by RateRadar · rateradar-web.vercel.app</text></svg>