<svg xmlns="http://www.w3.org/2000/svg" viewBox="0 0 600 200" width="600" height="200" role="img" aria-label="RateRadar live odds for FED 2026-06-17"><rect width="600" height="200" fill="#F5F1E8"/><text x="20" y="30" font-family="sans-serif" font-size="11" letter-spacing="1.5" fill="#7A7570">FEDERAL RESERVE · JUN 17, 2026</text><text x="20" y="80" font-family="Georgia, serif" font-size="32" fill="#0E0E0E">Move -25bp</text><text x="20" y="130" font-family="monospace" font-size="42" fill="#C8841C">55%</text><text x="20" y="155" font-family="sans-serif" font-size="11" fill="#7A7570">market-implied probability</text><path d="M 360.0,95.7 L 371.0,95.7 L 382.0,95.7 L 393.0,95.7 L 404.0,95.7 L 415.0,95.7 L 426.0,95.7 L 437.0,95.7 L 448.0,95.7 L 459.0,95.7 L 470.0,95.7 L 481.0,95.7 L 492.0,95.7 L 503.0,95.7 L 514.0,95.7 L 525.0,95.7 L 536.0,95.7 L 547.0,95.7 L 558.0,95.7 L 569.0,95.7 L 580.0,95.7" stroke="#C8841C" stroke-width="1.5" fill="none"/><line x1="20" y1="180" x2="580" y2="180" stroke="#0E0E0E33"/><text x="20" y="195" font-family="sans-serif" font-size="10" fill="#7A7570">Powered by RateRadar · rateradar-web.vercel.app</text></svg>