<svg xmlns="http://www.w3.org/2000/svg" viewBox="0 0 600 200" width="600" height="200" role="img" aria-label="RateRadar live odds for FED 2026-09-16"><rect width="600" height="200" fill="#F5F1E8"/><text x="20" y="30" font-family="sans-serif" font-size="11" letter-spacing="1.5" fill="#7A7570">FEDERAL RESERVE · SEP 16, 2026</text><text x="20" y="80" font-family="Georgia, serif" font-size="32" fill="#0E0E0E">Move +25bp</text><text x="20" y="130" font-family="monospace" font-size="42" fill="#A8312A">73%</text><text x="20" y="155" font-family="sans-serif" font-size="11" fill="#7A7570">market-implied probability</text><path d="M 360.0,140.0 L 362.1,140.0 L 364.2,140.0 L 366.2,140.0 L 368.3,140.0 L 370.4,140.0 L 372.5,140.0 L 374.5,140.0 L 376.6,140.0 L 378.7,140.0 L 380.8,140.0 L 382.8,140.0 L 384.9,140.0 L 387.0,140.0 L 389.1,140.0 L 391.1,140.0 L 393.2,140.0 L 395.3,140.0 L 397.4,140.0 L 399.4,140.0 L 401.5,140.0 L 403.6,140.0 L 405.7,140.0 L 407.7,140.0 L 409.8,140.0 L 411.9,140.0 L 414.0,140.0 L 416.0,140.0 L 418.1,140.0 L 420.2,140.0 L 422.3,140.0 L 424.3,122.9 L 426.4,122.9 L 428.5,122.9 L 430.6,122.9 L 432.6,126.3 L 434.7,129.7 L 436.8,116.0 L 438.9,112.6 L 440.9,112.6 L 443.0,109.1 L 445.1,112.6 L 447.2,112.6 L 449.2,116.0 L 451.3,116.0 L 453.4,119.4 L 455.5,119.4 L 457.5,119.4 L 459.6,119.4 L 461.7,122.9 L 463.8,119.4 L 465.8,119.4 L 467.9,122.9 L 470.0,102.3 L 472.1,98.9 L 474.2,98.9 L 476.2,98.9 L 478.3,95.4 L 480.4,95.4 L 482.5,92.0 L 484.5,88.6 L 486.6,95.4 L 488.7,95.4 L 490.8,95.4 L 492.8,102.3 L 494.9,102.3 L 497.0,98.9 L 499.1,102.3 L 501.1,102.3 L 503.2,102.3 L 505.3,102.3 L 507.4,98.9 L 509.4,95.4 L 511.5,98.9 L 513.6,98.9 L 515.7,105.7 L 517.7,105.7 L 519.8,105.7 L 521.9,105.7 L 524.0,112.6 L 526.0,105.7 L 528.1,102.3 L 530.2,102.3 L 532.3,98.9 L 534.3,98.9 L 536.4,98.9 L 538.5,98.9 L 540.6,98.9 L 542.6,98.9 L 544.7,95.4 L 546.8,95.4 L 548.9,98.9 L 550.9,98.9 L 553.0,109.1 L 555.1,102.3 L 557.2,98.9 L 559.2,105.7 L 561.3,98.9 L 563.4,98.9 L 565.5,98.9 L 567.5,98.9 L 569.6,92.0 L 571.7,92.0 L 573.8,92.0 L 575.8,88.6 L 577.9,81.7 L 580.0,81.7" stroke="#A8312A" stroke-width="1.5" fill="none"/><line x1="20" y1="180" x2="580" y2="180" stroke="#0E0E0E33"/><text x="20" y="195" font-family="sans-serif" font-size="10" fill="#7A7570">Powered by RateRadar · rateradar-web.vercel.app</text></svg>