<svg xmlns="http://www.w3.org/2000/svg" viewBox="0 0 600 200" width="600" height="200" role="img" aria-label="RateRadar live odds for FED 2026-12-09"><rect width="600" height="200" fill="#F5F1E8"/><text x="20" y="30" font-family="sans-serif" font-size="11" letter-spacing="1.5" fill="#7A7570">FEDERAL RESERVE · DEC 09, 2026</text><text x="20" y="80" font-family="Georgia, serif" font-size="32" fill="#0E0E0E">Hold rates</text><text x="20" y="130" font-family="monospace" font-size="42" fill="#3E5640">56%</text><text x="20" y="155" font-family="sans-serif" font-size="11" fill="#7A7570">market-implied probability</text><path d="M 360.0,140.0 L 363.7,140.0 L 367.5,140.0 L 371.2,140.0 L 374.9,140.0 L 378.6,140.0 L 382.4,140.0 L 386.1,140.0 L 389.8,140.0 L 393.6,140.0 L 397.3,140.0 L 401.0,140.0 L 404.7,140.0 L 408.5,140.0 L 412.2,140.0 L 415.9,140.0 L 419.7,140.0 L 423.4,140.0 L 427.1,140.0 L 430.8,140.0 L 434.6,140.0 L 438.3,140.0 L 442.0,140.0 L 445.8,140.0 L 449.5,140.0 L 453.2,140.0 L 456.9,140.0 L 460.7,140.0 L 464.4,140.0 L 468.1,140.0 L 471.9,140.0 L 475.6,85.6 L 479.3,87.2 L 483.1,87.2 L 486.8,85.6 L 490.5,82.4 L 494.2,82.4 L 498.0,95.2 L 501.7,93.6 L 505.4,95.2 L 509.2,95.2 L 512.9,90.4 L 516.6,88.8 L 520.3,93.6 L 524.1,93.6 L 527.8,85.6 L 531.5,87.2 L 535.3,90.4 L 539.0,88.8 L 542.7,87.2 L 546.4,88.8 L 550.2,90.4 L 553.9,88.8 L 557.6,100.0 L 561.4,100.0 L 565.1,95.2 L 568.8,92.0 L 572.5,95.2 L 576.3,95.2 L 580.0,95.2" stroke="#3E5640" stroke-width="1.5" fill="none"/><line x1="20" y1="180" x2="580" y2="180" stroke="#0E0E0E33"/><text x="20" y="195" font-family="sans-serif" font-size="10" fill="#7A7570">Powered by RateRadar · rateradar-web.vercel.app</text></svg>