<svg xmlns="http://www.w3.org/2000/svg" viewBox="0 0 600 200" width="600" height="200" role="img" aria-label="RateRadar live odds for FED 2026-12-09"><rect width="600" height="200" fill="#F5F1E8"/><text x="20" y="30" font-family="sans-serif" font-size="11" letter-spacing="1.5" fill="#7A7570">FEDERAL RESERVE · DEC 09, 2026</text><text x="20" y="80" font-family="Georgia, serif" font-size="32" fill="#0E0E0E">Hold rates</text><text x="20" y="130" font-family="monospace" font-size="42" fill="#3E5640">50%</text><text x="20" y="155" font-family="sans-serif" font-size="11" fill="#7A7570">market-implied probability</text><path d="M 360.0,140.0 L 364.1,140.0 L 368.1,140.0 L 372.2,140.0 L 376.3,140.0 L 380.4,140.0 L 384.4,140.0 L 388.5,140.0 L 392.6,140.0 L 396.7,140.0 L 400.7,140.0 L 404.8,140.0 L 408.9,140.0 L 413.0,140.0 L 417.0,140.0 L 421.1,140.0 L 425.2,140.0 L 429.3,140.0 L 433.3,140.0 L 437.4,140.0 L 441.5,140.0 L 445.6,140.0 L 449.6,140.0 L 453.7,140.0 L 457.8,140.0 L 461.9,140.0 L 465.9,140.0 L 470.0,140.0 L 474.1,140.0 L 478.1,140.0 L 482.2,140.0 L 486.3,85.6 L 490.4,87.2 L 494.4,87.2 L 498.5,85.6 L 502.6,82.4 L 506.7,82.4 L 510.7,95.2 L 514.8,93.6 L 518.9,95.2 L 523.0,95.2 L 527.0,90.4 L 531.1,88.8 L 535.2,93.6 L 539.3,93.6 L 543.3,85.6 L 547.4,87.2 L 551.5,90.4 L 555.6,88.8 L 559.6,87.2 L 563.7,88.8 L 567.8,90.4 L 571.9,88.8 L 575.9,100.0 L 580.0,100.0" stroke="#3E5640" stroke-width="1.5" fill="none"/><line x1="20" y1="180" x2="580" y2="180" stroke="#0E0E0E33"/><text x="20" y="195" font-family="sans-serif" font-size="10" fill="#7A7570">Powered by RateRadar · rateradar-web.vercel.app</text></svg>