<svg xmlns="http://www.w3.org/2000/svg" viewBox="0 0 600 200" width="600" height="200" role="img" aria-label="RateRadar live odds for FED 2026-09-16"><rect width="600" height="200" fill="#F5F1E8"/><text x="20" y="30" font-family="sans-serif" font-size="11" letter-spacing="1.5" fill="#7A7570">FEDERAL RESERVE · SEP 16, 2026</text><text x="20" y="80" font-family="Georgia, serif" font-size="32" fill="#0E0E0E">Move +25bp</text><text x="20" y="130" font-family="monospace" font-size="42" fill="#A8312A">51%</text><text x="20" y="155" font-family="sans-serif" font-size="11" fill="#7A7570">market-implied probability</text><path d="M 360.0,140.0 L 362.2,140.0 L 364.5,140.0 L 366.7,140.0 L 369.0,140.0 L 371.2,140.0 L 373.5,140.0 L 375.7,140.0 L 378.0,140.0 L 380.2,140.0 L 382.4,140.0 L 384.7,140.0 L 386.9,140.0 L 389.2,140.0 L 391.4,140.0 L 393.7,140.0 L 395.9,140.0 L 398.2,140.0 L 400.4,140.0 L 402.7,140.0 L 404.9,140.0 L 407.1,140.0 L 409.4,140.0 L 411.6,140.0 L 413.9,140.0 L 416.1,140.0 L 418.4,140.0 L 420.6,140.0 L 422.9,140.0 L 425.1,140.0 L 427.3,140.0 L 429.6,122.9 L 431.8,122.9 L 434.1,122.9 L 436.3,122.9 L 438.6,126.3 L 440.8,129.7 L 443.1,116.0 L 445.3,112.6 L 447.6,112.6 L 449.8,109.1 L 452.0,112.6 L 454.3,112.6 L 456.5,116.0 L 458.8,116.0 L 461.0,119.4 L 463.3,119.4 L 465.5,119.4 L 467.8,119.4 L 470.0,122.9 L 472.2,119.4 L 474.5,119.4 L 476.7,122.9 L 479.0,102.3 L 481.2,98.9 L 483.5,98.9 L 485.7,98.9 L 488.0,95.4 L 490.2,95.4 L 492.4,92.0 L 494.7,88.6 L 496.9,95.4 L 499.2,95.4 L 501.4,95.4 L 503.7,102.3 L 505.9,102.3 L 508.2,98.9 L 510.4,102.3 L 512.7,102.3 L 514.9,102.3 L 517.1,102.3 L 519.4,98.9 L 521.6,95.4 L 523.9,98.9 L 526.1,98.9 L 528.4,105.7 L 530.6,105.7 L 532.9,105.7 L 535.1,105.7 L 537.3,112.6 L 539.6,105.7 L 541.8,102.3 L 544.1,102.3 L 546.3,98.9 L 548.6,98.9 L 550.8,98.9 L 553.1,98.9 L 555.3,98.9 L 557.6,98.9 L 559.8,95.4 L 562.0,95.4 L 564.3,98.9 L 566.5,98.9 L 568.8,109.1 L 571.0,102.3 L 573.3,98.9 L 575.5,105.7 L 577.8,98.9 L 580.0,98.9" stroke="#A8312A" stroke-width="1.5" fill="none"/><line x1="20" y1="180" x2="580" y2="180" stroke="#0E0E0E33"/><text x="20" y="195" font-family="sans-serif" font-size="10" fill="#7A7570">Powered by RateRadar · rateradar-web.vercel.app</text></svg>