<svg xmlns="http://www.w3.org/2000/svg" viewBox="0 0 600 200" width="600" height="200" role="img" aria-label="RateRadar live odds for FED 2026-09-16"><rect width="600" height="200" fill="#F5F1E8"/><text x="20" y="30" font-family="sans-serif" font-size="11" letter-spacing="1.5" fill="#7A7570">FEDERAL RESERVE · SEP 16, 2026</text><text x="20" y="80" font-family="Georgia, serif" font-size="32" fill="#0E0E0E">Hold rates</text><text x="20" y="130" font-family="monospace" font-size="42" fill="#3E5640">53%</text><text x="20" y="155" font-family="sans-serif" font-size="11" fill="#7A7570">market-implied probability</text><path d="M 360.0,140.0 L 363.4,140.0 L 366.9,140.0 L 370.3,140.0 L 373.8,140.0 L 377.2,140.0 L 380.6,140.0 L 384.1,140.0 L 387.5,140.0 L 390.9,140.0 L 394.4,140.0 L 397.8,140.0 L 401.2,140.0 L 404.7,140.0 L 408.1,140.0 L 411.6,140.0 L 415.0,140.0 L 418.4,140.0 L 421.9,140.0 L 425.3,140.0 L 428.8,140.0 L 432.2,140.0 L 435.6,140.0 L 439.1,140.0 L 442.5,140.0 L 445.9,140.0 L 449.4,140.0 L 452.8,140.0 L 456.2,140.0 L 459.7,140.0 L 463.1,140.0 L 466.6,77.1 L 470.0,77.1 L 473.4,77.1 L 476.9,77.1 L 480.3,73.7 L 483.8,70.3 L 487.2,84.0 L 490.6,87.4 L 494.1,87.4 L 497.5,90.9 L 500.9,87.4 L 504.4,87.4 L 507.8,84.0 L 511.2,84.0 L 514.7,80.6 L 518.1,80.6 L 521.6,80.6 L 525.0,80.6 L 528.4,77.1 L 531.9,80.6 L 535.3,80.6 L 538.8,77.1 L 542.2,97.7 L 545.6,101.1 L 549.1,101.1 L 552.5,101.1 L 555.9,104.6 L 559.4,104.6 L 562.8,108.0 L 566.2,111.4 L 569.7,104.6 L 573.1,104.6 L 576.6,104.6 L 580.0,97.7" stroke="#3E5640" stroke-width="1.5" fill="none"/><line x1="20" y1="180" x2="580" y2="180" stroke="#0E0E0E33"/><text x="20" y="195" font-family="sans-serif" font-size="10" fill="#7A7570">Powered by RateRadar · rateradar-web.vercel.app</text></svg>