<svg xmlns="http://www.w3.org/2000/svg" viewBox="0 0 600 200" width="600" height="200" role="img" aria-label="RateRadar live odds for FED 2026-10-28"><rect width="600" height="200" fill="#F5F1E8"/><text x="20" y="30" font-family="sans-serif" font-size="11" letter-spacing="1.5" fill="#7A7570">FEDERAL RESERVE · OCT 28, 2026</text><text x="20" y="80" font-family="Georgia, serif" font-size="32" fill="#0E0E0E">Hold rates</text><text x="20" y="130" font-family="monospace" font-size="42" fill="#3E5640">70%</text><text x="20" y="155" font-family="sans-serif" font-size="11" fill="#7A7570">market-implied probability</text><path d="M 360.0,140.0 L 362.2,140.0 L 364.4,140.0 L 366.5,140.0 L 368.7,140.0 L 370.9,140.0 L 373.1,140.0 L 375.2,140.0 L 377.4,140.0 L 379.6,140.0 L 381.8,140.0 L 384.0,140.0 L 386.1,140.0 L 388.3,140.0 L 390.5,140.0 L 392.7,140.0 L 394.9,140.0 L 397.0,140.0 L 399.2,140.0 L 401.4,140.0 L 403.6,140.0 L 405.7,140.0 L 407.9,140.0 L 410.1,140.0 L 412.3,140.0 L 414.5,140.0 L 416.6,140.0 L 418.8,140.0 L 421.0,140.0 L 423.2,140.0 L 425.3,140.0 L 427.5,70.1 L 429.7,70.1 L 431.9,71.7 L 434.1,71.7 L 436.2,70.3 L 438.4,73.7 L 440.6,77.6 L 442.8,72.6 L 445.0,75.8 L 447.1,73.9 L 449.3,72.6 L 451.5,74.2 L 453.7,74.4 L 455.8,77.6 L 458.0,66.6 L 460.2,65.0 L 462.4,68.2 L 464.6,68.2 L 466.7,70.1 L 468.9,66.6 L 471.1,66.6 L 473.3,71.7 L 475.4,79.9 L 477.6,79.7 L 479.8,79.7 L 482.0,78.1 L 484.2,82.6 L 486.3,82.6 L 488.5,82.4 L 490.7,79.0 L 492.9,77.8 L 495.0,81.0 L 497.2,74.6 L 499.4,79.9 L 501.6,78.3 L 503.8,76.5 L 505.9,71.9 L 508.1,75.1 L 510.3,75.1 L 512.5,76.7 L 514.7,78.1 L 516.8,77.8 L 519.0,78.1 L 521.2,79.7 L 523.4,76.9 L 525.5,76.9 L 527.7,76.9 L 529.9,76.9 L 532.1,80.6 L 534.3,75.3 L 536.4,79.9 L 538.6,78.3 L 540.8,79.7 L 543.0,82.9 L 545.1,76.5 L 547.3,76.5 L 549.5,79.7 L 551.7,79.7 L 553.9,84.2 L 556.0,82.6 L 558.2,74.9 L 560.4,74.9 L 562.6,77.1 L 564.8,75.1 L 566.9,74.9 L 569.1,76.9 L 571.3,79.7 L 573.5,79.7 L 575.6,84.5 L 577.8,82.9 L 580.0,84.0" stroke="#3E5640" stroke-width="1.5" fill="none"/><line x1="20" y1="180" x2="580" y2="180" stroke="#0E0E0E33"/><text x="20" y="195" font-family="sans-serif" font-size="10" fill="#7A7570">Powered by RateRadar · rateradar-web.vercel.app</text></svg>