<svg xmlns="http://www.w3.org/2000/svg" viewBox="0 0 600 200" width="600" height="200" role="img" aria-label="RateRadar live odds for FED 2026-09-16"><rect width="600" height="200" fill="#F5F1E8"/><text x="20" y="30" font-family="sans-serif" font-size="11" letter-spacing="1.5" fill="#7A7570">FEDERAL RESERVE · SEP 16, 2026</text><text x="20" y="80" font-family="Georgia, serif" font-size="32" fill="#0E0E0E">Move +25bp</text><text x="20" y="130" font-family="monospace" font-size="42" fill="#A8312A">56%</text><text x="20" y="155" font-family="sans-serif" font-size="11" fill="#7A7570">market-implied probability</text><path d="M 360.0,140.0 L 363.5,140.0 L 367.0,140.0 L 370.5,140.0 L 374.0,140.0 L 377.5,140.0 L 381.0,140.0 L 384.4,140.0 L 387.9,140.0 L 391.4,140.0 L 394.9,140.0 L 398.4,140.0 L 401.9,140.0 L 405.4,140.0 L 408.9,140.0 L 412.4,140.0 L 415.9,140.0 L 419.4,140.0 L 422.9,140.0 L 426.3,140.0 L 429.8,140.0 L 433.3,140.0 L 436.8,140.0 L 440.3,140.0 L 443.8,140.0 L 447.3,140.0 L 450.8,140.0 L 454.3,140.0 L 457.8,140.0 L 461.3,140.0 L 464.8,140.0 L 468.3,122.9 L 471.7,122.9 L 475.2,122.9 L 478.7,122.9 L 482.2,126.3 L 485.7,129.7 L 489.2,116.0 L 492.7,112.6 L 496.2,112.6 L 499.7,109.1 L 503.2,112.6 L 506.7,112.6 L 510.2,116.0 L 513.7,116.0 L 517.1,119.4 L 520.6,119.4 L 524.1,119.4 L 527.6,119.4 L 531.1,122.9 L 534.6,119.4 L 538.1,119.4 L 541.6,122.9 L 545.1,102.3 L 548.6,98.9 L 552.1,98.9 L 555.6,98.9 L 559.0,95.4 L 562.5,95.4 L 566.0,92.0 L 569.5,88.6 L 573.0,95.4 L 576.5,95.4 L 580.0,95.4" stroke="#A8312A" stroke-width="1.5" fill="none"/><line x1="20" y1="180" x2="580" y2="180" stroke="#0E0E0E33"/><text x="20" y="195" font-family="sans-serif" font-size="10" fill="#7A7570">Powered by RateRadar · rateradar-web.vercel.app</text></svg>