<svg xmlns="http://www.w3.org/2000/svg" viewBox="0 0 600 200" width="600" height="200" role="img" aria-label="RateRadar live odds for FED 2026-09-16"><rect width="600" height="200" fill="#F5F1E8"/><text x="20" y="30" font-family="sans-serif" font-size="11" letter-spacing="1.5" fill="#7A7570">FEDERAL RESERVE · SEP 16, 2026</text><text x="20" y="80" font-family="Georgia, serif" font-size="32" fill="#0E0E0E">Hold rates</text><text x="20" y="130" font-family="monospace" font-size="42" fill="#3E5640">57%</text><text x="20" y="155" font-family="sans-serif" font-size="11" fill="#7A7570">market-implied probability</text><path d="M 360.0,140.0 L 362.9,140.0 L 365.9,140.0 L 368.8,140.0 L 371.7,140.0 L 374.7,140.0 L 377.6,140.0 L 380.5,140.0 L 383.5,140.0 L 386.4,140.0 L 389.3,140.0 L 392.3,140.0 L 395.2,140.0 L 398.1,140.0 L 401.1,140.0 L 404.0,140.0 L 406.9,140.0 L 409.9,140.0 L 412.8,140.0 L 415.7,140.0 L 418.7,140.0 L 421.6,140.0 L 424.5,140.0 L 427.5,140.0 L 430.4,140.0 L 433.3,140.0 L 436.3,140.0 L 439.2,140.0 L 442.1,140.0 L 445.1,140.0 L 448.0,140.0 L 450.9,77.1 L 453.9,77.1 L 456.8,77.1 L 459.7,77.1 L 462.7,73.7 L 465.6,70.3 L 468.5,84.0 L 471.5,87.4 L 474.4,87.4 L 477.3,90.9 L 480.3,87.4 L 483.2,87.4 L 486.1,84.0 L 489.1,84.0 L 492.0,80.6 L 494.9,80.6 L 497.9,80.6 L 500.8,80.6 L 503.7,77.1 L 506.7,80.6 L 509.6,80.6 L 512.5,77.1 L 515.5,97.7 L 518.4,101.1 L 521.3,101.1 L 524.3,101.1 L 527.2,104.6 L 530.1,104.6 L 533.1,108.0 L 536.0,111.4 L 538.9,104.6 L 541.9,104.6 L 544.8,104.6 L 547.7,97.7 L 550.7,97.7 L 553.6,101.1 L 556.5,97.7 L 559.5,97.7 L 562.4,97.7 L 565.3,97.7 L 568.3,101.1 L 571.2,104.6 L 574.1,101.1 L 577.1,101.1 L 580.0,94.3" stroke="#3E5640" stroke-width="1.5" fill="none"/><line x1="20" y1="180" x2="580" y2="180" stroke="#0E0E0E33"/><text x="20" y="195" font-family="sans-serif" font-size="10" fill="#7A7570">Powered by RateRadar · rateradar-web.vercel.app</text></svg>