<svg xmlns="http://www.w3.org/2000/svg" viewBox="0 0 600 200" width="600" height="200" role="img" aria-label="RateRadar live odds for FED 2026-12-09"><rect width="600" height="200" fill="#F5F1E8"/><text x="20" y="30" font-family="sans-serif" font-size="11" letter-spacing="1.5" fill="#7A7570">FEDERAL RESERVE · DEC 09, 2026</text><text x="20" y="80" font-family="Georgia, serif" font-size="32" fill="#0E0E0E">Hold rates</text><text x="20" y="130" font-family="monospace" font-size="42" fill="#3E5640">56%</text><text x="20" y="155" font-family="sans-serif" font-size="11" fill="#7A7570">market-implied probability</text><path d="M 360.0,140.0 L 362.1,140.0 L 364.2,140.0 L 366.3,140.0 L 368.4,140.0 L 370.5,140.0 L 372.6,140.0 L 374.7,140.0 L 376.8,140.0 L 378.9,140.0 L 381.0,140.0 L 383.0,140.0 L 385.1,140.0 L 387.2,140.0 L 389.3,140.0 L 391.4,140.0 L 393.5,140.0 L 395.6,140.0 L 397.7,140.0 L 399.8,140.0 L 401.9,140.0 L 404.0,140.0 L 406.1,140.0 L 408.2,140.0 L 410.3,140.0 L 412.4,140.0 L 414.5,140.0 L 416.6,140.0 L 418.7,140.0 L 420.8,140.0 L 422.9,140.0 L 425.0,85.6 L 427.0,87.2 L 429.1,87.2 L 431.2,85.6 L 433.3,82.4 L 435.4,82.4 L 437.5,95.2 L 439.6,93.6 L 441.7,95.2 L 443.8,95.2 L 445.9,90.4 L 448.0,88.8 L 450.1,93.6 L 452.2,93.6 L 454.3,85.6 L 456.4,87.2 L 458.5,90.4 L 460.6,88.8 L 462.7,87.2 L 464.8,88.8 L 466.9,90.4 L 469.0,88.8 L 471.0,100.0 L 473.1,100.0 L 475.2,95.2 L 477.3,92.0 L 479.4,95.2 L 481.5,95.2 L 483.6,95.2 L 485.7,92.0 L 487.8,88.8 L 489.9,88.8 L 492.0,87.2 L 494.1,88.8 L 496.2,87.2 L 498.3,88.8 L 500.4,85.6 L 502.5,85.6 L 504.6,87.2 L 506.7,87.2 L 508.8,90.4 L 510.9,90.4 L 513.0,93.6 L 515.0,93.6 L 517.1,92.0 L 519.2,92.0 L 521.3,90.4 L 523.4,90.4 L 525.5,85.6 L 527.6,87.2 L 529.7,90.4 L 531.8,93.6 L 533.9,92.0 L 536.0,93.6 L 538.1,90.4 L 540.2,92.0 L 542.3,92.0 L 544.4,92.0 L 546.5,93.6 L 548.6,95.2 L 550.7,90.4 L 552.8,90.4 L 554.9,85.6 L 557.0,85.6 L 559.0,87.2 L 561.1,87.2 L 563.2,90.4 L 565.3,90.4 L 567.4,92.0 L 569.5,92.0 L 571.6,93.6 L 573.7,95.2 L 575.8,93.6 L 577.9,93.6 L 580.0,95.2" stroke="#3E5640" stroke-width="1.5" fill="none"/><line x1="20" y1="180" x2="580" y2="180" stroke="#0E0E0E33"/><text x="20" y="195" font-family="sans-serif" font-size="10" fill="#7A7570">Powered by RateRadar · rateradar-web.vercel.app</text></svg>