<svg xmlns="http://www.w3.org/2000/svg" viewBox="0 0 600 200" width="600" height="200" role="img" aria-label="RateRadar live odds for FED 2026-12-09"><rect width="600" height="200" fill="#F5F1E8"/><text x="20" y="30" font-family="sans-serif" font-size="11" letter-spacing="1.5" fill="#7A7570">FEDERAL RESERVE · DEC 09, 2026</text><text x="20" y="80" font-family="Georgia, serif" font-size="32" fill="#0E0E0E">Hold rates</text><text x="20" y="130" font-family="monospace" font-size="42" fill="#3E5640">60%</text><text x="20" y="155" font-family="sans-serif" font-size="11" fill="#7A7570">market-implied probability</text><path d="M 360.0,140.0 L 363.7,140.0 L 367.3,140.0 L 371.0,140.0 L 374.7,140.0 L 378.3,140.0 L 382.0,140.0 L 385.7,140.0 L 389.3,140.0 L 393.0,140.0 L 396.7,140.0 L 400.3,140.0 L 404.0,140.0 L 407.7,140.0 L 411.3,140.0 L 415.0,140.0 L 418.7,140.0 L 422.3,140.0 L 426.0,140.0 L 429.7,140.0 L 433.3,140.0 L 437.0,140.0 L 440.7,140.0 L 444.3,140.0 L 448.0,140.0 L 451.7,140.0 L 455.3,140.0 L 459.0,140.0 L 462.7,140.0 L 466.3,140.0 L 470.0,140.0 L 473.7,85.6 L 477.3,87.2 L 481.0,87.2 L 484.7,85.6 L 488.3,82.4 L 492.0,82.4 L 495.7,95.2 L 499.3,93.6 L 503.0,95.2 L 506.7,95.2 L 510.3,90.4 L 514.0,88.8 L 517.7,93.6 L 521.3,93.6 L 525.0,85.6 L 528.7,87.2 L 532.3,90.4 L 536.0,88.8 L 539.7,87.2 L 543.3,88.8 L 547.0,90.4 L 550.7,88.8 L 554.3,100.0 L 558.0,100.0 L 561.7,95.2 L 565.3,92.0 L 569.0,95.2 L 572.7,95.2 L 576.3,95.2 L 580.0,92.0" stroke="#3E5640" stroke-width="1.5" fill="none"/><line x1="20" y1="180" x2="580" y2="180" stroke="#0E0E0E33"/><text x="20" y="195" font-family="sans-serif" font-size="10" fill="#7A7570">Powered by RateRadar · rateradar-web.vercel.app</text></svg>