<svg xmlns="http://www.w3.org/2000/svg" viewBox="0 0 600 200" width="600" height="200" role="img" aria-label="RateRadar live odds for FED 2026-10-28"><rect width="600" height="200" fill="#F5F1E8"/><text x="20" y="30" font-family="sans-serif" font-size="11" letter-spacing="1.5" fill="#7A7570">FEDERAL RESERVE · OCT 28, 2026</text><text x="20" y="80" font-family="Georgia, serif" font-size="32" fill="#0E0E0E">Hold rates</text><text x="20" y="130" font-family="monospace" font-size="42" fill="#3E5640">77%</text><text x="20" y="155" font-family="sans-serif" font-size="11" fill="#7A7570">market-implied probability</text><path d="M 360.0,140.0 L 363.1,140.0 L 366.2,140.0 L 369.3,140.0 L 372.4,140.0 L 375.5,140.0 L 378.6,140.0 L 381.7,140.0 L 384.8,140.0 L 387.9,140.0 L 391.0,140.0 L 394.1,140.0 L 397.2,140.0 L 400.3,140.0 L 403.4,140.0 L 406.5,140.0 L 409.6,140.0 L 412.7,140.0 L 415.8,140.0 L 418.9,140.0 L 422.0,140.0 L 425.1,140.0 L 428.2,140.0 L 431.3,140.0 L 434.4,140.0 L 437.5,140.0 L 440.6,140.0 L 443.7,140.0 L 446.8,140.0 L 449.9,140.0 L 453.0,140.0 L 456.1,70.1 L 459.2,70.1 L 462.3,71.7 L 465.4,71.7 L 468.5,70.3 L 471.5,73.7 L 474.6,77.6 L 477.7,72.6 L 480.8,75.8 L 483.9,73.9 L 487.0,72.6 L 490.1,74.2 L 493.2,74.4 L 496.3,77.6 L 499.4,66.6 L 502.5,65.0 L 505.6,68.2 L 508.7,68.2 L 511.8,70.1 L 514.9,66.6 L 518.0,66.6 L 521.1,71.7 L 524.2,79.9 L 527.3,79.7 L 530.4,79.7 L 533.5,78.1 L 536.6,82.6 L 539.7,82.6 L 542.8,82.4 L 545.9,79.0 L 549.0,77.8 L 552.1,81.0 L 555.2,74.6 L 558.3,79.9 L 561.4,78.3 L 564.5,76.5 L 567.6,71.9 L 570.7,75.1 L 573.8,75.1 L 576.9,76.7 L 580.0,78.1" stroke="#3E5640" stroke-width="1.5" fill="none"/><line x1="20" y1="180" x2="580" y2="180" stroke="#0E0E0E33"/><text x="20" y="195" font-family="sans-serif" font-size="10" fill="#7A7570">Powered by RateRadar · rateradar-web.vercel.app</text></svg>