<svg xmlns="http://www.w3.org/2000/svg" viewBox="0 0 600 200" width="600" height="200" role="img" aria-label="RateRadar live odds for FED 2026-09-16"><rect width="600" height="200" fill="#F5F1E8"/><text x="20" y="30" font-family="sans-serif" font-size="11" letter-spacing="1.5" fill="#7A7570">FEDERAL RESERVE · SEP 16, 2026</text><text x="20" y="80" font-family="Georgia, serif" font-size="32" fill="#0E0E0E">Move +25bp</text><text x="20" y="130" font-family="monospace" font-size="42" fill="#A8312A">56%</text><text x="20" y="155" font-family="sans-serif" font-size="11" fill="#7A7570">market-implied probability</text><path d="M 360.0,140.0 L 362.4,140.0 L 364.9,140.0 L 367.3,140.0 L 369.8,140.0 L 372.2,140.0 L 374.7,140.0 L 377.1,140.0 L 379.6,140.0 L 382.0,140.0 L 384.4,140.0 L 386.9,140.0 L 389.3,140.0 L 391.8,140.0 L 394.2,140.0 L 396.7,140.0 L 399.1,140.0 L 401.6,140.0 L 404.0,140.0 L 406.4,140.0 L 408.9,140.0 L 411.3,140.0 L 413.8,140.0 L 416.2,140.0 L 418.7,140.0 L 421.1,140.0 L 423.6,140.0 L 426.0,140.0 L 428.4,140.0 L 430.9,140.0 L 433.3,140.0 L 435.8,122.9 L 438.2,122.9 L 440.7,122.9 L 443.1,122.9 L 445.6,126.3 L 448.0,129.7 L 450.4,116.0 L 452.9,112.6 L 455.3,112.6 L 457.8,109.1 L 460.2,112.6 L 462.7,112.6 L 465.1,116.0 L 467.6,116.0 L 470.0,119.4 L 472.4,119.4 L 474.9,119.4 L 477.3,119.4 L 479.8,122.9 L 482.2,119.4 L 484.7,119.4 L 487.1,122.9 L 489.6,102.3 L 492.0,98.9 L 494.4,98.9 L 496.9,98.9 L 499.3,95.4 L 501.8,95.4 L 504.2,92.0 L 506.7,88.6 L 509.1,95.4 L 511.6,95.4 L 514.0,95.4 L 516.4,102.3 L 518.9,102.3 L 521.3,98.9 L 523.8,102.3 L 526.2,102.3 L 528.7,102.3 L 531.1,102.3 L 533.6,98.9 L 536.0,95.4 L 538.4,98.9 L 540.9,98.9 L 543.3,105.7 L 545.8,105.7 L 548.2,105.7 L 550.7,105.7 L 553.1,112.6 L 555.6,105.7 L 558.0,102.3 L 560.4,102.3 L 562.9,98.9 L 565.3,98.9 L 567.8,98.9 L 570.2,98.9 L 572.7,98.9 L 575.1,98.9 L 577.6,95.4 L 580.0,95.4" stroke="#A8312A" stroke-width="1.5" fill="none"/><line x1="20" y1="180" x2="580" y2="180" stroke="#0E0E0E33"/><text x="20" y="195" font-family="sans-serif" font-size="10" fill="#7A7570">Powered by RateRadar · rateradar-web.vercel.app</text></svg>