<svg xmlns="http://www.w3.org/2000/svg" viewBox="0 0 600 200" width="600" height="200" role="img" aria-label="RateRadar live odds for FED 2026-07-29"><rect width="600" height="200" fill="#F5F1E8"/><text x="20" y="30" font-family="sans-serif" font-size="11" letter-spacing="1.5" fill="#7A7570">FEDERAL RESERVE · JUL 29, 2026</text><text x="20" y="80" font-family="Georgia, serif" font-size="32" fill="#0E0E0E">Hold rates</text><text x="20" y="130" font-family="monospace" font-size="42" fill="#3E5640">68%</text><text x="20" y="155" font-family="sans-serif" font-size="11" fill="#7A7570">market-implied probability</text><path d="M 360.0,140.0 L 362.5,140.0 L 365.1,140.0 L 367.6,140.0 L 370.1,140.0 L 372.6,140.0 L 375.2,140.0 L 377.7,140.0 L 380.2,140.0 L 382.8,140.0 L 385.3,140.0 L 387.8,140.0 L 390.3,140.0 L 392.9,140.0 L 395.4,140.0 L 397.9,140.0 L 400.5,140.0 L 403.0,140.0 L 405.5,140.0 L 408.0,140.0 L 410.6,140.0 L 413.1,140.0 L 415.6,140.0 L 418.2,140.0 L 420.7,140.0 L 423.2,140.0 L 425.7,140.0 L 428.3,140.0 L 430.8,140.0 L 433.3,140.0 L 435.9,140.0 L 438.4,68.2 L 440.9,68.2 L 443.4,69.8 L 446.0,68.2 L 448.5,70.1 L 451.0,68.5 L 453.6,73.3 L 456.1,73.3 L 458.6,73.0 L 461.1,73.0 L 463.7,71.4 L 466.2,71.4 L 468.7,71.4 L 471.3,73.0 L 473.8,66.6 L 476.3,70.1 L 478.9,70.1 L 481.4,68.2 L 483.9,68.0 L 486.4,69.8 L 489.0,71.4 L 491.5,69.8 L 494.0,93.6 L 496.6,87.0 L 499.1,92.0 L 501.6,93.4 L 504.1,93.4 L 506.7,93.4 L 509.2,90.2 L 511.7,90.2 L 514.3,90.2 L 516.8,90.4 L 519.3,87.0 L 521.8,88.6 L 524.4,87.2 L 526.9,85.6 L 529.4,84.0 L 532.0,84.0 L 534.5,85.6 L 537.0,85.6 L 539.5,87.2 L 542.1,87.2 L 544.6,84.0 L 547.1,84.0 L 549.7,76.0 L 552.2,76.0 L 554.7,79.2 L 557.2,79.2 L 559.8,82.4 L 562.3,79.2 L 564.8,82.4 L 567.4,84.0 L 569.9,85.6 L 572.4,84.0 L 574.9,79.2 L 577.5,79.2 L 580.0,85.6" stroke="#3E5640" stroke-width="1.5" fill="none"/><line x1="20" y1="180" x2="580" y2="180" stroke="#0E0E0E33"/><text x="20" y="195" font-family="sans-serif" font-size="10" fill="#7A7570">Powered by RateRadar · rateradar-web.vercel.app</text></svg>