<svg xmlns="http://www.w3.org/2000/svg" viewBox="0 0 600 200" width="600" height="200" role="img" aria-label="RateRadar live odds for FED 2026-12-09"><rect width="600" height="200" fill="#F5F1E8"/><text x="20" y="30" font-family="sans-serif" font-size="11" letter-spacing="1.5" fill="#7A7570">FEDERAL RESERVE · DEC 09, 2026</text><text x="20" y="80" font-family="Georgia, serif" font-size="32" fill="#0E0E0E">Hold rates</text><text x="20" y="130" font-family="monospace" font-size="42" fill="#3E5640">64%</text><text x="20" y="155" font-family="sans-serif" font-size="11" fill="#7A7570">market-implied probability</text><path d="M 360.0,140.0 L 363.4,140.0 L 366.9,140.0 L 370.3,140.0 L 373.8,140.0 L 377.2,140.0 L 380.6,140.0 L 384.1,140.0 L 387.5,140.0 L 390.9,140.0 L 394.4,140.0 L 397.8,140.0 L 401.2,140.0 L 404.7,140.0 L 408.1,140.0 L 411.6,140.0 L 415.0,140.0 L 418.4,140.0 L 421.9,140.0 L 425.3,140.0 L 428.8,140.0 L 432.2,140.0 L 435.6,140.0 L 439.1,140.0 L 442.5,140.0 L 445.9,140.0 L 449.4,140.0 L 452.8,140.0 L 456.2,140.0 L 459.7,140.0 L 463.1,140.0 L 466.6,85.6 L 470.0,87.2 L 473.4,87.2 L 476.9,85.6 L 480.3,82.4 L 483.8,82.4 L 487.2,95.2 L 490.6,93.6 L 494.1,95.2 L 497.5,95.2 L 500.9,90.4 L 504.4,88.8 L 507.8,93.6 L 511.2,93.6 L 514.7,85.6 L 518.1,87.2 L 521.6,90.4 L 525.0,88.8 L 528.4,87.2 L 531.9,88.8 L 535.3,90.4 L 538.8,88.8 L 542.2,100.0 L 545.6,100.0 L 549.1,95.2 L 552.5,92.0 L 555.9,95.2 L 559.4,95.2 L 562.8,95.2 L 566.2,92.0 L 569.7,88.8 L 573.1,88.8 L 576.6,87.2 L 580.0,88.8" stroke="#3E5640" stroke-width="1.5" fill="none"/><line x1="20" y1="180" x2="580" y2="180" stroke="#0E0E0E33"/><text x="20" y="195" font-family="sans-serif" font-size="10" fill="#7A7570">Powered by RateRadar · rateradar-web.vercel.app</text></svg>