<svg xmlns="http://www.w3.org/2000/svg" viewBox="0 0 600 200" width="600" height="200" role="img" aria-label="RateRadar live odds for FED 2026-06-17"><rect width="600" height="200" fill="#F5F1E8"/><text x="20" y="30" font-family="sans-serif" font-size="11" letter-spacing="1.5" fill="#7A7570">FEDERAL RESERVE · JUN 17, 2026</text><text x="20" y="80" font-family="Georgia, serif" font-size="32" fill="#0E0E0E">Hold rates</text><text x="20" y="130" font-family="monospace" font-size="42" fill="#3E5640">98%</text><text x="20" y="155" font-family="sans-serif" font-size="11" fill="#7A7570">market-implied probability</text><path d="M 360.0,104.3 L 365.1,104.3 L 370.2,104.3 L 375.3,104.3 L 380.5,104.3 L 385.6,104.3 L 390.7,104.3 L 395.8,104.3 L 400.9,104.3 L 406.0,104.3 L 411.2,104.3 L 416.3,104.3 L 421.4,104.3 L 426.5,104.3 L 431.6,104.3 L 436.7,104.3 L 441.9,104.3 L 447.0,104.3 L 452.1,104.3 L 457.2,104.3 L 462.3,104.3 L 467.4,104.3 L 472.6,104.3 L 477.7,104.3 L 482.8,104.3 L 487.9,104.3 L 493.0,104.3 L 498.1,104.3 L 503.3,104.3 L 508.4,104.3 L 513.5,104.3 L 518.6,61.8 L 523.7,61.8 L 528.8,61.8 L 534.0,61.8 L 539.1,63.7 L 544.2,63.7 L 549.3,63.7 L 554.4,63.7 L 559.5,61.8 L 564.7,61.8 L 569.8,61.8 L 574.9,61.8 L 580.0,61.8" stroke="#3E5640" stroke-width="1.5" fill="none"/><line x1="20" y1="180" x2="580" y2="180" stroke="#0E0E0E33"/><text x="20" y="195" font-family="sans-serif" font-size="10" fill="#7A7570">Powered by RateRadar · rateradar-web.vercel.app</text></svg>