<svg xmlns="http://www.w3.org/2000/svg" viewBox="0 0 600 200" width="600" height="200" role="img" aria-label="RateRadar live odds for FED 2026-12-09"><rect width="600" height="200" fill="#F5F1E8"/><text x="20" y="30" font-family="sans-serif" font-size="11" letter-spacing="1.5" fill="#7A7570">FEDERAL RESERVE · DEC 09, 2026</text><text x="20" y="80" font-family="Georgia, serif" font-size="32" fill="#0E0E0E">Hold rates</text><text x="20" y="130" font-family="monospace" font-size="42" fill="#3E5640">66%</text><text x="20" y="155" font-family="sans-serif" font-size="11" fill="#7A7570">market-implied probability</text><path d="M 360.0,140.0 L 364.8,140.0 L 369.6,140.0 L 374.3,140.0 L 379.1,140.0 L 383.9,140.0 L 388.7,140.0 L 393.5,140.0 L 398.3,140.0 L 403.0,140.0 L 407.8,140.0 L 412.6,140.0 L 417.4,140.0 L 422.2,140.0 L 427.0,140.0 L 431.7,140.0 L 436.5,140.0 L 441.3,140.0 L 446.1,140.0 L 450.9,140.0 L 455.7,140.0 L 460.4,140.0 L 465.2,140.0 L 470.0,140.0 L 474.8,140.0 L 479.6,140.0 L 484.3,140.0 L 489.1,140.0 L 493.9,140.0 L 498.7,140.0 L 503.5,140.0 L 508.3,85.6 L 513.0,87.2 L 517.8,87.2 L 522.6,85.6 L 527.4,82.4 L 532.2,82.4 L 537.0,95.2 L 541.7,93.6 L 546.5,95.2 L 551.3,95.2 L 556.1,90.4 L 560.9,88.8 L 565.7,93.6 L 570.4,93.6 L 575.2,85.6 L 580.0,87.2" stroke="#3E5640" stroke-width="1.5" fill="none"/><line x1="20" y1="180" x2="580" y2="180" stroke="#0E0E0E33"/><text x="20" y="195" font-family="sans-serif" font-size="10" fill="#7A7570">Powered by RateRadar · rateradar-web.vercel.app</text></svg>